<svg id="Layer_1" data-name="Layer 1" xmlns="http://www.w3.org/2000/svg" viewBox="0 0 757.96 496.93"><defs><style>.cls-1{fill:#fbc23f;}</style></defs><path class="cls-1" d="M751.05,457.09c-1-5.87-3.83-11.54-7.08-16.48-2.89-4.4-6.21-8.51-9.31-12.76s-6.2-8.7-9.16-13.15a381.73,381.73,0,0,1-30.79-55.9c-.39-.88-.76-1.77-1.15-2.65-5.74-17.4-9.63-35.39-12.62-53.45-1.08-6.55-2-13.12-2.93-19.7-4.92-37.27-7.77-75-17-111.54a250.94,250.94,0,0,0-20-54.07c-8.24-15.91-19.3-30.8-34.38-40.79-16-10.57-35.39-13.09-54-9.68-17.86,3.29-34.27,12.87-47,25.68-27.16,27.37-37,65.85-42.13,102.88-2.92,21.07-5.32,42.21-7.91,63.32L448,320.93c-.56,4.56-1.1,9.13-1.69,13.69a69,69,0,0,1-3.45,14.61,33.59,33.59,0,0,1-2.87,5,29.91,29.91,0,0,1-2.92,2.93,23.41,23.41,0,0,1-2.46,1.46,21.61,21.61,0,0,1-2.09.59,20.82,20.82,0,0,1-2.09,0,21.22,21.22,0,0,1-2.67-.75,28.33,28.33,0,0,1-3.48-2.05,32.9,32.9,0,0,1-3.79-3.86,57.33,57.33,0,0,1-5.34-9.6,296.76,296.76,0,0,1-16.6-56.9q-1.48-7.69-2.56-15.46-.57-4.43-1-8.86l-1.28-18.32c-1.82-26.16-3.44-52.35-5.57-78.49-1.13-13.83-2.58-27.62-4.56-41.36C382,112,380,100.36,376.19,89.32c-4.06-11.63-10-22.69-18.94-31.33a72.84,72.84,0,0,0-29.53-17.22,70.66,70.66,0,0,0-34.18-1.54,76.26,76.26,0,0,0-29.63,13.38c-18.58,13.56-32.35,32.55-43.24,52.61a236.89,236.89,0,0,0-24.44,67.65c-.23,1.21-.44,2.43-.66,3.65-5.46,20.7-8.64,41.91-11.47,63.12-1.6,12-3,24.1-4.65,36.15-3,22-6.65,44.07-13,65.43a174.27,174.27,0,0,1-5.7,16.53A77.27,77.27,0,0,1,152.68,372a53.38,53.38,0,0,1-7.48,7.55,44.52,44.52,0,0,1-7.11,4.19,36.5,36.5,0,0,1-6.26,1.73,36.29,36.29,0,0,1-6.34,0,44.35,44.35,0,0,1-8.22-2.28,55,55,0,0,1-9.49-5.63,90.53,90.53,0,0,1-13.57-14.1,226,226,0,0,1-23.37-38.41q-2.59-5.37-4.93-10.87A322.17,322.17,0,0,1,47,248.45c-1.09-6-2-12-2.86-18-1.92-14.64-3.14-29.36-3.83-44.11-.16-3.45-.28-6.91-.39-10.37,0-.38.06-.77.07-1.15s0-.81,0-1.21c.52-4.84-.47-9.87-4-13.44a15.49,15.49,0,0,0-12.34-4.46,18,18,0,0,0-12.28,6.89A21.39,21.39,0,0,0,7,174.77a31.9,31.9,0,0,0-.3,3.38A100.85,100.85,0,0,0,6.54,190q.12,8.84.29,17.66C7.31,231.1,8.3,254.62,11,278c2.75,23.79,7,47.46,14.5,70.25C32.63,370,42.23,391.68,56.13,410A150.19,150.19,0,0,0,68,424.18a126.3,126.3,0,0,0,13.72,12,100.37,100.37,0,0,0,31.1,16.07,82.32,82.32,0,0,0,34.32,3.44,77.31,77.31,0,0,0,17.33-3.92,88.42,88.42,0,0,0,15.4-7.27c19.13-11.59,33.59-29.84,42.83-50C233,372.08,238.18,348,242.58,323.8c4.19-23,7.41-46.11,10.06-69.3q1.67-11.12,3.42-22.22,5.18-32.64,11.37-65.12c.29-1.51.58-3,.88-4.52,1.65-6.15,3.51-12.24,5.74-18.21a119.84,119.84,0,0,1,9.64-20.15c3.13-5.17,8.05-11.5,14.91-10.65,6.17.78,8.82,8.16,10.26,13.27,2.05,7.32,2.61,14.91,3.49,22.42.1.92.22,1.84.33,2.76.87,12.75,2.29,25.48,3.46,38.2q3.66,39.41,7.3,78.82c.47,5,.92,10,1.39,15a253.35,253.35,0,0,0,12.94,68.23,259.75,259.75,0,0,0,18.44,42.07c7,12.77,15.11,25.19,25,36,9.62,10.53,21.44,19.45,35.13,23.83,15.13,4.86,31.26,2.55,45.23-4.61,27.91-14.3,42-45.74,51.29-74s13.61-57.74,17.58-87.09c.6-4.38,1.18-8.76,1.77-13.14l-.39,2.9c3.63-27,7.37-54.11,14.68-80.41A196.72,196.72,0,0,1,553,177.57a43.84,43.84,0,0,1,4-7.18,28.31,28.31,0,0,1,2.51-2.51,25.94,25.94,0,0,1,2.33-1.38,18.67,18.67,0,0,1,1.81-.51c.4,0,.81,0,1.21,0s.73.19,1.09.3a20.31,20.31,0,0,1,1.8,1.07,26,26,0,0,1,2.31,2.38,49.14,49.14,0,0,1,4.89,8.73c5.44,13.53,8.55,27.8,10.59,42.21,2.23,17.22,3.16,34.58,5,51.83a374,374,0,0,0,9.09,51.37,364.12,364.12,0,0,0,35.41,88.47,210.23,210.23,0,0,0,13.29,24,220.21,220.21,0,0,0,18.52,24.88,133.93,133.93,0,0,0,19,18.37c2.26,1.76,4.52,3.56,6.92,5.13a48.6,48.6,0,0,0,8.33,4.06,56.21,56.21,0,0,0,13.53,3.65c6.09.85,12.33,1.05,18.18-1.26a33.65,33.65,0,0,0,10-5.82,23.34,23.34,0,0,0,5.62-7.13,31.89,31.89,0,0,0,3.26-11.45A34.63,34.63,0,0,0,751.05,457.09Z"/><path class="cls-1" d="M11.77,98.74c2.18,4.29,5.54,8.48,10,10.52,5.26,2.39,11.31,2.37,16.16-1.05a27.8,27.8,0,0,0,8.86-10.8c3.6-7.41,5-15.38,6.81-23.35a77.46,77.46,0,0,1,3.17-10.78s0-.09.07-.14c.18-.41.38-.81.58-1.21.46-.91,1-1.81,1.5-2.68.42-.67.87-1.31,1.33-2,.09-.11.17-.22.26-.32.33-.41.68-.82,1-1.22,2.9-3.33,6-6.47,8.46-10.14A26.24,26.24,0,0,0,63.63,9.91l-.51-.35a24.06,24.06,0,0,0-9.59-4.87A26.39,26.39,0,0,0,32.61,8.52a28.94,28.94,0,0,0-2.55,2c-13.82,10.17-19,28-22,44.28C6.25,64.82,5.41,74.87,7.17,85A49.19,49.19,0,0,0,11.77,98.74Z"/></svg>