<svg id="Livello_1" data-name="Livello 1" xmlns="http://www.w3.org/2000/svg" viewBox="0 0 1524.2 1072.39"><defs><style>.cls-1{fill:#f8b626;}.cls-2{fill:#162033;}</style></defs><path class="cls-1" d="M1112.69,489.07c-1-5.88-3.83-11.54-7.08-16.48-2.89-4.4-6.21-8.51-9.31-12.76s-6.2-8.71-9.16-13.15a380.74,380.74,0,0,1-30.78-55.9c-.4-.88-.77-1.77-1.16-2.65-5.74-17.4-9.63-35.39-12.62-53.45-1.08-6.55-2-13.12-2.93-19.7-4.91-37.27-7.77-75-17-111.54a250.94,250.94,0,0,0-20-54.07c-8.23-15.91-19.3-30.8-34.38-40.8C952.32,98,932.88,95.49,914.33,98.9c-17.87,3.29-34.28,12.87-47,25.68-27.16,27.36-37,65.85-42.13,102.88-2.92,21.07-5.31,42.21-7.9,63.32l-7.62,62.12c-.56,4.57-1.11,9.14-1.7,13.7a69,69,0,0,1-3.45,14.61,34.11,34.11,0,0,1-2.87,5,28.84,28.84,0,0,1-2.92,2.93,25.27,25.27,0,0,1-2.46,1.46,19,19,0,0,1-2.09.58,18.22,18.22,0,0,1-2.09,0,23.05,23.05,0,0,1-2.67-.75,28.33,28.33,0,0,1-3.48-2.05,32.9,32.9,0,0,1-3.79-3.86,56.29,56.29,0,0,1-5.33-9.61A295,295,0,0,1,760.24,318q-1.5-7.69-2.57-15.46c-.38-2.95-.72-5.91-1-8.86q-.63-9.17-1.28-18.32c-1.82-26.16-3.44-52.35-5.57-78.49-1.13-13.83-2.58-27.63-4.55-41.36-1.66-11.53-3.59-23.16-7.43-34.19-4.06-11.63-10-22.7-18.93-31.33a72.94,72.94,0,0,0-29.54-17.22,70.63,70.63,0,0,0-34.17-1.54,76.3,76.3,0,0,0-29.64,13.38C607,98.15,593.21,117.14,582.31,137.2a236.46,236.46,0,0,0-24.43,67.65c-.24,1.21-.45,2.43-.67,3.64-5.46,20.71-8.64,41.92-11.46,63.13-1.61,12-3,24.1-4.66,36.15-3,22-6.65,44.07-13,65.43-1.65,5.59-3.49,11.13-5.69,16.53A77.89,77.89,0,0,1,514.32,404a52.85,52.85,0,0,1-7.48,7.55,44.52,44.52,0,0,1-7.11,4.19,37.56,37.56,0,0,1-6.25,1.72,36.4,36.4,0,0,1-6.35,0,44,44,0,0,1-8.21-2.28,55.39,55.39,0,0,1-9.5-5.63,90.46,90.46,0,0,1-13.56-14.1A225.38,225.38,0,0,1,432.48,357q-2.6-5.37-4.93-10.87a322.36,322.36,0,0,1-18.89-65.74c-1.09-6-2-12-2.86-18-1.92-14.64-3.14-29.36-3.83-44.11-.16-3.46-.28-6.91-.38-10.37,0-.39.05-.77.06-1.15s0-.81,0-1.21c.51-4.84-.48-9.88-4-13.44a15.49,15.49,0,0,0-12.34-4.46A18,18,0,0,0,373,194.59a21.36,21.36,0,0,0-4.32,12.15,29.45,29.45,0,0,0-.29,3.38,98.88,98.88,0,0,0-.19,11.81q.12,8.82.29,17.66c.48,23.49,1.47,47,4.17,70.37,2.76,23.79,7,47.45,14.5,70.25,7.13,21.79,16.73,43.45,30.63,61.81a151.72,151.72,0,0,0,11.91,14.14,126.3,126.3,0,0,0,13.72,12,100.13,100.13,0,0,0,31.1,16.06,82.32,82.32,0,0,0,34.32,3.45,77.74,77.74,0,0,0,17.33-3.92,88.42,88.42,0,0,0,15.4-7.27c19.13-11.59,33.59-29.84,42.84-50,10.28-22.44,15.43-46.56,19.83-70.71,4.19-23,7.41-46.11,10.07-69.3q1.65-11.12,3.41-22.22,5.17-32.64,11.37-65.12c.29-1.51.59-3,.88-4.53,1.65-6.14,3.51-12.24,5.75-18.21a119.3,119.3,0,0,1,9.63-20.14c3.13-5.17,8.06-11.51,14.91-10.65,6.17.78,8.82,8.16,10.26,13.27,2,7.31,2.61,14.9,3.49,22.41l.33,2.77c.87,12.75,2.29,25.48,3.46,38.2q3.66,39.41,7.3,78.81c.47,5,.92,10,1.39,15a253.43,253.43,0,0,0,12.94,68.23,260.13,260.13,0,0,0,18.44,42.07c7,12.77,15.12,25.19,25,36,9.62,10.52,21.44,19.44,35.13,23.83,15.13,4.85,31.26,2.55,45.24-4.61,27.9-14.3,42-45.74,51.28-74s13.61-57.75,17.58-87.09c.6-4.38,1.18-8.76,1.77-13.14l-.39,2.89c3.63-27,7.37-54.1,14.68-80.4a200.18,200.18,0,0,1,6.52-20.23,44.21,44.21,0,0,1,4-7.17,26.92,26.92,0,0,1,2.5-2.51,25.94,25.94,0,0,1,2.33-1.38c.6-.2,1.2-.37,1.81-.52.4,0,.81,0,1.21,0s.73.19,1.09.3a20.31,20.31,0,0,1,1.8,1.07,28.83,28.83,0,0,1,2.32,2.37,50.18,50.18,0,0,1,4.88,8.74c5.44,13.52,8.55,27.8,10.59,42.21,2.23,17.22,3.16,34.57,5,51.83a372.5,372.5,0,0,0,9.08,51.37,363.75,363.75,0,0,0,35.42,88.47A210.16,210.16,0,0,0,1010,468.27a221.42,221.42,0,0,0,18.52,24.88,135,135,0,0,0,19,18.37c2.26,1.76,4.53,3.56,6.93,5.13a48.5,48.5,0,0,0,8.32,4.06,56.21,56.21,0,0,0,13.53,3.65c6.1.85,12.33,1,18.18-1.26a33.65,33.65,0,0,0,10-5.82,23.34,23.34,0,0,0,5.62-7.13,31.89,31.89,0,0,0,3.26-11.45A34.23,34.23,0,0,0,1112.69,489.07Z"/><path class="cls-1" d="M373.41,130.72c2.18,4.29,5.54,8.48,10,10.51,5.26,2.4,11.31,2.38,16.17-1a27.87,27.87,0,0,0,8.85-10.8c3.6-7.41,5-15.38,6.81-23.35a77.46,77.46,0,0,1,3.17-10.78c0-.05.05-.09.07-.14.18-.41.38-.81.58-1.21.46-.92,1-1.81,1.5-2.68.42-.67.87-1.31,1.33-2l.26-.33c.34-.41.68-.81,1-1.21,2.89-3.33,6-6.47,8.46-10.15a26.21,26.21,0,0,0-6.38-35.7l-.51-.35a24.06,24.06,0,0,0-9.59-4.87,26.39,26.39,0,0,0-20.92,3.83,28.83,28.83,0,0,0-2.55,2c-13.82,10.18-19,28-22,44.28-1.85,10-2.69,20.1-.93,30.22A49.19,49.19,0,0,0,373.41,130.72Z"/><path class="cls-2" d="M556.32,976.35a2.78,2.78,0,0,0-2.69,1.3l-26.29,39.2-26.13-39.2a2.75,2.75,0,0,0-1.25-1,3.83,3.83,0,0,0-1.44-.3,2.79,2.79,0,0,0-2.14.9,2.94,2.94,0,0,0-.85,2.09v63.79a3,3,0,0,0,.8,2.09,2.64,2.64,0,0,0,2.09.9,2.81,2.81,0,0,0,2.14-.9,2.94,2.94,0,0,0,.85-2.09v-55l23.42,35.68a2.75,2.75,0,0,0,1,1,2.17,2.17,0,0,0,1.34.25,2.24,2.24,0,0,0,1.4-.25,2.26,2.26,0,0,0,.89-1l23.42-35.45v54.79a2.87,2.87,0,0,0,.9,2.09,3.1,3.1,0,0,0,2.29.9,3,3,0,0,0,2.19-.9,2.87,2.87,0,0,0,.9-2.09V979.34a2.89,2.89,0,0,0-.85-2.14A2.79,2.79,0,0,0,556.32,976.35Z"/><path class="cls-2" d="M662,981.23a3.07,3.07,0,0,0,2.1-.79,2.67,2.67,0,0,0,.89-2.1,2.82,2.82,0,0,0-.89-2.14,3,3,0,0,0-2.1-.85H625.47a2.84,2.84,0,0,0-2.09.9,2.87,2.87,0,0,0-.9,2.09v63.79a2.87,2.87,0,0,0,.9,2.09,2.84,2.84,0,0,0,2.09.9H662a3.08,3.08,0,0,0,2.1-.8,2.65,2.65,0,0,0,.89-2.09,3,3,0,0,0-3-3H628.76v-27.11h28.8a3.05,3.05,0,0,0,2.09-.8,2.66,2.66,0,0,0,.9-2.09,3.06,3.06,0,0,0-3-3h-28.8v-25Z"/><path class="cls-2" d="M778.35,985.87a25,25,0,0,0-9.12-7.73,28.32,28.32,0,0,0-12.91-2.79H730.91a2.84,2.84,0,0,0-2.09.9,2.87,2.87,0,0,0-.9,2.09v63.79a2.87,2.87,0,0,0,.9,2.09,2.84,2.84,0,0,0,2.09.9h25.41q10,0,16.4-4.74a28.18,28.18,0,0,0,9.56-12.66,46.93,46.93,0,0,0,3.14-17.49,49,49,0,0,0-1.74-13.15A34.57,34.57,0,0,0,778.35,985.87Zm-1.75,39a22.54,22.54,0,0,1-7.62,10.52q-5.19,3.89-13.65,3.89H734.2v-58h21.13a23.33,23.33,0,0,1,10.81,2.34,20.26,20.26,0,0,1,7.37,6.38,28,28,0,0,1,4.19,9.27,43.93,43.93,0,0,1,1.34,11A41.84,41.84,0,0,1,776.6,1024.83Z"/><path class="cls-2" d="M851.6,975.35a3.1,3.1,0,0,0-2.3.9,3,3,0,0,0-.89,2.19V1042a3.09,3.09,0,0,0,.84,2.19,3,3,0,0,0,2.25.9,3,3,0,0,0,2.14-.9,3.3,3.3,0,0,0,1.05-2.19V978.44a2.92,2.92,0,0,0-1-2.19A3,3,0,0,0,851.6,975.35Z"/><path class="cls-2" d="M968.86,1041.13l-26.21-64.08a3.57,3.57,0,0,0-1.14-1.45,2.92,2.92,0,0,0-1.75-.55,3,3,0,0,0-3,2l-26.31,64.38a2.68,2.68,0,0,0-.1,1.19,3,3,0,0,0,.8,1.85,3.11,3.11,0,0,0,3.69.25,3.28,3.28,0,0,0,1.09-1.5l7.34-18.24h32.43l7.47,18.24a3.59,3.59,0,0,0,1.15,1.45,2.9,2.9,0,0,0,1.74.54,3.17,3.17,0,0,0,2.1-.74,2.66,2.66,0,0,0,.89-2.15A3.58,3.58,0,0,0,968.86,1041.13Zm-43.21-22L939.35,985l14,34.06Z"/><path class="cls-2" d="M32.6,626.61q-9.6,0-15.6,5.8A19.47,19.47,0,0,0,11,647v239.2a19.77,19.77,0,0,0,5.8,14.6q5.79,5.81,15,5.8a20.67,20.67,0,0,0,14.6-5.8,20.51,20.51,0,0,0,6.6-14.6V647a19.17,19.17,0,0,0-6.2-14.6A20.24,20.24,0,0,0,32.6,626.61Z"/><path class="cls-2" d="M398.65,626.21q-10.27,0-16.85,9.2L284,776.86,188.66,635.41a18.7,18.7,0,0,0-8.22-6.8,25,25,0,0,0-10.27-2.4,21.14,21.14,0,0,0-15,6,19.08,19.08,0,0,0-6.37,14.4v239.6a20.26,20.26,0,0,0,5.55,14.6,18.72,18.72,0,0,0,14.17,5.8q9,0,14.59-5.8a20.26,20.26,0,0,0,5.55-14.6V703.15l77.25,117.06a24.86,24.86,0,0,0,7.61,6.2,20.95,20.95,0,0,0,18.69,0,25.67,25.67,0,0,0,7.4-6.2L376.87,705.7V886.21a19.48,19.48,0,0,0,6,14.6q5.94,5.81,15.82,5.8,9.45,0,15.2-5.8a19.84,19.84,0,0,0,5.75-14.6V646.61a18.93,18.93,0,0,0-6.36-14.6A21.12,21.12,0,0,0,398.65,626.21Z"/><path class="cls-2" d="M868.6,638.61a20.66,20.66,0,0,0-7.6-10,19.31,19.31,0,0,0-11.2-3.6,18.68,18.68,0,0,0-11.8,3.2,22.25,22.25,0,0,0-8.2,10.4L728.2,884.21a20.58,20.58,0,0,0-1.2,6.4,20,20,0,0,0,4.8,12.6q4.4,5,13.2,5a17.55,17.55,0,0,0,10.8-3.6,21.59,21.59,0,0,0,7.2-10l23.66-56.8H909.39l24,56.8a22.53,22.53,0,0,0,7.4,9.8,17.78,17.78,0,0,0,11,3.8,18.62,18.62,0,0,0,13-5.4q5.79-5.4,5.8-14.2a21.57,21.57,0,0,0-1.6-8Zm-65.94,160.8L847.58,691.6l45.57,107.81Z"/><path class="cls-2" d="M1216.8,855.21a23.79,23.79,0,0,0-14.2,2.6,100.28,100.28,0,0,1-24.6,9.6,110.6,110.6,0,0,1-26.6,3.2A114.69,114.69,0,0,1,1112,864a85,85,0,0,1-31.6-20,94.08,94.08,0,0,1-21-32.8q-7.61-19.4-7.6-44.6,0-22.8,7-41.6a94,94,0,0,1,20.2-32.6,89.62,89.62,0,0,1,31.4-21.2q18.19-7.4,41-7.4a100.07,100.07,0,0,1,27.2,3.6A129.21,129.21,0,0,1,1203,677a23.25,23.25,0,0,0,13.8,2.8,15.93,15.93,0,0,0,11.4-6.8,21,21,0,0,0,4.6-16.8q-1.41-9.19-10.2-13.6a142.67,142.67,0,0,0-33.8-13.6,146.08,146.08,0,0,0-37.4-4.8q-30.81,0-56.8,10.6a139.39,139.39,0,0,0-45.4,29.6,131.37,131.37,0,0,0-30,45.2q-10.61,26.21-10.6,57,0,34.41,11.4,61.2t31.4,45.2a138.45,138.45,0,0,0,45.6,28,153.62,153.62,0,0,0,54.4,9.6,132.36,132.36,0,0,0,25.2-2.4,192.86,192.86,0,0,0,24.4-6.4,126.41,126.41,0,0,0,22-9.6q8.4-4.4,10.2-13t-5-17A16.66,16.66,0,0,0,1216.8,855.21Z"/><path class="cls-2" d="M1509.43,631.89a20.07,20.07,0,0,0-14.2-5.4h-182a21.23,21.23,0,0,0-14.4,5.2,17.14,17.14,0,0,0-6,13.6q0,8.81,6,14.2a20.78,20.78,0,0,0,14.4,5.4h69.6v221.2a19.77,19.77,0,0,0,5.8,14.6q5.79,5.8,15.4,5.8a21.68,21.68,0,0,0,15.4-5.8,19.14,19.14,0,0,0,6.2-14.6V664.89h69.6a20.5,20.5,0,0,0,14.2-5.2q5.79-5.21,5.8-14A18,18,0,0,0,1509.43,631.89Z"/><path class="cls-2" d="M667.49,637.87a71.87,71.87,0,0,0-39.2-11.4h-92.4a20,20,0,0,0-14.4,5.8,19.47,19.47,0,0,0-6,14.6v239.2a20.57,20.57,0,0,0,5.4,14.6,18,18,0,0,0,13.8,5.8q8.79,0,14.2-5.8a20.57,20.57,0,0,0,5.4-14.6v-85.6h74a70.07,70.07,0,0,0,39.2-11.8,86.61,86.61,0,0,0,28.8-31.6q10.8-19.8,10.8-44.2t-10.8-44A83.86,83.86,0,0,0,667.49,637.87Zm-6.2,99.4a50.32,50.32,0,0,1-14,18,29.9,29.9,0,0,1-19,6.8h-74v-97.2h74a30.51,30.51,0,0,1,19,6.6,49.29,49.29,0,0,1,14,17.4,52.91,52.91,0,0,1,5.4,24A55.42,55.42,0,0,1,661.29,737.27Z"/></svg>