<svg xmlns="http://www.w3.org/2000/svg" width="156.885" height="165.507" viewBox="0 0 156.885 165.507">
  <g id="RegularEmail_illustration" transform="translate(0 -0.006)">
    <path id="Path_617" data-name="Path 617" d="M655.929,704.378l-9.762-6.231,12.715,3.64c7.988-7.631,13.839-18.2,13.839-18.2s-21.394-13.064-34.573-9.578-15.708,12.538-13.151,22.2,9.23,16.281,22.409,12.8A23.916,23.916,0,0,0,655.929,704.378Z" transform="translate(-540.74 -545.013)" fill="#f2f2f2"/>
    <path id="Path_618" data-name="Path 618" d="M651.551,734.79l-.65.172c-7.561,1.959-13.789,2.244-18.6.843-.07-.019-.138-.042-.209-.062l.1-.325.1-.311c5.213,1.587,11.8.893,18.4-.814.213-.053.429-.107.644-.167,2.786-.747,5.561-1.664,8.228-2.662.207-.075.417-.155.626-.234,3.514-1.336,6.823-2.8,9.676-4.149.2-.095.4-.193.6-.29,4.818-2.31,8.233-4.27,8.987-4.71.093-.052.143-.083.155-.089l.168.283,0,0,.168.286c-.012.007-.181.11-.5.29-1.182.681-4.4,2.489-8.731,4.574-.2.093-.4.191-.6.286-2.314,1.1-4.916,2.267-7.678,3.376q-1.04.42-2.059.8c-.209.083-.418.162-.625.238Q655.43,733.747,651.551,734.79Z" transform="translate(-547.094 -583.666)" fill="#fff"/>
    <path id="Path_619" data-name="Path 619" d="M813,707.3c-.086-.208-.173-.419-.254-.635a18.346,18.346,0,0,1-.573-1.789,17.852,17.852,0,0,1-.289-7.906l-.623-.272a18.513,18.513,0,0,0,.268,8.349,18.983,18.983,0,0,0,.615,1.909c.08.213.167.424.256.631a18.352,18.352,0,0,0,2.91,4.718q.21-.278.414-.543A17.787,17.787,0,0,1,813,707.3Z" transform="translate(-689.377 -563.536)" fill="#fff"/>
    <path id="Path_620" data-name="Path 620" d="M764.65,703.049q-.107-.328-.2-.661c-.021-.067-.04-.137-.058-.2a17.945,17.945,0,0,1,3.671-16.207c-.224-.078-.448-.157-.674-.231a18.612,18.612,0,0,0-3.641,16.609c.024.09.048.18.075.269.063.224.128.444.2.664a18.515,18.515,0,0,0,5.867,8.65c.163-.153.325-.306.487-.463A17.822,17.822,0,0,1,764.65,703.049Z" transform="translate(-651.364 -554.824)" fill="#fff"/>
    <path id="Path_621" data-name="Path 621" d="M720.76,700.537c-.079-.22-.151-.442-.22-.664-.073-.239-.144-.478-.207-.719a17.994,17.994,0,0,1,8.1-19.988c-.3-.076-.594-.152-.891-.222a18.653,18.653,0,0,0-7.856,20.38c.064.241.131.481.207.716s.139.448.215.669a18.6,18.6,0,0,0,8.931,10.334c.22-.13.434-.27.652-.41A17.936,17.936,0,0,1,720.76,700.537Z" transform="translate(-616.304 -549.413)" fill="#fff"/>
    <path id="Path_622" data-name="Path 622" d="M447.379,209.242l-48.273-19.431a11.78,11.78,0,0,1-6.522-15.31L441.768,52.31a11.78,11.78,0,0,1,15.31-6.522l48.274,19.431a11.78,11.78,0,0,1,6.522,15.31L462.689,202.72A11.78,11.78,0,0,1,447.379,209.242Z" transform="translate(-355.839 -44.932)" fill="#3f3d56"/>
    <path id="Path_623" data-name="Path 623" d="M515.98,82.905l-5.373-2.163a1.952,1.952,0,0,0-2.537,1.081,3.99,3.99,0,0,1-5.186,2.209L476.6,73.454a3.99,3.99,0,0,1-2.209-5.186,1.952,1.952,0,0,0-1.081-2.537l-4.738-1.907a8.936,8.936,0,0,0-11.612,4.947L408.129,190.093a8.936,8.936,0,0,0,4.947,11.612l47.4,19.081a8.936,8.936,0,0,0,11.612-4.947L520.927,94.517A8.936,8.936,0,0,0,515.98,82.905Z" transform="translate(-368.372 -59.447)" fill="#fff"/>
    <path id="Path_624" data-name="Path 624" d="M789.439,109.842l-14.826-5.968a.571.571,0,0,1,.426-1.059l14.826,5.968a.571.571,0,0,1-.426,1.059Z" transform="translate(-660.213 -90.952)" fill="#fff"/>
    <circle id="Ellipse_69" data-name="Ellipse 69" cx="0.457" cy="0.457" r="0.457" transform="translate(131.312 18.841)" fill="#fff"/>
    <path id="Path_625" data-name="Path 625" d="M905.936,322.1a1.029,1.029,0,0,1-.569-1.337l7.5-18.638a1.027,1.027,0,1,1,1.906.767l-7.5,18.638a1.029,1.029,0,0,1-1.337.57Z" transform="translate(-764.479 -249.063)" fill="#3f3d56"/>
    <path id="Path_626" data-name="Path 626" d="M587.833,171.846a1.029,1.029,0,0,1-.569-1.337l1.705-4.236a1.027,1.027,0,1,1,1.906.767l-1.705,4.236A1.028,1.028,0,0,1,587.833,171.846Z" transform="translate(-511.364 -140.966)" fill="#3f3d56"/>
    <path id="Path_627" data-name="Path 627" d="M572.393,210.2a1.029,1.029,0,0,1-.569-1.337l1.705-4.236a1.027,1.027,0,1,1,1.906.767l-1.7,4.236A1.029,1.029,0,0,1,572.393,210.2Z" transform="translate(-499.078 -171.489)" fill="#3f3d56"/>
    <path id="Path_628" data-name="Path 628" d="M712.572,229.86l-20.507-8.254a1.715,1.715,0,0,1-.949-2.226l4.922-12.227a1.715,1.715,0,0,1,2.226-.949l20.507,8.254a1.715,1.715,0,0,1,.949,2.226L714.8,228.911A1.715,1.715,0,0,1,712.572,229.86Zm-14.654-22.8a.786.786,0,0,0-1.02.435l-4.921,12.227a.787.787,0,0,0,.435,1.02L712.917,229a.787.787,0,0,0,1.021-.435l4.921-12.226a.786.786,0,0,0-.435-1.02Z" transform="translate(-593.961 -173.154)" fill="#3f3d56"/>
    <path id="Path_629" data-name="Path 629" d="M732.732,222.022h0L716.9,215.65a1.16,1.16,0,0,1-.723-1.118l.3-7.414a1.155,1.155,0,0,1,1.584-1.026l20.95,8.391a1.155,1.155,0,0,1,.645,1.5l.069.069-.657.654h0l-5.089,5.067A1.153,1.153,0,0,1,732.732,222.022Z" transform="translate(-614 -173.097)" fill="#3f3d56"/>
    <path id="Path_630" data-name="Path 630" d="M709.882,270.7l-7.04-2.834a.705.705,0,0,1,.527-1.308l7.04,2.834a.705.705,0,0,1-.527,1.308Z" transform="translate(-603.037 -221.233)" fill="#3f3d56"/>
    <circle id="Ellipse_70" data-name="Ellipse 70" cx="1.723" cy="1.723" r="1.723" transform="translate(109.481 43.672)" fill="#fff"/>
    <path id="Path_631" data-name="Path 631" d="M562.892,601.72l-20.507-8.255a1.715,1.715,0,0,1-.949-2.226l4.922-12.227a1.715,1.715,0,0,1,2.226-.949l20.507,8.254a1.715,1.715,0,0,1,.949,2.226l-4.922,12.228A1.716,1.716,0,0,1,562.892,601.72Zm-14.654-22.8a.786.786,0,0,0-1.02.435L542.3,591.585a.786.786,0,0,0,.435,1.02l20.506,8.254a.787.787,0,0,0,1.021-.435l4.921-12.226a.787.787,0,0,0-.435-1.02Z" transform="translate(-474.86 -469.044)" fill="#3f3d56"/>
    <path id="Path_632" data-name="Path 632" d="M583.051,593.883h0l-15.83-6.372a1.159,1.159,0,0,1-.723-1.117l.3-7.414a1.155,1.155,0,0,1,1.584-1.026l20.95,8.391a1.155,1.155,0,0,1,.645,1.5l.069.069-.657.654h0L584.3,593.63A1.153,1.153,0,0,1,583.051,593.883Z" transform="translate(-494.898 -468.988)" fill="#3f3d56"/>
    <path id="Path_633" data-name="Path 633" d="M560.2,642.558l-7.04-2.834a.705.705,0,0,1,.526-1.308l7.04,2.834a.705.705,0,0,1-.526,1.308Z" transform="translate(-483.936 -517.124)" fill="#3f3d56"/>
    <circle id="Ellipse_71" data-name="Ellipse 71" cx="1.723" cy="1.723" r="1.723" transform="translate(78.901 119.642)" fill="#fff"/>
    <circle id="Ellipse_72" data-name="Ellipse 72" cx="18.851" cy="18.851" r="18.851" transform="translate(77.305 64.007)" fill="#f9b827"/>
    <path id="Path_634" data-name="Path 634" d="M637.676,415.768l-20.507-8.254a1.715,1.715,0,0,1-.948-2.226l4.922-12.227a1.715,1.715,0,0,1,2.226-.948l20.507,8.254a1.715,1.715,0,0,1,.949,2.226L639.9,414.819A1.716,1.716,0,0,1,637.676,415.768Zm-14.654-22.8a.786.786,0,0,0-1.02.435l-4.921,12.227a.787.787,0,0,0,.435,1.02l20.506,8.254a.787.787,0,0,0,1.021-.435l4.921-12.226a.786.786,0,0,0-.435-1.02Z" transform="translate(-534.366 -321.082)" fill="#3f3d56"/>
    <path id="Path_635" data-name="Path 635" d="M657.837,407.931h0l-15.83-6.372a1.16,1.16,0,0,1-.723-1.118l.3-7.414A1.156,1.156,0,0,1,643.165,392l20.95,8.391a1.155,1.155,0,0,1,.645,1.5l.069.069-.657.654h0l-5.089,5.067a1.153,1.153,0,0,1-1.246.253Z" transform="translate(-554.405 -321.025)" fill="#3f3d56"/>
    <path id="Path_636" data-name="Path 636" d="M634.987,456.606l-7.041-2.834a.705.705,0,1,1,.527-1.308l7.041,2.834a.705.705,0,0,1-.527,1.308Z" transform="translate(-543.443 -369.161)" fill="#3f3d56"/>
    <path id="Path_637" data-name="Path 637" d="M401.345,478.64a2.467,2.467,0,0,0-2.888-2.443l-4.245-7.67-2.113,4.036,4.355,6.665a2.48,2.48,0,0,0,4.891-.587Z" transform="translate(-356.131 -381.983)" fill="#9e616a"/>
    <path id="Path_638" data-name="Path 638" d="M373.577,365.19l-4.365-.306s-.538-.073-2.016,2.272-6.547,14.235-6.547,14.235l8.88,12.888,2.884-2.871-5.156-10.371L372.2,374.1Z" transform="translate(-331.105 -299.514)" fill="#cacaca"/>
    <path id="Path_639" data-name="Path 639" d="M618.974,412.545a2.142,2.142,0,0,1-2.867-1.6l-7.529-1.108,2.635-2.949,6.746,1.5a2.153,2.153,0,0,1,1.016,4.154Z" transform="translate(-528.383 -332.936)" fill="#9e616a"/>
    <path id="Path_640" data-name="Path 640" d="M301.764,745.016h3.217l1.531-12.41h-4.748Z" transform="translate(-240.115 -582.932)" fill="#9e616a"/>
    <path id="Path_641" data-name="Path 641" d="M513.784,827.542h.906l3.536-1.438,1.9,1.438h0a4.038,4.038,0,0,1,4.038,4.038v.131H513.784Z" transform="translate(-452.955 -666.508)" fill="#2f2e41"/>
    <path id="Path_642" data-name="Path 642" d="M206.764,745.016h3.217l1.531-12.41h-4.748Z" transform="translate(-164.523 -582.932)" fill="#9e616a"/>
    <path id="Path_643" data-name="Path 643" d="M418.784,827.542h.906l3.536-1.438,1.9,1.438h0a4.038,4.038,0,0,1,4.038,4.038v.131H418.784Z" transform="translate(-377.363 -666.508)" fill="#2f2e41"/>
    <path id="Path_644" data-name="Path 644" d="M204.559,489.4l-2.127,12.818.715,41.205h5.234l8.041-43.586,5.784,42.869,5.262-.228,2.626-43.272-2.36-11.045Z" transform="translate(-161.076 -388.427)" fill="#2f2e41"/>
    <path id="Path_645" data-name="Path 645" d="M427.494,337.258l-5.6-.825L420.7,333.34l-7.892-.011-1.773,4.038-8.065,2.435,6.682,22.952s-3.682,8.53-2.777,8.566a1.226,1.226,0,0,1,.72,2.012c-.632.681-1.9.248-1.265,1.281a4.827,4.827,0,0,1,.714,1.846s26.722,5.705,25.242-1.651c-.184-.914-2.417-13.584-2.417-13.584s1.944-2.151,1.113-3.006-.392-9.885-.392-9.885Z" transform="translate(-364.781 -274.406)" fill="#cacaca"/>
    <path id="Path_646" data-name="Path 646" d="M302.483,308.631l.917-1,12.456,7.3,10.54,4.2.2,3.677-13.688-1.634-9.688-4.737Z" transform="translate(-240.687 -244.776)" fill="#cacaca"/>
    <path id="Path_647" data-name="Path 647" d="M450.18,264.277a6.594,6.594,0,0,1-6.594,6.594,6.766,6.766,0,0,1-1.542-.18,6.6,6.6,0,1,1,8.136-6.413Z" transform="translate(-391.848 -214.211)" fill="#9e616a"/>
    <path id="Path_648" data-name="Path 648" d="M441.248,257.205l-4.736.913a3.068,3.068,0,0,1-1.353.056,2.788,2.788,0,0,1-1.537-1.469,13.907,13.907,0,0,1-1.48-9.767c.162-.734.508-1.576,1.245-1.726a1.378,1.378,0,0,0,.626-.164.576.576,0,0,0-.078-.842,1.667,1.667,0,0,0-.9-.294,2.285,2.285,0,0,1,1.69-.8l-1.267-.7a2.646,2.646,0,0,1,2.15-.2,14.379,14.379,0,0,0,2.152.562,12.916,12.916,0,0,0,2.77-.327,7.261,7.261,0,0,1,7.014,3.491,3.152,3.152,0,0,1,.466,1.313,1.51,1.51,0,0,1-.471,1.268c-.519.436-1.335.372-1.838.827a2,2,0,0,0-.505,1.438,3.935,3.935,0,0,1-.221,1.539,1.023,1.023,0,0,1-1.274.592,1.161,1.161,0,0,0-1.4-.971,1.84,1.84,0,0,0-1.282,1.33,4.772,4.772,0,0,0-.049,1.926,7.452,7.452,0,0,1,.093,1.932" transform="translate(-387.743 -201.793)" fill="#2f2e41"/>
    <circle id="Ellipse_73" data-name="Ellipse 73" cx="1.723" cy="1.723" r="1.723" transform="translate(93.444 81.843)" fill="#f9b827"/>
    <path id="Path_649" data-name="Path 649" d="M348.518,853.173H216.278a.243.243,0,1,1,0-.487h132.24a.243.243,0,1,1,0,.487Z" transform="translate(-216.035 -687.66)" fill="#cacaca"/>
  </g>
</svg>
