<svg id="ConsultationMeeting_illustration" xmlns="http://www.w3.org/2000/svg" width="248.178" height="142.737" viewBox="0 0 248.178 142.737">
  <circle id="Ellipse_50" data-name="Ellipse 50" cx="2.037" cy="2.037" r="2.037" transform="translate(126.077 0)" fill="#f2f2f2"/>
  <circle id="Ellipse_51" data-name="Ellipse 51" cx="2.037" cy="2.037" r="2.037" transform="translate(126.077 8.119)" fill="#f2f2f2"/>
  <circle id="Ellipse_52" data-name="Ellipse 52" cx="2.037" cy="2.037" r="2.037" transform="translate(134.582 0)" fill="#f2f2f2"/>
  <circle id="Ellipse_53" data-name="Ellipse 53" cx="2.037" cy="2.037" r="2.037" transform="translate(134.582 8.119)" fill="#f2f2f2"/>
  <circle id="Ellipse_54" data-name="Ellipse 54" cx="2.037" cy="2.037" r="2.037" transform="translate(143.088 0)" fill="#f2f2f2"/>
  <circle id="Ellipse_55" data-name="Ellipse 55" cx="2.037" cy="2.037" r="2.037" transform="translate(143.088 8.119)" fill="#f2f2f2"/>
  <circle id="Ellipse_56" data-name="Ellipse 56" cx="2.037" cy="2.037" r="2.037" transform="translate(143.088 16.238)" fill="#f2f2f2"/>
  <circle id="Ellipse_57" data-name="Ellipse 57" cx="2.037" cy="2.037" r="2.037" transform="translate(143.088 24.357)" fill="#f2f2f2"/>
  <circle id="Ellipse_58" data-name="Ellipse 58" cx="2.037" cy="2.037" r="2.037" transform="translate(151.593 0)" fill="#f2f2f2"/>
  <circle id="Ellipse_59" data-name="Ellipse 59" cx="2.037" cy="2.037" r="2.037" transform="translate(151.593 8.119)" fill="#f2f2f2"/>
  <circle id="Ellipse_60" data-name="Ellipse 60" cx="2.037" cy="2.037" r="2.037" transform="translate(151.593 16.238)" fill="#f2f2f2"/>
  <circle id="Ellipse_61" data-name="Ellipse 61" cx="2.037" cy="2.037" r="2.037" transform="translate(151.593 24.357)" fill="#f2f2f2"/>
  <circle id="Ellipse_62" data-name="Ellipse 62" cx="2.037" cy="2.037" r="2.037" transform="translate(160.098 0)" fill="#f2f2f2"/>
  <circle id="Ellipse_63" data-name="Ellipse 63" cx="2.037" cy="2.037" r="2.037" transform="translate(160.098 8.119)" fill="#f2f2f2"/>
  <circle id="Ellipse_64" data-name="Ellipse 64" cx="2.037" cy="2.037" r="2.037" transform="translate(168.604 0)" fill="#f2f2f2"/>
  <circle id="Ellipse_65" data-name="Ellipse 65" cx="2.037" cy="2.037" r="2.037" transform="translate(168.604 8.119)" fill="#f2f2f2"/>
  <path id="Path_562" data-name="Path 562" d="M874.99,564.7H859.866c0,.435-15.587.788-15.587.788a4.052,4.052,0,0,0-.665.63,3.91,3.91,0,0,0-.914,2.52v.63a3.939,3.939,0,0,0,3.938,3.938H874.99a3.941,3.941,0,0,0,3.938-3.938v-.63A3.943,3.943,0,0,0,874.99,564.7Z" transform="translate(-642.157 -457.201)" fill="#3f3d56"/>
  <rect id="Rectangle_452" data-name="Rectangle 452" width="4.095" height="26.461" transform="translate(216.765 115.851)" fill="#3f3d56"/>
  <path id="Path_563" data-name="Path 563" d="M883.917,666.157c0,.442-6.206.171-13.861.171s-13.861.271-13.861-.171,6.206-3.951,13.861-3.951S883.917,665.714,883.917,666.157Z" transform="translate(-651.401 -523.989)" fill="#3f3d56"/>
  <path id="Path_564" data-name="Path 564" d="M616.707,407.865h-3.862l-1.837-14.9h5.7Z" transform="translate(-418.53 -269.177)" fill="#ffb8b8"/>
  <path id="Path_565" data-name="Path 565" d="M597.886,436.753h7.448v4.69H593.2A4.69,4.69,0,0,1,597.886,436.753Z" transform="translate(-406.33 -299.169)" fill="#2f2e41"/>
  <path id="Path_566" data-name="Path 566" d="M601.95,398.8l-3.685-1.156,2.707-14.763,5.438,1.707Z" transform="translate(-409.802 -262.266)" fill="#ffb8b8"/>
  <path id="Path_567" data-name="Path 567" d="M4.69,0h7.448V4.69H0A4.69,4.69,0,0,1,4.69,0Z" transform="translate(181.685 132.093) rotate(17.423)" fill="#2f2e41"/>
  <path id="Path_568" data-name="Path 568" d="M839.867,544.6a11.933,11.933,0,0,0-.479-2.211l-.721-.907-1.878-2.356-.082,0c-.139.006-.715.038-1.607.107h-.01c-.551.044-1.225.1-1.991.173-.2.022-.413.041-.63.063v3.289h3.938a.789.789,0,0,1,.781.687c0,.035.006.066.006.1a.788.788,0,0,1-.787.787h-22.87a8.941,8.941,0,0,0-.838.63,4.687,4.687,0,0,0-1.654,2.476c-1.336,5.872-3.771,16.822-4.489,20.038a1.43,1.43,0,0,0,.425,1.348,1.4,1.4,0,0,0,.463.287l2.841,1.065a1.512,1.512,0,0,0,.362.085c.016,0,.028,0,.044,0a.833.833,0,0,0,.088,0,1.428,1.428,0,0,0,1.326-.914l2.243-5.884,3.456-9.072,1.367-3.588c1.584.372,14.878,3.314,19.329-1.427a5.061,5.061,0,0,0,1.021-1.61,6.553,6.553,0,0,0,.343-3.175Z" transform="translate(-617.378 -439.681)" fill="#2f2e41"/>
  <path id="Path_569" data-name="Path 569" d="M852.63,550.252c-.069-.28-.148-.57-.239-.863l-2.6-3.264-.082,0c-.164.009-.942.05-2.136.148-1.354.113-3.248.3-5.374.583-.063.006-.129.016-.192.025-.208.028-.419.057-.63.088v.583h3.938a.789.789,0,0,1,.781.687c0,.035.006.066.006.1a.788.788,0,0,1-.787.788H831.4c-.608.2-1.194.406-1.755.63-2.942,1.166-5.144,2.693-5.595,4.681-.151.668-.318,1.4-.495,2.183-.655,2.9-1.452,6.461-2.174,9.693v0c-.148.668-.3,1.317-.438,1.947-.6,2.709-1.112,5.006-1.383,6.212-.006.035-.013.066-.019.1v.006a1.47,1.47,0,0,0,.088.721l0,0v0a1.4,1.4,0,0,0,.41.564,1.449,1.449,0,0,0,.406.236l2.841,1.065a1.442,1.442,0,0,0,.495.091,1.4,1.4,0,0,0,.677-.173,1.418,1.418,0,0,0,.649-.74l6.118-16.053.948-2.492c1.584.372,14.878,3.311,19.329-1.427a5.321,5.321,0,0,0,1.411-3.487A9.351,9.351,0,0,0,852.63,550.252Z" transform="translate(-626.285 -444.476)" fill="#2f2e41"/>
  <path id="Path_570" data-name="Path 570" d="M889.255,465.412c-.05-.06-.1-.12-.161-.176a7.709,7.709,0,0,0-6.606-2.328,25.005,25.005,0,0,0-3.122.614,7.869,7.869,0,0,0-3.522,1.975,7.691,7.691,0,0,0-2.334,5.733c.013.432.016.873.01,1.32,0,.208,0,.419-.006.63h3.106a1.675,1.675,0,0,1,.4.047,1.736,1.736,0,0,1,1.333,1.685v14.655c.211.06.422.12.63.183.066.022.129.041.192.06l.214.066q.959.3,1.874.63h1.027a.789.789,0,0,1,.781.687c.214.085.422.17.627.255.728.3,1.417.6,2.051.9.854.391,1.613.762,2.249,1.087a1.445,1.445,0,0,0,.646.157,1.387,1.387,0,0,0,.819-.271,1.74,1.74,0,0,0,.142-.117,1.419,1.419,0,0,0,.432-1.254,40.349,40.349,0,0,1-.284-7.466c.088-2.095.277-4.243.523-6.319.132-1.125.28-2.227.435-3.289.148-1.014.306-1.988.46-2.908A7.751,7.751,0,0,0,889.255,465.412Z" transform="translate(-663.26 -387.426)" fill="#f9b827"/>
  <path id="Path_571" data-name="Path 571" d="M866.855,471.176a3.738,3.738,0,0,0-.5-.173,3.622,3.622,0,0,0-4.265,2.057l-2.164,5-.271.63h7.475a1.676,1.676,0,0,1,.4.047l.252-.583.958-2.211A3.626,3.626,0,0,0,866.855,471.176Z" transform="translate(-653.772 -392.932)" fill="#f9b827"/>
  <circle id="Ellipse_66" data-name="Ellipse 66" cx="7.737" cy="7.737" r="7.737" transform="translate(212.067 57.547)" fill="#ffb8b8"/>
  <path id="Path_572" data-name="Path 572" d="M901.245,500.949l-4.417.12-.321,3.1-.073.718L889.517,508l-.63.284V513.8l.63-.18,1.991-.567h.01l8.77-2.5.1-.028a3.427,3.427,0,0,0,2.476-3.26l.022-3.664.019-2.7Z" transform="translate(-673.794 -413.501)" fill="#ffb8b8"/>
  <path id="Path_573" data-name="Path 573" d="M916.935,474.169a3.623,3.623,0,0,0-7.233.444l.482,7.863a1.413,1.413,0,0,0,.576,1.052,1.4,1.4,0,0,0,.926.274l3.377-.208,1.024-.063a1.381,1.381,0,0,0,.977-.476.991.991,0,0,0,.076-.095,1.408,1.408,0,0,0,.277-.932Z" transform="translate(-688.047 -392.857)" fill="#f9b827"/>
  <path id="Path_574" data-name="Path 574" d="M820.055,510.991h-.406v-.041c-.208.028-.419.057-.63.088v.583h2.911Q821.013,511.29,820.055,510.991Zm0,0h-.406v-.041c-.208.028-.419.057-.63.088v.583h2.911Q821.013,511.29,820.055,510.991Zm2.9,0h-3.308V496.027a2.366,2.366,0,0,0-1.711-2.268,2.22,2.22,0,0,0-.652-.095H789.25a2.365,2.365,0,0,0-2.363,2.363v15.436a2.363,2.363,0,0,0,2.363,2.363h33.707a1.419,1.419,0,0,0,1.408-1.263,1.232,1.232,0,0,0,.01-.154,1.42,1.42,0,0,0-1.418-1.418Zm.787,1.418a.788.788,0,0,1-.787.788H789.25a1.733,1.733,0,0,1-1.733-1.733V496.027a1.734,1.734,0,0,1,1.733-1.733h28.036a1.674,1.674,0,0,1,.4.047,1.736,1.736,0,0,1,1.333,1.685v15.593h3.938a.789.789,0,0,1,.781.687C823.741,512.342,823.744,512.374,823.744,512.408Zm-3.689-1.418h-.406v-.041c-.208.028-.419.057-.63.088v.583h2.911Q821.013,511.29,820.055,510.991Z" transform="translate(-603.926 -408.541)" fill="#3f3d56"/>
  <circle id="Ellipse_67" data-name="Ellipse 67" cx="1.89" cy="1.89" r="1.89" transform="translate(197.451 93.315)" fill="#f9b827"/>
  <path id="Path_575" data-name="Path 575" d="M880.669,398.476c-1.8,1.605-4.207,3.329-6.407,2.152a3.7,3.7,0,0,1-1.751-4.069c.607-2.883,3.1-4.441,5.512-5.7,3.137-1.637,6.6-3.065,10.112-2.639s6.945,3.328,6.779,6.863c-.133,2.843-2.455,5.494-1.72,8.244.74,2.767,4.1,3.838,6.958,3.979s6.009-.1,8.279,1.644c2.895,2.229,2.848,6.89.788,9.907s-5.541,4.714-8.959,6c-4.529,1.71-9.506,2.945-14.181,1.688s-8.767-5.742-8.081-10.534a16.023,16.023,0,0,1,2.382-5.609,14.646,14.646,0,0,0,2.277-5.644,5.514,5.514,0,0,0-1.608-4.656,1.4,1.4,0,0,1-.4-1.6Z" transform="translate(-662.516 -336.261)" fill="#2f2e41"/>
  <path id="Path_576" data-name="Path 576" d="M206.461,674.925h243.6a.375.375,0,1,0,0-.75h-243.6a.375.375,0,1,0,0,.75Z" transform="translate(-206.086 -532.188)" fill="#3f3d56"/>
  <path id="Path_577" data-name="Path 577" d="M246.516,568.64v.63a3.941,3.941,0,0,0,3.938,3.938h28.351a3.939,3.939,0,0,0,3.938-3.938v-.63a3.909,3.909,0,0,0-.914-2.52,4.049,4.049,0,0,0-.665-.63s-15.587-.353-15.587-.788H250.454A3.943,3.943,0,0,0,246.516,568.64Z" transform="translate(-233.78 -457.201)" fill="#3f3d56"/>
  <rect id="Rectangle_453" data-name="Rectangle 453" width="4.095" height="26.461" transform="translate(32.741 142.312) rotate(180)" fill="#3f3d56"/>
  <path id="Path_578" data-name="Path 578" d="M260.021,666.157c0,.442,6.206.171,13.861.171s13.861.271,13.861-.171-6.206-3.951-13.861-3.951S260.021,665.714,260.021,666.157Z" transform="translate(-243.031 -523.989)" fill="#3f3d56"/>
  <path id="Path_579" data-name="Path 579" d="M163.529,408.626h3.862l1.837-14.9h-5.7Z" transform="translate(-112.014 -269.699)" fill="#a0616a"/>
  <path id="Path_580" data-name="Path 580" d="M0,0H12.138V4.69H4.69A4.69,4.69,0,0,1,0,0H0Z" transform="translate(62.824 142.514) rotate(179.997)" fill="#2f2e41"/>
  <path id="Path_581" data-name="Path 581" d="M172.969,399.56l3.685-1.156-2.707-14.763-5.438,1.707Z" transform="translate(-115.426 -262.788)" fill="#a0616a"/>
  <path id="Path_582" data-name="Path 582" d="M0,0H12.138V4.69H4.69A4.69,4.69,0,0,1,0,0H0Z" transform="translate(69.408 136.808) rotate(162.577)" fill="#2f2e41"/>
  <path id="Path_583" data-name="Path 583" d="M320.073,570.116l-7.065-18.545c-1.585.372-14.877,3.314-19.329-1.426-1.526-1.625-1.823-3.978-.884-7l2.6-3.265.081,0c.982.052,24.078,1.346,25.662,8.313,1.335,5.873,3.773,16.823,4.488,20.04a1.423,1.423,0,0,1-.886,1.633l-2.841,1.065a1.4,1.4,0,0,1-.5.09,1.422,1.422,0,0,1-1.327-.913Z" transform="translate(-265.114 -440.2)" fill="#2f2e41"/>
  <path id="Path_584" data-name="Path 584" d="M307.073,577.116l-7.065-18.545c-1.585.372-14.877,3.313-19.329-1.426-1.526-1.625-1.823-3.978-.884-7l2.6-3.265.081,0c.982.052,24.078,1.346,25.662,8.313,1.335,5.873,3.773,16.823,4.488,20.04a1.423,1.423,0,0,1-.886,1.633l-2.841,1.065a1.4,1.4,0,0,1-.5.09,1.422,1.422,0,0,1-1.327-.913Z" transform="translate(-256.209 -444.995)" fill="#2f2e41"/>
  <path id="Path_585" data-name="Path 585" d="M331.209,507.018a6.047,6.047,0,0,1-5.193-2.952l-2.244-3.8,5.333-2.915,2.264,3.1,15.364-1.619a3.331,3.331,0,0,1,.252-.389h0a3.47,3.47,0,0,1,2.48-1.359,3.432,3.432,0,0,1,2.675.949,3.466,3.466,0,0,1-4.49,5.265,3.275,3.275,0,0,1-.259-.221l-14.716,3.752A5.934,5.934,0,0,1,331.209,507.018Z" transform="translate(-286.699 -410.878)" fill="#a0616a"/>
  <path id="Path_586" data-name="Path 586" d="M276.692,494.091a1.42,1.42,0,0,1-.573-1.37c.877-5.778-.132-14.056-1.132-19.982a7.811,7.811,0,0,1,8.682-9.06,25.16,25.16,0,0,1,3.123.616h0A7.748,7.748,0,0,1,292.644,472a86.853,86.853,0,0,0,1.518,15.657,1.424,1.424,0,0,1-.263,1.106,1.384,1.384,0,0,1-.975.551c-5.61.572-11.659,3.308-14.766,4.888a1.418,1.418,0,0,1-.646.158A1.4,1.4,0,0,1,276.692,494.091Z" transform="translate(-253.206 -387.958)" fill="#ccc"/>
  <path id="Path_587" data-name="Path 587" d="M319.565,484.68a1.409,1.409,0,0,1-.779-.755l-3.129-7.227a3.623,3.623,0,1,1,6.649-2.878l3.129,7.227a1.419,1.419,0,0,1-.738,1.864l-4.047,1.752A1.408,1.408,0,0,1,319.565,484.68Z" transform="translate(-280.936 -393.451)" fill="#ccc"/>
  <circle id="Ellipse_68" data-name="Ellipse 68" cx="7.737" cy="7.737" r="7.737" transform="translate(22.149 57.787)" fill="#a0616a"/>
  <path id="Path_588" data-name="Path 588" d="M271.774,414.649a1.252,1.252,0,0,1-1.792.1,14,14,0,0,1-3.992-5.213,9.286,9.286,0,0,1-.009-7.571,10.448,10.448,0,0,1,4.439-4.1,7.243,7.243,0,0,1,2.157-.912,2.833,2.833,0,0,1,2.254.443,2.377,2.377,0,0,1,.907,2.277,7.042,7.042,0,0,1,3.088-2.317,3.58,3.58,0,0,1,2.38-.159,4.356,4.356,0,0,1,2.4,2.7,6.029,6.029,0,0,1,.4,2.918,3.506,3.506,0,0,1-1.345,2.417,3.786,3.786,0,0,1-3.135.286,24.573,24.573,0,0,0-3.157-.879,2.972,2.972,0,0,0-2.907,1.112,5.385,5.385,0,0,0-.649,2.412l-.479,4.41a5.843,5.843,0,0,1-.4,1.84A1.025,1.025,0,0,1,271.774,414.649Z" transform="translate(-246.563 -342.251)" fill="#2f2e41"/>
  <path id="Path_589" data-name="Path 589" d="M344.706,564.681h-12.56a1.338,1.338,0,0,1-1.057-.512,1.36,1.36,0,0,1-.254-1.167,32.235,32.235,0,0,0,0-14.971,1.361,1.361,0,0,1,.254-1.167,1.338,1.338,0,0,1,1.057-.512h12.56a1.355,1.355,0,0,1,1.335,1.136,52.766,52.766,0,0,1,0,16.058A1.355,1.355,0,0,1,344.706,564.681Z" transform="translate(-291.51 -444.63)" fill="#ccc"/>
  <path id="Path_590" data-name="Path 590" d="M344.352,565.17V564.8a.946.946,0,0,1,.945-.945h6.591a.946.946,0,0,1,.945.945v.369a.946.946,0,0,1-.945.945H345.3A.946.946,0,0,1,344.352,565.17Z" transform="translate(-300.796 -456.621)" fill="#fff"/>
  <path id="Path_591" data-name="Path 591" d="M344.352,577.515v-.369a.946.946,0,0,1,.945-.945h6.591a.946.946,0,0,1,.945.945v.369a.946.946,0,0,1-.945.945H345.3A.946.946,0,0,1,344.352,577.515Z" transform="translate(-300.796 -465.077)" fill="#fff"/>
  <path id="Path_592" data-name="Path 592" d="M356.566,492.905a1.383,1.383,0,0,1-.259-1.186,32.762,32.762,0,0,0,0-15.217,1.383,1.383,0,0,1,.259-1.186,1.36,1.36,0,0,1,1.074-.521h12.767a1.377,1.377,0,0,1,1.357,1.154,53.627,53.627,0,0,1,0,16.322,1.377,1.377,0,0,1-1.357,1.155H357.64A1.36,1.36,0,0,1,356.566,492.905Z" transform="translate(-308.958 -395.615)" fill="#f9b827"/>
  <path id="Path_593" data-name="Path 593" d="M376.652,491.634h-6.725a.946.946,0,0,1-.945-.945v-.4a.946.946,0,0,1,.945-.945h6.725a.946.946,0,0,1,.945.945v.4A.946.946,0,0,1,376.652,491.634Z" transform="translate(-317.667 -405.581)" fill="#fff"/>
  <path id="Path_594" data-name="Path 594" d="M376.652,504.181h-6.725a.946.946,0,0,1-.945-.945v-.4a.946.946,0,0,1,.945-.945h6.725a.946.946,0,0,1,.945.945v.4A.946.946,0,0,1,376.652,504.181Z" transform="translate(-317.667 -414.175)" fill="#fff"/>
  <path id="Path_595" data-name="Path 595" d="M292.585,518.243a3.471,3.471,0,0,1-2.058-1.94,3.224,3.224,0,0,1-.113-.321l-16.482-4.692a3.427,3.427,0,0,1-2.476-3.258l-.04-6.364,6.075.163.4,3.822,14.094,6.328a3.325,3.325,0,0,1,.413-.209h0a3.468,3.468,0,1,1,.192,6.471Z" transform="translate(-250.836 -414.024)" fill="#a0616a"/>
  <path id="Path_596" data-name="Path 596" d="M270.943,483.821a1.408,1.408,0,0,1-.353-1.026l.483-7.86a3.623,3.623,0,0,1,7.232.445l-.483,7.86a1.419,1.419,0,0,1-1.5,1.328l-4.4-.271a1.407,1.407,0,0,1-.975-.476Z" transform="translate(-250.268 -393.382)" fill="#ccc"/>
  <path id="Path_597" data-name="Path 597" d="M434.274,303.215H408.443a2.838,2.838,0,0,1-2.835-2.835V272.343a2.838,2.838,0,0,1,2.835-2.835h25.831a2.838,2.838,0,0,1,2.835,2.835v28.036A2.838,2.838,0,0,1,434.274,303.215Zm-25.831-33.077a2.208,2.208,0,0,0-2.205,2.205v28.036a2.208,2.208,0,0,0,2.205,2.205h25.831a2.208,2.208,0,0,0,2.205-2.205V272.343a2.208,2.208,0,0,0-2.205-2.205Z" transform="translate(-342.756 -254.997)" fill="#3f3d56"/>
  <path id="Path_598" data-name="Path 598" d="M584.274,303.215H558.443a2.838,2.838,0,0,1-2.835-2.835V272.343a2.838,2.838,0,0,1,2.835-2.835h25.831a2.838,2.838,0,0,1,2.835,2.835v28.036A2.838,2.838,0,0,1,584.274,303.215Zm-25.831-33.077a2.208,2.208,0,0,0-2.205,2.205v28.036a2.208,2.208,0,0,0,2.205,2.205h25.831a2.208,2.208,0,0,0,2.205-2.205V272.343a2.208,2.208,0,0,0-2.205-2.205Z" transform="translate(-445.503 -254.997)" fill="#3f3d56"/>
  <path id="Path_599" data-name="Path 599" d="M422.561,294.863h-2.52a1.419,1.419,0,0,1-1.418-1.418v-2.52a1.419,1.419,0,0,1,1.418-1.418h2.52a1.419,1.419,0,0,1,1.418,1.418v2.52A1.419,1.419,0,0,1,422.561,294.863Z" transform="translate(-351.671 -268.697)" fill="#f9b827"/>
  <path id="Path_600" data-name="Path 600" d="M422.561,319.863h-2.52a1.419,1.419,0,0,1-1.418-1.418v-2.52a1.419,1.419,0,0,1,1.418-1.418h2.52a1.419,1.419,0,0,1,1.418,1.418v2.52A1.419,1.419,0,0,1,422.561,319.863Z" transform="translate(-351.671 -285.821)" fill="#ccc"/>
  <path id="Path_601" data-name="Path 601" d="M461.955,296.662H450.189a.946.946,0,0,1-.945-.945v-.4a.946.946,0,0,1,.945-.945h11.766a.946.946,0,0,1,.945.945v.4A.946.946,0,0,1,461.955,296.662Z" transform="translate(-372.646 -272.028)" fill="#f9b827"/>
  <path id="Path_602" data-name="Path 602" d="M573.251,293.294h-2.52a1.419,1.419,0,0,1-1.418-1.418v-2.52a1.419,1.419,0,0,1,1.418-1.418h2.52a1.419,1.419,0,0,1,1.418,1.418v2.52A1.419,1.419,0,0,1,573.251,293.294Z" transform="translate(-454.891 -267.622)" fill="#ccc"/>
  <path id="Path_603" data-name="Path 603" d="M612.645,295.093H600.879a.946.946,0,0,1-.945-.945v-.4a.946.946,0,0,1,.945-.945h11.766a.946.946,0,0,1,.945.945v.4A.946.946,0,0,1,612.645,295.093Z" transform="translate(-475.866 -270.953)" fill="#ccc"/>
  <path id="Path_604" data-name="Path 604" d="M590.725,319.093H568.879a.946.946,0,0,1-.945-.945v-.4a.946.946,0,0,1,.945-.945h21.846a.946.946,0,0,1,.945.945v.4a.946.946,0,0,1-.945.945Z" transform="translate(-453.946 -287.393)" fill="#f9b827"/>
  <path id="Path_605" data-name="Path 605" d="M590.725,336.093H568.879a.946.946,0,0,1-.945-.945v-.4a.946.946,0,0,1,.945-.945h21.846a.946.946,0,0,1,.945.945v.4a.946.946,0,0,1-.945.945Z" transform="translate(-453.946 -299.038)" fill="#ccc"/>
  <path id="Path_606" data-name="Path 606" d="M590.725,353.093H568.879a.946.946,0,0,1-.945-.945v-.4a.946.946,0,0,1,.945-.945h21.846a.946.946,0,0,1,.945.945v.4a.946.946,0,0,1-.945.945Z" transform="translate(-453.946 -310.682)" fill="#ccc"/>
  <path id="Path_607" data-name="Path 607" d="M734.274,303.215H708.443a2.838,2.838,0,0,1-2.835-2.835V272.343a2.838,2.838,0,0,1,2.835-2.835h25.831a2.838,2.838,0,0,1,2.835,2.835v28.036A2.838,2.838,0,0,1,734.274,303.215Zm-25.831-33.077a2.208,2.208,0,0,0-2.205,2.205v28.036a2.208,2.208,0,0,0,2.205,2.205h25.831a2.208,2.208,0,0,0,2.205-2.205V272.343a2.208,2.208,0,0,0-2.205-2.205Z" transform="translate(-548.251 -254.997)" fill="#3f3d56"/>
  <path id="Path_608" data-name="Path 608" d="M762.645,295.093H750.879a.946.946,0,0,1-.945-.945v-.4a.946.946,0,0,1,.945-.945h11.766a.946.946,0,0,1,.945.945v.4A.946.946,0,0,1,762.645,295.093Z" transform="translate(-578.614 -270.953)" fill="#ccc"/>
  <path id="Path_609" data-name="Path 609" d="M740.725,319.093H718.879a.946.946,0,0,1-.945-.945v-.4a.946.946,0,0,1,.945-.945h21.846a.946.946,0,0,1,.945.945v.4A.946.946,0,0,1,740.725,319.093Z" transform="translate(-556.694 -287.393)" fill="#ccc"/>
  <path id="Path_610" data-name="Path 610" d="M740.725,336.093H718.879a.946.946,0,0,1-.945-.945v-.4a.946.946,0,0,1,.945-.945h21.846a.946.946,0,0,1,.945.945v.4A.946.946,0,0,1,740.725,336.093Z" transform="translate(-556.694 -299.038)" fill="#ccc"/>
  <path id="Path_611" data-name="Path 611" d="M740.725,353.093H718.879a.946.946,0,0,1-.945-.945v-.4a.946.946,0,0,1,.945-.945h21.846a.946.946,0,0,1,.945.945v.4a.946.946,0,0,1-.945.945Z" transform="translate(-556.694 -310.682)" fill="#ccc"/>
  <path id="Path_612" data-name="Path 612" d="M461.955,321.662H450.189a.946.946,0,0,1-.945-.945v-.4a.946.946,0,0,1,.945-.945h11.766a.946.946,0,0,1,.945.945v.4A.946.946,0,0,1,461.955,321.662Z" transform="translate(-372.646 -289.153)" fill="#ccc"/>
  <path id="Path_613" data-name="Path 613" d="M422.561,344.863h-2.52a1.419,1.419,0,0,1-1.418-1.418v-2.52a1.419,1.419,0,0,1,1.418-1.418h2.52a1.419,1.419,0,0,1,1.418,1.418v2.52a1.419,1.419,0,0,1-1.418,1.418Z" transform="translate(-351.671 -302.946)" fill="#ccc"/>
  <path id="Path_614" data-name="Path 614" d="M461.955,346.662H450.189a.946.946,0,0,1-.945-.945v-.4a.946.946,0,0,1,.945-.945h11.766a.946.946,0,0,1,.945.945v.4A.946.946,0,0,1,461.955,346.662Z" transform="translate(-372.646 -306.277)" fill="#ccc"/>
  <path id="Path_615" data-name="Path 615" d="M730.442,289.3c0-.007,0-.014,0-.022a2.835,2.835,0,0,0-2.835-2.835V289.3Z" transform="translate(-563.321 -266.595)" fill="#f9b827"/>
  <path id="Path_616" data-name="Path 616" d="M720.441,290.3v-2.857a2.835,2.835,0,1,0,2.834,2.857Z" transform="translate(-556.469 -267.28)" fill="#ccc"/>
</svg>
