<svg xmlns="http://www.w3.org/2000/svg" width="174.028" height="115.882" viewBox="0 0 174.028 115.882">
  <g id="IntroductionMeeting_illustration" transform="translate(0 0)">
    <path id="Path_534" data-name="Path 534" d="M719.658,19.975c-1.315.739-3.437-2.184-3.918-.754s.684,7.2,1.285,8.581c.3.688.721,1.316,1.014,2.006a3.017,3.017,0,0,1,.191,2.187c-.451,1.224-1.939,1.722-2.676,2.8-.859,1.253-.512,2.941-.111,4.407a14.78,14.78,0,0,0,1.382,3.665,5.312,5.312,0,0,0,2.927,2.482,7.432,7.432,0,0,0,4.848-.727,17.558,17.558,0,0,0,4.207-2.3,7.746,7.746,0,0,0,2.752-3.848,7.888,7.888,0,0,0-.866-5.818,19.448,19.448,0,0,0-3.824-4.634,75.962,75.962,0,0,0-7.784-6.518l.573-1.528Z" transform="translate(-588.765 -15.498)" fill="#2f2e41"/>
    <path id="Path_535" data-name="Path 535" d="M773.194,587.22l-1.241,11.585-.057.53-14.043-.055-.074-.531-1.487-10.616Z" transform="translate(-622.748 -483.53)" fill="#ffb6b6"/>
    <path id="Path_536" data-name="Path 536" d="M658,596.593c0,.175,0,.351,0,.53l-14.578-.057-.048-.531-.9-10.077,15.074-1.828S658.032,589.975,658,596.593Z" transform="translate(-529.026 -481.397)" fill="#ffb6b6"/>
    <path id="Path_537" data-name="Path 537" d="M655.309,132.936A7.766,7.766,0,0,0,665,134.962c4.7-2.478,11.125-5.319,12.26-3.049a17.893,17.893,0,0,1,1.827,7.2l1.827,42.591s.914,17.2-10.507,15.679-29.236,4.877-29.236,4.877l1.82-18.868,4.859-7.114,1.969-20.41-3.394-16.419,4.111-1.827s.457-3.2,1.827-3.2,1.7-3.072,2.906-1.536Z" transform="translate(-527.957 -107.936)" fill="#f9b827"/>
    <path id="Path_538" data-name="Path 538" d="M680.083,456.623l-2.979-.012-14.043-.055-1.828-.007-.106-.531L658.3,441.756l-.441,14.25-.016.53-.918,0-14.578-.057-1.045-.005,0-.53-.062-10.072-.056-9.327-.009-1.411,0,0,4.365-8.848,1.273-2.582.261-.53,2.55-5.168,23.072-3.194.353-.049,6.268-.867.046,2.569.026,1.458.094,5.251.011.53.011.606.569,31.787Z" transform="translate(-527.955 -340.806)" fill="#2f2e41"/>
    <circle id="Ellipse_48" data-name="Ellipse 48" cx="9.54" cy="9.54" r="9.54" transform="translate(124.637 4.565)" fill="#ffb6b6"/>
    <path id="Path_539" data-name="Path 539" d="M739.041,29.046a17.838,17.838,0,0,0-3.185,10.976,9.382,9.382,0,0,1-4.808-6.551,15.486,15.486,0,0,1,.794-8.272l.028-.079a9.469,9.469,0,0,0-3.317-10.879,22.785,22.785,0,0,1-5.839-6.149c-.866-1.352-1.6-3.048-.955-4.517.6-1.354,2.137-1.987,3.555-2.41a21.562,21.562,0,0,1,10-.905A11.375,11.375,0,0,1,743.4,5.772c1.57,2.991,1.159,7.074-1.39,9.291a1.893,1.893,0,0,1-.3,3.673c.545-.019.867.7.672,1.208a2.351,2.351,0,0,1-1.174,1.088c-.681.374-1.436.764-1.439,1.742a1.88,1.88,0,0,0,.367,1.092,4.677,4.677,0,0,0,2.309,1.447,5.236,5.236,0,0,0-3.6,4.033l.187-.3Z" transform="translate(-594.11 0)" fill="#2f2e41"/>
    <g id="Group_391" data-name="Group 391" transform="translate(104.216 20.101)">
      <path id="uuid-949a288c-1385-4c96-9df8-4f861626eeb5" d="M590.233,119.091c-.26-2.731.938-5.08,2.676-5.245s3.358,1.915,3.618,4.647a6.866,6.866,0,0,1-.42,3.216l.957,11.587-5.447.333-.365-11.458A6.865,6.865,0,0,1,590.233,119.091Z" transform="translate(-590.198 -113.837)" fill="#ffb6b6"/>
      <path id="Path_540" data-name="Path 540" d="M621.576,153.6s-8.9-5.235-10.731-4.449-10.731,14.134-10.731,14.134l-.818-2.436-6.249.6s-3.664,17.013,4.449,15.442,21.462-16.227,21.462-16.227l2.617-7.067Z" transform="translate(-591.864 -142.848)" fill="#f9b827"/>
    </g>
    <path id="Path_541" data-name="Path 541" d="M290.895,327.595s5.025-2.946,6.378-.214S311.126,362.7,311.126,362.7l-8.055,1.568Z" transform="translate(-239.529 -268.616)" fill="#f9b827"/>
    <path id="Path_542" data-name="Path 542" d="M201.9,192.62l.237.337a2.169,2.169,0,0,0-.6,2.729,9.365,9.365,0,0,0,1.909,2.375,3.841,3.841,0,0,1,1.261,2.7c-.072,1.146-1.007,2.091-1.137,3.232-.188,1.662,1.36,3.121,1.283,4.793a4.747,4.747,0,0,1-2.014,3.131,9.792,9.792,0,0,0-2.106,2.139,3.5,3.5,0,0,0-.345.74,5.305,5.305,0,0,0,.466,3.634,13.521,13.521,0,0,1,1.258,3.512,3.031,3.031,0,0,1-1.457,3.178,13.346,13.346,0,0,0,6.368-2.274c.169-.116.334-.235.5-.358,2.666-2.008,4.539-4.908,6.341-7.734.149-.232.3-.466.445-.7q.6-.943,1.2-1.885a23.754,23.754,0,0,0,2.928-5.657,33.4,33.4,0,0,0,.907-5.811c.115-.955.265-1.907.293-2.869a11.576,11.576,0,0,0-10.671-11.859,12.031,12.031,0,0,0-1.446-.02,21.235,21.235,0,0,0-5.6,1.148,11.38,11.38,0,0,0-5.794,6.379A8.7,8.7,0,0,1,201.9,192.62Z" transform="translate(-161.489 -153.107)" fill="#2f2e41"/>
    <path id="Path_543" data-name="Path 543" d="M208.754,304.472l-9.005-3.532-.228,3.532-7.895,1.236-3.708,16.775,3.355,10.418,25.074.706-.883-3.532s4.061-4.591,1.589-12.007l-.275-1.887a16.105,16.105,0,0,0-8.025-11.709Z" transform="translate(-154.736 -247.8)" fill="#f9b827"/>
    <circle id="Ellipse_49" data-name="Ellipse 49" cx="7.999" cy="7.999" r="7.999" transform="translate(41.007 36.983)" fill="#a0616a"/>
    <path id="Path_544" data-name="Path 544" d="M192.009,197.831c.028.961.179,1.913.293,2.869a33.4,33.4,0,0,0,.907,5.811,23.753,23.753,0,0,0,2.928,5.657q.6.943,1.2,1.885c.149.232.3.466.445.7,1.8,2.826,3.675,5.726,6.341,7.734.163.122.328.242.5.358a13.346,13.346,0,0,0,6.368,2.274,3.032,3.032,0,0,1-1.457-3.178,13.521,13.521,0,0,1,1.258-3.512,5.305,5.305,0,0,0,.466-3.634,3.5,3.5,0,0,0-.345-.74,9.792,9.792,0,0,0-2.106-2.139,4.747,4.747,0,0,1-2.014-3.131c-.077-1.672-1.145-1.112-1.333-2.774-.13-1.142-1.653-3.088-1.725-4.235a8.248,8.248,0,0,1,1.255-4.235c.693-.75.056-2.988.471-3.921s4.933-.152,4.05-.662l.237-.337a8.7,8.7,0,0,1,5.776.859,8.154,8.154,0,0,1,1.09.693c.833-1.521-.155-3.452-1.5-4.548a14.307,14.307,0,0,0-4.547-2.244c-.278-.094-.557-.188-.838-.279a21.235,21.235,0,0,0-5.6-1.148,12.031,12.031,0,0,0-1.446.02,11.576,11.576,0,0,0-10.671,11.859Z" transform="translate(-158.1 -153.106)" fill="#2f2e41"/>
    <path id="Path_545" data-name="Path 545" d="M173.534,492.745l-11.149-23.427a5.07,5.07,0,0,0-4.557-2.878H17a5.041,5.041,0,0,0-4.469,2.7L.583,491.924a5.049,5.049,0,0,0,4.45,7.392l108.314.426,1.045.005,14.578.056.918,0,3.389.014,1.828.007,14.043.055,2.979.012,16.83.065h.021a5.046,5.046,0,0,0,4.556-7.215Z" transform="translate(0 -384.077)" fill="#fff"/>
    <path id="Path_546" data-name="Path 546" d="M173.534,492.745l-11.149-23.427a5.07,5.07,0,0,0-4.557-2.878H17a5.041,5.041,0,0,0-4.469,2.7L.583,491.924a5.049,5.049,0,0,0,4.45,7.392l108.314.426,1.045.005,14.578.056.918,0,3.389.014,1.828.007,14.043.055,2.979.012,16.83.065h.021a5.046,5.046,0,0,0,4.556-7.215Zm-.742,4.587a4.492,4.492,0,0,1-3.814,2.1h-.019l-16.842-.067-2.912-.011-14.174-.056-1.859-.007-3.267-.012-.931,0-14.629-.058-1,0L5.035,498.785a4.518,4.518,0,0,1-3.982-6.616L13,469.389a4.5,4.5,0,0,1,4-2.419H157.827a4.539,4.539,0,0,1,4.079,2.576l11.149,23.425a4.491,4.491,0,0,1-.263,4.361Z" transform="translate(0 -384.077)" fill="#3f3d56"/>
    <path id="Path_547" data-name="Path 547" d="M221.661,492.148l26.663-9.712-13.332-5.362-26.575,6.951Z" transform="translate(-171.616 -392.833)" fill="#f2f2f2"/>
    <path id="Path_548" data-name="Path 548" d="M499.42,479.44l-3,9.535,35.139,2.119-3-10.771Z" transform="translate(-408.762 -394.781)" fill="#f2f2f2"/>
    <path id="uuid-bc099db1-a2ce-4512-8b55-449b58adbd20" d="M214.479,482.592c2.471.245,4.347,1.718,4.191,3.291s-2.285,2.648-4.757,2.4a6.214,6.214,0,0,1-2.782-.933l-10.455-1.17.654-4.894,10.237,1.673a6.213,6.213,0,0,1,2.912-.368Z" transform="translate(-165.241 -396.302)" fill="#a0616a"/>
    <path id="Path_549" data-name="Path 549" d="M102.207,328.911l-1.854-.971a7.948,7.948,0,0,0-4.856,2.031c-1.942,1.942-17.658,24.191-17.658,24.191s-3.885,6,5.827,6.886,20.483.883,20.483.883l.883-7.24L90.377,353.1l10.263-13.6,1.568-10.595Z" transform="translate(-63.463 -270.033)" fill="#f9b827"/>
    <path id="uuid-cb65f836-e7d9-440e-b153-5c66ba7afb8d" d="M777,409.869c-2.1,1.557-4.6,1.737-5.589.4s-.094-3.677,2-5.234a6.534,6.534,0,0,1,2.825-1.241l8.965-6.483,2.953,4.272-9.151,5.938A6.533,6.533,0,0,1,777,409.869Z" transform="translate(-634.869 -327.157)" fill="#ffb6b6"/>
    <path id="Path_561" data-name="Path 561" d="M813.139,169.416s7.232.228,8.6,5.253a101.087,101.087,0,0,1,3.655,30.606s2.284,9.593-3.655,9.136l-8.222,3.654-5.482-7.309,4.568-5.482.534-35.86Z" transform="translate(-665.356 -139.5)" fill="#f9b827"/>
  </g>
</svg>
