<svg xmlns="http://www.w3.org/2000/svg" width="197.618" height="162.265" viewBox="0 0 197.618 162.265">
  <g id="Card3_Homepage_illu" transform="translate(0)">
    <path id="Path_725" data-name="Path 725" d="M544.627,339.538c.626,8.263.477,15.982-1.019,22.758l22.027-.015,9.968-6.938c-2.723-9.145-4.575-10.7-2.529-17.068l-28.447,1.264Z" transform="translate(-395.553 -246.143)" fill="#ffb6b6"/>
    <path id="Path_726" data-name="Path 726" d="M539.8,339.1c.626,5.4-1.706,8.26-3.2,12.686h0c4.36-2.79,11.828-2.648,16.885-1.543l15.8,3.45c-2.723-5.973-3.08-11.261-1.034-15.418L539.8,339.1Z" transform="translate(-390.45 -246.142)" fill="#3f3d56"/>
    <path id="Path_727" data-name="Path 727" d="M548.375,391.505l7.281,17.995a40.528,40.528,0,0,1,2.831,18.409l-1.527,19.233H535.084s-1.112-4.709-.278-4.447-1.1-1.009-.134-2.144-.337-5.385-.337-5.385-1.394,4.867-3.421,11.975H506.876c2.026-13.117,4.189-28.883,3.053-29.965-1.964-1.868.068-1.291,2.105-3.108s1.441-3.241.368-4.3.438-1.471,1.389-2.419,3.315-12.409,3.315-12.409c.016.011.814.072.83.08.545.545,3.891,1.634,11.711,1.634,6.809,0,17.183-4.367,18.471-5.018Z" transform="translate(-368.826 -284.876)" fill="#2f2e41"/>
    <g id="Group_419" data-name="Group 419" transform="translate(0 0)">
      <path id="Path_728" data-name="Path 728" d="M79.09,1.065a2.183,2.183,0,1,0,0,4.366h49.094a2.183,2.183,0,1,0,0-4.366H79.09Z" transform="translate(-55.96 -0.775)" fill="#f2f2f2"/>
      <path id="Path_729" data-name="Path 729" d="M79.09,160.033a2.183,2.183,0,0,0,0,4.366h49.094a2.183,2.183,0,1,0,0-4.366Z" transform="translate(-55.96 -116.447)" fill="#f2f2f2"/>
      <path id="Path_730" data-name="Path 730" d="M113.154,54.054a2.183,2.183,0,0,0,0,4.366H195.3a2.183,2.183,0,0,0,0-4.366Z" transform="translate(-80.747 -39.332)" fill="#f2f2f2"/>
      <path id="Path_731" data-name="Path 731" d="M113.154,107.043a2.183,2.183,0,0,0,0,4.366H195.3a2.183,2.183,0,0,0,0-4.366Z" transform="translate(-80.747 -77.889)" fill="#f2f2f2"/>
      <circle id="Ellipse_85" data-name="Ellipse 85" cx="1.634" cy="1.634" r="1.634" transform="translate(8.747 0.839)" fill="#f2f2f2"/>
      <circle id="Ellipse_86" data-name="Ellipse 86" cx="1.634" cy="1.634" r="1.634" transform="translate(8.747 44.135)" fill="#f2f2f2"/>
      <circle id="Ellipse_87" data-name="Ellipse 87" cx="1.634" cy="1.634" r="1.634" transform="translate(18.824 15.271)" fill="#f2f2f2"/>
      <circle id="Ellipse_88" data-name="Ellipse 88" cx="1.634" cy="1.634" r="1.634" transform="translate(18.824 29.703)" fill="#f2f2f2"/>
      <path id="Path_732" data-name="Path 732" d="M5.57,4.128l-.66-.072a5.482,5.482,0,0,0,.131-.666A12.043,12.043,0,0,0,5.161.4a.414.414,0,0,0-.7-.289L3.036,1.409c-.39.354.189.93.578.578l.771-.7a11.441,11.441,0,0,1-.06,1.358A9.083,9.083,0,0,1,4.152,3.71a1.072,1.072,0,0,1-.077.255l-.347-.038c-.388-.042-.49.457-.289.7a.761.761,0,0,0,.862.182l1.27.138a.411.411,0,0,0,.409-.409.418.418,0,0,0-.409-.409ZM3.986,4.054c-.009,0-.017.006-.018,0S3.974,4.048,3.986,4.054Z" transform="translate(-2.115 0)" fill="#f2f2f2"/>
      <path id="Path_733" data-name="Path 733" d="M6.3,56.832l-1.13-.091A3.98,3.98,0,0,0,6.479,54.26a1.745,1.745,0,0,0-.886-1.769,1.235,1.235,0,0,0-1.721.658,1.024,1.024,0,0,0,1.24,1.314c.5-.158.286-.947-.217-.788a.2.2,0,0,1-.267-.18.356.356,0,0,1,.282-.318c.559-.128.787.589.759,1.006A3.374,3.374,0,0,1,3.813,56.7c-.385.2-.169.731.206.761l2.277.183a.412.412,0,0,0,.409-.409.417.417,0,0,0-.409-.409Z" transform="translate(-2.626 -38.101)" fill="#f2f2f2"/>
      <path id="Path_734" data-name="Path 734" d="M6.837,107.629a1.357,1.357,0,0,0,.252-1.338,1.6,1.6,0,0,0-1.149-1,2.158,2.158,0,0,0-1.612.316c-.446.277-.036.984.412.706s1.178-.42,1.518.114a.56.56,0,0,1-.014.644.4.4,0,0,1-.142.1,1.723,1.723,0,0,0-.575-.084.412.412,0,0,0-.206.761,1.144,1.144,0,0,0,.7.169.928.928,0,0,1,.446,1.177.947.947,0,0,1-1.544.3c-.376-.368-.955.21-.578.578a1.833,1.833,0,0,0,1.649.478,1.744,1.744,0,0,0,.846-2.926Z" transform="translate(-3.009 -76.583)" fill="#f2f2f2"/>
      <path id="Path_735" data-name="Path 735" d="M4.013,160.186l.236-2.291a.411.411,0,0,0-.409-.409.418.418,0,0,0-.409.409L3.2,160.161c-.759.008-1.518.016-2.277.021H.91l0-.005.1-.175.165-.292.725-1.287a.409.409,0,0,0-.706-.412L.356,159.5a1.981,1.981,0,0,0-.355.8.654.654,0,0,0,.482.656,2.485,2.485,0,0,0,.745.044l.85-.008,1.036-.009-.191,1.853a.411.411,0,0,0,.409.409.418.418,0,0,0,.409-.409l.192-1.869a.418.418,0,0,0,.08-.776Zm-3.275-.01c-.038,0-.031-.022,0,0Z" transform="translate(0 -114.594)" fill="#f2f2f2"/>
    </g>
    <path id="Path_736" data-name="Path 736" d="M668.2,265.667l-7.608-28.161a4.708,4.708,0,0,0-5.711-3.319h0a4.708,4.708,0,0,0-3.323,5.971l8.8,29.01,4.6,17.853a4.109,4.109,0,1,0,5.268.235l-2.03-21.588Z" transform="translate(-473.941 -170.296)" fill="#ffb6b6"/>
    <path id="Path_737" data-name="Path 737" d="M405.673,257.842l23.117-17.791a4.708,4.708,0,0,0,.885-6.546h0a4.708,4.708,0,0,0-6.787-.789l-23.447,19.217L384.7,263.008a4.109,4.109,0,1,0,1.8,4.958l19.175-10.124Z" transform="translate(-275.441 -168.536)" fill="#ffb6b6"/>
    <path id="Path_738" data-name="Path 738" d="M541.433,189.729H530.772l-4.578,7.834-2.181-.12a7.832,7.832,0,0,0-5.835,2.139c-.755.715,0,2.578-1.8,2.544-2.141-.04-4.778,4.223-4.087,6.437v11.984c3.423-.126,6.324-5.63,6.264-10.077,0,0-4.958,7.364,1.966,11.486,0,0-1.235,13.757,0,13.674s1.847.715.182,1.405c-3.006,1.247.871,2.755,1.239,3.123l.368.368c3.815-7.747,18.24,3.37,30.158,6.354,1.354-1.024,1.9-3.3-.552-5.228-2.306-1.816.885-5.791,1.742-5.162.837.615-3.455-4.723-2.823-7.252s1.58-1.58.632-2.529,4.016-5.817,1.1-10.374l2.331,9.329c-1.572.287-1.693.837-1.212,1.964.167.39,1.052.526,1.071,2.17s1.034-.593.526.389.539.3.854.438c3.839,1.25,6.988.111,9.8-2.179.185-.515,1.942-2.361.7-1.862s-1.215-.522.133-.692-.17-.857-.256-1.329c-.159-.872-.578-1.751-1.937-1.293-.728-4.577-1.2-11.227-3.571-13.472,0-1.166-1.286-8.441-2.958-8.17s-.892-.967-1.434-1.4a15.246,15.246,0,0,0-8.642-3.242h-.56l-5.989-7.256Z" transform="translate(-372.687 -138.055)" fill="#f9b827"/>
    <path id="Path_739" data-name="Path 739" d="M572.6,131.4c-7.73,2.026-15.747,2.863-19.024,7.267,0,0,3.949-7.418-.1-7.385-6.81.054.709-12.511,3.242-14.024,4.221-2.522,14.2-.8,14.2-.8l4.994,6.242-3.312,8.7Z" transform="translate(-400.709 -84.32)" fill="#2f2e41"/>
    <circle id="Ellipse_89" data-name="Ellipse 89" cx="10.984" cy="10.984" r="10.984" transform="translate(152.647 27.122)" fill="#ffb6b6"/>
    <path id="Path_740" data-name="Path 740" d="M573.246,98l-.322,1.876L565.455,98.6a2.725,2.725,0,0,0-.077-2.181,4.644,4.644,0,0,1-.894,2.014c-4.538.535-4.63,1.355-7.385-.408a1.687,1.687,0,0,1-1.377-1.948h0c.988-5.753,2.828-11.288,8.6-10.419A10.661,10.661,0,0,1,573.246,98Z" transform="translate(-404.349 -62.261)" fill="#2f2e41"/>
    <path id="Path_741" data-name="Path 741" d="M573.8,113.207a10.989,10.989,0,0,0-11.141-12.84,6.7,6.7,0,0,1,4.095-2.213l9.065-.142c4.146.712,11.16.757,12.922,4.238,1.626,3.2-1.353,6.906-.013,10.231,1.469,3.644.413,6.793-1.039,8.252-1.681,1.688-4.5,3.771-6.838,3.506a3.337,3.337,0,0,0-.24-2.27,5.714,5.714,0,0,1-.825,2.092l-16.8,4.818c1.6-.535,3.706-2.758,5.633-5.445,1.141-1.59,3.84-1.193,3.1-5S573.579,114.5,573.8,113.207Z" transform="translate(-409.416 -71.319)" fill="#2f2e41"/>
    <path id="Path_742" data-name="Path 742" d="M289.286,197.39H220.38a6.271,6.271,0,0,1-6.264-6.264v-49.3a6.271,6.271,0,0,1,6.264-6.264h68.906a6.271,6.271,0,0,1,6.264,6.264v49.3A6.271,6.271,0,0,1,289.286,197.39Z" transform="translate(-155.8 -98.643)" fill="#fff"/>
    <path id="Path_743" data-name="Path 743" d="M289.286,197.39H220.38a6.271,6.271,0,0,1-6.264-6.264v-49.3a6.271,6.271,0,0,1,6.264-6.264h68.906a6.271,6.271,0,0,1,6.264,6.264v49.3A6.271,6.271,0,0,1,289.286,197.39Zm-37.894-61.28a36.732,36.732,0,0,0-36.732,36.732v18.284a5.719,5.719,0,0,0,5.719,5.719h68.906a5.719,5.719,0,0,0,5.719-5.719v-49.3a5.719,5.719,0,0,0-5.719-5.719Z" transform="translate(-155.8 -98.643)" fill="#3f3d56"/>
    <g id="Group_421" data-name="Group 421" transform="translate(69.997 46.999)">
      <g id="Group_420" data-name="Group 420" transform="translate(0 31.516)">
        <path id="Path_744" data-name="Path 744" d="M268.988,290.46H258.093a1.089,1.089,0,1,1,0-2.179h10.894a1.089,1.089,0,1,1,0,2.179Z" transform="translate(-257.004 -288.281)" fill="#ccc"/>
        <path id="Path_745" data-name="Path 745" d="M292.683,319.744H258.093a1.089,1.089,0,0,1,0-2.179h34.589a1.089,1.089,0,0,1,0,2.179Z" transform="translate(-257.004 -309.589)" fill="#ccc"/>
      </g>
      <circle id="Ellipse_90" data-name="Ellipse 90" cx="17.158" cy="17.158" r="17.158" transform="translate(23.756)" fill="#f9b827"/>
      <path id="Path_746" data-name="Path 746" d="M390.9,211.5a1.265,1.265,0,0,0-1.261,1.263v10.581a1.262,1.262,0,0,0,1.838,1.123l10.326-5.29a1.262,1.262,0,0,0,0-2.247l-10.326-5.291A1.262,1.262,0,0,0,390.9,211.5Z" transform="translate(-353.513 -200.897)" fill="#fff"/>
    </g>
  </g>
</svg>
