<svg id="Card1_Homepage_illu" xmlns="http://www.w3.org/2000/svg" width="203.654" height="122.615" viewBox="0 0 203.654 122.615">
  <path id="Path_656" data-name="Path 656" d="M544.224,241.959a3.1,3.1,0,0,1-3.08,3.113H405.62a3.1,3.1,0,0,1-3.08-3.112V149.388a3.1,3.1,0,0,1,3.08-3.113H541.144a3.1,3.1,0,0,1,3.08,3.112h0Z" transform="translate(-340.571 -146.275)" fill="#e6e6e6"/>
  <path id="Path_657" data-name="Path 657" d="M549.314,247.012a3.01,3.01,0,0,1-3.01,3.01H413.93a3.01,3.01,0,0,1-3.01-3.01v-89.5a3.01,3.01,0,0,1,3.01-3.01H546.311a3.01,3.01,0,0,1,3,3.01Z" transform="translate(-347.26 -152.844)" fill="#fff"/>
  <path id="c6fe725a-3b03-4a96-90af-cfbd2676500a" d="M343.366,27.48H467.752a1.786,1.786,0,0,1,1.786,1.786v83.825a1.786,1.786,0,0,1-1.786,1.786H343.366a1.786,1.786,0,0,1-1.786-1.786V29.266A1.786,1.786,0,0,1,343.366,27.48Z" transform="translate(-272.631 -21.933)" fill="#e6e6e6"/>
  <path id="Path_658" data-name="Path 658" d="M351.166,37.44h121.1a1.786,1.786,0,0,1,1.786,1.786v79.352a1.786,1.786,0,0,1-1.786,1.786h-121.1a1.786,1.786,0,0,1-1.786-1.786V39.226A1.786,1.786,0,0,1,351.166,37.44Z" transform="translate(-278.857 -29.883)" fill="#fff"/>
  <path id="Path_659" data-name="Path 659" d="M830.251,348.771a3.406,3.406,0,0,1-1.383-.295,1.681,1.681,0,0,1-.288-.164l-8.8-6.2h0a3.405,3.405,0,0,1-1.445-2.784v-8.449a3.4,3.4,0,0,1,1.445-2.783l8.8-6.2a1.678,1.678,0,0,1,.288-.164,3.405,3.405,0,0,1,4.788,3.111v20.511a3.405,3.405,0,0,1-3.405,3.405Z" transform="translate(-672.435 -286.089)" fill="#3f3d56"/>
  <path id="Path_660" data-name="Path 660" d="M646.864,343.859H622.317c-5.008,0-9.066-3.241-9.072-7.236V320.449c.005-3.995,4.064-7.232,9.072-7.236h24.611c4.972,0,9,3.219,9.008,7.185v16.225C655.93,340.617,651.872,343.855,646.864,343.859Z" transform="translate(-508.745 -279.516)" fill="#3f3d56"/>
  <circle id="Ellipse_74" data-name="Ellipse 74" cx="7.3" cy="7.3" r="7.3" transform="translate(174.545 70.779)" fill="#e6e6e6"/>
  <path id="Path_661" data-name="Path 661" d="M991.294,519.075l-5.819-3.36a.151.151,0,0,0-.227.131v6.719a.151.151,0,0,0,.227.131l5.819-3.36a.151.151,0,0,0,0-.262l-5.819-3.36a.151.151,0,0,0-.227.131v6.719a.151.151,0,0,0,.227.131l5.819-3.36a.151.151,0,0,0,0-.262Z" transform="translate(-805.658 -441.127)" fill="#fff"/>
  <path id="Path_662" data-name="Path 662" d="M389.224,296.959a3.1,3.1,0,0,1-3.08,3.113H250.62a3.1,3.1,0,0,1-3.08-3.112V204.388a3.1,3.1,0,0,1,3.08-3.113H386.144a3.1,3.1,0,0,1,3.08,3.112h0Z" transform="translate(-216.858 -190.173)" fill="#e6e6e6"/>
  <path id="Path_663" data-name="Path 663" d="M394.314,302.012a3.01,3.01,0,0,1-3.01,3.01H258.93a3.01,3.01,0,0,1-3.01-3.01v-89.5a3.01,3.01,0,0,1,3.01-3.01H391.311a3.01,3.01,0,0,1,3,3.01Z" transform="translate(-223.547 -196.742)" fill="#fff"/>
  <path id="c6fe725a-3b03-4a96-90af-cfbd2676500a-2" data-name="c6fe725a-3b03-4a96-90af-cfbd2676500a" d="M188.366,82.48H312.752a1.786,1.786,0,0,1,1.786,1.786v83.825a1.786,1.786,0,0,1-1.786,1.786H188.366a1.786,1.786,0,0,1-1.786-1.786V84.266A1.786,1.786,0,0,1,188.366,82.48Z" transform="translate(-148.918 -65.831)" fill="#e6e6e6"/>
  <path id="Path_664" data-name="Path 664" d="M196.166,92.44h121.1a1.786,1.786,0,0,1,1.786,1.786v79.352a1.786,1.786,0,0,1-1.786,1.786h-121.1a1.786,1.786,0,0,1-1.786-1.786V94.226A1.786,1.786,0,0,1,196.166,92.44Z" transform="translate(-155.144 -73.781)" fill="#fff"/>
  <path id="Path_665" data-name="Path 665" d="M675.251,403.771a3.405,3.405,0,0,1-1.383-.295,1.679,1.679,0,0,1-.288-.164l-8.8-6.2h0a3.405,3.405,0,0,1-1.445-2.784v-8.449a3.4,3.4,0,0,1,1.444-2.783l8.8-6.2a1.679,1.679,0,0,1,.288-.164,3.405,3.405,0,0,1,4.788,3.111v20.511a3.405,3.405,0,0,1-3.405,3.405Z" transform="translate(-548.723 -329.987)" fill="#3f3d56"/>
  <path id="Path_666" data-name="Path 666" d="M491.864,398.859H467.317c-5.008,0-9.067-3.241-9.072-7.236V375.449c.005-3.995,4.064-7.232,9.072-7.236h24.611c4.972,0,9,3.219,9.008,7.185v16.225C500.93,395.617,496.872,398.855,491.864,398.859Z" transform="translate(-385.032 -323.414)" fill="#3f3d56"/>
  <circle id="Ellipse_75" data-name="Ellipse 75" cx="7.3" cy="7.3" r="7.3" transform="translate(143.257 81.881)" fill="#e6e6e6"/>
  <path id="Path_667" data-name="Path 667" d="M836.3,574.075l-5.819-3.36a.151.151,0,0,0-.227.131v6.719a.151.151,0,0,0,.227.131l5.819-3.36a.151.151,0,0,0,0-.262l-5.819-3.36a.151.151,0,0,0-.227.131v6.72a.151.151,0,0,0,.227.131l5.819-3.36a.151.151,0,0,0,0-.262Z" transform="translate(-681.948 -485.025)" fill="#fff"/>
  <path id="Path_668" data-name="Path 668" d="M237.224,359.959a3.1,3.1,0,0,1-3.08,3.113H98.62a3.1,3.1,0,0,1-3.08-3.112V267.388a3.1,3.1,0,0,1,3.08-3.113H234.144a3.1,3.1,0,0,1,3.08,3.112h0Z" transform="translate(-95.54 -240.456)" fill="#e6e6e6"/>
  <path id="Path_669" data-name="Path 669" d="M242.314,365.012a3.01,3.01,0,0,1-3.01,3.01H106.93a3.01,3.01,0,0,1-3.01-3.01v-89.5a3.01,3.01,0,0,1,3.01-3.01H239.311a3.01,3.01,0,0,1,3,3.01Z" transform="translate(-102.228 -247.025)" fill="#fff"/>
  <path id="c6fe725a-3b03-4a96-90af-cfbd2676500a-3" data-name="c6fe725a-3b03-4a96-90af-cfbd2676500a" d="M36.367,145.48H160.752a1.786,1.786,0,0,1,1.786,1.786v83.825a1.786,1.786,0,0,1-1.786,1.786H36.367a1.786,1.786,0,0,1-1.786-1.786V147.266A1.786,1.786,0,0,1,36.367,145.48Z" transform="translate(-27.6 -116.114)" fill="#e6e6e6"/>
  <path id="Path_670" data-name="Path 670" d="M44.167,155.44h121.1a1.786,1.786,0,0,1,1.786,1.786v79.352a1.786,1.786,0,0,1-1.786,1.786H44.167a1.786,1.786,0,0,1-1.786-1.786V157.226A1.786,1.786,0,0,1,44.167,155.44Z" transform="translate(-33.826 -124.064)" fill="#fff"/>
  <path id="Path_671" data-name="Path 671" d="M523.251,466.771a3.4,3.4,0,0,1-1.383-.295,1.677,1.677,0,0,1-.288-.164l-8.8-6.2h0a3.405,3.405,0,0,1-1.445-2.784v-8.449a3.4,3.4,0,0,1,1.444-2.783l8.8-6.2a1.675,1.675,0,0,1,.288-.164,3.405,3.405,0,0,1,4.788,3.111v20.511a3.405,3.405,0,0,1-3.405,3.405Z" transform="translate(-427.404 -380.27)" fill="#f9b827"/>
  <path id="Path_672" data-name="Path 672" d="M339.864,461.859H315.317c-5.008,0-9.066-3.241-9.072-7.236V438.449c.005-3.995,4.064-7.232,9.072-7.236h24.611c4.972,0,9,3.219,9.008,7.185v16.225C348.93,458.618,344.872,461.855,339.864,461.859Z" transform="translate(-263.714 -373.697)" fill="#f9b827"/>
  <circle id="Ellipse_76" data-name="Ellipse 76" cx="7.3" cy="7.3" r="7.3" transform="translate(112.576 94.598)" fill="#3f3d56"/>
  <path id="Path_673" data-name="Path 673" d="M684.3,637.075l-5.819-3.36a.151.151,0,0,0-.227.131v6.72a.151.151,0,0,0,.227.131l5.819-3.36a.151.151,0,0,0,0-.262l-5.819-3.36a.151.151,0,0,0-.227.131v6.72a.151.151,0,0,0,.227.131l5.819-3.36a.151.151,0,0,0,0-.262Z" transform="translate(-560.63 -535.308)" fill="#fff"/>
</svg>
