<svg id="Card4_Homepage_illu" xmlns="http://www.w3.org/2000/svg" width="164.544" height="151.078" viewBox="0 0 164.544 151.078">
  <path id="Path_747" data-name="Path 747" d="M308.326,664.454c-2.7,1.858-5.456,3.775-7.324,6.465s-2.683,6.364-1.182,9.275l-.039.181a7.021,7.021,0,0,0,6.78-1.194c2.375-1.993,3.119-5.277,3.725-8.317l1.792-8.993Z" transform="translate(-296.835 -529.966)" fill="#f0f0f0"/>
  <path id="Path_748" data-name="Path 748" d="M322.128,704.142a15.379,15.379,0,0,0-5.186,1.822,5.221,5.221,0,0,0-2.578,4.586l-.059.086a3.951,3.951,0,0,0,3.788.811c1.66-.537,2.742-2.092,3.7-3.549l2.836-4.311Z" transform="translate(-308.039 -560.585)" fill="#f0f0f0"/>
  <path id="Path_749" data-name="Path 749" d="M483.893,195.006H330.241a.223.223,0,0,1,0-.446H483.893a.223.223,0,1,1,0,.446Z" transform="translate(-319.571 -186.977)" fill="#cacaca"/>
  <circle id="Ellipse_91" data-name="Ellipse 91" cx="2.453" cy="2.453" r="2.453" transform="translate(13.236 0)" fill="#3f3d56"/>
  <circle id="Ellipse_92" data-name="Ellipse 92" cx="2.453" cy="2.453" r="2.453" transform="translate(21.71 0)" fill="#3f3d56"/>
  <circle id="Ellipse_93" data-name="Ellipse 93" cx="2.453" cy="2.453" r="2.453" transform="translate(30.184 0)" fill="#3f3d56"/>
  <path id="Path_750" data-name="Path 750" d="M871.485,169.238h-6.021a.446.446,0,1,1,0-.892h6.021a.446.446,0,1,1,0,.892Z" transform="translate(-712.241 -167.738)" fill="#3f3d56"/>
  <path id="Path_751" data-name="Path 751" d="M871.485,175.525h-6.021a.446.446,0,1,1,0-.892h6.021a.446.446,0,1,1,0,.892Z" transform="translate(-712.241 -172.352)" fill="#3f3d56"/>
  <path id="Path_752" data-name="Path 752" d="M871.485,181.812h-6.021a.446.446,0,1,1,0-.892h6.021a.446.446,0,1,1,0,.892Z" transform="translate(-712.241 -176.966)" fill="#3f3d56"/>
  <rect id="Rectangle_463" data-name="Rectangle 463" width="101.914" height="61.104" transform="translate(13.175 17.591)" fill="#f0f0f0"/>
  <rect id="Rectangle_464" data-name="Rectangle 464" width="32.113" height="19.254" transform="translate(127.577 17.591)" fill="#f0f0f0"/>
  <path id="Path_753" data-name="Path 753" d="M811.724,332.836H792.617a.9.9,0,0,1,0-1.8h19.107a.9.9,0,0,1,0,1.8Z" transform="translate(-658.441 -287.146)" fill="#e4e4e4"/>
  <path id="Path_754" data-name="Path 754" d="M817.143,321.256H804.2a.9.9,0,0,1,0-1.8h12.946a.9.9,0,0,1,0,1.8Z" transform="translate(-666.94 -278.647)" fill="#e4e4e4"/>
  <rect id="Rectangle_465" data-name="Rectangle 465" width="32.113" height="19.254" transform="translate(127.577 52.603)" fill="#f0f0f0"/>
  <path id="Path_755" data-name="Path 755" d="M811.724,464.441H792.617a.9.9,0,0,1,0-1.8h19.107a.9.9,0,0,1,0,1.8Z" transform="translate(-658.441 -383.739)" fill="#e4e4e4"/>
  <path id="Path_756" data-name="Path 756" d="M817.143,452.861H804.2a.9.9,0,0,1,0-1.8h12.946a.9.9,0,1,1,0,1.8Z" transform="translate(-666.94 -375.24)" fill="#e4e4e4"/>
  <circle id="Ellipse_94" data-name="Ellipse 94" cx="7.605" cy="7.605" r="7.605" transform="translate(58.298 35.253)" fill="#9e616a"/>
  <path id="Path_757" data-name="Path 757" d="M243.274,223.383H224.205l1.07-24.114.132-.138,1.893-2h6.021l2.234,2.163.176.172,4.755,4.556Z" transform="translate(-164.558 -144.688)" fill="#f9b827"/>
  <path id="Path_758" data-name="Path 758" d="M494.337,394.684H479.844c-.1-9.228-.172-16.19-.172-16.19l.74-.45,0,0,8.129-4.935,1.706-2.772.009.1.5,5.843A100.476,100.476,0,0,1,494.337,394.684Z" transform="translate(-429.412 -315.989)" fill="#2f2e41"/>
  <path id="Path_759" data-name="Path 759" d="M569.9,394.684H557a32.1,32.1,0,0,1-.892-8.586c.633-10.14-.827-15.764-.194-15.764l.335.263,3.978,3.142,5.239,1.92,3.635,1.334.633.232v.306C569.737,379.065,569.752,386.19,569.9,394.684Z" transform="translate(-485.251 -315.989)" fill="#2f2e41"/>
  <path id="Path_760" data-name="Path 760" d="M506.035,299.819s.646-1.135.5-4.926,5.622-1.647,10.446-2.008,3.8,6.329,3.8,6.329.348-.4,1.093-3.627a10.542,10.542,0,0,0-.947-6.447c-.5-3.393-3.183-2.306-3.183-2.306a1.408,1.408,0,0,1,1.045,1.58c-1.095-1.919-3.78-.832-3.78-.832-3.581-2.247-7.21.712-7.21.712-4.326.982-1.789,4.422-1.789,4.422C501.657,294.916,506.035,299.819,506.035,299.819Z" transform="translate(-447.327 -254.582)" fill="#2f2e41"/>
  <path id="Path_761" data-name="Path 761" d="M464.534,415.947c.37-7.4.653-13.209.542-13.657-.312-1.247,4.092-2.935,4.226-2.984l0,0h0l.841.453.615,16.19Z" transform="translate(-418.301 -337.252)" fill="#2f2e41"/>
  <path id="Path_762" data-name="Path 762" d="M597.1,409.259h-6.545l-1.873-18.5.772-.564.183.042a15.229,15.229,0,0,1,3.635,1.334,2.2,2.2,0,0,1,.633.537.648.648,0,0,1,.149.459C594,393.089,595.423,400.5,597.1,409.259Z" transform="translate(-509.419 -330.564)" fill="#2f2e41"/>
  <path id="Path_763" data-name="Path 763" d="M468.246,489.945H399.114a1,1,0,1,0,0,2.007h69.132a1,1,0,0,0,0-2.007Z" transform="translate(-369.549 -403.779)" fill="#cacaca"/>
  <path id="Path_764" data-name="Path 764" d="M449.514,489.945v2.007h-50.4a1,1,0,0,1,0-2.007Z" transform="translate(-369.549 -403.779)" fill="#3f3d56"/>
  <circle id="Ellipse_95" data-name="Ellipse 95" cx="2.007" cy="2.007" r="2.007" transform="translate(77.958 85.162)" fill="#3f3d56"/>
  <path id="Path_765" data-name="Path 765" d="M520.382,533.726a4.143,4.143,0,1,1,4.143-4.143A4.143,4.143,0,0,1,520.382,533.726Zm0-7.967a3.824,3.824,0,1,0,3.824,3.824,3.824,3.824,0,0,0-3.824-3.824Z" transform="translate(-456.25 -429.831)" fill="#f9b827"/>
  <path id="Path_766" data-name="Path 766" d="M529.315,537.089a.159.159,0,0,1-.159-.159v-4.143a.159.159,0,1,1,.319,0v4.143A.159.159,0,0,1,529.315,537.089Z" transform="translate(-465.731 -435.106)" fill="#f9b827"/>
  <path id="Path_767" data-name="Path 767" d="M533.429,537.089a.159.159,0,0,1-.159-.159v-4.143a.159.159,0,1,1,.319,0v4.143A.159.159,0,0,1,533.429,537.089Z" transform="translate(-468.751 -435.106)" fill="#f9b827"/>
  <path id="Path_768" data-name="Path 768" d="M460.483,529.582a4.143,4.143,0,1,1,4.143,4.143,4.143,4.143,0,0,1-4.143-4.143Zm.319,0a3.824,3.824,0,1,0,3.824-3.824A3.824,3.824,0,0,0,460.8,529.582Z" transform="translate(-415.328 -429.831)" fill="#3f3d56"/>
  <path id="Path_769" data-name="Path 769" d="M476.385,538.559a.133.133,0,0,0,.066-.247l-1.988-1.148,1.988-1.148a.132.132,0,1,0-.133-.229l-2.187,1.262a.133.133,0,0,0,0,.23l2.187,1.262A.131.131,0,0,0,476.385,538.559Z" transform="translate(-425.297 -437.412)" fill="#3f3d56"/>
  <path id="Path_770" data-name="Path 770" d="M471.4,537.749a.133.133,0,0,0,.133-.133v-3.445a.133.133,0,0,0-.265,0v3.445A.133.133,0,0,0,471.4,537.749Z" transform="translate(-423.24 -436.142)" fill="#3f3d56"/>
  <path id="Path_771" data-name="Path 771" d="M576.138,533.726a4.143,4.143,0,1,1,4.143-4.143,4.143,4.143,0,0,1-4.143,4.143Zm0-7.967a3.824,3.824,0,1,0,3.824,3.824,3.824,3.824,0,0,0-3.824-3.824Z" transform="translate(-497.173 -429.831)" fill="#3f3d56"/>
  <path id="Path_772" data-name="Path 772" d="M580.476,538.559a.133.133,0,0,1-.066-.247l1.988-1.148-1.988-1.148a.133.133,0,0,1,.133-.23l2.187,1.262a.133.133,0,0,1,0,.23l-2.187,1.262A.132.132,0,0,1,580.476,538.559Z" transform="translate(-503.3 -437.412)" fill="#3f3d56"/>
  <path id="Path_773" data-name="Path 773" d="M591.5,537.749a.133.133,0,0,1-.133-.133v-3.445a.133.133,0,0,1,.265,0v3.445A.133.133,0,0,1,591.5,537.749Z" transform="translate(-511.389 -436.142)" fill="#3f3d56"/>
  <path id="Path_774" data-name="Path 774" d="M377.168,523.8a2.12,2.12,0,0,1,.29-3.238l-2.038-7.254,3.73,1.191,1.364,6.706a2.132,2.132,0,0,1-3.345,2.6Z" transform="translate(-352.894 -420.929)" fill="#ffb6b6"/>
  <path id="Path_775" data-name="Path 775" d="M369.029,414.683l-.773-.8s-2.389,1.641-1.883,6.727c.373,3.757-.806,5.35-.675,16.27l3.331,10,3.852-2.019-2.787-12.339Z" transform="translate(-345.751 -347.949)" fill="#f9b827"/>
  <path id="Path_776" data-name="Path 776" d="M98.358,526.537h2.762l1.314-10.655H98.357Z" transform="translate(-72.19 -378.638)" fill="#ffb6b6"/>
  <path id="Path_777" data-name="Path 777" d="M386.461,718.6h5.44a3.467,3.467,0,0,1,3.467,3.467v.113h-8.907Z" transform="translate(-360.998 -571.603)" fill="#2f2e41"/>
  <path id="Path_778" data-name="Path 778" d="M128.639,523.078l2.742.336,2.6-10.415-4.046-.5Z" transform="translate(-94.416 -376.158)" fill="#ffb6b6"/>
  <path id="Path_779" data-name="Path 779" d="M415.971,714.625l5.4.662h0a3.467,3.467,0,0,1,3.019,3.863l-.014.112-8.84-1.084Z" transform="translate(-382.338 -568.686)" fill="#2f2e41"/>
  <path id="Path_780" data-name="Path 780" d="M374.332,516.654s-5.321,3.637-2.661,13.48l3.6,38.208,4.274-.03,1.811-18.853,1.23-13.273,4.111,13.725-3.382,16.841,4.991.525,5.98-19.585L391.4,519.808Z" transform="translate(-349.596 -423.382)" fill="#2f2e41"/>
  <path id="Path_781" data-name="Path 781" d="M390.331,403.181,387.625,401l-7.175-.3-5.189,3.5s-.536,12.476,2.976,23.59l-1.841,4.642,18.407,2.309Z" transform="translate(-352.756 -338.283)" fill="#f9b827"/>
  <circle id="Ellipse_96" data-name="Ellipse 96" cx="6.155" cy="6.155" r="6.155" transform="translate(25.619 47.447)" fill="#ffb6b6"/>
  <path id="Path_782" data-name="Path 782" d="M383.79,338.207h-1.368a6.386,6.386,0,0,0-8.21,6.119l-2.13,7.029a1.357,1.357,0,0,0,1.3,1.75h1.04a3.061,3.061,0,0,0,.533-2.132,6.293,6.293,0,0,1,.4,1.467,2.587,2.587,0,0,1-.014.665h9.045a3.376,3.376,0,0,0-.818-2.433,12.17,12.17,0,0,1,1.885,2.433h.17a1.357,1.357,0,0,0,1.357-1.357v-6.891h3.458A6.651,6.651,0,0,0,383.79,338.207Z" transform="translate(-350.402 -292.214)" fill="#2f2e41"/>
  <path id="Path_783" data-name="Path 783" d="M437.168,521.8a2.12,2.12,0,0,1,.29-3.238l-2.038-7.254,3.73,1.191,1.364,6.706a2.132,2.132,0,0,1-3.345,2.6Z" transform="translate(-396.932 -419.461)" fill="#ffb6b6"/>
  <path id="Path_784" data-name="Path 784" d="M421.467,411.3l2.333-1.377s3.67-.647,4.061,4.242.956,17.581.956,17.581l1.145,10.7-4.248.906-4.882-14.631Z" transform="translate(-386.226 -345.023)" fill="#f9b827"/>
  <path id="Path_785" data-name="Path 785" d="M347.416,732.473h-56.4a.266.266,0,1,1,0-.532h56.4a.266.266,0,1,1,0,.532Z" transform="translate(-290.75 -581.395)" fill="#cacaca"/>
</svg>
