<svg xmlns="http://www.w3.org/2000/svg" width="234.503" height="150.425" viewBox="0 0 234.503 150.425">
  <g id="Card2_Hompage_illu" transform="translate(-0.005 0)">
    <path id="Path_674" data-name="Path 674" d="M794.15,368.87H734.892a8.141,8.141,0,0,1-8.131-8.131V267.267a8.141,8.141,0,0,1,8.132-8.132H794.15a8.141,8.141,0,0,1,8.132,8.132v93.472a8.141,8.141,0,0,1-8.132,8.131Z" transform="translate(-574.946 -235.96)" fill="#e6e6e6"/>
    <path id="Path_675" data-name="Path 675" d="M809.737,276.933H749.385a2.549,2.549,0,0,0-2.546,2.546v94.69a2.55,2.55,0,0,0,2.546,2.546h60.352a2.549,2.549,0,0,0,2.546-2.546V279.478A2.549,2.549,0,0,0,809.737,276.933Z" transform="translate(-589.55 -248.905)" fill="#fff"/>
    <path id="Path_676" data-name="Path 676" d="M761.9,257.475a.623.623,0,0,1,.622-.622h4.23a.622.622,0,0,1,0,1.244h-4.23A.623.623,0,0,1,761.9,257.475Z" transform="translate(-600.504 -234.3)" fill="#e6e6e6"/>
    <path id="Path_677" data-name="Path 677" d="M787.454,257.475a.623.623,0,0,1,.622-.622h4.23a.622.622,0,0,1,0,1.244h-4.23A.623.623,0,0,1,787.454,257.475Z" transform="translate(-619.092 -234.3)" fill="#e6e6e6"/>
    <path id="Path_678" data-name="Path 678" d="M940.785,257.475a.623.623,0,0,1,.622-.622h4.23a.622.622,0,0,1,0,1.244h-4.23A.623.623,0,0,1,940.785,257.475Z" transform="translate(-730.619 -234.3)" fill="#e6e6e6"/>
    <path id="Path_679" data-name="Path 679" d="M787.924,507.023c0,.654-.012,1.306-.042,1.951h-38.5a2.55,2.55,0,0,1-2.546-2.546V458.767a48.881,48.881,0,0,1,41.085,48.256Z" transform="translate(-589.55 -381.165)" fill="#f2f2f2"/>
    <rect id="Rectangle_454" data-name="Rectangle 454" width="16.723" height="3.842" rx="1.921" transform="translate(181.526 52.361)" fill="#f9b827"/>
    <rect id="Rectangle_455" data-name="Rectangle 455" width="34.973" height="3.842" rx="1.921" transform="translate(172.401 60.046)" fill="#e6e6e6"/>
    <rect id="Rectangle_456" data-name="Rectangle 456" width="34.973" height="3.842" rx="1.921" transform="translate(172.401 67.73)" fill="#e6e6e6"/>
    <path id="Path_680" data-name="Path 680" d="M847.516,531.556a.913.913,0,0,1-.661-1.582l.063-.249-.025-.06a2.451,2.451,0,0,0-4.521.017,21.766,21.766,0,0,0-1.913,5.448,7.251,7.251,0,0,0,.127,2.494,29.073,29.073,0,0,1-2.645-12.075,28.055,28.055,0,0,1,.174-3.13q.144-1.278.4-2.538a29.41,29.41,0,0,1,5.832-12.464,7.826,7.826,0,0,0,3.255-3.377,5.965,5.965,0,0,0,.543-1.631c-.158.021-.32.034-.478.044l-.151.008H847.5a.9.9,0,0,1-.743-1.473l.205-.253c.1-.13.211-.257.314-.387a.49.49,0,0,0,.034-.039l.358-.442a2.615,2.615,0,0,0-.857-.829,3.015,3.015,0,0,0-3.715.868,4.726,4.726,0,0,0-.73,3.957,10.477,10.477,0,0,0,1.45,3.232c-.065.083-.132.164-.2.247a29.6,29.6,0,0,0-3.089,4.894,12.3,12.3,0,0,0-.735-5.715,20.616,20.616,0,0,0-3.182-4.591,2.526,2.526,0,0,0-4.5,1.24l-.007.065q.259.146.506.31a1.238,1.238,0,0,1-.5,2.253l-.025,0a12.314,12.314,0,0,0,.325,1.842,12.684,12.684,0,0,0,6.315,7.949c.1.052.2.1.3.153A30.212,30.212,0,0,0,837.4,523.4a28.658,28.658,0,0,0,.021,4.627l-.008-.055a7.572,7.572,0,0,0-2.585-4.372c-1.989-1.634-4.8-2.236-6.946-3.549a1.421,1.421,0,0,0-2.176,1.382l.009.057a8.322,8.322,0,0,1,.933.449q.259.146.506.31a1.238,1.238,0,0,1-.5,2.253l-.025,0-.052.008a12.332,12.332,0,0,0,2.268,3.551,12.7,12.7,0,0,0,9.207,4.04h0a30.211,30.211,0,0,0,2.029,5.923h7.248c.026-.081.049-.164.073-.244a8.235,8.235,0,0,1-2.005-.119c.538-.66,1.075-1.325,1.613-1.985a.437.437,0,0,0,.034-.039c.273-.338.548-.673.821-1.01h0a12.06,12.06,0,0,0-.353-3.073Zm-8.3-16.327,0-.005,0,.01ZM837.611,529.7l-.062-.14c0-.1,0-.2,0-.307,0-.029-.005-.057-.005-.086.023.179.044.359.07.538Z" transform="translate(-646.908 -410.219)" fill="#ccc"/>
    <path id="Path_681" data-name="Path 681" d="M820.36,305.2H766.041a.45.45,0,1,1,0-.9H820.36a.45.45,0,0,1,0,.9Z" transform="translate(-603.19 -268.809)" fill="#cacaca"/>
    <ellipse id="Ellipse_77" data-name="Ellipse 77" cx="1.321" cy="1.351" rx="1.321" ry="1.351" transform="translate(164.428 31.487)" fill="#3f3d56"/>
    <ellipse id="Ellipse_78" data-name="Ellipse 78" cx="1.321" cy="1.351" rx="1.321" ry="1.351" transform="translate(168.993 31.487)" fill="#3f3d56"/>
    <ellipse id="Ellipse_79" data-name="Ellipse 79" cx="1.321" cy="1.351" rx="1.321" ry="1.351" transform="translate(173.557 31.487)" fill="#3f3d56"/>
    <path id="Path_682" data-name="Path 682" d="M950.2,291.535h-2.957a.224.224,0,0,0,0,.448H950.2a.224.224,0,1,0,0-.448Z" transform="translate(-735.155 -259.526)" fill="#3f3d56"/>
    <path id="Path_683" data-name="Path 683" d="M950.2,294.618h-2.957a.224.224,0,0,0,0,.448H950.2a.224.224,0,1,0,0-.448Z" transform="translate(-735.155 -261.769)" fill="#3f3d56"/>
    <path id="Path_684" data-name="Path 684" d="M950.2,297.7h-2.957a.224.224,0,0,0,0,.448H950.2a.224.224,0,1,0,0-.448Z" transform="translate(-735.155 -264.007)" fill="#3f3d56"/>
    <path id="Path_685" data-name="Path 685" d="M546.939,458.9H515.447a1.68,1.68,0,0,0-1.678,1.682v49.749h34.852V460.579a1.681,1.681,0,0,0-1.682-1.682ZM531.3,487.164a3.736,3.736,0,0,1-3.719-3.719v-5.738a3.719,3.719,0,0,1,7.438,0v5.738a3.736,3.736,0,0,1-3.719,3.719Z" transform="translate(-420.024 -381.259)" fill="#e6e6e6"/>
    <path id="Path_686" data-name="Path 686" d="M513.372,641.7v4.8a.94.94,0,0,0,.938.938H547.5a.943.943,0,0,0,.938-.938v-4.8Z" transform="translate(-419.735 -514.225)" fill="#ccc"/>
    <path id="Path_687" data-name="Path 687" d="M455.924,174.129H321.307a4.37,4.37,0,0,0-4.363,4.363v90.84a4.367,4.367,0,0,0,4.363,4.363H455.924a4.367,4.367,0,0,0,4.363-4.363v-90.84A4.37,4.37,0,0,0,455.924,174.129Z" transform="translate(-276.86 -174.129)" fill="#e6e6e6"/>
    <path id="Path_688" data-name="Path 688" d="M463.216,185.688H330.847a2.338,2.338,0,0,0-2.333,2.338v88.589a2.337,2.337,0,0,0,2.333,2.333H463.216a2.337,2.337,0,0,0,2.333-2.333V188.026a2.338,2.338,0,0,0-2.333-2.338Z" transform="translate(-285.275 -182.537)" fill="#fff"/>
    <path id="Path_689" data-name="Path 689" d="M651.576,188.026v88.589a2.337,2.337,0,0,1-2.333,2.333H602.566a57.277,57.277,0,0,1-12.5-16.813q-.306-.611-.582-1.237a56.771,56.771,0,0,1-5.045-19.419c-.034-.412-.063-.825-.082-1.242-.063-1.067-.092-2.149-.092-3.236A57.018,57.018,0,0,1,588.29,215.9c.16-.417.33-.83.5-1.242a57.435,57.435,0,0,1,27.335-28.965h33.113A2.338,2.338,0,0,1,651.576,188.026Z" transform="translate(-471.302 -182.537)" fill="#f9b827"/>
    <path id="Path_690" data-name="Path 690" d="M466.43,227.829H342.573a.493.493,0,1,1,0-.985H466.43a.493.493,0,1,1,0,.985Z" transform="translate(-295.143 -212.472)" fill="#cacaca"/>
    <ellipse id="Ellipse_80" data-name="Ellipse 80" cx="2.887" cy="2.951" rx="2.887" ry="2.951" transform="translate(52.974 5.955)" fill="#3f3d56"/>
    <ellipse id="Ellipse_81" data-name="Ellipse 81" cx="2.887" cy="2.951" rx="2.887" ry="2.951" transform="translate(62.946 5.955)" fill="#3f3d56"/>
    <ellipse id="Ellipse_82" data-name="Ellipse 82" cx="2.887" cy="2.951" rx="2.887" ry="2.951" transform="translate(72.917 5.955)" fill="#3f3d56"/>
    <path id="Path_691" data-name="Path 691" d="M755.829,198.655h-7.083a.536.536,0,1,0,0,1.073h7.083a.536.536,0,1,0,0-1.073Z" transform="translate(-590.547 -191.968)" fill="#3f3d56"/>
    <path id="Path_692" data-name="Path 692" d="M755.829,206.039h-7.083a.536.536,0,1,0,0,1.073h7.083a.536.536,0,1,0,0-1.073Z" transform="translate(-590.547 -197.339)" fill="#3f3d56"/>
    <path id="Path_693" data-name="Path 693" d="M755.829,213.414h-7.083a.536.536,0,1,0,0,1.073h7.083a.536.536,0,1,0,0-1.073Z" transform="translate(-590.547 -202.704)" fill="#3f3d56"/>
    <rect id="Rectangle_457" data-name="Rectangle 457" width="19.686" height="4.21" rx="2.105" transform="translate(66.85 44.132)" fill="#f9b827"/>
    <rect id="Rectangle_458" data-name="Rectangle 458" width="39.682" height="4.21" rx="2.105" transform="translate(56.852 52.551)" fill="#e6e6e6"/>
    <rect id="Rectangle_459" data-name="Rectangle 459" width="39.682" height="4.21" rx="2.105" transform="translate(56.852 60.97)" fill="#e6e6e6"/>
    <path id="Path_694" data-name="Path 694" d="M345.366,470.3a14.464,14.464,0,0,1-.912,5.079H330.847a2.337,2.337,0,0,1-2.333-2.333V455.932a14.371,14.371,0,0,1,2.3-.184A14.552,14.552,0,0,1,345.366,470.3Z" transform="translate(-285.275 -378.969)" fill="#f9b827"/>
    <path id="Path_695" data-name="Path 695" d="M651.943,254.773v-1.242H631.127V239.138H629.89v14.393H606.033V239.138H604.8v14.393H589.04c-.175.412-.344.825-.5,1.242H604.8v24.342h-20.19c.019.417.049.83.083,1.242H604.8v19.418H589.734q.276.626.582,1.237H604.8v16.323h1.237V301.012H629.89v16.323h1.237V301.012h20.816v-1.237H631.127a19.419,19.419,0,0,1,19.418-19.419h1.4v-1.242H631.127V254.773Zm-22.053,45H606.033V280.357H629.89Zm0-20.66H606.033v-.485a23.857,23.857,0,0,1,23.857-23.857h0Z" transform="translate(-471.548 -221.415)" opacity="0.2"/>
    <path id="Path_696" data-name="Path 696" d="M687.427,369.6a1.3,1.3,0,0,1-.939-2.247l.089-.353-.035-.085a3.481,3.481,0,0,0-6.421.024c-1.05,2.529-2.388,5.063-2.717,7.738a10.3,10.3,0,0,0,.181,3.542,41.29,41.29,0,0,1-3.756-17.149,39.852,39.852,0,0,1,.247-4.446q.2-1.815.568-3.6a41.768,41.768,0,0,1,8.283-17.7,11.115,11.115,0,0,0,4.623-4.8,8.482,8.482,0,0,0,.771-2.317c-.225.03-.454.048-.679.063l-.214.011H687.4a1.284,1.284,0,0,1-1.055-2.092l.292-.359c.148-.185.3-.365.447-.55a.64.64,0,0,0,.048-.055c.17-.21.339-.417.509-.627a3.714,3.714,0,0,0-1.218-1.177,4.281,4.281,0,0,0-5.276,1.232,6.712,6.712,0,0,0-1.037,5.619,14.884,14.884,0,0,0,2.059,4.59c-.092.118-.188.232-.28.351a42.046,42.046,0,0,0-4.388,6.951,17.474,17.474,0,0,0-1.043-8.117c-1-2.409-2.87-4.438-4.519-6.521a3.587,3.587,0,0,0-6.389,1.761l-.01.092q.367.207.719.44a1.758,1.758,0,0,1-.709,3.2l-.036.005a17.5,17.5,0,0,0,.461,2.616,18.014,18.014,0,0,0,8.969,11.29c.144.074.284.148.428.218a42.9,42.9,0,0,0-2.31,10.869,40.7,40.7,0,0,0,.029,6.571l-.011-.077a10.753,10.753,0,0,0-3.671-6.209c-2.825-2.321-6.816-3.175-9.864-5.041a2.018,2.018,0,0,0-3.091,1.963l.012.081a11.812,11.812,0,0,1,1.325.638q.367.207.719.44a1.758,1.758,0,0,1-.709,3.2l-.036.006-.074.011a17.51,17.51,0,0,0,3.221,5.044,18.029,18.029,0,0,0,13.076,5.737h0a42.9,42.9,0,0,0,2.882,8.412h10.294c.037-.114.07-.232.1-.347a11.7,11.7,0,0,1-2.848-.17c.764-.937,1.527-1.882,2.291-2.819a.64.64,0,0,0,.048-.055c.387-.48.779-.956,1.166-1.435h0a17.134,17.134,0,0,0-.5-4.364Zm-11.788-23.188.005-.007-.005.015Zm-2.28,20.554-.089-.2c0-.144,0-.288,0-.435,0-.041-.007-.081-.007-.122.033.255.063.509.1.764Z" transform="translate(-523.791 -282.375)" fill="#2f2e41"/>
    <path id="Path_697" data-name="Path 697" d="M312.991,347.47h0V333.636a8.007,8.007,0,0,0-8.007-8.007h-29.31a8.007,8.007,0,0,0-8.007,8.007v75.9a8.007,8.007,0,0,0,8.007,8.007h29.31a8.007,8.007,0,0,0,8.007-8.007V357.318h0a.505.505,0,0,0,.505-.505v-8.837A.5.5,0,0,0,312.991,347.47Z" transform="translate(-241.017 -284.325)" fill="#e6e6e6"/>
    <path id="Path_698" data-name="Path 698" d="M317.182,339.248v75.788a5.976,5.976,0,0,1-5.914,5.976.521.521,0,0,1-.065,0H281.75a5.979,5.979,0,0,1-5.979-5.978V339.248a5.979,5.979,0,0,1,5.978-5.979h3.575a2.843,2.843,0,0,0,2.631,3.915h16.792a2.845,2.845,0,0,0,2.628-3.915H311.2a5.979,5.979,0,0,1,5.979,5.978Z" transform="translate(-246.912 -289.882)" fill="#fff"/>
    <path id="Path_699" data-name="Path 699" d="M311.342,546.713q0,1.178-.074,2.336a.509.509,0,0,1-.065,0H281.75a5.979,5.979,0,0,1-5.979-5.978V509.3A37.457,37.457,0,0,1,311.342,546.713Z" transform="translate(-246.912 -417.92)" fill="#f2f2f2"/>
    <path id="Path_700" data-name="Path 700" d="M266.443,418.127a.682.682,0,0,1-.682-.682v-4.635a.682.682,0,0,1,1.363,0v4.635A.682.682,0,0,1,266.443,418.127Z" transform="translate(-239.631 -347.242)" fill="#e6e6e6"/>
    <rect id="Rectangle_460" data-name="Rectangle 460" width="9.599" height="4.21" rx="2.105" transform="translate(44.765 67.185)" fill="#f9b827"/>
    <rect id="Rectangle_461" data-name="Rectangle 461" width="29.595" height="4.21" rx="2.105" transform="translate(34.767 75.604)" fill="#e6e6e6"/>
    <rect id="Rectangle_462" data-name="Rectangle 462" width="29.595" height="4.21" rx="2.105" transform="translate(34.767 84.023)" fill="#e6e6e6"/>
    <path id="Path_701" data-name="Path 701" d="M338.825,580.89a.608.608,0,0,1-.441-1.054l.042-.166-.017-.04a1.634,1.634,0,0,0-3.013.011,14.506,14.506,0,0,0-1.275,3.631,4.832,4.832,0,0,0,.085,1.662,19.376,19.376,0,0,1-1.763-8.047,18.717,18.717,0,0,1,.116-2.086q.1-.852.267-1.692a19.6,19.6,0,0,1,3.887-8.307,5.215,5.215,0,0,0,2.169-2.251,3.976,3.976,0,0,0,.362-1.087c-.106.014-.213.023-.319.029l-.1.005h-.012a.6.6,0,0,1-.495-.982l.137-.168c.069-.086.14-.171.209-.258l.023-.026.239-.294a1.743,1.743,0,0,0-.571-.552,2.009,2.009,0,0,0-2.476.578,3.15,3.15,0,0,0-.487,2.637,6.985,6.985,0,0,0,.966,2.154c-.043.055-.088.109-.132.164a19.723,19.723,0,0,0-2.059,3.262,8.2,8.2,0,0,0-.49-3.809,13.738,13.738,0,0,0-2.12-3.06,1.683,1.683,0,0,0-3,.827l0,.043q.172.1.337.206a.825.825,0,0,1-.333,1.5l-.017,0a8.212,8.212,0,0,0,.216,1.228,8.453,8.453,0,0,0,4.209,5.3c.068.035.133.069.2.1a20.137,20.137,0,0,0-1.084,5.1,19.1,19.1,0,0,0,.014,3.084l-.005-.036a5.046,5.046,0,0,0-1.723-2.914c-1.326-1.089-3.2-1.49-4.629-2.365a.947.947,0,0,0-1.451.921l.006.038a5.547,5.547,0,0,1,.622.3q.172.1.337.206a.825.825,0,0,1-.333,1.5l-.017,0-.035.005a8.218,8.218,0,0,0,1.511,2.367,8.461,8.461,0,0,0,6.136,2.692h0a20.129,20.129,0,0,0,1.352,3.948H338.7c.017-.054.033-.109.048-.163a5.49,5.49,0,0,1-1.337-.08c.358-.44.717-.883,1.075-1.323l.023-.026c.182-.225.365-.448.547-.673h0a8.042,8.042,0,0,0-.236-2.048Zm-5.532-10.881,0,0,0,.007Zm-1.07,9.645-.042-.093c0-.068,0-.135,0-.2,0-.019,0-.038,0-.057.016.119.029.239.047.358Z" transform="translate(-282.199 -454.07)" fill="#ccc"/>
    <path id="Path_702" data-name="Path 702" d="M265.943,385.127a.682.682,0,0,1-.682-.682v-4.635a.682.682,0,0,1,1.363,0v4.635A.682.682,0,0,1,265.943,385.127Z" transform="translate(-239.268 -323.239)" fill="#e6e6e6"/>
    <path id="Path_703" data-name="Path 703" d="M334.261,334.311a.682.682,0,0,1,.682-.682h4.635a.682.682,0,1,1,0,1.363h-4.635A.682.682,0,0,1,334.261,334.311Z" transform="translate(-289.456 -290.144)" fill="#fff"/>
    <path id="Path_704" data-name="Path 704" d="M266.443,447.127a.682.682,0,0,1-.682-.682v-4.635a.682.682,0,0,1,1.363,0v4.635a.682.682,0,0,1-.682.682Z" transform="translate(-239.631 -368.335)" fill="#e6e6e6"/>
    <circle id="Ellipse_83" data-name="Ellipse 83" cx="0.682" cy="0.682" r="0.682" transform="translate(52.03 43.485)" fill="#fff"/>
    <path id="Path_705" data-name="Path 705" d="M404.118,661.01l-233.854.084a.325.325,0,1,1,0-.649l233.854-.084a.325.325,0,0,1,0,.649Z" transform="translate(-169.934 -527.796)" fill="#cacaca"/>
    <path id="Path_706" data-name="Path 706" d="M494.177,369.416l-1.23.264a7.078,7.078,0,0,0-.191-1.527,4.586,4.586,0,0,1-.693,1.716l-7.055,1.507-6.773-7.148c-.01-3.574,1.974-6.29,5.533-6.29.214,0,.437.01.662.031a7.526,7.526,0,0,1,8.616,5.915C495.567,366.366,494.652,367.826,494.177,369.416Z" transform="translate(-394.177 -307.771)" fill="#2f2e41"/>
    <path id="Path_707" data-name="Path 707" d="M379.494,506.377h2.559l1.218-9.871h-3.777Z" transform="translate(-276.026 -361.141)" fill="#ffb6b6"/>
    <path id="Path_708" data-name="Path 708" d="M545.741,701.566l4.045-.241v1.733l3.846,2.656a1.083,1.083,0,0,1-.615,1.974H548.2l-.83-1.714-.324,1.714h-1.816Z" transform="translate(-442.908 -557.592)" fill="#2f2e41"/>
    <path id="Path_709" data-name="Path 709" d="M269.531,499.59l2.226,1.263,5.93-7.984-3.285-1.864Z" transform="translate(-196.043 -357.139)" fill="#ffb6b6"/>
    <path id="Path_710" data-name="Path 710" d="M430.483,691.448l3.638,1.786-.855,1.507,2.034,4.208a1.083,1.083,0,0,1-1.509,1.413l-4.189-2.377.124-1.9-1.128,1.331-1.579-.9Z" transform="translate(-356.924 -550.408)" fill="#2f2e41"/>
    <path id="Path_711" data-name="Path 711" d="M568.8,406.509a2.266,2.266,0,0,0-1.827,2.956l-3.916,3.389,1.479,2.882L570,410.873a2.279,2.279,0,0,0-1.2-4.364Z" transform="translate(-455.877 -343.136)" fill="#ffb6b6"/>
    <path id="Path_712" data-name="Path 712" d="M523.166,427.318c-1.306,1.978-4.234,3.889-8.579,5.583a1.865,1.865,0,0,1-1.5-.049c-1.64-.746-2.69-3.52-2.789-3.789l-3.176-4.284a5.3,5.3,0,0,1-1.372-3.4,2.42,2.42,0,0,1,1.042-1.734c2.4-1.782,7.792,4.407,8.491,5.23l3.516-2.142,2.562-1.143,2.068-2.517,2.912,2.977-2.619,4.167A5.026,5.026,0,0,1,523.166,427.318Z" transform="translate(-414.182 -352.289)" fill="#2f2e41"/>
    <path id="Path_713" data-name="Path 713" d="M530.778,477.169s7.524,11.985,6.161,13.349a7.278,7.278,0,0,1-3.484,1.721l-4.695-6.083Z" transform="translate(-430.927 -394.55)" fill="#2f2e41"/>
    <path id="Path_714" data-name="Path 714" d="M511.761,417.129l3.546,2.4a9.148,9.148,0,0,1,3.564,10.435l-1,3.035Z" transform="translate(-418.563 -350.879)" fill="#2f2e41"/>
    <path id="Path_715" data-name="Path 715" d="M291.682,325.642l-.474,1.651-1.618,19.914-8.083,15.063,3.858,2.755L296.386,350.7l4.359-14.227,6.846,31.495,5.144-.368-3.572-43.667-6.779-12.291Z" transform="translate(-204.754 -226.675)" fill="#2f2e41"/>
    <path id="Path_716" data-name="Path 716" d="M502.784,419.342l4.936,4.034a6.722,6.722,0,0,1,2.231,3.436h0a6.72,6.72,0,0,1,.236,1.881l-.147,8.759,4.525,12.094s-12.269,4.635-13.9.545S502.784,419.342,502.784,419.342Z" transform="translate(-410.189 -352.488)" fill="#f9b827"/>
    <path id="Path_717" data-name="Path 717" d="M494.11,441.281c-6.129,0-7.623.046-7.719.026l-.1-.02V437.6l1.49-6.623c-.174-2.056-.582-4.767-.545-7.089.134-8.39-.279-16.586-.279-16.586l3.244-2.994,1.474.959L494.411,408c3.177,7.82,5.7,15.181,5.715,15.654l.2,8.14-.818,3.272C495.807,437.68,499.188,441.281,494.11,441.281Z" transform="translate(-400.039 -341.554)" fill="#2f2e41"/>
    <path id="Path_718" data-name="Path 718" d="M321.858,267.973l-.745,4.651,5.044,2.08Z" transform="translate(-233.562 -194.914)" opacity="0.2"/>
    <circle id="Ellipse_84" data-name="Ellipse 84" cx="4.938" cy="4.938" r="4.938" transform="translate(88.439 52.006)" fill="#ffb6b6"/>
    <path id="Path_719" data-name="Path 719" d="M482.067,474.9h0a9.071,9.071,0,0,0,10.889,2.2l1.075-.532Z" transform="translate(-396.965 -392.901)" opacity="0.2"/>
    <path id="Path_720" data-name="Path 720" d="M518.287,467.278a2.266,2.266,0,0,0-3.474.1l-4.986-1.4-1.59,2.823,7.069,1.878a2.279,2.279,0,0,0,2.98-3.406Z" transform="translate(-416 -386.414)" fill="#ffb6b6"/>
    <path id="Path_721" data-name="Path 721" d="M474.236,434c-2.371,0-5.578-1.39-9.386-4.082a1.864,1.864,0,0,1-.785-1.278c-.281-1.779,1.455-4.185,1.625-4.416l1.825-5.01A5.3,5.3,0,0,1,469.6,416.2a2.42,2.42,0,0,1,2.022-.086c2.812,1.024.616,8.93.315,9.967l3.725,1.753,2.366,1.508,3.24.339-.88,4.071-4.92.111A5.024,5.024,0,0,1,474.236,434Z" transform="translate(-383.848 -350.007)" fill="#2f2e41"/>
    <path id="Path_722" data-name="Path 722" d="M489.3,359.483c-.4.514-1.757.969-3.375,1.336,0-.034,0-.067,0-.1a7.082,7.082,0,0,0-.191-1.527,4.588,4.588,0,0,1-.693,1.716c-.026.039-.052.078-.08.116-1.388.274-2.856.486-4.005.628.791,2.848,3.822,5.184,3.494,6.915l-8.882,1.814a6.962,6.962,0,0,0-.171-2.145,4.616,4.616,0,0,1-1.287,2.442l-.755.155-.225-1.109c-1.948-4.68.768-9.471,5.217-11.949a5.409,5.409,0,0,1,3.427-2.3l1.109-.227A5.435,5.435,0,0,1,489.3,359.483Z" transform="translate(-390.001 -305.787)" fill="#2f2e41"/>
    <path id="Path_723" data-name="Path 723" d="M598.93,688.583l.131-2.953a9.538,9.538,0,0,1,4.449-1.126c-2.137,1.747-1.87,5.114-3.318,7.463a5.737,5.737,0,0,1-4.207,2.651l-1.788,1.095a9.613,9.613,0,0,1,2.026-7.79,9.289,9.289,0,0,1,1.706-1.586C598.358,687.466,598.93,688.583,598.93,688.583Z" transform="translate(-478.414 -545.357)" fill="#f2f2f2"/>
    <path id="Path_724" data-name="Path 724" d="M460.878,724.139H398.613a.325.325,0,1,1,0-.649h62.265a.325.325,0,1,1,0,.649Z" transform="translate(-336.027 -573.714)" fill="#cacaca"/>
  </g>
</svg>
