<svg xmlns="http://www.w3.org/2000/svg" width="387.603" height="309" viewBox="0 0 387.603 309">
  <g id="_404_error_illu" data-name="404_error_illu" transform="translate(0 0)">
    <path id="Path_1481" data-name="Path 1481" d="M441.733,378.682a1.677,1.677,0,0,0,1.214-2.906l-.115-.457.045-.109a4.293,4.293,0,0,1,5.593-2.3c6.881,2.845-.384,9.382.162,13.806.191,1.527,6.172,1.611,5.834,3.109a53.4,53.4,0,0,0,4.85-22.18A51.54,51.54,0,0,0,459,361.9q-.266-2.348-.736-4.662a54.017,54.017,0,0,0-10.72-22.89c-2.558-1.4-1-3.583-2.287-6.2-.463-.945-4.594-.966-4.766-2,.185.024,2.855-2.749,1.973-4.12a2.273,2.273,0,0,1,.346-2.822,2.382,2.382,0,0,0,.205-.241c2.2-2.988,5.238-2.467,6.824,1.591,3.386,1.707,3.419,4.541,1.343,7.267-1.321,1.734-1.5,4.08-2.66,5.937.119.153.243.3.363.453a54.362,54.362,0,0,1,5.678,8.988,22.6,22.6,0,0,1,1.346-10.5c1.3-3.139,3.745-5.779,5.887-8.493a4.616,4.616,0,0,1,8.217,2.334q.007.059.013.118-.475.268-.93.57a2.274,2.274,0,0,0,.919,4.138l.046.007c-.114,1.14-4.161,4.733-4.447,5.845,2.737,10.57.689,11.966-7.732,12.143l-.442.63a55.534,55.534,0,0,1,2.87,13.708,52.63,52.63,0,0,1-.035,8.5l.014-.1a13.908,13.908,0,0,1,4.745-8.032c3.653-3,8.814-4.11,12.755-6.523a2.61,2.61,0,0,1,4,2.538l-.016.105a15.27,15.27,0,0,0-1.713.826q-.476.269-.931.57a2.273,2.273,0,0,0,.92,4.137l.046.007.1.014c-1.006,2.391-10.59,5.763-12.346,7.677-1.707,9.233-.868,8.958-8.725,6.272h0a55.476,55.476,0,0,1-3.723,10.88l-13.313,0c-.048-.148-.091-.3-.134-.449a15.126,15.126,0,0,0,3.684-.221c-.988-1.212-1.976-2.433-2.964-3.644a.8.8,0,0,1-.062-.072l-.015-.019-1.371-4.512a22.74,22.74,0,0,1,.524-2.97h0Z" transform="translate(-115.074 -82.827)" fill="#f2f2f2"/>
    <path id="Path_1482" data-name="Path 1482" d="M204.287,366.963,86.487,367A16.335,16.335,0,0,1,72.3,342.453L131.164,235.3a16.371,16.371,0,0,1,28.355-.01l58.944,107.129a16.37,16.37,0,0,1-14.176,24.547h0ZM71.565,350.637c0,2.559,13-2.955,14.345-.624,2.694,4.662-4.809,15.516.575,15.514,0,0,128-2.828,130.695-7.492a14.741,14.741,0,0,0-.006-14.893L158.231,236.013a14.735,14.735,0,0,0-12.893-7.429c-5.382,0-73.773,119.493-73.773,122.052h0Z" transform="translate(-18.309 -59.33)" fill="#3f3d56"/>
    <path id="Path_1483" data-name="Path 1483" d="M253.507,407.789c-1.477,2.956,67.68,2.047,68.5,2.047,0,0,19.438-.429,19.847-1.138a2.239,2.239,0,0,0,0-2.262L332.9,390.169a2.238,2.238,0,0,0-1.958-1.128.282.282,0,0,0-.149.088c-11.941,10.67-26.656,17.725-42.668,17.963-17.026.253-34.524.51-34.618.7h0Z" transform="translate(-66.221 -101.634)" fill="#3f3d56"/>
    <path id="Path_1484" data-name="Path 1484" d="M0,416.723a.876.876,0,0,0,.879.879l385.845-.133a.879.879,0,1,0,0-1.758L.879,415.843a.877.877,0,0,0-.879.879Z" transform="translate(0 -108.602)" fill="#ccc"/>
    <g id="Group_722" data-name="Group 722" transform="translate(275.157 278.081)">
      <path id="Path_1485" data-name="Path 1485" d="M400.388,402.191l-6.682,0-3.188-25.772,9.862,0Z" transform="translate(-377.177 -376.418)" fill="#a0616a"/>
      <path id="Path_1486" data-name="Path 1486" d="M372.777,408.443h0a5.737,5.737,0,0,0-.317,1.889h0a2.268,2.268,0,0,0,2.269,2.267l20.693-.007a1.547,1.547,0,0,0,1.547-1.548v-.862a6.614,6.614,0,0,0-1.086-5.78s-2.618,2.5-6.534-1.413l-1.155-2.091-8.353,6.113-4.631.572c-1.013.125-1.911-.019-2.432.859h0Z" transform="translate(-372.46 -382.814)" fill="#2f2e41"/>
    </g>
    <g id="Group_723" data-name="Group 723" transform="translate(250.997 257.398)">
      <path id="Path_1487" data-name="Path 1487" d="M362.972,372.835l-6.329,2.141-11.274-23.393,9.342-3.161Z" transform="translate(-341.223 -348.421)" fill="#a0616a"/>
      <path id="Path_1488" data-name="Path 1488" d="M339.773,386.935h0a5.738,5.738,0,0,0,.3,1.891h0a2.268,2.268,0,0,0,2.875,1.421l19.6-6.634a1.547,1.547,0,0,0,.969-1.961l-.276-.816a6.614,6.614,0,0,0-2.88-5.128s-1.68,3.207-6.642.754l-1.764-1.611-5.955,8.466-4.2,2.025c-.92.443-1.817.594-2.029,1.593h0Z" transform="translate(-339.756 -355.326)" fill="#2f2e41"/>
    </g>
    <path id="Path_1489" data-name="Path 1489" d="M345.232,177.937l-12.96,42.922-15.3,38.608L341.2,314.6l8.981-4-10.747-50.649,22.537-34.369,10.517,107.291,8.983-.5,12.182-129.507,1.737-28.2Z" transform="translate(-82.807 -45.633)" fill="#2f2e41"/>
    <path id="Path_1490" data-name="Path 1490" d="M393.008,50.385l-18.962,3.5-1.494,8.484-11.476,5.493-5.967,62.383s-9.976,12.979-1.99,16.968l50.9-5.008s2.492-9.227,0-10.1-2.5-22.916-2.5-22.916l11.462-45.335-16.97-5.983-3-7.485Z" transform="translate(-91.441 -13.163)" fill="#e6e6e6"/>
    <circle id="Ellipse_225" data-name="Ellipse 225" cx="15.313" cy="15.313" r="15.313" transform="translate(275.07 6.433)" fill="#a0616a"/>
    <path id="Path_1491" data-name="Path 1491" d="M396.494,24.019c-1.222.669-.063,3.863-.826,4.139-.883.319-4.1-3.344-4.141-7.448a13.92,13.92,0,0,0,0-3.311c-.36-1.926-1.463-4.2-2.485-4.138-.606.036-1.2.892-1.241,1.656-.062,1.071.978,1.492.828,2.069-.285,1.1-4.653,1.857-6.208,0-1.219-1.454-.284-4.008-.829-4.138-.4-.1-.833,1.309-2.482,2.9-.621.6-1.545,1.489-2.069,1.242-.756-.356-.207-2.864-.415-2.9-.172-.028-.28,1.735-1.24,3.311-1.233,2.025-3.778,3.586-4.965,2.9-.727-.421-.785-1.593-.829-2.483-.092-1.875-2.817-6.188-2.112-8.194,1.435-4.083,3.893-1.2,5.005-2.567,1.505-1.844,2.856-.853,5.379-2.9,2.465-2,2.486-4.008,4.137-4.14,1.487-.119,2.015,1.467,3.725,1.24,1.449-.192,1.764-1.422,2.9-1.243,1.037.164,1.106,1.247,2.484,1.655.88.26,1.073-.116,2.069,0A5.954,5.954,0,0,1,396.9,4.153c1.005,1.363.615,1.938,1.657,3.31.9,1.183,2.888.681,3.636,1.272,2.445,1.931,3.5,5.493,3.516,9.552.015,2.839-.355,4.274-1.181,7.857-.627,2.721-3.533,6.238-5.134,7.806-.43.421-1.635,1.6-2.483,1.242-.8-.34-.827-1.867-.828-2.069,0-.694.181-1.552,1.654-3.725,1.547-2.283,2.162-2.543,2.068-3.312-.166-1.358-2.338-2.6-3.312-2.068h0Z" transform="translate(-95.971)" fill="#2f2e41"/>
    <g id="Group_724" data-name="Group 724" transform="translate(246.771 54.297)">
      <path id="Path_1492" data-name="Path 1492" d="M334.466,218.248c-.477,3.991,1.2,7.473,3.736,7.776s4.985-2.686,5.462-6.678a10.062,10.062,0,0,0-.5-4.724l1.807-16.937L337,197.006l-.936,16.769a10.061,10.061,0,0,0-1.6,4.473h0Z" transform="translate(-334.127 -105.763)" fill="#a0616a"/>
      <path id="Path_1493" data-name="Path 1493" d="M357.273,73.5s-4.127.059-6.86,5.4c-1.452,2.836-9.221,55.87-9.221,55.87l-7.157,43.445,12.191.061,9.5-41.144,7.991-23.862L357.273,73.5Z" transform="translate(-334.036 -73.498)" fill="#e6e6e6"/>
    </g>
    <path id="Path_1494" data-name="Path 1494" d="M411.76,209.891c-1.167,3.846-.13,7.567,2.318,8.31s5.378-1.773,6.546-5.619a10.06,10.06,0,0,0,.332-4.739l4.742-16.36-7.725-2.062-3.855,16.347a10.062,10.062,0,0,0-2.358,4.124h0Z" transform="translate(-107.445 -49.485)" fill="#a0616a"/>
    <path id="Path_1495" data-name="Path 1495" d="M418.477,69.129s5.987-4.493,10.98,2.491,7.009,64.374,7.009,64.374l-13.961,35.437-10.481-3.49,9.966-43.42L404.512,91.591l13.965-22.462h0Z" transform="translate(-105.676 -17.688)" fill="#e6e6e6"/>
    <g id="Group_726" data-name="Group 726" transform="translate(107.474 176.142)">
      <circle id="Ellipse_226" data-name="Ellipse 226" cx="53.929" cy="53.929" r="53.929" fill="#f9b827"/>
      <g id="Group_725" data-name="Group 725" transform="translate(35.996 17.455)">
        <circle id="Ellipse_227" data-name="Ellipse 227" cx="4.952" cy="4.952" r="4.952" transform="translate(12.991 59.63)" fill="#fff"/>
        <path id="Path_1496" data-name="Path 1496" d="M212.127,265.474c-.455,3.022.36,3.655.365,16.685s2.708,30.5-.348,30.5-4.174-36.053-14.788-39.244c-12.478-3.752,16.244-17.726,14.771-7.942Z" transform="translate(-194.205 -262.059)" fill="#fff"/>
      </g>
    </g>
    <path id="Path_1497" data-name="Path 1497" d="M100.184,326.18l-4.872,10.295c5.89-4.224,15.091-7.865,22.412-9.815-6.822-3.3-15.169-8.608-20.156-13.868l2.8,10.878c-32.855-6.692-56.449-31.9-56.459-60.77l-1.187-.408c.01,30.158,23.278,56.856,57.46,63.688Z" transform="translate(-11.161 -68.574)" fill="#3f3d56"/>
  </g>
</svg>
