<?xml version="1.0" encoding="utf-8"?>
<!-- Generator: Adobe Illustrator 26.0.0, SVG Export Plug-In . SVG Version: 6.00 Build 0)  -->
<svg version="1.1" id="Aftermath_Icon" xmlns="http://www.w3.org/2000/svg" xmlns:xlink="http://www.w3.org/1999/xlink" x="0px"
	 y="0px" viewBox="0 0 54 54" style="enable-background:new 0 0 54 54;" xml:space="preserve">
<style type="text/css">
	.st0{fill-rule:evenodd;clip-rule:evenodd;fill:#172033;stroke:#172033;stroke-width:0.5;stroke-miterlimit:10;}
</style>
<path id="checkmark-computer-desktop-icon" class="st0" d="M8.8,11.5h35.3c0.6,0,1,0.5,1,1v3.1h-1.5V14c0-0.5-0.4-0.9-0.9-0.9H10.2
	c-0.5,0-0.9,0.4-0.9,0.9v10c-0.5,0.1-1,0.2-1.5,0.4V12.5C7.8,12,8.2,11.5,8.8,11.5z M8.8,32.1l1.2,1.1l2.7-2.8
	c0.3-0.3,0.4-0.5,0.7-0.1l1,1c0.3,0.3,0.3,0.5,0,0.8L10.6,36c-0.7,0.6-0.5,0.7-1.2,0l-2.2-2.2c-0.1-0.1-0.1-0.3,0-0.4c0,0,0,0,0.1,0
	l1.2-1.2C8.5,31.9,8.6,31.9,8.8,32.1L8.8,32.1z M10.9,25.8c4.1,0,7.4,3.3,7.4,7.3s-3.3,7.4-7.3,7.4c-4.1,0-7.4-3.3-7.4-7.3
	c0,0,0,0,0,0C3.5,29.1,6.8,25.8,10.9,25.8L10.9,25.8z M39.5,17.7h9.9c0.7,0,1.3,0.6,1.3,1.3v22.8c0,0.7-0.6,1.3-1.3,1.3h-9.9
	c-0.7,0-1.3-0.6-1.3-1.3V18.9C38.2,18.2,38.8,17.7,39.5,17.7L39.5,17.7z M47.4,23h1.2v0.4h-1.2V23z M44.4,37.7
	c0.8,0,1.4,0.6,1.4,1.4c0,0.8-0.6,1.4-1.4,1.4S43,39.9,43,39.1c0,0,0,0,0,0C43,38.3,43.6,37.7,44.4,37.7z M39.9,21.8h9
	c0.1,0,0.3,0.1,0.3,0.3v1.6c0,0.1-0.1,0.3-0.3,0.3h-9c-0.1,0-0.3-0.1-0.3-0.3v-1.6C39.7,21.9,39.8,21.8,39.9,21.8z M36.1,37.6h-17
	c0.7-1.2,1.1-2.6,1.1-4h15.9L36.1,37.6L36.1,37.6z M21.9,39h9.2c0,1.7,0.9,3.3,2.5,4.1H19.4C20.9,42.3,21.8,40.8,21.9,39L21.9,39z"
	/>
</svg>
