<svg xmlns="http://www.w3.org/2000/svg" width="34.476" height="24.988" viewBox="0 0 34.476 24.988">
  <path id="mail-send" d="M26.733,9.5a7.744,7.744,0,1,1-7.744,7.744A7.745,7.745,0,0,1,26.733,9.5ZM1.939,0H28.153a1.927,1.927,0,0,1,1.919,1.919L30.066,8.37a10.462,10.462,0,0,0-1.589-.444l.007-5.192-8.471,6.66.619.606c-.2.175-.4.35-.593.539l-.007.007a8.688,8.688,0,0,0-.626.694l-.734-.72-2.835,2.417a.873.873,0,0,1-1.111.007L11.75,10.511,2.66,19.036H17.427a9.473,9.473,0,0,0,.451,1.589H1.919A1.923,1.923,0,0,1,0,18.706L.013,1.919A1.933,1.933,0,0,1,1.939,0Zm-.35,17.635L10.37,9.414,1.6,2.808ZM2.875,1.589l12.39,9.555L26.982,1.589ZM26.982,13.71l3.367,3.481L26.881,20.78,25.79,19.743l1.737-1.8-4.411.007v-1.5l4.411-.007-1.636-1.69Z" fill="#172033" fill-rule="evenodd"/>
</svg>
