<svg xmlns="http://www.w3.org/2000/svg" width="29.089" height="31.523" viewBox="0 0 29.089 31.523">
  <path id="customizable-icon" d="M25.582,28.218a2.127,2.127,0,0,0,.7-.472L28.427,25.6h0a2.119,2.119,0,0,0,.485-.716,2.07,2.07,0,0,0-.485-2.35L27.173,21.25c-1.237,0-3.453-.228-4.651.349a7.807,7.807,0,0,0-1.249.788,9.217,9.217,0,0,1-6.219,1.924C8.124,23.741,5.017,15.134,9.976,10a7.944,7.944,0,0,1,7.73-2.329c2.235.611,3.335,1.924,5.157,3.038a3,3,0,0,0,1.644.541h.077c.257.018,1.39.033,2.848.049-.087-.213-.182-.426-.28-.647s-.236-.513-.362-.739c-.036-.074-.085-.149-.123-.226l1.221-1.2.028-.028a2.258,2.258,0,0,0,.452-.7,2.254,2.254,0,0,0,0-1.624,2.24,2.24,0,0,0-.446-.7.021.021,0,0,0-.023-.021L25.731,3.277a2.131,2.131,0,0,0-2.383-.482,2.014,2.014,0,0,0-.688.482l-1.367,1.37a10.09,10.09,0,0,0-2.052-.77V2.166a2.255,2.255,0,0,0-.162-.834A2.022,2.022,0,0,0,18.6.644,2.309,2.309,0,0,0,17.9.159,2.209,2.209,0,0,0,17.085,0H14.007a2.052,2.052,0,0,0-1.539.634,2.145,2.145,0,0,0-.457.7,2.235,2.235,0,0,0-.162.834V4.1c-.731.285-1.308.562-2.006.911l-1.2-1.221a2.186,2.186,0,0,0-.726-.459,2.237,2.237,0,0,0-2.324.436C4.866,4.5,4.147,5.229,3.424,5.96a2.137,2.137,0,0,0-.475.708,2.114,2.114,0,0,0,0,1.67,2.16,2.16,0,0,0,.485.682l1.373,1.373a10.09,10.09,0,0,0-.77,2.052H2.326a2.255,2.255,0,0,0-.834.162,2.078,2.078,0,0,0-.711.475c-1.013,1.078-1.3,5.772.711,6.583a2.286,2.286,0,0,0,.834.162H4.273c.285.729.562,1.308.911,2.006l-1.2,1.2a2.355,2.355,0,0,0-.485.7,2.109,2.109,0,0,0,0,1.668,2.052,2.052,0,0,0,.485.7l2.147,2.147a2.168,2.168,0,0,0,.711.485,2.081,2.081,0,0,0,1.668,0,2.052,2.052,0,0,0,.682-.482l1.4-1.373a11.019,11.019,0,0,0,2.04.77v1.706a2.255,2.255,0,0,0,.162.834,2,2,0,0,0,.475.688l.021.023a2.376,2.376,0,0,0,.69.462,2.186,2.186,0,0,0,.811.162h3.079a2.276,2.276,0,0,0,.834-.162,2.337,2.337,0,0,0,.711-.472,2.111,2.111,0,0,0,.472-.7,2.235,2.235,0,0,0,.162-.834V27.4c.734-.287,1.306-.559,2.006-.911l1.19,1.211a2.324,2.324,0,0,0,.7.485,2.109,2.109,0,0,0,1.668,0l-.026.036ZM18.3,20.732a4.491,4.491,0,0,1-4.343.475,5.981,5.981,0,0,1-3.276-3.4c5.739,2.6,7.791-4.862,1-5.085,2.073-2.5,5.131-2.476,7.6-.644a6.815,6.815,0,0,0,2.5,1.283,4.164,4.164,0,0,0,1.2.128c.387,0,2.953,0,4.618-.023V18.11c-1.539.023-3.966.046-4.307.069a4.274,4.274,0,0,0-1.352.241,8.4,8.4,0,0,0-2.106,1.219c-.477.346-1.026.77-1.539,1.09Z" transform="translate(0.001 0.003)" fill-rule="evenodd"/>
</svg>
