<?xml version="1.0" encoding="utf-8"?>
<!-- Generator: Adobe Illustrator 26.0.0, SVG Export Plug-In . SVG Version: 6.00 Build 0)  -->
<svg version="1.1" id="Layer_1" xmlns="http://www.w3.org/2000/svg" xmlns:xlink="http://www.w3.org/1999/xlink" x="0px" y="0px"
	 viewBox="0 0 65 65" style="enable-background:new 0 0 65 65;" xml:space="preserve">
<style type="text/css">
	.st0{fill-rule:evenodd;clip-rule:evenodd;fill:#172033;}
</style>
<g id="Dos_donts_Icon" transform="translate(0.041)">
	<path id="Path_1503" class="st0" d="M49,17.7c8.2,0,14.8,6.6,14.8,14.8S57.1,47.3,49,47.3s-14.8-6.6-14.8-14.8
		C34.2,24.3,40.8,17.7,49,17.7C48.9,17.7,49,17.7,49,17.7z M51.8,27.1c0.6-0.7,1.7-0.7,2.4,0c0,0,0,0,0,0c0.7,0.7,0.7,1.7,0,2.4
		l-2.9,2.9l2.9,2.9c0.7,0.7,0.6,1.7,0,2.4c-0.6,0.7-1.7,0.7-2.4,0c0,0,0,0,0,0L49,34.9l-2.9,2.9c-0.6,0.7-1.7,0.7-2.4,0c0,0,0,0,0,0
		c-0.7-0.7-0.7-1.7,0-2.4l2.9-2.9l-2.9-2.9c-0.7-0.7-0.6-1.7,0-2.4c0.6-0.7,1.7-0.7,2.4,0c0,0,0,0,0,0l2.9,2.9L51.8,27.1L51.8,27.1z
		"/>
	<path id="Path_1504" class="st0" d="M16,17.7c8.2,0,14.8,6.6,14.8,14.8S24.1,47.3,16,47.3S1.2,40.7,1.2,32.5c0,0,0,0,0,0
		C1.2,24.3,7.8,17.7,16,17.7C16,17.7,16,17.7,16,17.7z M9.4,32.9c0.2-0.9,1-1.5,2-1.4c0.2,0,0.4,0.1,0.6,0.2
		c0.1,0.1,0.2,0.1,0.3,0.2l0,0c0.5,0.4,1,0.9,1.5,1.4l0.4,0.4l5.2-5.5c0.3-0.3,0.6-0.5,1-0.6c0.9-0.2,1.8,0.3,2,1.2
		c0.1,0.6,0,1.2-0.4,1.6l-6.5,6.9c-0.6,0.7-1.7,0.7-2.4,0.1c-0.4-0.4-0.8-0.7-1.2-1.1c-0.7-0.6-1.5-1.3-2.1-1.9
		C9.5,33.9,9.3,33.4,9.4,32.9L9.4,32.9z"/>
</g>
</svg>
