<svg xmlns="http://www.w3.org/2000/svg" width="24.717" height="28.674" viewBox="0 0 24.717 28.674">
  <path id="Icon_awesome-font-awesome-flag" data-name="Icon awesome-font-awesome-flag" d="M24.93,20.129c0,.4-.344.573-.746.746a13.209,13.209,0,0,1-5.161,1.319c-2.581,0-3.785-1.606-6.882-1.606a16.409,16.409,0,0,0-6.48,1.663c-.115.057-.229.057-.344.115v4.358a1.88,1.88,0,0,1-1.892,1.95,1.934,1.934,0,0,1-1.95-1.95V5.735A3.2,3.2,0,1,1,6.636,3.211,3.046,3.046,0,0,1,5.374,5.735V7.513A17.071,17.071,0,0,1,11.8,5.907c3.655,0,5.47,1.548,7.111,1.548,2.179,0,4.588-1.548,5.161-1.548a.827.827,0,0,1,.86.746Z" transform="translate(-0.213)" fill="#172033"/>
</svg>
