<?xml version="1.0" encoding="utf-8"?>
<!-- Generator: Adobe Illustrator 26.0.0, SVG Export Plug-In . SVG Version: 6.00 Build 0)  -->
<svg version="1.1" id="Layer_1" xmlns="http://www.w3.org/2000/svg" xmlns:xlink="http://www.w3.org/1999/xlink" x="0px" y="0px"
	 viewBox="0 0 65 65" style="enable-background:new 0 0 65 65;" xml:space="preserve">
<style type="text/css">
	.st0{fill-rule:evenodd;clip-rule:evenodd;fill:#172033;}
</style>
<g id="GrammarGuidelines_Icon" transform="translate(0.463)">
	<g id="text-tool-icon" transform="translate(15.583 14.179)">
		<path id="Path_1502" class="st0" d="M40.4-8.4V6.1H39c-0.5-2.5-1.5-5-2.8-7.2c-1.1-1.5-2.5-2.7-4.2-3.5c-1.7-0.6-3.5-0.8-5.2-0.7
			h-4v41.2c-0.1,1.7,0,3.4,0.4,5.1c0.4,0.8,1,1.4,1.8,1.8c1.1,0.6,2.4,0.8,3.6,0.8h1.8V45h-28v-1.5h1.8c1.3,0.1,2.6-0.2,3.7-0.8
			c0.7-0.4,1.3-1.1,1.6-1.9c0.4-1.6,0.6-3.3,0.4-5V-5.3H6.1C2.5-5.3-0.1-4.6-1.7-3c-2.4,2.4-4,5.7-4.3,9.1h-1.5V-8.4H40.4z"/>
	</g>
</g>
</svg>
