<?xml version="1.0" encoding="utf-8"?>
<!-- Generator: Adobe Illustrator 26.0.0, SVG Export Plug-In . SVG Version: 6.00 Build 0)  -->
<svg version="1.1" id="Layer_1" xmlns="http://www.w3.org/2000/svg" xmlns:xlink="http://www.w3.org/1999/xlink" x="0px" y="0px"
	 viewBox="0 0 65 65" style="enable-background:new 0 0 65 65;" xml:space="preserve">
<style type="text/css">
	.st0{fill:#172033;}
</style>
<path class="st0" d="M38.5,29.1H28.2c-0.9,0-1.7-0.8-1.7-1.7s0.8-1.7,1.7-1.7h8.5v-3.4h-8.5c-2.8,0-5.1,2.3-5.1,5.1s2.3,5.1,5.1,5.1
	h10.3c0.9,0,1.7,0.8,1.7,1.7c0,0.9-0.8,1.7-1.7,1.7H21.4v3.4h17.1c2.8,0,5.1-2.3,5.1-5.1S41.3,29.1,38.5,29.1z"/>
<path class="st0" d="M30.8,29.1h3.4v3.4h-3.4V29.1z"/>
<path class="st0" d="M6.9,46.2v3.4H15L12.7,60h10.5l2.4-10.4h13.9L41.8,60h10.5L50,49.6h8.2v-3.4h-3.6l-3.1-34.3h3.3V8.5
	c-1.7,0-15.3,0-17.1,0V1.7H27.4v6.8c-1.8,0-15.3,0-17.1,0v3.4h3.3l-3.1,34.3H6.9z M20.4,56.6h-3.5l1.6-6.9H22L20.4,56.6z M48.1,56.6
	h-3.5L43,49.6h3.5L48.1,56.6z M30.8,5.1h3.4v3.4h-3.4V5.1z M17,11.9H48l3.1,34.3H13.9L17,11.9z"/>
</svg>
