<svg xmlns="http://www.w3.org/2000/svg" width="26.348" height="27.464" viewBox="0 0 26.348 27.464">
  <path id="email-invitation-invite" d="M26.024,9.445a2.676,2.676,0,0,0-.268-.246.879.879,0,0,0-.469-.134.843.843,0,0,0-.536.2V7.279a.528.528,0,0,0-.179-.424L18.164.223A.594.594,0,0,0,17.7,0H2.244a.6.6,0,0,0-.6.6V9.2a.758.758,0,0,0-.424-.112.805.805,0,0,0-.447.134,1.433,1.433,0,0,0-.29.223,1.573,1.573,0,0,0-.38.96V26.192a1.214,1.214,0,0,0,.38.893,1.265,1.265,0,0,0,.893.38h23.8a1.252,1.252,0,0,0,.893-.38,1.265,1.265,0,0,0,.38-.893V10.405A2.084,2.084,0,0,0,26.024,9.445ZM9.858,8.686h2.657V6.029h1.429V8.686h2.679v1.451H13.944v2.635H12.515V10.137H9.858ZM1.283,10.517l7.882,7.056-7.882,6.9Zm23.87,15.653v.022H1.306V26.1l8.8-7.726,2.568,2.3a.587.587,0,0,0,.8,0l2.746-2.367,8.932,7.815Zm0-1.652-7.994-7.011,7.994-6.989Z" transform="translate(-0.1)" fill="#172033"/>
</svg>
