<?xml version="1.0" encoding="utf-8"?>
<!-- Generator: Adobe Illustrator 26.0.0, SVG Export Plug-In . SVG Version: 6.00 Build 0)  -->
<svg version="1.1" id="Layer_1" xmlns="http://www.w3.org/2000/svg" xmlns:xlink="http://www.w3.org/1999/xlink" x="0px" y="0px"
	 viewBox="0 0 65 65" style="enable-background:new 0 0 65 65;" xml:space="preserve">
<style type="text/css">
	.st0{fill:#172033;}
</style>
<path class="st0" d="M7.4,52.3c-3,0-5.4,2.4-5.4,5.4c0,3,2.4,5.4,5.4,5.4c2.3,0,4.3-1.5,5.1-3.6h40.2c0.7,2.1,2.7,3.6,5.1,3.6
	c3,0,5.4-2.4,5.4-5.4c0-3-2.4-5.4-5.4-5.4c-2.3,0-4.3,1.5-5.1,3.6h-6.7c1.5-0.9,2.9-1.9,4.3-3c4.5-3.9,7.5-9.1,8.7-14.8H63V27.3
	H52.3V38h3C53,47.3,45,54.4,35.5,55.7l13.6-27.2l-1.3-0.9c-1.8-1.2-6.4-5.2-6.4-9.2V2H23.6v16.3c0,4-4.7,8-6.5,9.2l-1.3,0.9
	l13.7,27.2C20,54.4,12,47.3,9.8,38h3V27.3H2V38h4.1c1.2,5.7,4.2,10.9,8.7,14.8c1.3,1.2,2.8,2.2,4.3,3h-6.7
	C11.7,53.8,9.7,52.3,7.4,52.3z M55.8,30.8h3.6v3.6h-3.6V30.8z M5.6,30.8h3.6v3.6H5.6V30.8z M7.4,59.4c-1,0-1.8-0.8-1.8-1.8
	c0-1,0.8-1.8,1.8-1.8s1.8,0.8,1.8,1.8C9.2,58.6,8.4,59.4,7.4,59.4z M30.7,32.6c0-1,0.8-1.8,1.8-1.8c1,0,1.8,0.8,1.8,1.8
	c0,1-0.8,1.8-1.8,1.8C31.5,34.4,30.7,33.6,30.7,32.6z M57.6,55.8c1,0,1.8,0.8,1.8,1.8c0,1-0.8,1.8-1.8,1.8c-1,0-1.8-0.8-1.8-1.8
	C55.8,56.6,56.6,55.8,57.6,55.8z M37.9,5.6V13H27.1V5.6H37.9z M27.1,18.3v-1.8h10.7v1.8c0,5.2,4.4,9.4,6.7,11.2L34.3,50.1V37.7
	c2.1-0.7,3.6-2.7,3.6-5.1c0-3-2.4-5.4-5.4-5.4s-5.4,2.4-5.4,5.4c0,2.3,1.5,4.3,3.6,5.1v12.4L20.4,29.6
	C22.6,27.8,27.1,23.5,27.1,18.3z"/>
</svg>
