<?xml version="1.0" encoding="utf-8"?>
<!-- Generator: Adobe Illustrator 26.0.0, SVG Export Plug-In . SVG Version: 6.00 Build 0)  -->
<svg version="1.1" id="Layer_1" xmlns="http://www.w3.org/2000/svg" xmlns:xlink="http://www.w3.org/1999/xlink" x="0px" y="0px"
	 viewBox="0 0 66 66" style="enable-background:new 0 0 66 66;" xml:space="preserve">
<style type="text/css">
	.st0{fill-rule:evenodd;clip-rule:evenodd;fill:#172033;}
</style>
<g id="PersonalityProfile_Icon" transform="translate(-1036 -1386.741)">
	<path id="personal-details-icon" class="st0" d="M1073.1,1424.1h17.2c2.3,0,4.2,1.9,4.2,4.2l0,0v16.3c0,2.3-1.9,4.2-4.2,4.2l0,0
		h-17.2c-2.3,0-4.2-1.9-4.2-4.2l0,0v-16.3C1068.9,1425.9,1070.8,1424.1,1073.1,1424.1L1073.1,1424.1L1073.1,1424.1z M1083.2,1404.8
		c0.6,0.2,1.1,0.7,1.1,1.4v2.5h3.6c0.8,0,1.7,0.3,2.3,0.9c0.6,0.6,0.9,1.4,0.9,2.3v7.8h-2.8v-7.8c0-0.2-0.2-0.4-0.4-0.5c0,0,0,0,0,0
		h-3.6v8.2h-2.9V1408h-12.2c-0.8,0-1.5-0.6-1.5-1.5c0,0,0,0,0,0v-11.9h-20.7v44.3h17.4v2.9h-12.7v3.7c0,0.2,0.2,0.4,0.4,0.5
		c0,0,0,0,0,0h12.2v2.8h-12.2c-1.8,0-3.2-1.4-3.2-3.2v-3.7h-2.2c-0.7,0-1.4-0.3-1.9-0.8c-0.5-0.5-0.8-1.2-0.8-1.9v-44.9
		c0-1.4,1.2-2.6,2.6-2.6c0,0,0,0,0,0h22.5c0.4,0,0.8,0.2,1.1,0.5L1083.2,1404.8L1083.2,1404.8z M1053.3,1415.7c-0.5,0-0.9,0.4-0.9,1
		c0,0,0,0,0,0c0,0.5,0.4,1,0.9,1c0,0,0,0,0.1,0h17.2c0.5,0,0.9-0.4,0.9-1c0,0,0,0,0,0c0-0.5-0.3-1-0.9-1c0,0,0,0-0.1,0H1053.3z
		 M1053.3,1422.7c-0.5,0-1,0.5-1,1c0,0.5,0.4,0.9,1,1h11v-2H1053.3z M1053.3,1429.8c-0.5,0-1,0.5-0.9,1.1c0,0.5,0.4,0.9,0.9,0.9h11
		v-2H1053.3z M1053.3,1408.6c-0.5,0-1,0.5-1,1c0,0.5,0.4,0.9,1,1h10.2c0.5,0,1-0.5,0.9-1.1c0-0.5-0.4-0.9-0.9-0.9H1053.3z
		 M1053.3,1401.5c-0.5,0-0.9,0.4-0.9,1c0,0,0,0,0,0c0,0.5,0.4,1,0.9,1c0,0,0,0,0,0h5.6c0.5,0,0.9-0.5,0.9-1c0,0,0,0,0,0
		c0-0.5-0.4-1-0.9-1c0,0,0,0,0,0H1053.3z M1070.6,1396.9l8.8,8.2h-8.8L1070.6,1396.9L1070.6,1396.9z M1078.7,1436.6
		c-0.3-0.4-0.8-1-0.8-1.5c0-0.3,0.2-0.6,0.5-0.7c0-0.4,0-0.8,0-1.3v-0.7c0-0.2,0-0.3,0.1-0.5c0.2-0.6,0.6-1.2,1.2-1.5
		c0.2-0.1,0.4-0.2,0.6-0.3c0.4-0.1,0.2-0.8,0.7-0.8c1.3,0.2,2.5,0.7,3.4,1.7c0.4,0.5,0.7,1.1,0.7,1.7l0,1.8c0.2,0,0.4,0.2,0.4,0.4
		c0.1,0.6-0.5,1.3-0.7,1.8c-0.3,0.5-1.2,1.8-1.2,1.8c0,0.1,0,0.2,0.1,0.2c1.5,2.1,6,0.8,6,4.9h-15.8c0-4.2,4.5-2.8,6-4.9
		c0.1-0.1,0.1-0.2,0.1-0.2C1079.9,1438.4,1078.8,1436.8,1078.7,1436.6L1078.7,1436.6z"/>
</g>
</svg>
