<svg xmlns="http://www.w3.org/2000/svg" width="35.017" height="44.125" viewBox="0 0 35.017 44.125">
  <g id="Group_404" data-name="Group 404" transform="translate(0 0.429)">
    <g id="Group_403" data-name="Group 403" transform="translate(0 6.294)">
      <path id="Icon_awesome-clipboard-list" data-name="Icon awesome-clipboard-list" d="M19.9,3.79H15.159a3.79,3.79,0,1,0-7.58,0H2.842A2.843,2.843,0,0,0,0,6.632V27.476a2.843,2.843,0,0,0,2.842,2.842H19.9a2.843,2.843,0,0,0,2.842-2.842V6.632A2.843,2.843,0,0,0,19.9,3.79ZM5.685,25.107a1.421,1.421,0,1,1,1.421-1.421A1.418,1.418,0,0,1,5.685,25.107Zm0-5.685A1.421,1.421,0,1,1,7.106,18,1.418,1.418,0,0,1,5.685,19.423Zm0-5.685a1.421,1.421,0,1,1,1.421-1.421A1.418,1.418,0,0,1,5.685,13.738ZM11.369,2.369A1.421,1.421,0,1,1,9.948,3.79,1.418,1.418,0,0,1,11.369,2.369Zm7.58,21.791a.475.475,0,0,1-.474.474H9.948a.475.475,0,0,1-.474-.474v-.947a.475.475,0,0,1,.474-.474h8.527a.475.475,0,0,1,.474.474Zm0-5.685a.475.475,0,0,1-.474.474H9.948a.475.475,0,0,1-.474-.474v-.947a.475.475,0,0,1,.474-.474h8.527a.475.475,0,0,1,.474.474Zm0-5.685a.475.475,0,0,1-.474.474H9.948a.475.475,0,0,1-.474-.474v-.947a.475.475,0,0,1,.474-.474h8.527a.475.475,0,0,1,.474.474Z" fill="#172033"/>
      <g id="Group_401" data-name="Group 401" transform="translate(17.024 20.352)">
        <path id="Path_650" data-name="Path 650" d="M1.235,28.082a1.565,1.565,0,0,0-.714,1.79,3.852,3.852,0,0,0,.331,1.053,3.543,3.543,0,0,0,.623.917,1.742,1.742,0,0,0,2.118.51.247.247,0,0,1,.184-.014.3.3,0,0,1,.042-.02c.2-.093.382-.178.546-.258.187-.085.362-.161.529-.235a.254.254,0,0,1,.331.133.055.055,0,0,1,.008.028l.119.317a18.414,18.414,0,0,0,.94,2.243c.006.008.048.1.1.184a4.465,4.465,0,0,0,.677,1.059c.215.2.479.238.835-.125q.1-.119.2-.229a1.6,1.6,0,0,0,.464-.787.635.635,0,0,0-.286-.127c-.368-.1-.731-.2-.742-.943V33.47a1.72,1.72,0,0,0-.02-.371c-.008-.025-.071-.065-.187-.147l-.045-.028a.966.966,0,0,1-.377-.708A2.824,2.824,0,0,1,7,31.2a.251.251,0,0,1,.178-.181,11.868,11.868,0,0,1,5.5-.292c.057.008.113.014.164.023A13.313,13.313,0,0,1,9.52,26.4a14.642,14.642,0,0,1-1.637-5.108A13.769,13.769,0,0,1,1.5,27.784c-.006,0-.008.006-.014.006l-.034.014c-.042.02-.048.017-.057.028s.011.014,0,.04c0,.006,0-.011-.034.076a.272.272,0,0,1-.125.127l-.006.006ZM11.9,26.247c.085.623-.374,1.826-.748,1.9a8.693,8.693,0,0,0,2.764,2.713,1.2,1.2,0,0,0,.15-.011.536.536,0,0,0,.258-.122,1.772,1.772,0,0,0,.275-1,11.841,11.841,0,0,0-1.605-5.012,14.558,14.558,0,0,0-3.205-4.31,1.853,1.853,0,0,0-1-.476.273.273,0,0,0-.13.014.506.506,0,0,0-.1.11,1.211,1.211,0,0,0-.074.1c0,.011,0,.014-.006.025-.3.934.1,2.8.92,4.748A1.837,1.837,0,0,1,11.9,26.244l-.006,0Zm2.059,5.117a.243.243,0,0,1-.167,0c-.045,0-.1-.006-.147-.011-.337-.025-.674-.071-1.036-.122a11.436,11.436,0,0,0-5.148.241,2.234,2.234,0,0,0-.048.685.518.518,0,0,0,.164.357l.045.028c.2.139.3.207.368.365a1.434,1.434,0,0,1,.062.563v.108a.406.406,0,0,0,.368.462.841.841,0,0,1,.626.422.278.278,0,0,1,.037.147,1.824,1.824,0,0,1-.6,1.172c-.062.068-.127.144-.184.212l-.014.017c-.626.657-1.13.566-1.56.159a4.819,4.819,0,0,1-.782-1.186c-.02-.037-.04-.076-.1-.178a20.076,20.076,0,0,1-.966-2.3l-.031-.088c-.091.042-.187.082-.277.125-.187.085-.368.167-.538.252a.232.232,0,0,0-.048.025c-.113.062-.159.093-.272.057A2.226,2.226,0,0,1,1.1,32.2a4.143,4.143,0,0,1-.711-1.048,4.367,4.367,0,0,1-.374-1.2,2.053,2.053,0,0,1,.915-2.279.485.485,0,0,1,.1-.167.753.753,0,0,1,.2-.133l.034-.014a.01.01,0,0,0,.008-.006,13.345,13.345,0,0,0,6.306-6.566,6.332,6.332,0,0,1,.569-1.031.781.781,0,0,1,.266-.249.724.724,0,0,1,.377-.071,2.3,2.3,0,0,1,1.3.586,14.973,14.973,0,0,1,3.338,4.468,12.332,12.332,0,0,1,1.662,5.255,2.154,2.154,0,0,1-.394,1.311.075.075,0,0,1-.031.028,1,1,0,0,1-.527.261c-.065.008-.13.017-.19.02l.008,0Z" transform="translate(0.023 -19.436)" fill="#172033" fill-rule="evenodd"/>
        <path id="Path_651" data-name="Path 651" d="M8623.354,3318.31s-.626-2.357,0-2.982a9.517,9.517,0,0,1,1.981-1.293,18.2,18.2,0,0,0,3.795-3.483,28.1,28.1,0,0,0,1.627-2.941,17.459,17.459,0,0,0,.9,4.359c.584,1.022,1.022,1.856,1.022,1.856l.751,1.272.667.98,1.063,1.084,1.023.959-1.314-.125-2.794-.146-1.814.271s-.459.25-.459.458a4.457,4.457,0,0,0,.084.834c.041.1.229.417.229.417s.313.125.354.229a2.029,2.029,0,0,1,.1.563,1.994,1.994,0,0,0,0,.5.749.749,0,0,0,.417.333c.126,0,.438.1.459.188a1.324,1.324,0,0,1-.146.458c-.042.084-.564,1.147-1.043,1.126a1.2,1.2,0,0,1-1.127-.647c-.25-.48-1.5-3.441-1.5-3.441l-1.167.688h-1.23l-1.126-.563Z" transform="translate(-8622.682 -3306.553)" fill="#172033"/>
      </g>
    </g>
    <text id="x_3" data-name="x 3" transform="translate(23.017 8.571)" fill="#172033" font-size="9" font-family="Quicksand-Bold, Quicksand" font-weight="700"><tspan x="0" y="0">x 3</tspan></text>
  </g>
</svg>
