<svg xmlns="http://www.w3.org/2000/svg" width="35.205" height="44.435" viewBox="0 0 35.205 44.435">
  <g id="Group_404" data-name="Group 404" transform="translate(0 0.072)">
    <g id="Group_403" data-name="Group 403" transform="translate(0 6.714)">
      <path id="Icon_awesome-clipboard-list" data-name="Icon awesome-clipboard-list" d="M20.027,3.815H15.259a3.815,3.815,0,1,0-7.629,0H2.861A2.862,2.862,0,0,0,0,6.676V27.657a2.862,2.862,0,0,0,2.861,2.861H20.027a2.862,2.862,0,0,0,2.861-2.861V6.676A2.862,2.862,0,0,0,20.027,3.815ZM5.722,25.272a1.431,1.431,0,1,1,1.431-1.431A1.427,1.427,0,0,1,5.722,25.272Zm0-5.722A1.431,1.431,0,1,1,7.153,18.12,1.427,1.427,0,0,1,5.722,19.55Zm0-5.722A1.431,1.431,0,1,1,7.153,12.4,1.427,1.427,0,0,1,5.722,13.828ZM11.444,2.384a1.431,1.431,0,1,1-1.431,1.431A1.427,1.427,0,0,1,11.444,2.384Zm7.629,21.935a.478.478,0,0,1-.477.477H10.014a.478.478,0,0,1-.477-.477v-.954a.478.478,0,0,1,.477-.477H18.6a.478.478,0,0,1,.477.477Zm0-5.722a.478.478,0,0,1-.477.477H10.014a.478.478,0,0,1-.477-.477v-.954a.478.478,0,0,1,.477-.477H18.6a.478.478,0,0,1,.477.477Zm0-5.722a.478.478,0,0,1-.477.477H10.014a.478.478,0,0,1-.477-.477v-.954a.478.478,0,0,1,.477-.477H18.6a.478.478,0,0,1,.477.477Z" fill="#172033"/>
      <g id="Group_401" data-name="Group 401" transform="translate(17.136 20.486)">
        <path id="Path_650" data-name="Path 650" d="M1.243,28.138a1.576,1.576,0,0,0-.718,1.8A3.877,3.877,0,0,0,.858,31a3.566,3.566,0,0,0,.627.923,1.753,1.753,0,0,0,2.132.513.249.249,0,0,1,.185-.014.306.306,0,0,1,.043-.02c.2-.094.385-.18.55-.259.188-.086.365-.162.533-.237a.256.256,0,0,1,.333.134.055.055,0,0,1,.009.029l.12.319a18.535,18.535,0,0,0,.946,2.257c.006.009.048.1.1.185A4.5,4.5,0,0,0,7.114,35.9c.217.205.482.239.841-.125q.1-.12.2-.231a1.609,1.609,0,0,0,.467-.792.639.639,0,0,0-.288-.128c-.371-.1-.735-.2-.747-.949v-.108a1.731,1.731,0,0,0-.02-.373c-.009-.026-.071-.066-.188-.148l-.046-.029a.972.972,0,0,1-.379-.713,2.842,2.842,0,0,1,.094-1.023.253.253,0,0,1,.18-.182,11.946,11.946,0,0,1,5.532-.294c.057.009.114.014.165.023a13.4,13.4,0,0,1-3.34-4.375,14.738,14.738,0,0,1-1.647-5.142,13.859,13.859,0,0,1-6.421,6.533c-.006,0-.009.006-.014.006l-.034.014c-.043.02-.048.017-.057.028s.011.014,0,.04c0,.006,0-.011-.034.077a.274.274,0,0,1-.125.128l-.006.006Zm10.731-1.847c.086.627-.376,1.838-.752,1.91A8.751,8.751,0,0,0,14,30.931a1.209,1.209,0,0,0,.151-.011.54.54,0,0,0,.259-.123,1.783,1.783,0,0,0,.276-1,11.919,11.919,0,0,0-1.616-5.045,14.653,14.653,0,0,0-3.226-4.338,1.865,1.865,0,0,0-1-.479.275.275,0,0,0-.131.014.51.51,0,0,0-.1.111,1.218,1.218,0,0,0-.074.1c0,.011,0,.014-.006.026-.3.941.1,2.819.926,4.78a1.849,1.849,0,0,1,2.522,1.322l-.006,0Zm2.072,5.15a.244.244,0,0,1-.168,0c-.046,0-.1-.006-.148-.011-.339-.026-.678-.071-1.043-.123a11.511,11.511,0,0,0-5.182.242,2.249,2.249,0,0,0-.048.69.521.521,0,0,0,.165.359l.046.028c.2.14.3.208.371.368a1.443,1.443,0,0,1,.063.567v.108a.408.408,0,0,0,.371.465.847.847,0,0,1,.63.425.279.279,0,0,1,.037.148,1.836,1.836,0,0,1-.6,1.18c-.063.068-.128.145-.185.214l-.014.017c-.63.661-1.137.57-1.57.16a4.85,4.85,0,0,1-.787-1.194c-.02-.037-.04-.077-.1-.18a20.208,20.208,0,0,1-.972-2.32l-.031-.088c-.091.043-.188.083-.279.125-.188.086-.371.168-.542.254a.234.234,0,0,0-.048.026c-.114.063-.16.094-.274.057a2.241,2.241,0,0,1-2.628-.67,4.17,4.17,0,0,1-.715-1.055,4.4,4.4,0,0,1-.376-1.208,2.066,2.066,0,0,1,.921-2.294.488.488,0,0,1,.1-.168.758.758,0,0,1,.2-.134l.034-.014a.011.011,0,0,0,.009-.006A13.432,13.432,0,0,0,7.622,20.8a6.374,6.374,0,0,1,.573-1.037.787.787,0,0,1,.268-.251.729.729,0,0,1,.379-.071,2.32,2.32,0,0,1,1.311.59,15.071,15.071,0,0,1,3.36,4.5,12.413,12.413,0,0,1,1.673,5.29,2.168,2.168,0,0,1-.4,1.32.076.076,0,0,1-.031.028,1.011,1.011,0,0,1-.53.262c-.066.009-.131.017-.191.02l.009,0Z" transform="translate(0.023 -19.436)" fill="#172033" fill-rule="evenodd"/>
        <path id="Path_651" data-name="Path 651" d="M8623.355,3318.38s-.63-2.372,0-3a9.592,9.592,0,0,1,2-1.3,18.357,18.357,0,0,0,3.82-3.506,28.414,28.414,0,0,0,1.638-2.959,17.555,17.555,0,0,0,.9,4.387c.588,1.029,1.029,1.868,1.029,1.868l.755,1.281.672.986,1.071,1.092,1.029.965-1.323-.126-2.813-.147-1.825.273s-.462.252-.462.462a4.515,4.515,0,0,0,.084.839c.042.1.231.42.231.42s.314.126.356.231a2.016,2.016,0,0,1,.1.567,2.172,2.172,0,0,0,0,.5.763.763,0,0,0,.42.336c.126,0,.441.1.462.189a1.282,1.282,0,0,1-.146.462c-.042.084-.568,1.155-1.05,1.134a1.2,1.2,0,0,1-1.134-.651c-.252-.483-1.513-3.464-1.513-3.464l-1.174.693h-1.239l-1.134-.567Z" transform="translate(-8622.68 -3306.547)" fill="#172033"/>
      </g>
    </g>
    <text id="x_6" data-name="x 6" transform="translate(23.205 8.928)" fill="#172033" font-size="9" font-family="Quicksand-Bold, Quicksand" font-weight="700"><tspan x="0" y="0">x 6</tspan></text>
  </g>
</svg>
