<?xml version="1.0" encoding="utf-8"?>
<!-- Generator: Adobe Illustrator 26.0.0, SVG Export Plug-In . SVG Version: 6.00 Build 0)  -->
<svg version="1.1" id="Layer_1" xmlns="http://www.w3.org/2000/svg" xmlns:xlink="http://www.w3.org/1999/xlink" x="0px" y="0px"
	 viewBox="0 0 55 55" style="enable-background:new 0 0 55 55;" xml:space="preserve">
<style type="text/css">
	.st0{fill-rule:evenodd;clip-rule:evenodd;fill:#172033;stroke:#172033;stroke-width:0.5;stroke-miterlimit:10;}
</style>
<g id="PreparationPhase_Icon" transform="translate(0 -0.002)">
	<path id="business-rules-icon" class="st0" d="M19.4,28.3c0.3-0.3,0.7-0.3,0.9,0c0,0,0,0,0,0c0.3,0.3,0.3,0.7,0,1l-1.1,1.1l1.1,1.1
		c0.3,0.3,0.3,0.7,0,0.9c-0.3,0.3-0.7,0.3-0.9,0l-1.1-1.1l-1.1,1.1c-0.3,0.3-0.7,0.3-0.9,0c-0.3-0.3-0.3-0.7,0-1l1.1-1.1l-1.1-1.1
		c-0.3-0.3-0.3-0.7,0-0.9c0,0,0,0,0,0c0.2-0.3,0.7-0.3,0.9,0c0,0,0,0,0,0l1.1,1.1L19.4,28.3L19.4,28.3z M20.7,5h4V3.7
		C24.7,3.3,25,3,25.3,3h4.6c0.3,0,0.6,0.3,0.6,0.6V5h4c0.5,0,0.9,0.4,0.9,0.9v1.5c-1,0.7-2.1,1.3-3.2,1.8c-1.1,0.5-2.2,0.9-3.3,1.1
		V9.4c0-0.4-0.3-0.7-0.7-0.7c0,0,0,0,0,0H27c-0.4,0-0.7,0.3-0.7,0.7c0,0,0,0,0,0v0.9c-1.1-0.3-2.2-0.6-3.2-1.1
		c-1.1-0.5-2.2-1.1-3.2-1.8V5.9C19.9,5.4,20.2,5,20.7,5z M28.2,9.5h-1.1c0,0-0.1,0-0.1,0.1c0,0,0,0,0,0V12c0,0,0,0.1,0.1,0.1l0,0
		h1.1c0,0,0,0,0,0c0,0,0,0,0,0L28.2,9.5C28.3,9.5,28.3,9.5,28.2,9.5z M29.4,3.9h-3.6c0,0-0.1,0-0.1,0.1l0,0v1h3.8L29.4,3.9
		C29.5,3.9,29.5,3.9,29.4,3.9z M35.4,8.8v5.4c0,0.5-0.4,0.9-0.9,0.9H20.7c-0.5,0-0.9-0.4-0.9-0.9V8.7c0.8,0.5,1.7,1,2.6,1.4
		c1.2,0.5,2.5,1,3.8,1.2h0v0.7c0,0.2,0.1,0.4,0.2,0.5c0.1,0.1,0.3,0.2,0.5,0.2h1.3c0.2,0,0.4-0.1,0.5-0.2c0.1-0.1,0.2-0.3,0.2-0.5
		v-0.7h0.1c1.3-0.3,2.6-0.7,3.8-1.2C33.7,9.8,34.6,9.3,35.4,8.8L35.4,8.8z M17.1,11.5h-5.7c-0.1,0-0.2,0.1-0.2,0.2v35.9
		c0,0.1,0.1,0.2,0.2,0.2h32.6c0.1,0,0.2-0.1,0.2-0.2V11.7c0-0.1-0.1-0.2-0.2-0.2h-5.7V9.6h5.7c1.2,0,2.2,1,2.2,2.2v35.9
		c0,1.2-1,2.2-2.2,2.2H11.4c-1.2,0-2.2-1-2.2-2.2V11.7c0-1.2,1-2.2,2.2-2.2h5.7L17.1,11.5L17.1,11.5z M38.6,40.8
		c0.5,0,1-0.3,1.1-0.9c0-0.5-0.3-1-0.9-1.1c-0.1,0-0.1,0-0.2,0h-13c-0.5,0-1,0.3-1.1,0.9c0,0.5,0.3,1,0.9,1.1c0.1,0,0.1,0,0.2,0
		H38.6z M38.6,22.1c0.5,0,1-0.4,1-1s-0.4-1-1-1h-13c-0.5,0-1,0.4-1,1s0.4,1,1,1H38.6z M38.6,31.3c0.5,0,1-0.3,1.1-0.9
		c0-0.5-0.3-1-0.9-1.1c-0.1,0-0.1,0-0.2,0h-13c-0.5,0-1,0.3-1.1,0.9c0,0.5,0.3,1,0.9,1.1c0.1,0,0.1,0,0.2,0H38.6z M16.3,39.8
		c-0.3-0.4-0.2-0.9,0.2-1.2c0.4-0.3,0.9-0.2,1.2,0.2c0,0,0,0,0,0l0.5,0.7l1.9-2.3c0.3-0.4,0.9-0.4,1.2-0.1c0.3,0.3,0.4,0.8,0.1,1.2
		l-2.6,3.2c-0.1,0.1-0.1,0.1-0.2,0.2c-0.4,0.3-0.9,0.2-1.2-0.2L16.3,39.8L16.3,39.8z M16.5,20.8c0.4-0.3,0.9-0.2,1.2,0.2l0.5,0.7
		l1.9-2.3c0.3-0.4,0.9-0.4,1.2-0.1c0.4,0.3,0.4,0.9,0.1,1.2l-2.6,3.2c-0.1,0.1-0.1,0.1-0.2,0.2c-0.4,0.3-0.9,0.2-1.2-0.2
		c0,0,0,0,0,0L16.3,22l0,0C16,21.6,16.1,21.1,16.5,20.8L16.5,20.8z"/>
</g>
</svg>
