<svg id="Group_402" data-name="Group 402" xmlns="http://www.w3.org/2000/svg" width="31.946" height="37.182" viewBox="0 0 31.946 37.182">
  <path id="Icon_awesome-clipboard-list" data-name="Icon awesome-clipboard-list" d="M19.779,3.767H15.07a3.767,3.767,0,0,0-7.535,0H2.826A2.826,2.826,0,0,0,0,6.593V27.314A2.826,2.826,0,0,0,2.826,30.14H19.779A2.826,2.826,0,0,0,22.6,27.314V6.593A2.826,2.826,0,0,0,19.779,3.767ZM5.651,24.959a1.413,1.413,0,1,1,1.413-1.413A1.409,1.409,0,0,1,5.651,24.959Zm0-5.651A1.413,1.413,0,1,1,7.064,17.9,1.409,1.409,0,0,1,5.651,19.308Zm0-5.651a1.413,1.413,0,1,1,1.413-1.413A1.409,1.409,0,0,1,5.651,13.657ZM11.3,2.355A1.413,1.413,0,1,1,9.89,3.767,1.409,1.409,0,0,1,11.3,2.355Zm7.535,21.663a.472.472,0,0,1-.471.471H9.89a.472.472,0,0,1-.471-.471v-.942A.472.472,0,0,1,9.89,22.6h8.477a.472.472,0,0,1,.471.471Zm0-5.651a.472.472,0,0,1-.471.471H9.89a.472.472,0,0,1-.471-.471v-.942a.472.472,0,0,1,.471-.471h8.477a.472.472,0,0,1,.471.471Zm0-5.651a.472.472,0,0,1-.471.471H9.89a.472.472,0,0,1-.471-.471v-.942A.472.472,0,0,1,9.89,11.3h8.477a.472.472,0,0,1,.471.471Z" fill="#172033"/>
  <g id="Group_401" data-name="Group 401" transform="translate(16.924 20.232)">
    <path id="Path_650" data-name="Path 650" d="M1.227,28.031a1.556,1.556,0,0,0-.709,1.779,3.829,3.829,0,0,0,.329,1.047,3.522,3.522,0,0,0,.619.912,1.732,1.732,0,0,0,2.105.507.246.246,0,0,1,.183-.014.3.3,0,0,1,.042-.02c.2-.093.38-.177.543-.256.186-.084.36-.16.526-.234a.253.253,0,0,1,.329.132.054.054,0,0,1,.008.028l.118.315a18.305,18.305,0,0,0,.935,2.229c.006.008.048.1.1.183a4.439,4.439,0,0,0,.673,1.053c.214.2.476.236.83-.124q.1-.118.194-.228a1.589,1.589,0,0,0,.462-.783.631.631,0,0,0-.284-.127c-.366-.1-.726-.2-.737-.937v-.107a1.709,1.709,0,0,0-.02-.369c-.008-.025-.07-.065-.186-.146l-.045-.028a.96.96,0,0,1-.374-.7,2.807,2.807,0,0,1,.093-1.011.25.25,0,0,1,.177-.18,11.8,11.8,0,0,1,5.464-.29c.056.008.113.014.163.023a13.235,13.235,0,0,1-3.3-4.321,14.555,14.555,0,0,1-1.627-5.078,13.688,13.688,0,0,1-6.342,6.452c-.006,0-.008.006-.014.006l-.034.014c-.042.02-.048.017-.056.028s.011.014,0,.039c0,.006,0-.011-.034.076a.271.271,0,0,1-.124.127l-.006.006Zm10.6-1.824c.084.619-.372,1.816-.743,1.886a8.642,8.642,0,0,0,2.747,2.7,1.193,1.193,0,0,0,.149-.011.533.533,0,0,0,.256-.121,1.761,1.761,0,0,0,.273-.991,11.771,11.771,0,0,0-1.6-4.982A14.472,14.472,0,0,0,9.725,20.4a1.842,1.842,0,0,0-.991-.473.272.272,0,0,0-.129.014.5.5,0,0,0-.1.11,1.2,1.2,0,0,0-.073.1c0,.011,0,.014-.006.025-.3.929.1,2.784.915,4.72A1.826,1.826,0,0,1,11.831,26.2l-.006,0Zm2.046,5.086a.241.241,0,0,1-.166,0c-.045,0-.1-.006-.146-.011-.335-.025-.67-.07-1.03-.121a11.368,11.368,0,0,0-5.117.239,2.221,2.221,0,0,0-.048.681.515.515,0,0,0,.163.355l.045.028c.2.138.3.205.366.363a1.426,1.426,0,0,1,.062.56v.107a.4.4,0,0,0,.366.459.836.836,0,0,1,.622.419.276.276,0,0,1,.037.146,1.813,1.813,0,0,1-.6,1.165c-.062.068-.127.144-.183.211l-.014.017c-.622.653-1.123.563-1.551.158A4.79,4.79,0,0,1,5.9,34.887c-.02-.037-.039-.076-.1-.177a19.958,19.958,0,0,1-.96-2.291l-.031-.087c-.09.042-.186.082-.276.124-.186.084-.366.166-.535.251a.231.231,0,0,0-.048.025c-.113.062-.158.093-.27.056a2.213,2.213,0,0,1-2.6-.661,4.119,4.119,0,0,1-.707-1.041,4.341,4.341,0,0,1-.372-1.193,2.041,2.041,0,0,1,.909-2.266.482.482,0,0,1,.1-.166.748.748,0,0,1,.194-.132l.034-.014a.01.01,0,0,0,.008-.006,13.266,13.266,0,0,0,6.269-6.528,6.3,6.3,0,0,1,.566-1.025.777.777,0,0,1,.265-.248.72.72,0,0,1,.374-.07,2.291,2.291,0,0,1,1.295.583,14.884,14.884,0,0,1,3.319,4.442A12.259,12.259,0,0,1,15,29.686a2.141,2.141,0,0,1-.391,1.3.075.075,0,0,1-.031.028,1,1,0,0,1-.524.259c-.065.008-.129.017-.189.02l.008,0Z" transform="translate(0.023 -19.436)" fill="#172033" fill-rule="evenodd"/>
    <path id="Path_651" data-name="Path 651" d="M8623.352,3318.247s-.622-2.343,0-2.965a9.481,9.481,0,0,1,1.97-1.285,18.111,18.111,0,0,0,3.773-3.462,27.935,27.935,0,0,0,1.617-2.923,17.374,17.374,0,0,0,.891,4.333c.581,1.016,1.017,1.845,1.017,1.845l.746,1.265.663.974,1.058,1.078,1.016.954-1.306-.124-2.778-.146-1.8.27s-.456.249-.456.456a4.507,4.507,0,0,0,.083.83c.041.1.229.415.229.415s.311.125.352.228a2.044,2.044,0,0,1,.1.56,1.971,1.971,0,0,0,0,.5.747.747,0,0,0,.414.332c.124,0,.436.1.456.187a1.291,1.291,0,0,1-.145.456c-.042.083-.561,1.14-1.037,1.12a1.186,1.186,0,0,1-1.119-.643c-.249-.477-1.493-3.42-1.493-3.42l-1.16.684h-1.224l-1.12-.56Z" transform="translate(-8622.684 -3306.56)" fill="#172033"/>
  </g>
</svg>
