<?xml version="1.0" encoding="utf-8"?>
<!-- Generator: Adobe Illustrator 26.0.0, SVG Export Plug-In . SVG Version: 6.00 Build 0)  -->
<svg version="1.1" id="Layer_1" xmlns="http://www.w3.org/2000/svg" xmlns:xlink="http://www.w3.org/1999/xlink" x="0px" y="0px"
	 viewBox="0 0 33 33" style="enable-background:new 0 0 33 33;" xml:space="preserve">
<style type="text/css">
	.st0{fill:#172033;}
</style>
<g id="SocialMediaPostx6_Icon" transform="translate(0.463)">
	<g id="image-photography-icon" transform="translate(7.66 8.123)">
		<path id="Path_1498" class="st0" d="M-3.4-5.4h23.7c1.1,0,1.9,0.9,2,2v23.6c0,1.1-0.9,1.9-2,2H-3.4c-1.1,0-1.9-0.9-2-2V-3.4
			C-5.4-4.5-4.5-5.4-3.4-5.4z M-3.3,14.5l8-7.6c0.3-0.3,0.8-0.3,1.1,0.1c0,0,0,0,0,0c0,0,0,0,0,0l7.1,8.4l1.1-6.7
			C14,8.2,14.4,7.9,14.8,8c0.2,0,0.3,0.1,0.4,0.2l5,5.2V-2.9c0-0.1,0-0.2-0.1-0.3c-0.1-0.1-0.2-0.1-0.3-0.1H-3c-0.1,0-0.2,0-0.3,0.1
			C-3.3-3.1-3.4-3-3.4-2.9L-3.3,14.5L-3.3,14.5z M15-0.9c1.6,0,2.8,1.3,2.8,2.8c0,1.6-1.3,2.8-2.8,2.8c-1.6,0-2.8-1.3-2.8-2.8
			c0-0.8,0.3-1.5,0.8-2C13.5-0.6,14.2-0.9,15-0.9z"/>
	</g>
</g>
</svg>
