<svg id="MAIL_SPEAKER" xmlns="http://www.w3.org/2000/svg" width="34.476" height="24.988" viewBox="0 0 34.476 24.988">
  <path id="Subtraction_1" data-name="Subtraction 1" d="M26.731,24.988a7.744,7.744,0,1,1,5.476-2.268A7.751,7.751,0,0,1,26.731,24.988ZM28.49,18.2h0l-.95,2.5h3.327c.013-1.42.014-1.475-.99-1.8A6.183,6.183,0,0,1,28.49,18.2Zm-3.475.108h0a8.648,8.648,0,0,1-1.507.76c-.864.327-.865.353-.885,1.024,0,.16-.011.358-.031.605h3.34l-.916-2.39Zm1.333.357a.209.209,0,0,0-.208.208v.343a.209.209,0,0,0,.208.208h.129L26.228,20.7h1l-.241-1.273h.127a.209.209,0,0,0,.208-.208v-.343a.209.209,0,0,0-.208-.208Zm.462-5.775a1.65,1.65,0,0,0-1.829,1.565c0,.056,0,.106.006.149a.49.49,0,0,1-.06.342,1.316,1.316,0,0,0,.061,1.321,3.661,3.661,0,0,0,.351.659l0,0a1.835,1.835,0,0,1,.315.644.624.624,0,0,0,.191.458,1.4,1.4,0,0,0,.975.334,1.311,1.311,0,0,0,.933-.321.611.611,0,0,0,.177-.463c-.022-.12.153-.388.339-.673a3.411,3.411,0,0,0,.361-.634,1.339,1.339,0,0,0,.088-1.286.444.444,0,0,1-.089-.359v0c0-.047.008-.1.008-.169A1.65,1.65,0,0,0,26.81,12.892Zm-8.932,7.734H1.919A1.921,1.921,0,0,1,0,18.707L.013,1.92A1.935,1.935,0,0,1,1.94,0H28.153a1.922,1.922,0,0,1,1.919,1.92l-.006,6.451a10.511,10.511,0,0,0-1.589-.445l.006-5.191-8.47,6.659.619.607c-.148.128-.37.323-.592.538l-.007.008a8.948,8.948,0,0,0-.627.693l-.733-.72-2.835,2.417a.869.869,0,0,1-.562.2.853.853,0,0,1-.549-.2L11.75,10.512,2.659,19.037H17.427a9.483,9.483,0,0,0,.451,1.588ZM1.6,2.809h0L1.589,17.635l8.78-8.221L1.6,2.809ZM2.875,1.59h0l12.39,9.554L26.982,1.591H2.875Z" fill="#172033"/>
</svg>
