<svg xmlns="http://www.w3.org/2000/svg" width="34.661" height="25.123" viewBox="0 0 34.661 25.123">
  <g id="mail_thankyou" transform="translate(0 0)">
    <path id="Subtraction_2" data-name="Subtraction 2" d="M26.877,25.123a7.785,7.785,0,1,1,5.5-2.281A7.738,7.738,0,0,1,26.877,25.123ZM24.813,14.034a2.14,2.14,0,0,0-2.092,1.76,1.955,1.955,0,0,0,.02.887,4.129,4.129,0,0,0,1.218,1.652l.006.006c.275.26.512.484.759.711a13.007,13.007,0,0,1,2.113,2.39,12.887,12.887,0,0,1,2.113-2.39c.109-.1.218-.2.329-.308.141-.132.287-.268.436-.409a4.235,4.235,0,0,0,1.218-1.652,1.942,1.942,0,0,0,.013-.887,2.12,2.12,0,0,0-3.451-1.265,2.7,2.7,0,0,0-.665.805,2.609,2.609,0,0,0-.657-.805A2.134,2.134,0,0,0,24.813,14.034Zm-6.838,6.7H1.929A1.931,1.931,0,0,1,0,18.807L.015,1.929A1.942,1.942,0,0,1,1.951,0H28.306a1.931,1.931,0,0,1,1.928,1.929l-.005,6.486a10.509,10.509,0,0,0-1.6-.446l.007-5.219L20.12,9.444l.624.609c-.162.14-.375.328-.6.542l-.007.007a9.15,9.15,0,0,0-.629.7l-.738-.724-2.851,2.431a.868.868,0,0,1-.563.2.857.857,0,0,1-.553-.2l-2.992-2.444L2.674,19.14H17.521a9.562,9.562,0,0,0,.454,1.6ZM1.611,2.823h0L1.6,17.73l8.827-8.265L1.611,2.823ZM2.89,1.6h0l12.457,9.607L27.127,1.6H2.89Z" fill="#172033"/>
  </g>
</svg>
