<svg id="Group_400" data-name="Group 400" xmlns="http://www.w3.org/2000/svg" width="34.595" height="29.154" viewBox="0 0 34.595 29.154">
  <path id="Path_650" data-name="Path 650" d="M24.371,15.636a6.35,6.35,0,1,1-2.319,6.553l-4.011.5a.719.719,0,0,1-.191-1.424l4.025-.5a6.329,6.329,0,0,1,2.5-5.129Zm-6.328-15a6.088,6.088,0,1,1-1.455,9.9l-2.877,2.536A.718.718,0,0,1,12.754,12l2.908-2.564a6.336,6.336,0,0,1-.372-.647A6.089,6.089,0,0,1,18.043.633ZM1.227,20.8a1.556,1.556,0,0,0-.709,1.779,3.829,3.829,0,0,0,.329,1.047,3.522,3.522,0,0,0,.619.912,1.732,1.732,0,0,0,2.105.507.246.246,0,0,1,.183-.014.3.3,0,0,1,.042-.02c.2-.093.38-.177.543-.256.186-.084.36-.16.526-.234a.253.253,0,0,1,.329.132.054.054,0,0,1,.008.028L5.323,25a18.305,18.305,0,0,0,.935,2.229c.006.008.048.1.1.183a4.439,4.439,0,0,0,.673,1.053c.214.2.476.236.83-.124q.1-.118.194-.228a1.589,1.589,0,0,0,.462-.783.631.631,0,0,0-.284-.127c-.366-.1-.726-.2-.737-.937v-.107a1.709,1.709,0,0,0-.02-.369c-.008-.025-.07-.065-.186-.146l-.045-.028a.96.96,0,0,1-.374-.7A2.807,2.807,0,0,1,6.958,23.9a.25.25,0,0,1,.177-.18,11.8,11.8,0,0,1,5.464-.29c.056.008.113.014.163.023a13.235,13.235,0,0,1-3.3-4.321,14.555,14.555,0,0,1-1.627-5.078A13.688,13.688,0,0,1,1.495,20.5c-.006,0-.008.006-.014.006l-.034.014c-.042.02-.048.017-.056.028s.011.014,0,.039c0,.006,0-.011-.034.076a.271.271,0,0,1-.124.127l-.006.006Zm10.6-1.824c.084.619-.372,1.816-.743,1.886a8.642,8.642,0,0,0,2.747,2.7,1.193,1.193,0,0,0,.149-.011.533.533,0,0,0,.256-.121,1.761,1.761,0,0,0,.273-.991,11.771,11.771,0,0,0-1.6-4.982,14.472,14.472,0,0,0-3.186-4.284,1.842,1.842,0,0,0-.991-.473.272.272,0,0,0-.129.014.5.5,0,0,0-.1.11,1.2,1.2,0,0,0-.073.1c0,.011,0,.014-.006.025-.3.929.1,2.784.915,4.72a1.826,1.826,0,0,1,2.491,1.306l-.006,0Zm2.046,5.086a.241.241,0,0,1-.166,0c-.045,0-.1-.006-.146-.011-.335-.025-.67-.07-1.03-.121a11.368,11.368,0,0,0-5.117.239,2.221,2.221,0,0,0-.048.681.515.515,0,0,0,.163.355l.045.028c.2.138.3.205.366.363a1.426,1.426,0,0,1,.062.56v.107a.4.4,0,0,0,.366.459.836.836,0,0,1,.622.419.276.276,0,0,1,.037.146,1.813,1.813,0,0,1-.6,1.165c-.062.068-.127.144-.183.211l-.014.017c-.622.653-1.123.563-1.551.158A4.79,4.79,0,0,1,5.9,27.655c-.02-.037-.039-.076-.1-.177a19.958,19.958,0,0,1-.96-2.291L4.816,25.1c-.09.042-.186.082-.276.124-.186.084-.366.166-.535.251a.231.231,0,0,0-.048.025c-.113.062-.158.093-.27.056a2.213,2.213,0,0,1-2.6-.661,4.119,4.119,0,0,1-.707-1.041,4.341,4.341,0,0,1-.372-1.193,2.041,2.041,0,0,1,.909-2.266.482.482,0,0,1,.1-.166.748.748,0,0,1,.194-.132l.034-.014a.01.01,0,0,0,.008-.006,13.266,13.266,0,0,0,6.269-6.528,6.3,6.3,0,0,1,.566-1.025.777.777,0,0,1,.265-.248.72.72,0,0,1,.374-.07,2.291,2.291,0,0,1,1.295.583,14.884,14.884,0,0,1,3.319,4.442A12.259,12.259,0,0,1,15,22.453a2.141,2.141,0,0,1-.391,1.3.075.075,0,0,1-.031.028,1,1,0,0,1-.524.259c-.065.008-.129.017-.189.02l.008,0ZM18.958,6.032l1.658-1.543a.993.993,0,0,1-.079-.2h0a1.163,1.163,0,1,1,.735.768L19.529,6.682c.006.02.014.039.02.059a.625.625,0,0,1,.025.1l2.159.366a1.167,1.167,0,1,1-.11.923c-.006-.023-.014-.048-.02-.07L19.42,7.7a1.151,1.151,0,0,1-.656.5,1.167,1.167,0,1,1-.67-2.235,1.141,1.141,0,0,1,.864.07ZM29.474,18.7l1.427-.183a.8.8,0,0,1,.892.69l.18,1.4a.8.8,0,0,1-.69.892l-.614.079a1.684,1.684,0,0,0,.642.881,2.563,2.563,0,0,1-1.576-.763l-.107.014a.968.968,0,0,1-.129.008.933.933,0,0,0,.31-.74l-.076-.583-.068-.526L29.553,19a1.269,1.269,0,0,0-.079-.3Zm-3.963-.115,2.21-.284h0a1.109,1.109,0,0,1,1.236.954h0l.2,1.579h0a1.014,1.014,0,0,1-.419.864,1.808,1.808,0,0,1-.873.414h0l-.023,0a3.023,3.023,0,0,1-.614.723,3.233,3.233,0,0,1-.943.56h0a.2.2,0,0,1-.205-.037.2.2,0,0,1-.02-.284,1.516,1.516,0,0,0,.29-.5,1.95,1.95,0,0,0,.073-.287L26,22.352h0a1.086,1.086,0,0,1-.813-.222,1.1,1.1,0,0,1-.419-.732h0l-.2-1.579h0a1.1,1.1,0,0,1,.951-1.233Z" transform="translate(0.023 0.001)" fill="#172033" fill-rule="evenodd"/>
  <path id="Path_651" data-name="Path 651" d="M8623.352,3318.247s-.622-2.343,0-2.965a9.481,9.481,0,0,1,1.97-1.285,18.111,18.111,0,0,0,3.773-3.462,27.935,27.935,0,0,0,1.617-2.923,17.374,17.374,0,0,0,.891,4.333c.581,1.016,1.017,1.845,1.017,1.845l.746,1.265.663.974,1.058,1.078,1.016.954-1.306-.124-2.778-.146-1.8.27s-.456.249-.456.456a4.507,4.507,0,0,0,.083.83c.041.1.229.415.229.415s.311.125.352.228a2.044,2.044,0,0,1,.1.56,1.971,1.971,0,0,0,0,.5.747.747,0,0,0,.414.332c.124,0,.436.1.456.187a1.291,1.291,0,0,1-.145.456c-.042.083-.561,1.14-1.037,1.12a1.186,1.186,0,0,1-1.119-.643c-.249-.477-1.493-3.42-1.493-3.42l-1.16.684h-1.224l-1.12-.56Z" transform="translate(-8622.684 -3294.355)" fill="#172033"/>
</svg>
