<svg xmlns="http://www.w3.org/2000/svg" width="459.148" height="273.48" viewBox="0 0 459.148 273.48">
  <g id="EventCommunications_illu" transform="translate(0)">
    <path id="Path_1389" data-name="Path 1389" d="M920.24,666.578a16.937,16.937,0,0,1-6.077-14.6c.669-5.453,4.809-10.467,10.18-11.625s11.493,2.048,13.124,7.294c.9-10.115,1.932-20.654,7.31-29.268A31,31,0,0,1,967.221,604a27.811,27.811,0,0,1,24.465,9.987,25.24,25.24,0,0,1,3.1,25.986c-2.941,6.1-8.36,10.643-14.037,14.337a90.6,90.6,0,0,1-61.962,13.555" transform="translate(-537.919 -395.299)" fill="#f2f2f2"/>
    <path id="Path_1390" data-name="Path 1390" d="M1010.757,610.331a149.489,149.489,0,0,0-43.924,59.393c-.419,1.027,1.248,1.473,1.662.458a147.828,147.828,0,0,1,43.484-58.633c.861-.7-.365-1.914-1.219-1.219Z" transform="translate(-566.031 -398.65)" fill="#fff"/>
    <path id="Path_1391" data-name="Path 1391" d="M589.627,193.444a.468.468,0,0,1-.467.467h-.224c-.345-.3-.681-.611-1.008-.933h1.232A.468.468,0,0,1,589.627,193.444Z" transform="translate(-363.988 -176.177)" fill="#f2f2f2"/>
    <path id="Path_1392" data-name="Path 1392" d="M477.971,156.977H360.835a3.27,3.27,0,0,0-3.267,3.267v63.468a3.27,3.27,0,0,0,3.267,3.267H477.971a3.27,3.27,0,0,0,3.267-3.267V160.244A3.27,3.27,0,0,0,477.971,156.977Zm2.333,66.735a2.334,2.334,0,0,1-2.333,2.333H360.835a2.334,2.334,0,0,1-2.333-2.333V160.244a2.334,2.334,0,0,1,2.333-2.333H477.971a2.334,2.334,0,0,1,2.333,2.333Z" transform="translate(-241.132 -156.977)" fill="#3f3d56"/>
    <path id="Path_1393" data-name="Path 1393" d="M419.2,201.916a16.137,16.137,0,0,0-6.72-7.99,31.522,31.522,0,0,0-10.9-4.149,28.422,28.422,0,0,0-11.424.639c-.485.126-.989.261-1.493.411a12.318,12.318,0,0,0-3.687,1.633c-.037.023-.075.047-.112.075a12.386,12.386,0,0,0-3.248,4.391,6.947,6.947,0,0,0-.835,4.853,7.312,7.312,0,0,0,2.7,3.827,6.083,6.083,0,0,0,3.285,1.624,2.26,2.26,0,0,0,.835-.14,1.124,1.124,0,0,0,.238-.117,5.952,5.952,0,0,0,1.494.247c2.049.093,4.1-.775,6.2-1.484a10.678,10.678,0,0,1,1.512-.406,5.659,5.659,0,0,1,2.777.093,4.1,4.1,0,0,1,.49.173,8.961,8.961,0,0,1,3.789,3.355c.891,1.325,1.48,2.833,2.459,4.107a5.833,5.833,0,0,0,4.13,2.333c2.445.271,5.516.14,7.621-1.33a5.327,5.327,0,0,0,1.442-1.465c.037-.056.075-.112.107-.168C421.8,209.243,420.528,205.085,419.2,201.916Zm-32.243-4.9c.467.051.938.107,1.4.159a5.179,5.179,0,0,0-2.422,1.134,6.381,6.381,0,0,0-.733.733c.009-.019.009-.042.019-.061a3.256,3.256,0,0,1,1.732-1.965ZM415.1,208.874c.084-.019.173-.033.257-.047a.9.9,0,0,0,.373-.149c0,.014,0,.033,0,.047a1.458,1.458,0,0,0,.014.187c-.023.037-.042.075-.065.112-.2-.051-.387-.1-.583-.149Zm-1.3-11.35a14.086,14.086,0,0,1,2.609,3.341,22.256,22.256,0,0,0-2.721-2.786,1.42,1.42,0,0,0,.112-.555Zm-1.134,13.24a.794.794,0,0,0-.089.219c-.126,0-.257.009-.387.009h-.065c0-.019-.014-.042-.019-.061-.028-.084-.051-.168-.079-.252ZM402.682,200.3a1.437,1.437,0,0,0,.009-.285.791.791,0,0,0,.35.149c.014,0,.033,0,.047.009l.261.149-.028.042c-.215-.023-.429-.042-.639-.065Zm7.392-2.324h-.014c-.308-.191-.616-.383-.929-.565C409.449,197.585,409.766,197.777,410.074,197.973Zm-1.718,8.746a.7.7,0,0,0-.121.163l-.065-.093a.726.726,0,0,1,.187-.07Zm-4.181-9.142a1.429,1.429,0,0,0-.341-.2,14.558,14.558,0,0,0-1.844-.574c-.093-.089-.187-.177-.275-.271a14.3,14.3,0,0,1,1.568.4,18.024,18.024,0,0,1,1.937.747c-.35-.037-.7-.07-1.045-.1Zm-3.556-5.852a21.962,21.962,0,0,1,3.953.905c-.131-.033-.261-.061-.392-.093-1.237-.28-2.5-.579-3.766-.835.07.009.135.014.205.023Z" transform="translate(-253.429 -174.307)" fill="#ccc"/>
    <path id="Path_1394" data-name="Path 1394" d="M428.626,258.1a6.552,6.552,0,0,1-3.77-.9,2.9,2.9,0,0,1-1.139-2.162,1.947,1.947,0,0,1,.662-1.6,2.513,2.513,0,0,1,2.377-.342l-.961-7.022.705-.1,1.13,8.256-.589-.27a2.156,2.156,0,0,0-2.2.02,1.25,1.25,0,0,0-.41,1.03,2.188,2.188,0,0,0,.848,1.612,5.889,5.889,0,0,0,3.37.761Z" transform="translate(-276.408 -204.445)" fill="#3f3d56"/>
    <rect id="Rectangle_659" data-name="Rectangle 659" width="3.835" height="0.712" transform="translate(142.064 42.239)" fill="#3f3d56"/>
    <rect id="Rectangle_660" data-name="Rectangle 660" width="3.835" height="0.712" transform="translate(154.168 42.239)" fill="#3f3d56"/>
    <path id="Path_1395" data-name="Path 1395" d="M390.392,204.078c-3.088-.352-5.48-3.311-5.742-6.313-.312-3.571,1.767-6.963,4.621-8.968a19.728,19.728,0,0,1,10.3-3.164,28.305,28.305,0,0,1,19.348,6.377c2.7,2.239,5.213,5.09,6.167,8.535a8.267,8.267,0,0,1-2.252,8.475,5.688,5.688,0,0,1-4.365,1.344,10.847,10.847,0,0,1-5.08-2.259c-2.9-2.109-5.281-5.046-8.815-6.148-2.591-.808-5.953-.1-7.536,2.246a4.266,4.266,0,0,0-.681,1.787.553.553,0,0,0,.373.657.537.537,0,0,0,.657-.373c.416-2.951,4.044-4.052,6.59-3.378,3.713.983,6.2,4.3,9.251,6.4a11.241,11.241,0,0,0,5.387,2.15,6.69,6.69,0,0,0,4.7-1.444,9.141,9.141,0,0,0,3.022-8.771c-.666-3.685-3.146-6.843-5.867-9.288a29.351,29.351,0,0,0-20.058-7.41,21.944,21.944,0,0,0-10.934,2.853,11.942,11.942,0,0,0-5.895,8.911,8.413,8.413,0,0,0,4.535,8.206,7.1,7.1,0,0,0,2.276.642C391.074,205.223,391.068,204.155,390.392,204.078Z" transform="translate(-254.99 -171.671)" fill="#3f3d56"/>
    <path id="Path_1396" data-name="Path 1396" d="M546.769,193.444a.468.468,0,0,1-.467.467H508.035a.467.467,0,0,1,0-.933H546.3A.468.468,0,0,1,546.769,193.444Z" transform="translate(-321.13 -176.177)" fill="#3f3d56"/>
    <path id="Path_1397" data-name="Path 1397" d="M546.3,208.91H508.035a.467.467,0,0,1,0-.933H546.3a.467.467,0,0,1,0,.933Z" transform="translate(-321.13 -184.177)" fill="#3f3d56"/>
    <path id="Path_1398" data-name="Path 1398" d="M546.3,223.91H508.035a.467.467,0,0,1,0-.933H546.3a.467.467,0,0,1,0,.933Z" transform="translate(-321.13 -192.176)" fill="#3f3d56"/>
    <path id="Path_1399" data-name="Path 1399" d="M546.3,238.91H508.035a.467.467,0,0,1,0-.933H546.3a.467.467,0,0,1,0,.933Z" transform="translate(-321.13 -200.176)" fill="#3f3d56"/>
    <path id="Path_1400" data-name="Path 1400" d="M546.3,253.91H508.035a.467.467,0,0,1,0-.933H546.3a.467.467,0,0,1,0,.933Z" transform="translate(-321.13 -208.176)" fill="#3f3d56"/>
    <path id="Path_1401" data-name="Path 1401" d="M546.3,268.91H508.035a.467.467,0,0,1,0-.933H546.3a.467.467,0,0,1,0,.933Z" transform="translate(-321.13 -216.176)" fill="#3f3d56"/>
    <path id="Path_1402" data-name="Path 1402" d="M261.956,352.008a5.251,5.251,0,0,1-3.524-1.345,5.324,5.324,0,0,1-1.779-3.826l-20.71-15.062a5.346,5.346,0,0,1-.636-8.1l15.418-15.418a4.543,4.543,0,0,1,7.755,3.212,10.333,10.333,0,0,1-2.633,6.355L245.381,328.29l16.431,13.1c.051,0,.1-.006.153-.006a5.314,5.314,0,0,1,.609,10.593A5.584,5.584,0,0,1,261.956,352.008Z" transform="translate(-175.093 -236.946)" fill="#ffb8b8"/>
    <path id="Path_1403" data-name="Path 1403" d="M229.719,409.19l5.557-2.074L229.918,384.7l-8.2,3.062Z" transform="translate(-118.246 -205.166)" fill="#ffb8b8"/>
    <path id="Path_1404" data-name="Path 1404" d="M0,0H18.641V7.2H6.947A6.947,6.947,0,0,1,0,.255V0Z" transform="translate(129.672 203.11) rotate(159.528)" fill="#2f2e41"/>
    <path id="Path_1405" data-name="Path 1405" d="M131.74,413.217h5.932l2.822-22.878h-8.754Z" transform="translate(-70.259 -208.176)" fill="#ffb8b8"/>
    <path id="Path_1406" data-name="Path 1406" d="M0,0H18.642V7.2H6.947A6.947,6.947,0,0,1,0,.255V0Z" transform="translate(78.85 210.549) rotate(179.997)" fill="#2f2e41"/>
    <path id="Path_1407" data-name="Path 1407" d="M243.783,466.8q-.1,0-.2-.01l-6.288-.6a2.1,2.1,0,0,1-1.9-2.031c-.363-13.616-1.277-82.336,16.407-98.083a2.048,2.048,0,0,1,1.091-.493h0c3.2-.439,14.01-1.516,18.584,3.085a2.143,2.143,0,0,1,.579,1.057l20.024,92.583a2.1,2.1,0,0,1-1.792,2.528l-7.678.96a2.1,2.1,0,0,1-2.349-1.866c-.764-7.442-5.354-45.245-20.737-58.644a1.655,1.655,0,0,0-1.548-.348,1.6,1.6,0,0,0-1.1,1.086c-2.848,9.318-12.057,41.078-11,58.55a2.1,2.1,0,0,1-2.093,2.226Z" transform="translate(-175.9 -268.002)" fill="#2f2e41"/>
    <circle id="Ellipse_212" data-name="Ellipse 212" cx="11.462" cy="11.462" r="11.462" transform="translate(68.521 37.269)" fill="#ffb8b8"/>
    <path id="Path_1408" data-name="Path 1408" d="M255.34,300.36s10.644-12.579,19.352-2.419h0A34.586,34.586,0,0,1,283,321.476l-.328,11.057L262.6,329.388Z" transform="translate(-186.611 -230.042)" fill="#f9b827"/>
    <path id="Path_1409" data-name="Path 1409" d="M293.938,324.75q-.125,0-.251-.005a5.933,5.933,0,0,1-4.425-2.269l-13.028-16.61a4.543,4.543,0,0,1,4.12-7.314l1.834.222a5.207,5.207,0,0,1,3.02,1.7l10.277,13.1,14.974-14.74c0-.051.006-.1.012-.152a5.314,5.314,0,1,1,4.78,5.927l-16.965,18.243a5.931,5.931,0,0,1-4.348,1.9Z" transform="translate(-197.239 -230.058)" fill="#ffb8b8"/>
    <path id="Path_1410" data-name="Path 1410" d="M238.466,244.846l4.925-5.8c1.269-1.5,2.6-3.124,2.776-5.077a6.173,6.173,0,0,0-2.886-5.427,12.533,12.533,0,0,0-6.109-1.825,17.567,17.567,0,0,0-11.426,2.633c-3.268,2.284-5.406,6.409-4.609,10.315.627,3.076,2.939,6.023,2.041,9.031-.983,3.292-5.015,4.3-8.307,5.283-5.526,1.647-10.8,4.891-13.7,9.877s-2.883,11.861.977,16.145a14.522,14.522,0,0,0,10,4.387,29.267,29.267,0,0,0,10.973-1.868,25.75,25.75,0,0,0,9.04-4.82,12.109,12.109,0,0,0,4.33-9.009c-.076-3.276-1.831-6.26-2.552-9.457a15.519,15.519,0,0,1,4.851-14.808" transform="translate(-156.624 -194.132)" fill="#2f2e41"/>
    <path id="Path_1411" data-name="Path 1411" d="M657.971,433.979H540.835a3.27,3.27,0,0,1-3.267-3.267V367.244a3.27,3.27,0,0,1,3.267-3.267H657.971a3.27,3.27,0,0,1,3.267,3.267v63.468a3.27,3.27,0,0,1-3.267,3.267ZM540.835,364.91a2.336,2.336,0,0,0-2.333,2.333v63.468a2.336,2.336,0,0,0,2.333,2.333H657.971a2.336,2.336,0,0,0,2.333-2.333V367.244a2.336,2.336,0,0,0-2.333-2.333Z" transform="translate(-337.13 -267.375)" fill="#3f3d56"/>
    <path id="Path_1412" data-name="Path 1412" d="M599.206,408.915a16.193,16.193,0,0,0-6.722-7.989,31.582,31.582,0,0,0-10.9-4.147,28.437,28.437,0,0,0-11.426.639,15.455,15.455,0,0,0-5.291,2.119,12.309,12.309,0,0,0-3.248,4.39,6.936,6.936,0,0,0-.837,4.856,7.3,7.3,0,0,0,2.7,3.827c1.1.871,2.644,2.024,4.119,1.484a1.153,1.153,0,0,0,.238-.12c2.547.775,5.079-.352,7.693-1.234a6.556,6.556,0,0,1,4.782-.138,8.959,8.959,0,0,1,3.79,3.351c.892,1.328,1.48,2.836,2.458,4.11a5.84,5.84,0,0,0,4.128,2.331c3.159.353,7.351.028,9.171-2.963C601.8,416.243,600.531,412.087,599.206,408.915Zm-32.244-4.895,1.406.159a5.2,5.2,0,0,0-2.422,1.136,6.146,6.146,0,0,0-.732.732c.006-.021.01-.042.017-.063a3.269,3.269,0,0,1,1.732-1.963Zm15.729,2.992a.805.805,0,0,0,.353.151l.045.008.262.149c-.01.014-.017.029-.027.043l-.643-.065a1.133,1.133,0,0,0,.009-.285Zm5.67,6.7a.94.94,0,0,0-.125.164l-.063-.092a.621.621,0,0,1,.188-.073Zm3.662,3.963.637.084a.807.807,0,0,0-.087.221c-.15,0-.3.007-.454.008Zm3.075-1.807.256-.044a.931.931,0,0,0,.375-.149c0,.015,0,.03,0,.045,0,.051.007.115.013.188-.021.037-.042.073-.064.109l-.582-.15Zm-10.921-11.294a1.226,1.226,0,0,0-.341-.2,14.755,14.755,0,0,0-1.844-.577q-.141-.132-.275-.272a14.846,14.846,0,0,1,1.567.4,18.27,18.27,0,0,1,1.939.746Q584.7,404.616,584.177,404.579Zm5.883.394q-.461-.288-.927-.565.478.269.942.565Zm6.343,2.895a22.141,22.141,0,0,0-2.721-2.787,1.354,1.354,0,0,0,.113-.555,13.982,13.982,0,0,1,2.608,3.342Zm-11.83-8.241-.39-.09c-1.237-.279-2.5-.58-3.768-.835l.2.023A21.943,21.943,0,0,1,584.573,399.628Z" transform="translate(-349.428 -284.706)" fill="#f9b827"/>
    <path id="Path_1413" data-name="Path 1413" d="M608.626,465.1a6.553,6.553,0,0,1-3.77-.9,2.9,2.9,0,0,1-1.139-2.162,1.947,1.947,0,0,1,.662-1.6,2.513,2.513,0,0,1,2.377-.342l-.961-7.022.705-.1,1.13,8.256-.589-.27a2.156,2.156,0,0,0-2.2.02,1.251,1.251,0,0,0-.41,1.03,2.188,2.188,0,0,0,.848,1.612,5.891,5.891,0,0,0,3.37.761Z" transform="translate(-372.406 -314.843)" fill="#3f3d56"/>
    <rect id="Rectangle_661" data-name="Rectangle 661" width="3.835" height="0.712" transform="translate(226.066 138.841)" fill="#3f3d56"/>
    <rect id="Rectangle_662" data-name="Rectangle 662" width="3.835" height="0.712" transform="translate(238.17 138.841)" fill="#3f3d56"/>
    <path id="Path_1414" data-name="Path 1414" d="M570.392,411.078c-3.088-.352-5.48-3.311-5.742-6.313-.312-3.571,1.767-6.963,4.621-8.968a19.728,19.728,0,0,1,10.3-3.164,28.306,28.306,0,0,1,19.348,6.377c2.7,2.239,5.213,5.09,6.167,8.535a8.267,8.267,0,0,1-2.252,8.475,5.688,5.688,0,0,1-4.365,1.344,10.847,10.847,0,0,1-5.08-2.26c-2.9-2.109-5.281-5.046-8.815-6.148-2.591-.808-5.953-.1-7.536,2.246a4.267,4.267,0,0,0-.681,1.787.553.553,0,0,0,.373.657.537.537,0,0,0,.657-.373c.416-2.951,4.044-4.052,6.59-3.378,3.713.983,6.2,4.3,9.251,6.4a11.243,11.243,0,0,0,5.387,2.15,6.69,6.69,0,0,0,4.7-1.444,9.141,9.141,0,0,0,3.022-8.771c-.666-3.685-3.146-6.843-5.868-9.288a29.351,29.351,0,0,0-20.058-7.41,21.945,21.945,0,0,0-10.935,2.853,11.941,11.941,0,0,0-5.894,8.911,8.413,8.413,0,0,0,4.535,8.206,7.1,7.1,0,0,0,2.276.642C571.074,412.223,571.068,411.155,570.392,411.078Z" transform="translate(-350.988 -282.068)" fill="#3f3d56"/>
    <path id="Path_1415" data-name="Path 1415" d="M726.3,400.91H688.035a.467.467,0,1,1,0-.933H726.3a.467.467,0,0,1,0,.933Z" transform="translate(-417.128 -286.574)" fill="#3f3d56"/>
    <path id="Path_1416" data-name="Path 1416" d="M726.3,415.91H688.035a.467.467,0,1,1,0-.933H726.3a.467.467,0,0,1,0,.933Z" transform="translate(-417.128 -294.574)" fill="#3f3d56"/>
    <path id="Path_1417" data-name="Path 1417" d="M726.3,430.91H688.035a.467.467,0,1,1,0-.933H726.3a.467.467,0,0,1,0,.933Z" transform="translate(-417.128 -302.574)" fill="#3f3d56"/>
    <path id="Path_1418" data-name="Path 1418" d="M726.3,445.91H688.035a.467.467,0,1,1,0-.933H726.3a.467.467,0,0,1,0,.933Z" transform="translate(-417.128 -310.574)" fill="#3f3d56"/>
    <path id="Path_1419" data-name="Path 1419" d="M726.3,460.91H688.035a.467.467,0,1,1,0-.933H726.3a.467.467,0,0,1,0,.933Z" transform="translate(-417.128 -318.573)" fill="#3f3d56"/>
    <path id="Path_1420" data-name="Path 1420" d="M726.3,475.91H688.035a.467.467,0,1,1,0-.933H726.3a.467.467,0,0,1,0,.933Z" transform="translate(-417.128 -326.573)" fill="#3f3d56"/>
    <circle id="Ellipse_213" data-name="Ellipse 213" cx="12.245" cy="12.245" r="12.245" transform="translate(368.418 74.294)" fill="#ffb8b8"/>
    <path id="Path_1421" data-name="Path 1421" d="M730.832,543.221l-5.823-1.856,4.388-23.346,8.595,2.739Z" transform="translate(-386.663 -276.271)" fill="#ffb8b8"/>
    <path id="Path_1422" data-name="Path 1422" d="M7.145,0H19.21V7.422H0V7.144A7.144,7.144,0,0,1,7.145,0Z" transform="translate(327.645 259.848) rotate(17.679)" fill="#2f2e41"/>
    <path id="Path_1423" data-name="Path 1423" d="M817.967,544.82h-6.113l-2.909-23.576h9.021Z" transform="translate(-431.428 -277.991)" fill="#ffb8b8"/>
    <path id="Path_1424" data-name="Path 1424" d="M797.064,568.02H809.13v7.422H789.92v-.278a7.144,7.144,0,0,1,7.145-7.144Z" transform="translate(-421.281 -302.937)" fill="#2f2e41"/>
    <path id="Path_1425" data-name="Path 1425" d="M880.025,592.549l-2.063-.308c-6.257-.932-6.631-.988-7.625-1.424-.507-.223-.543-3.59-.238-22.52.223-13.9.5-31.188-.039-40.472a1.633,1.633,0,0,0-3.128-.551c-4.656,10.751-12.466,34.81-17.634,50.73-1.8,5.538-3.218,9.912-4.116,12.534a2.111,2.111,0,0,1-2.5,1.352c-4.253-1.063-3.969-1.515-10.027-3.082a2.1,2.1,0,0,1-1.531-2.465c1.1-5.167,21.147-88.949,22.682-96.913a2.1,2.1,0,0,1,2.476-1.667c4.515.91,7.261,1.875,11.722,2.808,4.814,1.007,9.792,2.048,14.647,3.02h0a2.083,2.083,0,0,1,1.222.749,13,13,0,0,0,4.869,3.271c1.272.608-1.61.553-.5,1.43,4.485,3.55-1.964,75.643-5.861,91.925A2.107,2.107,0,0,1,880.025,592.549Z" transform="translate(-493.666 -333.371)" fill="#2f2e41"/>
    <path id="Path_1426" data-name="Path 1426" d="M927.934,518.341a4.432,4.432,0,0,1,4.152-5.381l9.9-11.171,6.146,7.425-11.382,8.315a4.456,4.456,0,0,1-8.813.812Z" transform="translate(-545.265 -340.873)" fill="#ffb8b8"/>
    <path id="Path_1427" data-name="Path 1427" d="M913.241,330.228c-.715-3.033,2.9-9.561,2.184-12.594-.484-2.054-5.315-.658-6.442-2.442a6.48,6.48,0,0,0-5.126-3.254c-2.426-.027-4.813,1.772-7.111.995-2.323-.786-3.066-3.968-2.039-6.2s3.24-3.647,5.426-4.759c3.723-1.894,8.058-3.277,12.043-2.024a19.8,19.8,0,0,1,6.372,4,22.207,22.207,0,0,1,4.825,4.9c2.433,3.8,2.286,8.911.207,12.913a19.409,19.409,0,0,1-10.042,8.642" transform="translate(-527.359 -232.974)" fill="#2f2e41"/>
    <path id="Path_1428" data-name="Path 1428" d="M870.226,441.354c1.322-2.208,3.328-12.552,5.8-29.916,1.685-11.853,3.152-23.9,3.881-30.049a2.959,2.959,0,0,1,1.661-2.334q.709-.342,1.409-.648a32.3,32.3,0,0,1,34.461,4.842l.055.052.014.074c.026.137,2.555,13.766-2.625,22.974-5.109,9.086-5.169,33.146-5.169,33.389v.309l-.3-.085c-7.948-2.271-38.653,1.7-38.962,1.743l-.478.062Z" transform="translate(-514.411 -273.507)" fill="#ccc"/>
    <path id="Path_1429" data-name="Path 1429" d="M940.4,452.311l15.614-20.818-8.051-17.253.584-20.462,6.6-1.219.07.035a16.618,16.618,0,0,1,7.06,8.225c1.466,3.666,4.507,16.138,6.8,25.956a15.167,15.167,0,0,1-4.071,14.26l-19.154,19.154Z" transform="translate(-551.969 -282.617)" fill="#ccc"/>
    <path id="Path_1430" data-name="Path 1430" d="M799,430.041a4.432,4.432,0,0,1,6.773-.565l14.923-.23-1.335,9.546L805.541,436A4.456,4.456,0,0,1,799,430.041Z" transform="translate(-476.112 -301.606)" fill="#ffb8b8"/>
    <path id="Path_1431" data-name="Path 1431" d="M816,410.292l2.135-9.341,25.9-2.518,7.1-17.077.208-.5,2.791-2.407.059-.037a32.748,32.748,0,0,1,18.165-2.584l.211.032-.013.213a16.821,16.821,0,0,1-1.652,6.294c-2.679,5.557-19.164,29.181-19.33,29.419l-.073.105Z" transform="translate(-485.622 -273.507)" fill="#ccc"/>
    <path id="Path_1432" data-name="Path 1432" d="M878.341,741.91h-177.8a.467.467,0,1,1,0-.933h177.8a.467.467,0,1,1,0,.933Z" transform="translate(-423.795 -468.437)" fill="#3f3d56"/>
    <path id="Path_1433" data-name="Path 1433" d="M286.339,606.91h-177.8a.467.467,0,1,1,0-.933h177.8a.467.467,0,1,1,0,.933Z" transform="translate(-108.068 -396.439)" fill="#3f3d56"/>
  </g>
</svg>
