<svg xmlns="http://www.w3.org/2000/svg" width="154.037" height="154.037" viewBox="0 0 154.037 154.037">
  <g id="FullServiceConference_illu" transform="translate(0)">
    <path id="Path_1039" data-name="Path 1039" d="M416.037,189.019a76.9,76.9,0,0,1-4.067,24.764q-.232.684-.476,1.363a77.109,77.109,0,0,1-12.252,21.886q-2.352,2.95-4.983,5.656t-5.526,5.157a76.619,76.619,0,0,1-37.776,17.272h0q-2.666.414-5.384.645-3.237.273-6.551.276A76.777,76.777,0,0,1,283.9,242.806q-.755-.772-1.488-1.568-1.825-1.979-3.511-4.081-.947-1.183-1.848-2.4a76.727,76.727,0,0,1-9.169-16.174,75.715,75.715,0,0,1-2.666-7.483c-.055-.18-.107-.36-.16-.54q-.171-.581-.33-1.169a77.027,77.027,0,1,1,151.314-20.371Z" transform="translate(-262 -112)" fill="#f2f2f2"/>
    <path id="Path_1040" data-name="Path 1040" d="M643.238,753.02l-1.559,5.485a76.931,76.931,0,0,1-7.542,1.565h0q-2.666.414-5.384.645l5.07-7.244.72-.064Z" transform="translate(-545.18 -606.954)" fill="#2f2e41"/>
    <path id="Path_1041" data-name="Path 1041" d="M456.495,660.71q-2.352,2.95-4.983,5.656l-6.011,0-32.327.036-5.82.007-3.869,0-5.756,0-4.427,0-8.178.009-4.824.007-10.158.009-4.849.007-13.437.014-8.44.009-2.265,0q-.755-.772-1.488-1.568-1.825-1.979-3.511-4.081l4.689,0,3.195,0,7.4-.009,14.273-.014,4.824,0,1.951,0h.007l1.531,0,.686,0,1.757,0h.743l5.209,0,11.236-.014,4.945,0,4.735,0,4.439,0,6.369-.007,34.016-.034Z" transform="translate(-319.254 -535.678)" fill="#ccc"/>
    <ellipse id="Ellipse_162" data-name="Ellipse 162" cx="4.587" cy="1.464" rx="4.587" ry="1.464" transform="translate(51.016 125.886)" fill="#3f3d56"/>
    <ellipse id="Ellipse_163" data-name="Ellipse 163" cx="4.587" cy="1.464" rx="4.587" ry="1.464" transform="translate(51.016 124.91)" fill="#3f3d56"/>
    <path id="Path_1042" data-name="Path 1042" d="M501.838,564.069l.684-.01-.189-12.765a11.908,11.908,0,0,1,5.781-10.368l13.047-7.8-.351-.587-13.047,7.8a12.593,12.593,0,0,0-6.114,10.965Z" transform="translate(-447.041 -436.714)" fill="#3f3d56"/>
    <rect id="Rectangle_583" data-name="Rectangle 583" width="3.319" height="13.665" rx="1.659" transform="translate(75.441 102.168) rotate(180)" fill="#f9b827"/>
    <path id="Path_1043" data-name="Path 1043" d="M575.61,402.908,593.5,424.052l15.256,6.531,4.066-7.9c-3.73-4.438-15.9-9.766-15.9-9.766l-16.528-14.825c-.03-.109-.061-.218-.1-.326a3.926,3.926,0,1,0-4.684,5.146Z" transform="translate(-501.886 -330.656)" fill="#a0616a"/>
    <path id="Path_1044" data-name="Path 1044" d="M728.489,505.307l-3.947,10.1,0,.039c.393,3.882,6.458,7.477,11.477,9.808a7.2,7.2,0,0,0,9.339-3.066h0a7.216,7.216,0,0,0-.461-7.6l-3.985-5.58Z" transform="translate(-619.145 -415.686)" fill="#f9b827"/>
    <path id="Path_1045" data-name="Path 1045" d="M681.269,491.607l-2.1,7.554-1.226,8.73-.378,2.684-.009.057-2.331,2.215.068.695.182,1.853.3,3.3A76.672,76.672,0,0,1,638,535.966s0,0,0,0a15.579,15.579,0,0,1-3.91-1.534c-.232-.164-.337-.31-.333-.458.025-.987,2.826-4.528,3.249-5.059l1.112-4.6,2.27-.9-.561-3.238,3.035-3.2.087-3.3.016-.093.962-5.653,1.919-11.259.2-1.153-.178-8.891-.052-2.693-.062-3.072a12.629,12.629,0,0,1,.173-2.358,12.165,12.165,0,0,1,.419-1.732,12.588,12.588,0,0,1,6.243-7.358c.116-.059.232-.116.351-.173,0,0,0,0,0,0a12.509,12.509,0,0,1,2.86-.95l.287-.51,2.812-4.995,8.618.221,5.141,8.046,4.291,4.259A16.7,16.7,0,0,1,681.269,491.607Z" transform="translate(-549.048 -382.849)" fill="#f9b827"/>
    <circle id="Ellipse_164" data-name="Ellipse 164" cx="11.417" cy="11.417" r="11.417" transform="translate(101.991 54.63)" fill="#a0616a"/>
    <path id="Path_1046" data-name="Path 1046" d="M706.288,363.7a31.045,31.045,0,0,0,5.282-.369c1.732-.352,5.605-3.191,6.685-4.9h0a15.255,15.255,0,0,0,1.6-4.69,13.88,13.88,0,0,0-2.428-11.019,4.385,4.385,0,0,0-1.771-1.512c-.063-.025-.129-.047-.195-.066a5.41,5.41,0,0,1-2.692-1.665,4.471,4.471,0,0,0-.447-.46,6.665,6.665,0,0,0-2.781-1.4c-1.653-.442-4.045,0-7.11,1.306a7.478,7.478,0,0,1-4.519.139.424.424,0,0,0-.4.137,2.992,2.992,0,0,1-2.034.811c-.463.02-.949.661-1.536,1.5-.133.19-.289.411-.4.546l-.015-.259-.262.289A3.631,3.631,0,0,0,694.91,348a7.083,7.083,0,0,0,1.424.227c.292.026.593.053.882.1a5.474,5.474,0,0,1,4.068,3.552,1.432,1.432,0,0,0,2.161.7,2.365,2.365,0,0,1,2.155-.393,1.57,1.57,0,0,1,.694.787,2.046,2.046,0,0,0,.776.906c1.173.605,1.254,3.285.833,5.519-.406,2.154-1.209,3.712-1.953,3.789-.572.059-.638.1-.679.2l-.037.091.064.085A2.339,2.339,0,0,0,706.288,363.7Z" transform="translate(-594.272 -286.08)" fill="#2f2e41"/>
    <path id="Path_1047" data-name="Path 1047" d="M540.328,561.385l-4.4-8.776c-6.39.436-19.071,7.824-19.071,7.824l-23.994,5.087a4.335,4.335,0,1,0,1.182,7.407l30.522-2.188Z" transform="translate(-435.708 -452.209)" fill="#a0616a"/>
    <path id="Path_1048" data-name="Path 1048" d="M685.982,509.766l11.5-8.544,2.025-7.3a7.971,7.971,0,0,0-2.4-8.065h0a7.952,7.952,0,0,0-10.852.35c-4.326,4.318-9.261,10.343-8.2,14.52l.011.042Z" transform="translate(-583.137 -399.149)" fill="#f9b827"/>
    <path id="Path_1049" data-name="Path 1049" d="M292.593,537.908l-.043.064a10.941,10.941,0,0,0-1.367,0q-.39.024-.779.075a1.636,1.636,0,0,0-.7,2.967l.027.018.057.039a16.072,16.072,0,0,1-11.02,4.047,75.7,75.7,0,0,1-2.666-7.483,9.91,9.91,0,0,1,4.4-2.395c3.3-.8,6.991.1,10.3-.226A1.877,1.877,0,0,1,292.593,537.908Z" transform="translate(-272.887 -438.534)" fill="#fff"/>
    <path id="Path_1050" data-name="Path 1050" d="M293.824,391.379c-.009.025-.018.052-.03.08-.26.016-.52.043-.779.077a1.634,1.634,0,0,0-.7,2.965l.027.021a16.155,16.155,0,0,1-1.445,2,16.75,16.75,0,0,1-12.079,5.817c-.15,0-.3.009-.444.009a39.78,39.78,0,0,1-2.47,10.031,36.514,36.514,0,0,1-1.622,3.573q-.171-.581-.33-1.169c.027-.052.052-.1.077-.155a36.9,36.9,0,0,0,1.593-3.821q.564-1.6.984-3.247a38.842,38.842,0,0,0,.237-18.17,10.336,10.336,0,0,1-1.928-5.886,7.9,7.9,0,0,1,.294-2.251c.175.116.36.226.542.328l.175.1.021.011a1.193,1.193,0,0,0,1.729-1.324c-.032-.139-.066-.278-.1-.417-.05-.214-.1-.428-.15-.643a.359.359,0,0,1-.018-.066c-.057-.244-.116-.485-.173-.729a3.445,3.445,0,0,1,1.5-.492,3.978,3.978,0,0,1,3.915,3.167,6.239,6.239,0,0,1-1.406,5.122,13.9,13.9,0,0,1-3.582,3.008c.03.137.064.271.093.406a39.293,39.293,0,0,1,.857,7.595,16.253,16.253,0,0,1,4.159-6.371c1.812-1.611,4.2-2.552,6.424-3.628A3.335,3.335,0,0,1,293.824,391.379Z" transform="translate(-271.227 -317.394)" fill="#fff"/>
    <path id="Path_1051" data-name="Path 1051" d="M879,587.266c.38.483.775.964,1.169,1.447a76.39,76.39,0,0,1-4.571,8.094l-.376-.267a.49.49,0,0,1-.057-.036c-.467-.333-.937-.661-1.4-.993v0a15.958,15.958,0,0,1-.64-4.033,1.2,1.2,0,0,0,.28-2.247c-.062-.107-.1-.185-.166-.294,0-.027.007-.057.009-.084A3.237,3.237,0,0,1,879,587.266Z" transform="translate(-733.867 -478.011)" fill="#fff"/>
    <path id="Path_1052" data-name="Path 1052" d="M844.351,448.184q.41,1.128.747,2.281-.232.684-.476,1.363-.092-.359-.191-.718a36.906,36.906,0,0,0-1.333-3.919q-.636-1.576-1.408-3.085a38.819,38.819,0,0,0-11.84-13.786,10.333,10.333,0,0,1-5.339-3.14,7.941,7.941,0,0,1-1.269-1.882c.21-.03.419-.071.624-.114l.194-.043.025,0a1.194,1.194,0,0,0,.422-2.137c-.116-.084-.235-.166-.351-.248-.178-.13-.358-.253-.538-.381a.565.565,0,0,1-.055-.039c-.205-.146-.41-.287-.613-.435a3.461,3.461,0,0,1,.8-1.358,3.984,3.984,0,0,1,5.034-.214,6.239,6.239,0,0,1,2.331,4.774,13.84,13.84,0,0,1-.7,4.626c.112.082.228.159.339.244a39.036,39.036,0,0,1,5.665,5.129,16.267,16.267,0,0,1-1.094-7.531c.294-2.406,1.463-4.692,2.42-6.968a3.333,3.333,0,0,1,6.159-.018c.011.027.023.052.032.08q-.277.277-.533.574a1.635,1.635,0,0,0,1.433,2.689l.034,0a16.437,16.437,0,0,1,.242,2.459,16.75,16.75,0,0,1-5.214,12.35c-.109.1-.216.2-.328.3a38.886,38.886,0,0,1,2.837,4.71A39.309,39.309,0,0,1,844.351,448.184Z" transform="translate(-695.129 -348.682)" fill="#fff"/>
  </g>
</svg>
