<svg xmlns="http://www.w3.org/2000/svg" width="298.14" height="154.037" viewBox="0 0 298.14 154.037">
  <g id="HybridEvent_illu" transform="translate(-24.806 0)">
    <path id="Path_1053" data-name="Path 1053" d="M398.04,598.551l8-2.539a27.092,27.092,0,0,0-.193-13.034c-3.215,7.15-12.649,8.9-18.024,14.608a16.3,16.3,0,0,0-4.169,13.5l-1.684,5.712a27.307,27.307,0,0,0,19.874-11.3,26.376,26.376,0,0,0,3.09-5.851C401.525,599.3,398.04,598.551,398.04,598.551Z" transform="translate(-245.851 -464.913)" fill="#f2f2f2"/>
    <path id="Path_1054" data-name="Path 1054" d="M383.4,560.19l6.031-5.842a27.092,27.092,0,0,0-5.985-11.58c.311,7.833-7.352,13.608-9.618,21.113a16.3,16.3,0,0,0,2.288,13.938l1.04,5.864A27.306,27.306,0,0,0,389.9,564.7a26.376,26.376,0,0,0,.157-6.615C386.851,559.3,383.4,560.19,383.4,560.19Z" transform="translate(-239.762 -437.115)" fill="#f2f2f2"/>
    <path id="Path_1055" data-name="Path 1055" d="M765.225,580.965l2.465-8.027a27.092,27.092,0,0,0-10.829-7.256c4.051,6.712.126,15.467,1.761,23.134a16.3,16.3,0,0,0,8.728,11.105l3.74,4.634A27.307,27.307,0,0,0,773.1,581.78a26.376,26.376,0,0,0-3.054-5.87C767.82,578.523,765.225,580.965,765.225,580.965Z" transform="translate(-564.111 -452.957)" fill="#f2f2f2"/>
    <path id="Path_1056" data-name="Path 1056" d="M708.021,595.835l-1.374-8.283a27.091,27.091,0,0,0-12.928-1.664c6.619,4.2,7.01,13.787,11.894,19.92a16.3,16.3,0,0,0,12.765,6.047l5.414,2.48a27.307,27.307,0,0,0-8.361-21.28,26.377,26.377,0,0,0-5.351-3.892C709.255,592.491,708.021,595.835,708.021,595.835Z" transform="translate(-520.459 -466.801)" fill="#f2f2f2"/>
    <path id="Path_1057" data-name="Path 1057" d="M620.671,362.49a2.478,2.478,0,0,1,.426.128L626.487,348l.5-15.01a3.732,3.732,0,0,1,7.442-.271h0a29.447,29.447,0,0,1-.449,9.118l-2.056,9.9-9.388,13.957a2.474,2.474,0,1,1-1.868-3.195Z" transform="translate(-439.879 -289.592)" fill="#ffb8b8"/>
    <path id="Path_1058" data-name="Path 1058" d="M649.175,346.124l-6.563-.971L641.5,331.208a5.87,5.87,0,0,1,11.514,2.292Z" transform="translate(-456.323 -287.591)" fill="#2f2e41"/>
    <rect id="Rectangle_584" data-name="Rectangle 584" width="13.86" height="13.86" transform="translate(197.968 72.565) rotate(180)" fill="#ffb8b8"/>
    <path id="Path_1059" data-name="Path 1059" d="M635.725,309.282l2.79-3.586,3.98-.173.4,3.373,1.972.909a52.883,52.883,0,0,1,.891,22.912h0a2.04,2.04,0,0,0-.58,1.982l.128.51-.012.019a2.986,2.986,0,0,0-.4,2.229h0l3.6,6.405c-7.655,3.12-13.267-2.7-18.466-10.324L626.815,322.4Z" transform="translate(-446.172 -273.101)" fill="#f9b827"/>
    <path id="Path_1060" data-name="Path 1060" d="M605.48,134.118l-.751-7.514,9.975-14.766.41.277-9.874,14.618.733,7.336Z" transform="translate(-424.314 -77.317)" fill="#2f2e41"/>
    <circle id="Ellipse_165" data-name="Ellipse 165" cx="0.743" cy="0.743" r="0.743" transform="translate(180.67 56.034)" fill="#2f2e41"/>
    <circle id="Ellipse_166" data-name="Ellipse 166" cx="7.358" cy="7.358" r="7.358" transform="translate(185.403 18.869)" fill="#ffb8b8"/>
    <path id="Path_1061" data-name="Path 1061" d="M648.645,255.858l.893.238.3.081,3.4.9c3.011.8,4.721,4.2,3.82,7.585,1.665,2.886.222,5.563-2.4,8.16a36.934,36.934,0,0,0-10.131.012l.059-1.945-1.487,2.186q-1.274.246-2.555.6c1.942-3.825,3.374-7.775,3.618-11.075l-1.556-.414.453-1.7-.981,1.562-2.82-.751h0A7.673,7.673,0,0,1,648.645,255.858Z" transform="translate(-454.773 -238.585)" fill="#2f2e41"/>
    <circle id="Ellipse_167" data-name="Ellipse 167" cx="3.465" cy="3.465" r="3.465" transform="translate(196.677 14.89)" fill="#2f2e41"/>
    <path id="Path_1062" data-name="Path 1062" d="M644.749,365.58a2.479,2.479,0,0,1,.443.042l2.432-15.393-2.436-14.819a3.732,3.732,0,0,1,7.245-1.719h0a29.444,29.444,0,0,1,1.339,9.03l-.085,10.106L647.2,368.349a2.474,2.474,0,1,1-2.456-2.768Z" transform="translate(-456.859 -290.762)" fill="#ffb8b8"/>
    <path id="Path_1063" data-name="Path 1063" d="M656.144,347.048l-6.626.329L645.7,333.919a5.87,5.87,0,1,1,11.74,0Z" transform="translate(-459.23 -288.673)" fill="#2f2e41"/>
    <path id="Path_1064" data-name="Path 1064" d="M542.912,384.694a2.676,2.676,0,0,0-3.983-.986l-7.816-5.414-.113,4.94,7.44,4.384a2.69,2.69,0,0,0,4.472-2.924Z" transform="translate(-379.932 -323.409)" fill="#ffb6b6"/>
    <path id="Path_1065" data-name="Path 1065" d="M510.568,336.475,495.532,328.1l0-.073c-.008-.14-.79-14.042-.483-17.009a7.9,7.9,0,0,1,2.2-4.77l.033-.03.044,0a4.008,4.008,0,0,1,4.179,2.768,28.387,28.387,0,0,1,.955,12.987l-.4,2.471,10.014,7.611Z" transform="translate(-355.026 -273.569)" fill="#f9b827"/>
    <circle id="Ellipse_168" data-name="Ellipse 168" cx="6.521" cy="6.521" r="6.521" transform="translate(137.483 14.848)" fill="#ffb6b6"/>
    <path id="Path_1066" data-name="Path 1066" d="M488.939,257.5a5.265,5.265,0,0,1-4.857-.377,8.835,8.835,0,0,1-3.275-3.781,5.235,5.235,0,0,1-.629-3.579,2.414,2.414,0,0,1,2.771-1.845,2.07,2.07,0,0,1-.061-2.816,5.227,5.227,0,0,1,2.695-1.5,10.612,10.612,0,0,1,4.48-.51,4.908,4.908,0,0,1,3.68,2.37,2.285,2.285,0,0,0,2.567-1.1,2.07,2.07,0,0,1-.712,2.415l2.03-1.1a1.614,1.614,0,0,1-.738,2.218,3.7,3.7,0,0,1-2.593.081c-.857-.217-1.974.263-2.859.281a2.166,2.166,0,0,0-2.094,1.328,6.788,6.788,0,0,0-.094,1.382,1.169,1.169,0,0,1-.708,1.094c-.283.076-.592-.025-.872.06a.936.936,0,0,0-.59.838,2.747,2.747,0,0,0,.195,1.063c.443,1.364,1.151,1.93,1.594,3.294" transform="translate(-344.719 -229.895)" fill="#2f2e41"/>
    <path id="Path_1067" data-name="Path 1067" d="M470.763,335.6h0l-.052-.009-.015-.05c-.187-.631-.426-1.276-.657-1.9a22.886,22.886,0,0,1-.859-2.648,20.284,20.284,0,0,1-.38-2.607c-.064-.636-.131-1.294-.244-1.942a1.189,1.189,0,0,1,.324-.823,1.09,1.09,0,0,0,.3-.693,1.649,1.649,0,0,0-.521-.705,1.7,1.7,0,0,1-.572-.811,80.817,80.817,0,0,1-.728-11.639,62.245,62.245,0,0,1,.723-10.91c1.145-4.986,6.437-5.9,7.265-6.008a1.829,1.829,0,0,1,2.474-1.02l3.76,1.721a6.121,6.121,0,0,1,3.254,3.635l.559,1.7.28,11.43-1.55,8.049,2.416,11.911C470.39,341.147,470.816,335.6,470.763,335.6Z" transform="translate(-335.93 -264.906)" fill="#f9b827"/>
    <path id="Path_1068" data-name="Path 1068" d="M522.025,395.361a2.676,2.676,0,0,0-3.762-1.638l-6.8-6.645-.937,4.851,6.6,5.566a2.69,2.69,0,0,0,4.9-2.135Z" transform="translate(-365.777 -329.482)" fill="#ffb6b6"/>
    <path id="Path_1069" data-name="Path 1069" d="M493.079,343.281l-13.425-10.767.008-.073c.016-.139,1.569-13.977,2.367-16.851A7.9,7.9,0,0,1,485,311.255l.037-.024.044,0a4.008,4.008,0,0,1,3.657,3.428,28.387,28.387,0,0,1-1.23,12.964l-.8,2.37,8.6,9.178Z" transform="translate(-344.435 -277.047)" fill="#f9b827"/>
    <path id="Path_1070" data-name="Path 1070" d="M296.129,540.386a3.1,3.1,0,0,0-4.62-1.144l-9.067-6.281-.131,5.73,8.631,5.086a3.121,3.121,0,0,0,5.188-3.392Z" transform="translate(-176.951 -430.335)" fill="#ffb6b6"/>
    <path id="Path_1071" data-name="Path 1071" d="M258.61,484.45l-17.443-9.711,0-.085c-.009-.162-.916-16.29-.56-19.732a9.162,9.162,0,0,1,2.551-5.534l.038-.035.052,0a4.649,4.649,0,0,1,4.848,3.211,32.931,32.931,0,0,1,1.107,15.066l-.46,2.866,11.617,8.829Z" transform="translate(-148.059 -372.518)" fill="#f9b827"/>
    <path id="Path_1072" data-name="Path 1072" d="M350.7,449.464l3.355-1.441L350.089,434.4l-4.952,2.127Z" transform="translate(-213.795 -300.311)" fill="#ffb6b6"/>
    <path id="Path_1073" data-name="Path 1073" d="M376.828,672.958l1.091-.469,3.515-3.561,3.026.751h0a5.294,5.294,0,0,1,6.953,2.775l.068.158-12.5,5.367Z" transform="translate(-242.293 -524.333)" fill="#2f2e41"/>
    <path id="Path_1074" data-name="Path 1074" d="M314.245,452.8H317.9l1.737-14.085h-5.389Z" transform="translate(-192.438 -303.3)" fill="#ffb6b6"/>
    <path id="Path_1075" data-name="Path 1075" d="M329.226,676.014h1.187l4.635-1.885,2.484,1.885h0a5.294,5.294,0,0,1,5.294,5.293v.172h-13.6Z" transform="translate(-209.385 -527.929)" fill="#2f2e41"/>
    <rect id="Rectangle_585" data-name="Rectangle 585" width="6.497" height="10.766" transform="translate(97.976 134.468)" fill="#cacaca"/>
    <rect id="Rectangle_586" data-name="Rectangle 586" width="1.485" height="18.843" transform="translate(103.314 141.394) rotate(-55.841)" fill="#cacaca"/>
    <rect id="Rectangle_587" data-name="Rectangle 587" width="18.843" height="1.485" transform="translate(82.71 150.746) rotate(-34.159)" fill="#cacaca"/>
    <circle id="Ellipse_169" data-name="Ellipse 169" cx="2.042" cy="2.042" r="2.042" transform="translate(117.28 149.317)" fill="#cacaca"/>
    <circle id="Ellipse_170" data-name="Ellipse 170" cx="2.042" cy="2.042" r="2.042" transform="translate(99.09 149.317)" fill="#cacaca"/>
    <circle id="Ellipse_171" data-name="Ellipse 171" cx="2.042" cy="2.042" r="2.042" transform="translate(81.085 149.317)" fill="#cacaca"/>
    <rect id="Rectangle_588" data-name="Rectangle 588" width="1.485" height="10.58" transform="translate(100.389 140.779)" fill="#cacaca"/>
    <rect id="Rectangle_589" data-name="Rectangle 589" width="2.784" height="14.293" transform="translate(99.833 125.002)" fill="#cacaca"/>
    <path id="Path_1076" data-name="Path 1076" d="M223.055,599.987v-3.341a2.323,2.323,0,0,1,2.32-2.32h21.7a2.323,2.323,0,0,1,2.32,2.32v3.341a2.323,2.323,0,0,1-2.32,2.32h-21.7A2.323,2.323,0,0,1,223.055,599.987Z" transform="translate(-135.985 -472.758)" fill="#3f3d56"/>
    <path id="Path_1077" data-name="Path 1077" d="M179.22,697.871H21.708a.368.368,0,1,1,0-.735H179.22a.368.368,0,1,1,0,.735Z" transform="translate(3.466 -543.834)" fill="#cacaca"/>
    <path id="Path_1078" data-name="Path 1078" d="M213.5,540.768l15.742.309.571,4.484s27.518-1.4,29.941,4.321c5.457,12.877,10.186,27.78,10.186,27.78l-6.791,2.161L249.877,557.6s-36.994,10.949-34.216-7.571Z" transform="translate(-129.38 -435.732)" fill="#2f2e41"/>
    <path id="Path_1079" data-name="Path 1079" d="M341.9,582.654a216.3,216.3,0,0,1-5.07,26.892l-6.482-.926,1.476-26.2" transform="translate(-210.162 -464.529)" fill="#2f2e41"/>
    <circle id="Ellipse_172" data-name="Ellipse 172" cx="7.565" cy="7.565" r="7.565" transform="translate(89.601 56.181)" fill="#ffb6b6"/>
    <path id="Path_1080" data-name="Path 1080" d="M233.518,392.836a6.107,6.107,0,0,1-5.634-.437,10.25,10.25,0,0,1-3.8-4.386,6.073,6.073,0,0,1-.73-4.152,2.8,2.8,0,0,1,3.214-2.141,2.4,2.4,0,0,1-.071-3.266,6.063,6.063,0,0,1,3.126-1.734,12.31,12.31,0,0,1,5.2-.591,5.694,5.694,0,0,1,4.269,2.75,2.651,2.651,0,0,0,2.978-1.279,2.4,2.4,0,0,1-.826,2.8l2.355-1.278a1.872,1.872,0,0,1-.857,2.573,4.3,4.3,0,0,1-3.008.094c-.995-.252.179,1.849-.847,1.869a2.513,2.513,0,0,0-2.429,1.54,7.88,7.88,0,0,0-.11,1.6,1.356,1.356,0,0,1-.821,1.269c-.328.088-.687-.029-1.012.069a1.086,1.086,0,0,0-.684.972,3.187,3.187,0,0,0,.226,1.234c.513,1.582-1.134.7-.621,2.278" transform="translate(-136.102 -321.853)" fill="#2f2e41"/>
    <path id="Path_1081" data-name="Path 1081" d="M212.434,483.436h0l-.06-.01-.017-.058c-.217-.732-.494-1.48-.762-2.2a26.58,26.58,0,0,1-1-3.072,23.535,23.535,0,0,1-.44-3.024c-.075-.738-.152-1.5-.283-2.252a1.38,1.38,0,0,1,.376-.955,1.265,1.265,0,0,0,.346-.8,1.913,1.913,0,0,0-.6-.818,1.971,1.971,0,0,1-.663-.941,93.731,93.731,0,0,1-.845-13.5c.063-6.247.345-10.506.839-12.657,1.329-5.784,7.467-6.839,8.428-6.97a2.122,2.122,0,0,1,2.869-1.183l4.361,2a7.1,7.1,0,0,1,3.775,4.216l.648,1.975.325,13.26-1.8,9.337,3.514,5.271C212.713,481.323,212.494,483.436,212.434,483.436Z" transform="translate(-125.907 -362.468)" fill="#f9b827"/>
    <path id="Path_1082" data-name="Path 1082" d="M919.838,485.955a2.479,2.479,0,0,1,.426.127l5.39-14.623.5-15.01a3.732,3.732,0,0,1,7.442-.271h0a29.447,29.447,0,0,1-.449,9.118l-2.056,9.9-9.388,13.957a2.474,2.474,0,1,1-1.868-3.195Z" transform="translate(-674.737 -374.947)" fill="#ffb8b8"/>
    <path id="Path_1083" data-name="Path 1083" d="M948.342,469.59l-6.562-.971-1.115-13.945a5.87,5.87,0,0,1,11.514,2.292Z" transform="translate(-691.18 -372.947)" fill="#2f2e41"/>
    <rect id="Rectangle_590" data-name="Rectangle 590" width="13.86" height="13.86" transform="translate(262.278 110.675) rotate(180)" fill="#ffb8b8"/>
    <path id="Path_1084" data-name="Path 1084" d="M790.915,441.905l-5.293-1.781-2.948,14.409,3.587,1.207Z" transform="translate(-575.368 -304.271)" fill="#ffb6b6"/>
    <path id="Path_1085" data-name="Path 1085" d="M827.613,437.013l-5.435,1.285,5.111,13.79,3.683-.871Z" transform="translate(-602.678 -302.12)" fill="#ffb6b6"/>
    <rect id="Rectangle_591" data-name="Rectangle 591" width="6.497" height="10.766" transform="translate(243.28 134.468)" fill="#cacaca"/>
    <rect id="Rectangle_592" data-name="Rectangle 592" width="18.843" height="1.485" transform="translate(228.014 150.745) rotate(-34.159)" fill="#cacaca"/>
    <rect id="Rectangle_593" data-name="Rectangle 593" width="1.485" height="18.843" transform="translate(248.617 141.392) rotate(-55.841)" fill="#cacaca"/>
    <circle id="Ellipse_173" data-name="Ellipse 173" cx="2.042" cy="2.042" r="2.042" transform="translate(226.388 149.317)" fill="#cacaca"/>
    <circle id="Ellipse_174" data-name="Ellipse 174" cx="2.042" cy="2.042" r="2.042" transform="translate(244.579 149.317)" fill="#cacaca"/>
    <circle id="Ellipse_175" data-name="Ellipse 175" cx="2.042" cy="2.042" r="2.042" transform="translate(262.584 149.317)" fill="#cacaca"/>
    <rect id="Rectangle_594" data-name="Rectangle 594" width="1.485" height="10.58" transform="translate(245.878 140.779)" fill="#cacaca"/>
    <rect id="Rectangle_595" data-name="Rectangle 595" width="2.784" height="14.293" transform="translate(245.136 125.002)" fill="#cacaca"/>
    <path id="Path_1086" data-name="Path 1086" d="M915.638,602.308h-21.7a2.323,2.323,0,0,1-2.32-2.32v-3.341a2.323,2.323,0,0,1,2.32-2.32h21.7a2.323,2.323,0,0,1,2.32,2.32v3.341A2.323,2.323,0,0,1,915.638,602.308Z" transform="translate(-657.275 -472.759)" fill="#3f3d56"/>
    <path id="Path_1087" data-name="Path 1087" d="M858.929,550.028c2.778,18.52-34.216,7.571-34.216,7.571L811.44,579.823l-6.791-2.161s4.729-14.9,10.186-27.78c2.423-5.719,29.941-4.321,29.941-4.321l.571-4.484,15.742-.309Z" transform="translate(-597.149 -435.732)" fill="#2f2e41"/>
    <path id="Path_1088" data-name="Path 1088" d="M843.3,582.423l1.476,26.2-6.482.926a216.3,216.3,0,0,1-5.07-26.892" transform="translate(-616.904 -464.529)" fill="#2f2e41"/>
    <path id="Path_1089" data-name="Path 1089" d="M934.892,432.748l2.79-3.586,3.98-.173.4,3.373,1.972.909a52.884,52.884,0,0,1,.891,22.912h0a2.04,2.04,0,0,0-.58,1.982l.128.51-.012.019a2.985,2.985,0,0,0-.4,2.229h0l3.6,6.405c-7.655,3.12-13.267-2.7-18.466-10.324l-3.218-11.138Z" transform="translate(-681.03 -358.456)" fill="#f9b827"/>
    <path id="Path_1090" data-name="Path 1090" d="M904.647,257.584l-.751-7.514,9.975-14.766.41.277L904.406,250.2l.734,7.336Z" transform="translate(-659.172 -162.673)" fill="#2f2e41"/>
    <circle id="Ellipse_176" data-name="Ellipse 176" cx="0.743" cy="0.743" r="0.743" transform="translate(244.979 94.144)" fill="#2f2e41"/>
    <circle id="Ellipse_177" data-name="Ellipse 177" cx="7.358" cy="7.358" r="7.358" transform="translate(249.712 56.98)" fill="#ffb8b8"/>
    <path id="Path_1091" data-name="Path 1091" d="M947.812,379.324l.893.238.3.081,3.4.9c3.011.8,4.721,4.2,3.82,7.585,1.665,2.886.222,5.563-2.4,8.16a36.937,36.937,0,0,0-10.131.012l.059-1.945-1.487,2.186q-1.273.246-2.555.6c1.942-3.825,3.374-7.775,3.618-11.075l-1.556-.414.453-1.7-.981,1.562-2.82-.751h0A7.673,7.673,0,0,1,947.812,379.324Z" transform="translate(-689.631 -323.941)" fill="#2f2e41"/>
    <circle id="Ellipse_178" data-name="Ellipse 178" cx="3.465" cy="3.465" r="3.465" transform="translate(260.986 53)" fill="#2f2e41"/>
    <path id="Path_1092" data-name="Path 1092" d="M943.916,489.046a2.475,2.475,0,0,1,.443.042l2.432-15.393-2.436-14.819a3.732,3.732,0,0,1,7.246-1.719h0a29.444,29.444,0,0,1,1.339,9.03l-.085,10.106-6.482,15.521a2.474,2.474,0,1,1-2.456-2.768Z" transform="translate(-691.717 -376.118)" fill="#ffb8b8"/>
    <path id="Path_1093" data-name="Path 1093" d="M955.311,470.514l-6.626.329-3.815-13.459a5.87,5.87,0,0,1,11.74,0Z" transform="translate(-694.087 -374.029)" fill="#2f2e41"/>
    <path id="Path_1094" data-name="Path 1094" d="M799.812,679.1h-2.378l-.424-2.245-1.087,2.245h-6.308a1.418,1.418,0,0,1-.806-2.585l5.038-3.479v-2.27l5.3.316Z" transform="translate(-585.774 -525.605)" fill="#2f2e41"/>
    <path id="Path_1095" data-name="Path 1095" d="M850.163,677.264l-2.359.3-.708-2.173-.792,2.366-6.257.805a1.418,1.418,0,0,1-1.129-2.461l4.552-4.094-.29-2.252,5.3-.363Z" transform="translate(-620.515 -524.657)" fill="#2f2e41"/>
    <path id="Path_1096" data-name="Path 1096" d="M665.988,697.5a.368.368,0,0,1,.366-.369H823.867a.368.368,0,1,1,0,.735H666.354a.368.368,0,0,1-.366-.366Z" transform="translate(-501.288 -543.834)" fill="#cacaca"/>
    <path id="Path_1102" data-name="Path 1102" d="M989.326,505.376l-.947-.011a3.428,3.428,0,0,1-3.385-3.463l.008-8.414a3.428,3.428,0,0,1,3.463-3.385l.947.011a3.428,3.428,0,0,1,3.385,3.463l-.008,8.414a3.428,3.428,0,0,1-3.463,3.385Z" transform="translate(-721.826 -400.706)" fill="#3f3d56"/>
    <path id="Path_1103" data-name="Path 1103" d="M942.335,557.922l.712-1.009a10.186,10.186,0,0,0,5.865,1.858c5.626,0,11.731-17.378,11.732-23h1.235c-.007,6.3-6.66,24.232-12.964,24.239A11.348,11.348,0,0,1,942.335,557.922Z" transform="translate(-692.335 -432.275)" fill="#3f3d56"/>
    <path id="Path_1104" data-name="Path 1104" d="M271.9,552.76a3.1,3.1,0,0,0-4.364-1.9l-7.89-7.708-1.087,5.628,7.659,6.457a3.121,3.121,0,0,0,5.682-2.477Z" transform="translate(-160.531 -437.38)" fill="#ffb6b6"/>
    <path id="Path_1105" data-name="Path 1105" d="M238.32,492.344l-15.574-12.49.009-.085c.018-.162,1.82-16.214,2.746-19.548a9.162,9.162,0,0,1,3.441-5.029l.043-.028.052,0a4.649,4.649,0,0,1,4.243,3.977,32.931,32.931,0,0,1-1.427,15.039l-.933,2.749L240.9,487.58Z" transform="translate(-135.772 -376.552)" fill="#f9b827"/>
    <path id="Path_1106" data-name="Path 1106" d="M184.158,509.439l-.131-9.331a3.428,3.428,0,0,1,3.331-3.515l.947-.025a3.428,3.428,0,0,1,3.515,3.331l.132,9.331a3.428,3.428,0,0,1-3.331,3.515l-.947.026A3.428,3.428,0,0,1,184.158,509.439Z" transform="translate(-109.003 -405.174)" fill="#3f3d56"/>
    <path id="Path_1107" data-name="Path 1107" d="M203.624,563.758c-6.3-.007-13.266-14.685-13.273-20.99h1.235c0,5.626,6.414,19.755,12.04,19.755a10.186,10.186,0,0,0,5.864-1.858l.713,1.008A11.347,11.347,0,0,1,203.624,563.758Z" transform="translate(-113.376 -437.115)" fill="#3f3d56"/>
    <path id="af4baad4-c88d-44ba-bf25-f9ac1002d243" d="M448.108,214.579l88.643-12.939v84.878L448.108,273.58Z" transform="translate(-322.627 -201.283)" fill="#f2f2f2" opacity="0.54"/>
    <path id="Path_1113" data-name="Path 1113" d="M536.369,286.075l-89.261-13.028V213.512l89.261-13.029Zm-88.644-13.562,88.026,12.848V201.2l-88.026,12.848Z" transform="translate(-321.935 -200.483)" fill="#3f3d56"/>
  </g>
</svg>
