<svg id="ContentCreation_illu" xmlns="http://www.w3.org/2000/svg" width="195.657" height="154.037" viewBox="0 0 195.657 154.037">
  <g id="Group_522" data-name="Group 522">
    <path id="Path_1176" data-name="Path 1176" d="M212.651,291.444a.782.782,0,0,0-.781.781v6.247a.781.781,0,1,0,1.562,0v-6.247A.782.782,0,0,0,212.651,291.444Z" transform="translate(-161.332 -221.925)" fill="#3f3d56"/>
    <path id="Path_1177" data-name="Path 1177" d="M317.242,0H246.995a14.424,14.424,0,0,0-14.424,14.424V138.556a14.424,14.424,0,0,0,14.424,14.424h70.247a14.424,14.424,0,0,0,14.424-14.424V14.424A14.424,14.424,0,0,0,317.242,0Z" transform="translate(-177.095)" fill="#fff"/>
    <path id="Path_1178" data-name="Path 1178" d="M316.152,155.231H245.9a14.782,14.782,0,0,1-14.765-14.765V16.334A14.782,14.782,0,0,1,245.9,1.568h70.247a14.782,14.782,0,0,1,14.765,14.765V140.466a14.782,14.782,0,0,1-14.765,14.765ZM245.9,2.251a14.1,14.1,0,0,0-14.082,14.082V140.466A14.1,14.1,0,0,0,245.9,154.548h70.247a14.1,14.1,0,0,0,14.082-14.082V16.334A14.1,14.1,0,0,0,316.152,2.251H245.9Z" transform="translate(-176.005 -1.194)" fill="#3f3d56"/>
    <path id="Path_1179" data-name="Path 1179" d="M511.8,112.937H483.564a2.172,2.172,0,0,1,0-4.344H511.8a2.172,2.172,0,1,1,0,4.344Z" transform="translate(-366.565 -82.69)" fill="#e6e6e6"/>
    <path id="Path_1180" data-name="Path 1180" d="M406.2,190.4H378.752a1.255,1.255,0,1,1,0-2.51H406.2a1.255,1.255,0,0,1,0,2.51Z" transform="translate(-287.451 -143.071)" fill="#f9b827"/>
    <rect id="Rectangle_632" data-name="Rectangle 632" width="15.882" height="2.036" rx="0.31" transform="translate(64.178 5.381)" fill="#e6e6e6"/>
    <circle id="Ellipse_184" data-name="Ellipse 184" cx="1.629" cy="1.629" r="1.629" transform="translate(131.106 4.159)" fill="#e6e6e6"/>
    <circle id="Ellipse_185" data-name="Ellipse 185" cx="1.629" cy="1.629" r="1.629" transform="translate(135.585 4.159)" fill="#e6e6e6"/>
    <circle id="Ellipse_186" data-name="Ellipse 186" cx="1.629" cy="1.629" r="1.629" transform="translate(140.065 4.159)" fill="#e6e6e6"/>
    <path id="Path_1181" data-name="Path 1181" d="M292.323,225.273a.405.405,0,0,0,.406.406h69.776a.406.406,0,1,0,0-.813H292.729A.405.405,0,0,0,292.323,225.273Z" transform="translate(-222.594 -171.229)" fill="#3f3d56"/>
    <path id="Path_1182" data-name="Path 1182" d="M524.323,466.273a.405.405,0,0,0,.406.406h69.776a.406.406,0,1,0,0-.813H524.729A.405.405,0,0,0,524.323,466.273Z" transform="translate(-399.255 -354.743)" fill="#3f3d56"/>
    <path id="Path_1183" data-name="Path 1183" d="M420.819,352.486H378.945a1.255,1.255,0,1,1,0-2.51h41.874a1.255,1.255,0,0,1,0,2.51Z" transform="translate(-287.598 -266.496)" fill="#f9b827"/>
    <circle id="Ellipse_187" data-name="Ellipse 187" cx="3.074" cy="3.074" r="3.074" transform="translate(75.572 81.507)" fill="#f9b827"/>
    <path id="Path_1184" data-name="Path 1184" d="M328.274,342.265v-.683a4.611,4.611,0,0,0,0-9.222v-.683a5.294,5.294,0,0,1,0,10.588Z" transform="translate(-249.97 -252.561)" fill="#3f3d56"/>
    <path id="uuid-9e40be56-d004-4de8-84cd-e8041855938b" d="M153.474,298.528c1.254-1.276,2.929-1.663,3.741-.865s.454,2.479-.8,3.756a4.477,4.477,0,0,1-1.781,1.14l-5.381,5.34-2.452-2.579,5.565-4.99a4.477,4.477,0,0,1,1.109-1.8Z" transform="translate(-111.783 -226.344)" fill="#ffb6b6"/>
    <path id="Path_1185" data-name="Path 1185" d="M79.942,282.976l5.642,12.517,9.009-4.877,3.224,1.711S90.453,304.64,85.41,303.238s-14-14.111-12.384-18.034,6.916-2.229,6.916-2.229Z" transform="translate(-55.461 -215.2)" fill="#e6e6e6"/>
    <path id="Path_1186" data-name="Path 1186" d="M0,643.107a.283.283,0,0,0,.284.284H174.243a.284.284,0,1,0,0-.568H.284A.283.283,0,0,0,0,643.107Z" transform="translate(0 -489.489)" fill="#3f3d56"/>
    <ellipse id="Ellipse_188" data-name="Ellipse 188" cx="15.481" cy="15.154" rx="15.481" ry="15.154" transform="translate(36.596 62.118)" fill="#f9b827"/>
    <g id="Group_511" data-name="Group 511" transform="translate(21.056 135.325)">
      <path id="Path_1187" data-name="Path 1187" d="M92.259,583.191h4.114l1.957-15.868H92.258Z" transform="translate(-91.307 -567.322)" fill="#ffb6b6"/>
      <path id="Path_1188" data-name="Path 1188" d="M103.318,618.64h0a3.532,3.532,0,0,1,.2,1.163h0a1.4,1.4,0,0,1-1.4,1.4H89.377a.953.953,0,0,1-.953-.953v-.53a4.072,4.072,0,0,1,.667-3.559s1.613,1.539,4.023-.871L93.825,614l5.144,3.762,2.851.351c.624.077,1.177-.012,1.5.529h0Z" transform="translate(-88.271 -602.864)" fill="#2f2e41"/>
    </g>
    <path id="Path_1189" data-name="Path 1189" d="M82.777,262.982l.083-5.549L79.438,255.3l-3.721,4.551Z" transform="translate(-57.656 -194.403)" fill="#ffb6b6"/>
    <path id="Path_1190" data-name="Path 1190" d="M94.654,262.982l.222-5.41-3.56-2.271,1.21,6.7Z" transform="translate(-69.534 -194.403)" opacity="0.1"/>
    <path id="Path_1191" data-name="Path 1191" d="M93.079,411.938,87.41,450.514H80.3l.946-22.02.5-11.578L80.3,411.4a24.614,24.614,0,0,1-1.213-2.71c-.625-1.676-1.119-3.685-.386-4.637a3.477,3.477,0,0,1,1.923-.8,19.9,19.9,0,0,1,1.991-.283,89.046,89.046,0,0,1,10.189-.156l.152,5.019.084,2.8.04,1.3Z" transform="translate(-59.648 -306.667)" fill="#2f2e41"/>
    <g id="Group_512" data-name="Group 512" transform="translate(13.74 133.607)">
      <path id="Path_1192" data-name="Path 1192" d="M61.88,575.822l4.07.6L70.195,561l-6.007-.883Z" transform="translate(-60.86 -560.122)" fill="#ffb6b6"/>
      <path id="Path_1193" data-name="Path 1193" d="M72.581,615.079h0a3.532,3.532,0,0,1,.024,1.179h0a1.4,1.4,0,0,1-1.585,1.178l-12.6-1.853a.953.953,0,0,1-.8-1.081l.077-.525a4.072,4.072,0,0,1,1.178-3.424s1.372,1.757,4.107-.277l.89-1.17,4.542,4.47,2.77.762c.606.167,1.166.159,1.4.741Z" transform="translate(-57.602 -597.422)" fill="#2f2e41"/>
    </g>
    <path id="Path_1194" data-name="Path 1194" d="M79.762,402.447l-.778,6.7-4.24,14.111-6.98,23.231-7.036-1.034,6.315-33.031-.625-5.664s-.2-.563-.437-1.387c-.463-1.631-1.044-4.286-.405-5.641a1.583,1.583,0,0,1,.329-.473,2.626,2.626,0,0,1,1.447-.47c2.862-.323,8.756.6,11.378,1.056l1.033,2.607Z" transform="translate(-46.242 -303.611)" fill="#2f2e41"/>
    <path id="Path_1195" data-name="Path 1195" d="M64.873,269.459l6.913,3.318s7.328,21.708,7.328,22.814,2.074,1.8.83,3.042,2.316,2.3.4,3.292-13.887,6.431-15.217,5.941c-3.67-1.352.156-6.321.156-6.321s-2.757-2.22-2.342-3.327-2.489-22.261-2.489-22.261l4.424-6.5Z" transform="translate(-46.029 -205.184)" fill="#e6e6e6"/>
    <g id="Group_513" data-name="Group 513" transform="translate(18.09 68.889)">
      <path id="uuid-73aedec7-8a7b-498d-9bbc-62d5085a8040" d="M138.157,349c1.716-.507,3.368-.032,3.69,1.059s-.807,2.388-2.523,2.895a4.477,4.477,0,0,1-2.11.132l-7.3,2.056-.892-3.445,7.288-1.661A4.477,4.477,0,0,1,138.157,349Z" transform="translate(-116.339 -334.486)" fill="#ffb6b6"/>
      <path id="Path_1196" data-name="Path 1196" d="M84.752,291.109l-1.144,13.682,10.244.11,1.988,3.061s-12.416,7.189-16.145,3.516-5.387-19.132-2.072-21.778S84.752,291.109,84.752,291.109Z" transform="translate(-75.84 -288.804)" fill="#e6e6e6"/>
    </g>
    <g id="Group_515" data-name="Group 515" transform="translate(17.989 47.713)">
      <circle id="Ellipse_189" data-name="Ellipse 189" cx="5.922" cy="5.922" r="5.922" transform="translate(1.065 5.083)" fill="#ffb6b6"/>
      <path id="Path_1197" data-name="Path 1197" d="M79.209,211.054s.933-1.539,1.446-2.332a4.171,4.171,0,0,0,.513-1.954s4.756-.1,6.342,1.255,2.7-3.637,1.166-5.363c0,0-.653.746-.513,1.026l.14.28s-.793-3.171-3.078-3.777c0,0-1.271.657-.915,1.028s-2.722-2.24-3.655-.7c0,0-2.285-.047-2.005.793l-.14.513s-1.959-.606-2.1.839a1.739,1.739,0,0,1,1.073.373c.373.373-1.352,1.446-1.352,1.446s-2.005,5.5.7,7.741c0,0,.023-2.681,1.1-2.028a8.82,8.82,0,0,1,1.282.863Z" transform="translate(-75.416 -200.026)" fill="#2f2e41"/>
      <g id="Group_514" data-name="Group 514" transform="translate(2.837 9.537)">
        <path id="Path_1198" data-name="Path 1198" d="M114.265,260.923l-.213.56,1.595.047.106-.513Z" transform="translate(-107.673 -255.933)" fill="#2f2e41"/>
        <path id="Path_1199" data-name="Path 1199" d="M95.5,242.99a3.723,3.723,0,0,0-3.828,1.306l-.319.373s-3.03-3.4-2.764-4.663l-.638.047-.638,3.264s2.02,3.5,4.838,3.637c0,0,2.711.653,3.3-.466s1.592-2.769,1.592-2.769L95.5,242.99Zm-.435,3.124H93.476c-.372,0-1.329-1.352-1.329-1.352.532-.839,2.126-.886,2.126-.886h1.732l.129.513-1.073,1.725Z" transform="translate(-87.309 -240.005)" fill="#2f2e41"/>
      </g>
    </g>
    <g id="Group_516" data-name="Group 516" transform="translate(135.256 140.785)">
      <path id="Path_1200" data-name="Path 1200" d="M597.3,601.072l-2.6-.562.93-10.3,3.838.829Z" transform="translate(-588.099 -590.213)" fill="#a0616a"/>
      <path id="Path_1201" data-name="Path 1201" d="M567.336,622.194h0a2.283,2.283,0,0,0-.283.708h0a.9.9,0,0,0,.692,1.073l8.053,1.74a.616.616,0,0,0,.732-.472l.072-.335a2.634,2.634,0,0,0,.064-2.341s-1.229.752-2.424-1.1l-.273-.911-3.765,1.675-1.85-.168c-.4-.037-.742-.168-1.019.13h0Z" transform="translate(-567.032 -613.319)" fill="#2f2e41"/>
    </g>
    <g id="Group_517" data-name="Group 517" transform="translate(131.701 140.216)">
      <path id="Path_1202" data-name="Path 1202" d="M579.175,598.468l-2.169-1.54,4.907-9.1,3.2,2.273Z" transform="translate(-571.072 -587.827)" fill="#a0616a"/>
      <path id="Path_1203" data-name="Path 1203" d="M552.835,609.944h0a2.285,2.285,0,0,0-.538.54h0a.9.9,0,0,0,.214,1.259l6.719,4.768a.616.616,0,0,0,.859-.146l.2-.28a2.633,2.633,0,0,0,.98-2.127s-1.426.208-1.8-1.965l.107-.945-4.121.059-1.635-.882c-.358-.193-.616-.447-.988-.282Z" transform="translate(-552.13 -604.628)" fill="#2f2e41"/>
    </g>
    <path id="Path_1204" data-name="Path 1204" d="M651.471,391.028s4.045,5.5-4.045,11.684l-16.519-5.278,5.9-12.3,5.225-2.865,9.439,8.765Z" transform="translate(-480.415 -291.081)" fill="#2f2e41"/>
    <path id="Path_1205" data-name="Path 1205" d="M597.546,439.4l-6.405,12.473-4.046,25.958,5.057.337,5.057-24.609,8.933-13.316-6.236-2.865" transform="translate(-447.054 -333.051)" fill="#2f2e41"/>
    <path id="Path_1206" data-name="Path 1206" d="M619.446,446.144v3.918l-11.462,12.589s0,9.439-4.382,13.822l-5.057,7.754-4.382-2.36,6.405-22.587,11.462-14.833,7.417,1.7Z" transform="translate(-452.435 -338.431)" fill="#2f2e41"/>
    <path id="Path_1207" data-name="Path 1207" d="M666.011,279.467l1.738,8.232,6.627-1.619s-3.276-6.813-2.624-9.512Z" transform="translate(-507.146 -210.597)" fill="#a0616a"/>
    <path id="Path_1208" data-name="Path 1208" d="M666.011,279.467l1.738,8.232,6.627-1.619s-3.276-6.813-2.624-9.512Z" transform="translate(-507.146 -210.597)" opacity="0.1"/>
    <path id="Path_1209" data-name="Path 1209" d="M664.4,293.933l-5.057,2.36s-2.6,1.59-2.649,2.649.289,6.116.289,6.116-2.023,2.023-.674,6.068l-.674,6.742,15.17,8.091L669.461,311.8l.674-13.147-5.731-4.72Z" transform="translate(-499.248 -223.82)" fill="#e6e6e6"/>
    <g id="Group_518" data-name="Group 518" transform="translate(166.233 74.719)">
      <path id="uuid-8e851e4b-a66f-4616-8a31-24a5e3f3093d" d="M700.361,427.637c-.592,1.358-1.773,2.154-2.637,1.777s-1.085-1.784-.493-3.142a3.708,3.708,0,0,1,1.04-1.409l2.581-5.724,2.66,1.269-2.827,5.508A3.708,3.708,0,0,1,700.361,427.637Z" transform="translate(-696.899 -393.879)" fill="#a0616a"/>
      <path id="Path_1210" data-name="Path 1210" d="M700.158,314.2s3.708-2.36,5.057.337,4.382,16.519,4.382,16.519L705.215,344.2l-4.045-1.686,3.54-14.149Z" transform="translate(-699.381 -313.246)" fill="#e6e6e6"/>
    </g>
    <g id="Group_519" data-name="Group 519" transform="translate(144.549 74.865)">
      <path id="uuid-35301953-803a-439b-9845-5bf97a98fdf5" d="M609.45,421.226c-1.051,1.045-2.442,1.349-3.107.681s-.352-2.058.7-3.1a3.709,3.709,0,0,1,1.486-.927l4.508-4.37,2.006,2.159-4.657,4.079a3.709,3.709,0,0,1-.936,1.481Z" transform="translate(-605.994 -389.736)" fill="#a0616a"/>
      <path id="Path_1211" data-name="Path 1211" d="M630.375,313.861s6.465-.264,6.725,2.74-4.159,16.408-4.159,16.408l-8.918,10.608-3.14-3.057,8.5-11.85Z" transform="translate(-617.332 -313.855)" fill="#e6e6e6"/>
    </g>
    <g id="Group_520" data-name="Group 520" transform="translate(119.533 94.939)">
      <path id="Path_1212" data-name="Path 1212" d="M603.6,433.881l-41.34-6.668a1.255,1.255,0,1,1,.4-2.478L604,431.4a1.255,1.255,0,0,1-.4,2.478Z" transform="translate(-546.87 -418.349)" fill="#f9b827"/>
      <circle id="Ellipse_190" data-name="Ellipse 190" cx="3.074" cy="3.074" r="3.074" transform="translate(0 2.375)" fill="#f9b827"/>
      <path id="Path_1213" data-name="Path 1213" d="M509.169,408.468l.109-.674a4.611,4.611,0,1,0,1.468-9.1l.109-.674a5.294,5.294,0,0,1-1.686,10.453Z" transform="translate(-507.248 -398.014)" fill="#3f3d56"/>
    </g>
    <g id="Group_521" data-name="Group 521" transform="translate(152.334 52.374)">
      <circle id="Ellipse_191" data-name="Ellipse 191" cx="5.091" cy="5.091" r="5.091" transform="translate(2.103 8.063)" fill="#a0616a"/>
      <path id="Path_1214" data-name="Path 1214" d="M648.832,232.722s-3.178-2.885-5.215-1.867a31.375,31.375,0,0,0-3.055,1.7,3.593,3.593,0,0,1,.849-4.752s-5.181-2.264-1.4-5.8,7.173-2.177,7.173-2.177,4.582,2.036,1.358,6.11c0,0,4.7,2.979,2.264,7.854,0,0-.227-3.1-.906-2.253A10.369,10.369,0,0,1,648.832,232.722Z" transform="translate(-638.628 -219.568)" fill="#2f2e41"/>
    </g>
    <path id="Path_1215" data-name="Path 1215" d="M205.5,300.428l-5.839-14.356a.72.72,0,0,0-1.373,0,63.455,63.455,0,0,0-3.784,15.59c-.1.909,1.322.9,1.424,0a60.858,60.858,0,0,1,1.038-6.213,14.973,14.973,0,0,0,4.768-.524l2.392,5.882c.341.838,1.719.471,1.373-.379Zm-8.211-6.387q.72-2.945,1.722-5.812l2.183,5.366A13.753,13.753,0,0,1,197.289,294.042Z" transform="translate(-148.104 -217.451)" fill="#fff"/>
  </g>
  <circle id="Ellipse_192" data-name="Ellipse 192" cx="1.431" cy="1.431" r="1.431" transform="translate(58.709 81.312)" fill="#fff"/>
  <circle id="Ellipse_193" data-name="Ellipse 193" cx="1.431" cy="1.431" r="1.431" transform="translate(43.682 68.67)" fill="#fff"/>
</svg>
