<svg xmlns="http://www.w3.org/2000/svg" width="322.952" height="274.74" viewBox="0 0 322.952 274.74">
  <g id="Marketing_illu" transform="translate(0 0)">
    <path id="Path_1454" data-name="Path 1454" d="M893.68,736.807c3.531,6.864,11.248,9.93,11.248,9.93s1.992-8.062-1.539-14.925-11.248-9.93-11.248-9.93S890.148,729.944,893.68,736.807Z" transform="translate(-609.75 -472.288)" fill="#f1f1f1"/>
    <path id="Path_1455" data-name="Path 1455" d="M881.9,748.469c6.536,4.106,8.93,12.058,8.93,12.058s-8.2,1.294-14.738-2.813-8.93-12.058-8.93-12.058S875.367,744.362,881.9,748.469Z" transform="translate(-595.412 -486.135)" fill="#f1f1f1"/>
    <path id="Path_1456" data-name="Path 1456" d="M461.954,628.239H457.37l-2.18-17.678h6.764Z" transform="translate(-267.303 -358.541)" fill="#ffb7b7"/>
    <path id="Path_1457" data-name="Path 1457" d="M662.18,772.9H647.4v-.187a5.752,5.752,0,0,1,5.752-5.752h9.027Z" transform="translate(-466.36 -498.759)" fill="#2f2e41"/>
    <path id="Path_1458" data-name="Path 1458" d="M530.787,628.239H526.2l-2.18-17.678h6.765Z" transform="translate(-307.724 -358.541)" fill="#ffb7b7"/>
    <path id="Path_1459" data-name="Path 1459" d="M731.014,772.9H716.235v-.187a5.752,5.752,0,0,1,5.752-5.752h9.027Z" transform="translate(-506.781 -498.759)" fill="#2f2e41"/>
    <path id="Path_1460" data-name="Path 1460" d="M690.419,477.86,681.4,459.713l2.322-15.052-10.841-2.991-1.122,20.188,14.059,19.106a3.737,3.737,0,1,0,4.6-3.1Z" transform="translate(-480.665 -307.738)" fill="#ffb7b7"/>
    <path id="Path_1461" data-name="Path 1461" d="M760.187,477.86l9.018-18.147-2.323-15.052,10.841-2.991,1.122,20.188-14.06,19.106a3.737,3.737,0,1,1-4.6-3.1Z" transform="translate(-530.925 -307.738)" fill="#ffb7b7"/>
    <circle id="Ellipse_215" data-name="Ellipse 215" cx="9.863" cy="9.863" r="9.863" transform="translate(213.38 88.376)" fill="#ffb9b9"/>
    <path id="Path_1462" data-name="Path 1462" d="M724.857,333.185a4.725,4.725,0,0,1-.659-3.334,10.1,10.1,0,0,0,.288-3,29.727,29.727,0,0,1,1.729-4.363c.864-1.564.453-2.223,3.169-2.716s1.605-4.034,8.767-.206a2.1,2.1,0,0,0,2.182.823c1.482-.288,2.017,1.77,2.017,1.77s.988-.576,1.358.247,3.012-.494,3.012,5.063a23.006,23.006,0,0,1-3.006,10.52s-2.111,6.66-7.009,5.713-5.608-.374-8.972-6.729C727.044,338.954,725.987,331.412,724.857,333.185Z" transform="translate(-511.402 -234.999)" fill="#2f2e41"/>
    <path id="Path_1463" data-name="Path 1463" d="M674.329,509.6l-1.144,4.484s-5.386,2.6-7.542,25.976l-2.9,35.046-4.431,36.729,9.212.715,6.388-23.269,13.8-48.927,2.617,37.014-2.911,33.544,9.72.374,6.729-37.384s10.309-54.758,3.659-56.352l-.668-5.706Z" transform="translate(-472.765 -347.627)" fill="#2f2e41"/>
    <path id="Path_1464" data-name="Path 1464" d="M691.954,395.052l15.867-8.744,13.467.719,16.085,9.521-6.7,41.868s3.843,4.3-7.771,3.035-30.386-2.285-30.386-2.285-1.51-3,1.715-3.416.528-.322.528-.322-1.949-6.257,0-7.477l.943-12.85Z" transform="translate(-492.523 -275.227)" fill="#3f3d56"/>
    <path id="Path_1465" data-name="Path 1465" d="M474.345,290.944l-4.376-.649-9.27,16.537,15.061,6.641Z" transform="translate(-270.538 -170.471)" fill="#3f3d56"/>
    <path id="Path_1466" data-name="Path 1466" d="M575.539,296.063l5.154-2.145,5.126,23.267-13.912,2.635Z" transform="translate(-335.843 -172.598)" fill="#3f3d56"/>
    <path id="Path_1467" data-name="Path 1467" d="M500.616,781.628H702.459a.413.413,0,1,0,0-.825H500.616a.413.413,0,1,0,0,.825Z" transform="translate(-379.92 -506.888)" fill="#cbcbcb"/>
    <rect id="Rectangle_671" data-name="Rectangle 671" width="52.421" height="26.417" transform="translate(46.643 164.119)" fill="#fff"/>
    <rect id="Rectangle_672" data-name="Rectangle 672" width="40.034" height="1.357" transform="translate(52.836 170.881)" fill="#f9b827"/>
    <rect id="Rectangle_673" data-name="Rectangle 673" width="40.034" height="1.357" transform="translate(52.836 176.649)" fill="#f9b827"/>
    <rect id="Rectangle_674" data-name="Rectangle 674" width="40.034" height="1.357" transform="translate(52.836 182.417)" fill="#f9b827"/>
    <path id="Path_1468" data-name="Path 1468" d="M374.044,541.046H320.8V513.8h53.247Zm-52.421-.826h51.6V514.629h-51.6Z" transform="translate(-274.567 -350.097)" fill="#3f3d56"/>
    <path id="Path_1469" data-name="Path 1469" d="M312.5,349.888a59.62,59.62,0,0,1-31.417-8.919l-.24-.148.148-.24,31.351-50.738h59.92v.282A59.83,59.83,0,0,1,312.5,349.888Z" transform="translate(-251.105 -218.58)" fill="#f9b827"/>
    <path id="Path_1470" data-name="Path 1470" d="M231.747,290.753l-.193-.119a47.988,47.988,0,0,1-16.437-64.608l.112-.2,41.855,23.917Z" transform="translate(-208.797 -180.989)" fill="#f1f1f1"/>
    <path id="Path_1471" data-name="Path 1471" d="M416.8,186.925H356.684l12.959-58.709.275.06A59.781,59.781,0,0,1,416.8,186.643Z" transform="translate(-295.641 -123.667)" fill="#f9b827"/>
    <path id="Path_1472" data-name="Path 1472" d="M275.54,181.255l-40.731-23.275.109-.191a46.66,46.66,0,0,1,50.518-22.39l.215.047Z" transform="translate(-224.072 -127.244)" fill="#f1f1f1"/>
    <rect id="Rectangle_675" data-name="Rectangle 675" width="51.501" height="26.411" transform="translate(151.964 0.294)" fill="#fff"/>
    <rect id="Rectangle_676" data-name="Rectangle 676" width="40.034" height="1.357" transform="translate(157.681 7.175)" fill="#f9b827"/>
    <rect id="Rectangle_677" data-name="Rectangle 677" width="40.034" height="1.357" transform="translate(157.681 12.943)" fill="#f9b827"/>
    <rect id="Rectangle_678" data-name="Rectangle 678" width="40.034" height="1.357" transform="translate(157.681 18.711)" fill="#f9b827"/>
    <path id="Path_1473" data-name="Path 1473" d="M628.048,144.44H574.8V117.2h53.247Zm-52.422-.826h51.6V118.023h-51.6Z" transform="translate(-423.727 -117.197)" fill="#3f3d56"/>
    <rect id="Rectangle_679" data-name="Rectangle 679" width="0.826" height="67.957" transform="translate(72.553 95.749)" fill="#3f3d56"/>
    <rect id="Rectangle_680" data-name="Rectangle 680" width="68.018" height="0.826" transform="translate(89.309 41.683) rotate(-24.338)" fill="#3f3d56"/>
  </g>
</svg>
