<svg id="StrategicPartnership_illu" xmlns="http://www.w3.org/2000/svg" width="248.415" height="154.037" viewBox="0 0 248.415 154.037">
  <g id="Group_528" data-name="Group 528" transform="translate(193.366 134.793)">
    <path id="Path_1300" data-name="Path 1300" d="M691.213,474.292l-2.583-.606,1.562-11.9,3.811.893Z" transform="translate(-680.986 -461.783)" fill="#ffb6b6"/>
    <path id="Path_1301" data-name="Path 1301" d="M662.474,491.521h0a.766.766,0,0,0,.484.964l5.1,1.322a4.754,4.754,0,0,1,3.294-2.222l-.607,2.919,2.628.682.885-4.718s1.347-2.3.215-3.944.006-1.163.006-1.163l.17-3.018-4.093-.564-1.2,4.5-3.088,3.97-3.19.663a.822.822,0,0,0-.6.613h0Z" transform="translate(-662.444 -475.942)" fill="#2f2e41"/>
  </g>
  <g id="Group_529" data-name="Group 529" transform="translate(219.439 133.856)">
    <path id="Path_1302" data-name="Path 1302" d="M760.678,469.21l-2.356,1.22-6.556-10.057,3.476-1.8Z" transform="translate(-751.766 -458.572)" fill="#ffb6b6"/>
    <path id="Path_1303" data-name="Path 1303" d="M762.115,489.61h0a.766.766,0,0,0,.994.417l4.73-2.31a4.754,4.754,0,0,1,1.056-3.83l1.438,2.612,2.44-1.192-2.4-4.159s-.472-2.621-2.4-3.136-.752-.887-.752-.887l-1.834-2.4-3.475,2.234,2.015,4.194.237,5.024-1.991,2.578a.822.822,0,0,0-.058.857h0Z" transform="translate(-758.951 -470.008)" fill="#2f2e41"/>
  </g>
  <path id="b" d="M305.261,100.99h68.457a1.561,1.561,0,0,0,1.561-1.561V2.56A1.561,1.561,0,0,0,373.718,1H305.261A1.561,1.561,0,0,0,303.7,2.56V99.43a1.561,1.561,0,0,0,1.561,1.561Z" transform="translate(-215.051 -0.708)" fill="#fff"/>
  <path id="Path_1304" data-name="Path 1304" d="M374.862,100.574H302.7V0h72.161Zm-71.578-.584h70.994V.584H303.285Z" transform="translate(-214.343)" fill="#e6e6e6"/>
  <path id="c" d="M396.766,55.2a.5.5,0,0,1,.5.5h0V56.7a.5.5,0,0,1-.5.5H357.039a.5.5,0,0,1-.5-.5V55.7a.5.5,0,0,1,.5-.5h39.727" transform="translate(-252.464 -39.084)" fill="#e6e6e6"/>
  <path id="d" d="M396.766,71.562a.5.5,0,0,1,.5.5h0v1.006a.5.5,0,0,1-.5.5H357.039a.5.5,0,0,1-.5-.5V72.065a.5.5,0,0,1,.5-.5h39.727" transform="translate(-252.464 -50.673)" fill="#e6e6e6"/>
  <path id="e" d="M396.766,87.929a.5.5,0,0,1,.5.5h0v1.006a.5.5,0,0,1-.5.5H357.039a.5.5,0,0,1-.5-.5V88.432a.5.5,0,0,1,.5-.5h39.727" transform="translate(-252.464 -62.263)" fill="#f9b827"/>
  <path id="f" d="M739.338,84.83h13.2a3.825,3.825,0,0,1,.384-1.793,4.472,4.472,0,0,0,.4,1.793h.6a1.662,1.662,0,0,0,1.661-1.661V74.594c0-4.2-3.59-10.493-7.491-7.859-.126-.007-2.1-.882-2.229-.882-3.432,0-4.612,3.1-5.648,6.371-1.181-.544-1.994,1.727-2.583,5.725-.172,1.167-.324,2.48-.461,3.914a2.283,2.283,0,0,0,2.174,2.968h0Z" transform="translate(-521.914 -46.631)" fill="#2f2e41"/>
  <path id="g" d="M655.286,278.8c-.654,1.551-.385,3.145.6,3.562s2.317-.5,2.971-2.055a4.213,4.213,0,0,0,.345-1.959l2.689-6.606-3.127-1.2-2.32,6.64a4.214,4.214,0,0,0-1.162,1.615h0Z" transform="translate(-463.757 -191.571)" fill="#ffb6b6"/>
  <path id="h" d="M717.312,120.923l6.307,1.319-.968,2.9,1.935,22.2-3.225,7.148-19.672-1.613,4.837-9.675s-1.935-8.062.645-9.675,6.772-9.675,6.772-9.675l3.367-2.93Z" transform="translate(-496.869 -85.626)" fill="#f9b827"/>
  <path id="i" d="M761.525,129.838l5.588,2.262-1.935,28.379,4.192,24.509-13.544,2.258s1.613-54.178,2.58-55.146a21.485,21.485,0,0,1,3.12-2.264h0Z" transform="translate(-535.202 -91.937)" fill="#2f2e41"/>
  <path id="j" d="M682.82,138.995s-3.636-2.3-5.6-.6-17.088,42.877-17.088,42.877l4.079,1.772,9.356-19.616,9.254-24.436Z" transform="translate(-467.44 -97.555)" fill="#2f2e41"/>
  <path id="k" d="M693.228,269.269l-3.689,28.356,5.16.323s2.683-7.321,5.744-15.944c.652-1.829,1.319-3.715,1.98-5.6.716-2.051,1.429-4.1,2.106-6.082,1.674-4.882,3.141-9.327,3.979-12.229.145-.509.274-.97.38-1.377,2.256-8.669,3.547-31.322,3.547-31.322l-18.7-1.613-.2.248-3.992,4.989.187,1.055L694.7,257.96l-1.47,11.31h0Z" transform="translate(-488.265 -158.456)" fill="#2f2e41"/>
  <path id="l" d="M695.15,269.513l-1.47,11.31,6.614,11.645.6,1.09L710,310.107l4.5-2.551a270.18,270.18,0,0,1-9.52-25.687c-.406-1.345-.784-2.677-1.122-3.973-1-3.8.635-10.723,0-12.632-2.157-6.443-9.188-19.333-12.451-25.173l-1.226,1.529Z" transform="translate(-488.716 -170.009)" fill="#2f2e41"/>
  <path id="m" d="M686.648,130.128l-6.53,2.5-17.092,49.986,10.32,1.613,4.837-29.024,8.465-25.077Z" transform="translate(-469.49 -92.144)" fill="#2f2e41"/>
  <path id="n" d="M797.752,292.271c.166,1.675,1.165,2.947,2.231,2.841s1.8-1.549,1.629-3.225a4.213,4.213,0,0,0-.633-1.886l-.793-7.088-3.318.443L798,290.3a4.213,4.213,0,0,0-.25,1.974Z" transform="translate(-564.263 -200.331)" fill="#ffb6b6"/>
  <path id="o" d="M786.759,137.1s4.192-.968,5.482,1.29,1.935,46.116,1.935,46.116l-4.436.323L787.4,163.22l-.645-26.122h0Z" transform="translate(-557.106 -96.933)" fill="#2f2e41"/>
  <circle id="p" cx="6.704" cy="6.704" r="6.704" transform="translate(217.599 21.108)" fill="#ffb6b6"/>
  <path id="q" d="M769.859,98.009h3.311a.317.317,0,0,0,.319-.3v-.019a.32.32,0,0,1,.624-.078q.069.2.157.394h.326V87.674a3.21,3.21,0,0,0-3.21-3.21h0A3.21,3.21,0,0,0,768.248,87s-2.25,2.76-.924,4.311-.6,2.814-.6,2.814a3.21,3.21,0,0,0,3.138,3.882Z" transform="translate(-542.866 -59.809)" fill="#2f2e41"/>
  <path id="r" d="M378.312,156.844a1.557,1.557,0,0,0,.38-2.22l-2.434-3.35a1.752,1.752,0,0,0-2.644-.223c-4.122,2.2-6.341,5.422-3.874,9.226a13.067,13.067,0,0,0,.139,1.9,1.826,1.826,0,0,0,.287.767,1.751,1.751,0,0,0,1.995.69l3.981-1.294a1.565,1.565,0,0,0,.991-2.031A2.832,2.832,0,0,1,378.312,156.844Z" transform="translate(-261.083 -106.606)" fill="#f2f2f2"/>
  <path id="s" d="M428.831,197.4a1.968,1.968,0,0,0-2.123,1.982v3.434a1.753,1.753,0,0,0,2.02,1.732c5.58.688,9.392-1.739,9.622-7.062a1.751,1.751,0,0,0-1.034-2.435l-3.333-1.083a1.97,1.97,0,0,0-2.546,1.565,2.137,2.137,0,0,1-2.6,1.866Z" transform="translate(-302.153 -137.279)" fill="#e6e6e6"/>
  <path id="t" d="M362.771,204.709c1.157,6.867,7.183,9.473,13.467,9.885a2.454,2.454,0,0,0,2.827-2.424v-5.743a2.9,2.9,0,0,0-2.923-2.874,2.864,2.864,0,0,1-2.981-2.1,2.918,2.918,0,0,0-3.7-1.855l-5.242,1.7a2.45,2.45,0,0,0-1.447,3.408Z" transform="translate(-256.701 -141.232)" fill="#3f3d56"/>
  <path id="u" d="M453.018,134.413a2.452,2.452,0,0,0-3.7.312l-4.658,6.411a1.568,1.568,0,0,0,.676,2.362c2.18.938,1.951,3.042,1.241,4.33a1.136,1.136,0,0,0,.625,1.644l7.849,2.55a2.457,2.457,0,0,0,3.186-1.982,18.279,18.279,0,0,0,.2-2.715c1.328-4.951-.51-9.618-5.421-12.913Z" transform="translate(-314.655 -94.682)" fill="#f9b827"/>
  <path id="v" d="M405.606,142.529a1.963,1.963,0,0,0,2.553-.555l1.561-2.148a1.759,1.759,0,0,0,.288-1.445,1.724,1.724,0,0,0-.892-1.138c-3.672-3.318-8.018-3.521-11.7-.017a1.769,1.769,0,0,0-.922,1.164,1.743,1.743,0,0,0,.285,1.436l1.823,2.51a1.947,1.947,0,0,0,2.7.463,4.185,4.185,0,0,1,4.3-.27Z" transform="translate(-280.721 -95.365)" fill="#e6e6e6"/>
  <rect id="w" width="248.415" height="0.491" transform="translate(0 153.527)" fill="#e6e6e6"/>
  <path id="x" d="M356.789,304.451a1.217,1.217,0,0,1,1.336-.766,5.7,5.7,0,0,1,1.007.159c.346.077.688.169,1.029.266.625.178,1.243.393,1.877.533a3.262,3.262,0,0,0,1.63.024,1.547,1.547,0,0,0,1.074-1.054,1.055,1.055,0,0,0-.525-1.255.876.876,0,0,0-1.19.344l-.01.019a1.318,1.318,0,0,0,.384,1.471,4.313,4.313,0,0,0,.715.543,2.661,2.661,0,0,0,.856.383,1.235,1.235,0,0,0,1.358-.53.9.9,0,0,0,.1-.35c.015-.167-.245-.166-.26,0-.044.478-.6.7-1.022.649a2.075,2.075,0,0,1-.792-.307,4.644,4.644,0,0,1-.656-.463,1.126,1.126,0,0,1-.449-1.291.651.651,0,0,1,1.007-.135.917.917,0,0,1,.06,1.219,1.526,1.526,0,0,1-1.23.586,4.81,4.81,0,0,1-1.489-.234c-.6-.17-1.194-.361-1.8-.521-.342-.091-.687-.173-1.035-.237a3.416,3.416,0,0,0-1-.069,1.36,1.36,0,0,0-1.231.945C356.5,304.545,356.75,304.615,356.789,304.451Z" transform="translate(-252.462 -214.024)" fill="#3f3d56"/>
  <path id="y" d="M365.143,286.541c.079,0,.142.225.142.5v1.006c0,.278-.064.5-.142.5H353.914c-.079,0-.142-.225-.142-.5v-1.006c0-.278.064-.5.142-.5h11.229" transform="translate(-250.507 -202.9)" fill="#e6e6e6"/>
  <path id="a_" data-name="a`" d="M468.011,286.541c.079,0,.142.225.142.5v1.006c0,.278-.064.5-.142.5H456.782c-.078,0-.142-.225-.142-.5v-1.006c0-.278.064-.5.142-.5h11.229" transform="translate(-323.348 -202.9)" fill="#e6e6e6"/>
  <path id="aa" d="M465.035,303.8l-2.229.737-1.114.368a2.507,2.507,0,0,1-1.085.2.732.732,0,0,1-.624-.442.642.642,0,0,1,.277-.654c.532-.4,1.2.007,1.582.426.461.513.722,1.174,1.154,1.711a4.118,4.118,0,0,0,1.428,1.138,3.319,3.319,0,0,0,3.433-.293c1.175-.906,1.295-2.477,1.3-3.848a.238.238,0,0,0-.477,0c-.006,1.242-.076,2.765-1.209,3.542a2.967,2.967,0,0,1-3.509-.246,5.75,5.75,0,0,1-1.264-1.615,2.926,2.926,0,0,0-1.471-1.374,1.329,1.329,0,0,0-1.587.555,1.008,1.008,0,0,0,.467,1.441c.778.371,1.669-.064,2.418-.311l2.638-.872c.29-.1.166-.556-.127-.46v0Z" transform="translate(-325.372 -214.493)" fill="#f9b827"/>
  <path id="Path_1305" data-name="Path 1305" d="M127.066,495.906a.126.126,0,0,0-.067-.039,1,1,0,0,0-.866.51l-3.915,7.272a1,1,0,0,0,.009,1.006c.185.313,8.832.426,8.832.426.364,0,1.362-4.477-3.992-9.174Z" transform="translate(-86.449 -351.125)" fill="#e6e6e6"/>
  <g id="Group_530" data-name="Group 530" transform="translate(24.964 140.692)">
    <path id="Path_1306" data-name="Path 1306" d="M87.636,493.493l2.972-.026,1.314-11.475-4.386.039Z" transform="translate(-86.948 -481.992)" fill="#ffb6b6"/>
    <path id="Path_1307" data-name="Path 1307" d="M96.393,512.87h0a2.552,2.552,0,0,1,.149.839h0a1.009,1.009,0,0,1-1,1.017l-9.2.08a.688.688,0,0,1-.694-.682l0-.383a2.942,2.942,0,0,1,.46-2.575s1.175,1.1,2.9-.655l.505-.934,3.74,2.685,2.062.236c.451.052.85-.016,1.085.372h0Z" transform="translate(-85.524 -501.525)" fill="#2f2e41"/>
  </g>
  <g id="Group_531" data-name="Group 531" transform="translate(36.034 131.395)">
    <path id="Path_1308" data-name="Path 1308" d="M126.613,461.032l2.824.927,4.92-10.45-4.168-1.368Z" transform="translate(-125.689 -450.141)" fill="#ffb6b6"/>
    <path id="Path_1309" data-name="Path 1309" d="M134.067,485.2h0a2.552,2.552,0,0,1-.128.842h0a1.009,1.009,0,0,1-1.273.644l-8.744-2.871a.688.688,0,0,1-.439-.868l.12-.364a2.942,2.942,0,0,1,1.26-2.292s.76,1.419,2.957.309l.778-.723,2.683,3.742,1.878.884c.411.193.81.257.909.7h0Z" transform="translate(-123.448 -471.194)" fill="#2f2e41"/>
  </g>
  <path id="Path_1310" data-name="Path 1310" d="M83.574,256.48l5.937,19.038,6.961,17.11-10.551,24.62-5.871-2.287,5.254-21.309-8.981-15.91L72.079,325.5l-5.163-.618L60.2,267.673l1.053-12.441Z" transform="translate(-42.629 -180.73)" fill="#2f2e41"/>
  <path id="ab" d="M75.094,107.249,68.679,105.7l-1.77,4.2S58.24,111.368,57.8,118c0,0-1.728,8.712-.622,11.145s3.833,11.039,3.833,11.039S56.69,150.91,57.8,151.573s24.811,3.079,24.811,1.751.271-17.1.271-17.1l-.928-23.892-5.971-2.211-.885-2.876h0Z" transform="translate(-40.224 -74.846)" fill="#e6e6e6"/>
  <circle id="Ellipse_198" data-name="Ellipse 198" cx="6.465" cy="6.465" r="6.465" transform="translate(27.319 18.404)" fill="#ffb6b6"/>
  <path id="Path_1311" data-name="Path 1311" d="M91.634,63.886c.516.282.027,1.631.349,1.747.373.135,1.731-1.413,1.747-3.145a5.877,5.877,0,0,1,0-1.4c.152-.813.617-1.773,1.048-1.747.256.015.505.376.524.7.026.452-.413.63-.349.874.121.464,1.965.783,2.621,0,.514-.614.119-1.692.349-1.747.17-.041.352.553,1.048,1.223.262.253.653.628.874.524.319-.15.087-1.209.175-1.223a8.632,8.632,0,0,0,.524,1.4c.521.855,1.6,1.513,2.1,1.223.307-.178.331-.673.349-1.048.039-.792,1.188-2.613.89-3.46-.606-1.723-1.644-.508-2.114-1.083-.636-.778-1.206-.36-2.271-1.223-1.041-.844-1.05-1.692-1.747-1.747-.628-.05-.851.619-1.573.524-.612-.081-.745-.6-1.223-.524-.438.069-.467.527-1.048.7-.371.11-.453-.049-.874,0A2.514,2.514,0,0,0,91.459,55.5c-.424.576-.259.818-.7,1.4-.379.5-1.219.288-1.535.537a5.051,5.051,0,0,0-1.483,4.033,12.3,12.3,0,0,0,.5,3.317,8.589,8.589,0,0,0,2.169,3.295c.182.178.691.676,1.048.524.339-.144.349-.788.349-.874,0-.293-.077-.655-.7-1.573-.654-.964-.913-1.073-.874-1.4.07-.573.987-1.1,1.4-.874Z" transform="translate(-62.13 -38.056)" fill="#2f2e41"/>
  <g id="Group_532" data-name="Group 532" transform="translate(11.064 37.334)">
    <path id="Path_1312" data-name="Path 1312" d="M38.352,285.125c-.225,1.88.562,3.52,1.758,3.663s2.349-1.264,2.574-3.144a4.739,4.739,0,0,0-.236-2.225l.854-7.977-3.752-.321-.444,7.9a4.739,4.739,0,0,0-.755,2.107Z" transform="translate(-38.193 -232.148)" fill="#ffb6b6"/>
    <path id="Path_1313" data-name="Path 1313" d="M48.865,127.9s-1.944.027-3.232,2.54c-.684,1.336-5.133,25.274-5.133,25.274l-1.25,7.571.642,1.252a6.339,6.339,0,0,0-.768,5.282h0l-1.221,7.4,5.742.031,4.481-19.378,3.768-11.238L48.865,127.9Z" transform="translate(-37.902 -127.902)" fill="#e6e6e6"/>
  </g>
  <g id="Group_533" data-name="Group 533" transform="translate(37.529 37.042)">
    <path id="Path_1314" data-name="Path 1314" d="M163.95,284.125c.225,1.88-.562,3.52-1.758,3.663s-2.349-1.264-2.574-3.144a4.739,4.739,0,0,1,.236-2.225L159,274.441l3.752-.321.444,7.9a4.739,4.739,0,0,1,.755,2.107Z" transform="translate(-150.118 -231.148)" fill="#ffb6b6"/>
    <path id="Path_1315" data-name="Path 1315" d="M131.6,126.9s1.944.027,3.232,2.54c.684,1.336,5.133,25.274,5.133,25.274l1.25,7.571-.642,1.252a6.339,6.339,0,0,1,.768,5.282h0l1.221,7.4-5.742.031-4.481-19.378-3.768-11.238Z" transform="translate(-128.571 -126.902)" fill="#e6e6e6"/>
  </g>
  <path id="Path_1316" data-name="Path 1316" d="M740.72,72.03c.238.39,1.5-1.038,3.446-1.2.495-.041,1.61,1.853,2.889,1.88.848.017,1.37.01,2.413,0,1.234-.014,1.572-.041,1.81-.342.462-.586.081-1.627.3-1.712.184-.072.661.572.905,1.37.513,1.674-1.327,4.006-1.508,6.164-.193,2.325,1.708-2.13,1.508,0-.223,2.4-1.023,2.216-1.014,3.082a.584.584,0,0,0,.109.342c.063.089.127.123,1.207.342a9.711,9.711,0,0,0,2.112.342c.443-.13.893-.853,1.207-1.37.519-.846.151.007,0-1.027-.145-1-.6-1.13-.6-2.055-.006-1.164.709-1.517,1.207-2.739.92-2.26.021-4.876-.3-5.821a16.026,16.026,0,0,0-.929-1.975,5.9,5.9,0,0,0-1.561-1.933,7.284,7.284,0,0,0-3.28-1.473,4.6,4.6,0,0,0-1.982.124l-1.681.459a5.243,5.243,0,0,0-1.96,1.028h0a1.325,1.325,0,0,0-1.21.988c-.02.061-.037.1-.052.091-3.031-1.075-3.029,2.11-3,4.1a3.181,3.181,0,0,1-.026.53v.01a1.591,1.591,0,0,0-.009.791Z" transform="translate(-524.475 -45.214)" fill="#2f2e41"/>
  <rect id="Rectangle_642" data-name="Rectangle 642" width="31.906" height="0.584" transform="translate(144.941 44.406)" fill="#3f3d56"/>
  <path id="Path_1317" data-name="Path 1317" d="M617.943,146.272a4.087,4.087,0,1,1,4.087-4.087A4.091,4.091,0,0,1,617.943,146.272Zm0-7.589a3.5,3.5,0,1,0,3.5,3.5A3.507,3.507,0,0,0,617.943,138.683Z" transform="translate(-434.673 -97.788)" fill="#3f3d56"/>
  <circle id="Ellipse_199" data-name="Ellipse 199" cx="2.043" cy="2.043" r="2.043" transform="translate(181.226 42.354)" fill="#f9b827"/>
  <rect id="Rectangle_643" data-name="Rectangle 643" width="31.906" height="0.584" transform="translate(72.057 66.006)" fill="#3f3d56"/>
  <path id="Path_1318" data-name="Path 1318" d="M210.856,216.186a4.087,4.087,0,1,1,4.087,4.087A4.091,4.091,0,0,1,210.856,216.186Zm.584,0a3.5,3.5,0,1,0,3.5-3.5A3.507,3.507,0,0,0,211.44,216.186Z" transform="translate(-149.308 -150.188)" fill="#3f3d56"/>
  <circle id="Ellipse_200" data-name="Ellipse 200" cx="2.043" cy="2.043" r="2.043" transform="translate(63.592 63.954)" fill="#f9b827"/>
</svg>
