<svg xmlns="http://www.w3.org/2000/svg" width="309.095" height="154.037" viewBox="0 0 309.095 154.037">
  <g id="VenueOrg_illu" transform="translate(0 0)">
    <circle id="Ellipse_196" data-name="Ellipse 196" cx="15.194" cy="15.194" r="15.194" transform="translate(69.199 95.598)" fill="#e4e4e4"/>
    <path id="Path_1283" data-name="Path 1283" d="M353.222,519.474a15.195,15.195,0,0,0,25.317,16.081,15.195,15.195,0,1,1-25.317-16.081Z" transform="translate(-280.048 -418.831)" opacity="0.2"/>
    <path id="Path_1284" data-name="Path 1284" d="M246.77,325.819h.041l.751,43.076h-1.586Z" transform="translate(-162.335 -215.028)" fill="#3f3d56"/>
    <circle id="Ellipse_197" data-name="Ellipse 197" cx="30.633" cy="30.633" r="30.633" transform="translate(23.019 36.384)" fill="#e4e4e4"/>
    <path id="Path_1285" data-name="Path 1285" d="M221.7,360.416a30.636,30.636,0,0,0,51.044,32.421A30.636,30.636,0,1,1,221.7,360.416Z" transform="translate(-190.664 -313.859)" opacity="0.2"/>
    <path id="Path_1286" data-name="Path 1286" d="M154.926,197.087h.084l1.515,86.85h-3.2Z" transform="translate(-101.19 -130.07)" fill="#3f3d56"/>
    <rect id="Rectangle_634" data-name="Rectangle 634" width="140.409" height="41.623" transform="translate(115.208 108.914)" fill="#f0f0f0"/>
    <rect id="Rectangle_635" data-name="Rectangle 635" width="16.372" height="33.021" transform="translate(177.227 117.516)" fill="#cacaca"/>
    <rect id="Rectangle_636" data-name="Rectangle 636" width="124.037" height="38.293" transform="translate(123.394 59.799)" fill="#f0f0f0"/>
    <path id="Path_1287" data-name="Path 1287" d="M618.165,285.658H468.977a1.249,1.249,0,0,1-.865-2.149l40.773-39.191V227.246A1.25,1.25,0,0,1,510.134,226h8.047a1.25,1.25,0,0,1,1.249,1.249v6.936l3.08-2.96a27.67,27.67,0,0,1,37.676-.626L619,283.48a1.249,1.249,0,0,1-.835,2.177Z" transform="translate(-358.159 -223.5)" fill="#cacaca"/>
    <path id="Path_1288" data-name="Path 1288" d="M443.827,204.421h0a7.908,7.908,0,0,1,7.908,7.908v10.683H435.919V212.329A7.908,7.908,0,0,1,443.827,204.421Z" transform="translate(-287.69 -134.91)" fill="#fff"/>
    <path id="Path_1289" data-name="Path 1289" d="M529.921,204.829h0a7.908,7.908,0,0,1,7.908,7.908v10.683H522.012V212.737A7.908,7.908,0,0,1,529.921,204.829Z" transform="translate(-344.508 -135.179)" fill="#fff"/>
    <path id="Path_1290" data-name="Path 1290" d="M616.014,205.237h0a7.908,7.908,0,0,1,7.908,7.908v10.683H608.106V213.145A7.908,7.908,0,0,1,616.014,205.237Z" transform="translate(-401.327 -135.448)" fill="#fff"/>
    <path id="Path_1291" data-name="Path 1291" d="M650.288,344.373h0a7.908,7.908,0,0,1,7.908,7.908v10.683H642.38V352.281A7.908,7.908,0,0,1,650.288,344.373Z" transform="translate(-423.946 -227.273)" fill="#fff"/>
    <path id="Path_1292" data-name="Path 1292" d="M420.162,344.373h0a7.908,7.908,0,0,1,7.908,7.908v10.683H412.254V352.281A7.908,7.908,0,0,1,420.162,344.373Z" transform="translate(-272.072 -227.273)" fill="#fff"/>
    <path id="Path_1293" data-name="Path 1293" d="M604.135,522.907,577.8,511.253a1.109,1.109,0,0,0-.449-.095H451.819a1.11,1.11,0,0,0-.418.082l-28.67,11.654a1.11,1.11,0,0,0,.418,2.138h7.439v38.293h-.832v3.885H597.08v-3.885h-1.387V525.032h7.993a1.11,1.11,0,0,0,.449-2.125Zm-10.662,40.418H432.807V525.032H593.473Z" transform="translate(-328.005 -413.343)" fill="#cacaca"/>
    <rect id="Rectangle_637" data-name="Rectangle 637" width="20.257" height="3.33" transform="translate(145.732 86.577)" fill="#cacaca"/>
    <rect id="Rectangle_638" data-name="Rectangle 638" width="20.257" height="3.33" transform="translate(175.423 86.577)" fill="#cacaca"/>
    <rect id="Rectangle_639" data-name="Rectangle 639" width="20.257" height="3.33" transform="translate(205.114 86.577)" fill="#cacaca"/>
    <rect id="Rectangle_640" data-name="Rectangle 640" width="20.257" height="3.33" transform="translate(216.214 134.582)" fill="#cacaca"/>
    <rect id="Rectangle_641" data-name="Rectangle 641" width="20.257" height="3.33" transform="translate(137.684 134.582)" fill="#cacaca"/>
    <path id="Path_1294" data-name="Path 1294" d="M454.255,675.18H145.84a.34.34,0,0,1,0-.68H454.255a.34.34,0,0,1,0,.68Z" transform="translate(-145.5 -521.143)" fill="#3f3d56"/>
    <path id="Path_1295" data-name="Path 1295" d="M682.748,387.774c0,.218,0,.439-.007.656,0,.262-.01.52-.021.782-.01.228-.02.452-.034.677-.041.752-.105,1.5-.194,2.251-.02.19-.044.377-.071.568-.02.146-.041.3-.065.445-.024.167-.048.333-.075.5q-.082.53-.184,1.061c-.034.177-.068.354-.105.53-.071.35-.15.7-.231,1.054-.007.027-.014.058-.02.085-.041.173-.082.343-.126.517-.014.051-.024.1-.041.15-.031.129-.065.258-.1.388-.048.18-.1.357-.146.537-.082.279-.163.554-.248.833a.876.876,0,0,0-.027.088c-.163.527-.337,1.047-.527,1.564-.1.272-.2.547-.309.819s-.214.544-.326.813-.221.524-.333.782c-.027.061-.054.122-.085.184-.119.269-.242.53-.367.792,0,0,0,.01-.007.014-.1.211-.2.422-.309.629a.026.026,0,0,1-.007.017c-.1.2-.207.408-.316.609l-.173.33-.02.037c-.218.4-.442.806-.68,1.2-.051.088-.1.177-.153.262s-.105.177-.16.262q-.051.092-.112.184c-.071.116-.143.235-.218.35-.014.024-.031.048-.044.071-.129.2-.258.4-.388.6-.16.241-.323.479-.49.717l-3.693,5.91-.16-.133-.044-.041h0l-.146-.122-.4-.34c-.122.119-.241.238-.364.354-.048.048-.1.092-.146.139s-.071.068-.109.1a35.608,35.608,0,0,1-23.8,10.116h-.01a38.866,38.866,0,0,1-19.392-4.577c-.133-.068-.262-.136-.391-.214-.775-.422-1.534-.867-2.278-1.343,0,0-.007,0-.01-.007q-1.3-.918-2.53-1.959a37.379,37.379,0,0,1-13.238-30.532c.01-.228.024-.452.041-.68q.082-1.234.252-2.458c.031-.228.065-.456.1-.68H682.4q.214,1.561.3,3.139C682.731,386.465,682.748,387.118,682.748,387.774Z" transform="translate(-451.568 -328.546)" fill="#f0f0f0"/>
    <path id="Path_1296" data-name="Path 1296" d="M682.58,321.942a36.755,36.755,0,0,0-72.693,0c-.034.224-.068.452-.1.68q-.168,1.224-.252,2.458h73.34Q682.794,323.5,682.58,321.942Z" transform="translate(-451.746 -267.818)" fill="#f9b827"/>
    <path id="Path_1297" data-name="Path 1297" d="M683.582,445.813H662.521V428.965c.389-7.7,6.969-8.321,13.153-7.908a7.908,7.908,0,0,1,7.908,7.909Z" transform="translate(-486.714 -353.817)" fill="#f9b827"/>
    <path id="Path_1298" data-name="Path 1298" d="M627.373,347.1v0s0,0,.007,0Zm-8.47-25.894c-.014.085-.031.17-.044.255.014-.085.031-.17.048-.255Zm-.422,3.139c-.01.129-.02.258-.027.388q.01-.194.031-.388a.5.5,0,0,1,0-.071C618.484,324.3,618.484,324.32,618.481,324.344Zm8.892,22.759s0,0,.007,0l-.007-.007Zm-8.47-25.9c-.014.085-.031.17-.044.255.014-.085.031-.17.048-.255Zm-.449,3.526q.01-.194.031-.388a.5.5,0,0,1,0-.071c0,.024,0,.048-.007.071C618.471,324.473,618.461,324.6,618.454,324.732Zm105.051,62.553a2.284,2.284,0,0,0-.211-.2l0,0-16.839-14.21-.435-.367-1.656-1.4-.415-.35-2.36-1.993-.646-.544-1.336-1.129-.683-.578-6.447-5.437-3.7-3.118-.5-.418-10.891-9.191c.167-.238.33-.476.49-.717.129-.2.258-.4.388-.6.013-.024.031-.048.044-.071.075-.116.146-.235.218-.35q.061-.092.112-.184c.055-.085.109-.173.16-.262s.1-.173.153-.262c.238-.4.463-.8.68-1.2l.02-.037.173-.33c.109-.2.214-.4.316-.609a.025.025,0,0,0,.007-.017c.105-.207.211-.418.31-.629,0,0,0-.01.007-.014.126-.262.248-.524.367-.792.031-.061.058-.122.085-.184.112-.258.224-.52.333-.782s.221-.541.326-.813.211-.547.309-.819q.281-.78.527-1.564a.91.91,0,0,1,.027-.088c.085-.279.167-.554.248-.833.051-.18.1-.357.146-.537.034-.129.068-.258.1-.388.017-.051.027-.1.041-.15.044-.173.085-.343.126-.517.007-.027.014-.058.02-.085.081-.35.16-.7.231-1.054.037-.177.071-.354.105-.53.065-.354.129-.707.184-1.061.027-.167.051-.333.075-.5.024-.15.044-.3.065-.445.027-.19.051-.377.071-.568.088-.751.153-1.5.194-2.251.013-.224.024-.449.034-.677.01-.262.017-.52.02-.782,0-.218.007-.439.007-.656,0-.656-.017-1.309-.051-1.965q-.082-1.576-.3-3.139a37.422,37.422,0,0,0-74.054-.68c-.034.224-.068.452-.1.68q-.168,1.224-.252,2.458c-.017.228-.031.452-.041.68a37.379,37.379,0,0,0,13.238,30.532q1.234,1.041,2.53,1.959s.007,0,.01.007c.289.2.578.4.87.6.466.306.935.605,1.408.891.037.02.075.044.112.065.408.245.82.479,1.231.707h0a36.782,36.782,0,0,0,4.757,2.19,37.534,37.534,0,0,0,15.04,2.36h.01a37.322,37.322,0,0,0,16.971-5.022c.752-.435,1.493-.9,2.217-1.4.18-.122.364-.248.541-.374.218-.153.435-.313.653-.473,0,0,0,0,.007,0a.488.488,0,0,1,.051-.037c.146-.112.3-.224.439-.333.037-.027.075-.054.112-.085a.165.165,0,0,0,.027-.024c.085-.061.167-.129.252-.194s.167-.133.252-.2a.321.321,0,0,0,.041-.031c.1-.078.19-.153.286-.231s.194-.16.286-.238.187-.156.282-.238.167-.139.248-.214c.027-.02.051-.044.078-.068a.245.245,0,0,1,.034-.027c.112-.1.221-.194.33-.292.027-.024.051-.048.078-.071.167-.15.333-.3.5-.456l.116-.105c.037-.034.071-.068.109-.1s.1-.092.146-.139c.122-.116.242-.235.364-.354l.4.34.146.122h0l.044.041.16.133,2.373,2.006.051.044.041.031.269.228.537.456.537.452.078.065,2.5,2.108.347.292,2.411,2.033,12.479,10.531.435.367,17.08,14.411,4.38,3.7,1.629,1.374a3.446,3.446,0,0,0,4.859-.408,3.346,3.346,0,0,0,.575-.966A3.431,3.431,0,0,0,723.505,387.285Zm-98.5-78.824a28.035,28.035,0,0,1,48.949,12.745c.044.228.085.452.122.68.139.813.241,1.636.3,2.458.017.228.034.452.044.68.031.51.044,1.024.044,1.534a27.911,27.911,0,0,1-1.517,9.093v0a27.885,27.885,0,0,1-5.09,8.97c-.048.054-.1.112-.146.167-.449.53-.922,1.041-1.408,1.527,0,0-.007.01-.01.014-.167.167-.337.337-.507.493-.347.337-.7.656-1.061.962q-.811.709-1.663,1.33c-.19.139-.381.275-.575.411s-.384.265-.578.394c-.388.258-.782.507-1.18.741-.2.119-.4.235-.6.347s-.4.224-.609.33-.408.214-.615.316c-.412.207-.826.4-1.248.581q-.316.143-.633.265c-.133.054-.262.109-.394.156a1.281,1.281,0,0,1-.16.061q-.107.046-.214.082a.612.612,0,0,1-.071.027c-.146.058-.289.109-.439.16-.214.078-.429.15-.646.218s-.432.139-.649.2-.439.129-.656.187-.439.119-.66.17-.469.116-.707.167c-.207.048-.411.088-.619.126s-.391.075-.585.109c-.272.048-.544.092-.819.129-.15.024-.3.044-.445.058-.065.01-.126.017-.187.024-.19.027-.381.048-.568.065-.051,0-.1.01-.146.014-.207.02-.418.037-.626.054-.445.031-.887.051-1.333.061-.224,0-.452.007-.677.007s-.449,0-.673-.01c0,0,0,0,0,0s0,0-.007,0h-.007a.058.058,0,0,1-.034,0c-.16,0-.32-.007-.476-.017-.116,0-.235-.007-.354-.017q-.24-.01-.479-.031c-.051,0-.1-.007-.153-.01a.514.514,0,0,1-.071-.007c-.163-.014-.33-.027-.493-.044-.082-.007-.167-.014-.248-.024-.248-.027-.5-.058-.741-.092-.279-.034-.558-.075-.833-.126-.129-.017-.255-.041-.381-.065q-.25-.041-.5-.092c-.174-.034-.347-.068-.52-.109-.139-.031-.282-.061-.422-.1-.068-.014-.136-.031-.2-.048-.357-.085-.711-.177-1.061-.279-.221-.061-.442-.126-.66-.194-.3-.092-.6-.19-.891-.3-.116-.037-.228-.078-.344-.122s-.228-.082-.343-.126-.211-.078-.313-.119c-.17-.065-.337-.133-.5-.2-.344-.139-.68-.286-1.017-.442-.19-.092-.381-.18-.568-.272q-1.107-.536-2.18-1.19c-.177-.105-.354-.218-.53-.33-.221-.136-.435-.279-.649-.422-.119-.082-.235-.16-.35-.241-.214-.15-.425-.3-.632-.456-.109-.078-.218-.16-.323-.241-.378-.286-.748-.585-1.112-.891-.173-.146-.347-.3-.517-.449-.071-.061-.143-.126-.214-.19s-.163-.146-.241-.224l-.007-.007c-.119-.105-.238-.218-.354-.33-.18-.17-.357-.343-.527-.52s-.347-.354-.513-.53-.333-.357-.493-.541-.323-.364-.479-.551-.3-.36-.445-.541q-.52-.643-.993-1.309c-.146-.2-.286-.408-.422-.615s-.286-.425-.418-.639-.272-.432-.4-.653a.071.071,0,0,0-.014-.02c-.255-.432-.5-.867-.728-1.309s-.456-.9-.663-1.36c-.105-.228-.207-.459-.3-.69-.2-.466-.381-.932-.551-1.4-.085-.228-.163-.456-.241-.687a.167.167,0,0,0-.014-.044c-.156-.469-.3-.942-.425-1.418,0-.007,0-.014-.007-.02-.065-.235-.126-.469-.18-.707-.054-.207-.1-.415-.146-.626-.051-.235-.1-.469-.146-.707-.024-.122-.048-.245-.068-.367-.02-.1-.037-.207-.054-.309s-.034-.207-.051-.313q-.051-.311-.092-.622c-.034-.245-.061-.49-.088-.738-.031-.3-.058-.592-.082-.891-.017-.2-.027-.4-.037-.609-.01-.187-.02-.374-.024-.561a.047.047,0,0,1,0-.031,0,0,0,0,1,0,0,0,0,0,0,1,0,0s0,0,0-.007a0,0,0,0,1,0-.007c0-.075-.007-.15-.007-.224q-.01-.332-.01-.663c0-.2,0-.4.007-.6q.01-.418.031-.836c0-.061.007-.119.01-.18s.007-.119.01-.18q.01-.194.031-.388a.5.5,0,0,1,0-.071c.01-.146.024-.292.037-.439.027-.292.061-.588.1-.881.02-.146.037-.292.061-.439.014-.1.031-.207.048-.313s.031-.211.051-.316c.024-.139.048-.282.075-.425.014-.085.031-.17.048-.255q.1-.51.214-1.02c.078-.343.167-.683.262-1.023s.194-.687.3-1.03c.051-.173.105-.343.167-.513.112-.343.231-.683.364-1.02.061-.167.126-.337.2-.5.136-.337.279-.673.425-1,.075-.167.15-.333.231-.5.153-.33.313-.66.486-.983s.347-.653.53-.973.374-.639.575-.956c.092-.156.194-.316.3-.469.2-.313.418-.626.636-.932C624.034,309.661,624.506,309.052,625.006,308.461Zm-6.525,15.883c-.01.129-.02.258-.027.388q.01-.194.031-.388a.5.5,0,0,1,0-.071C618.484,324.3,618.484,324.32,618.481,324.344Zm.422-3.139c-.014.085-.031.17-.044.255.014-.085.031-.17.048-.255Zm8.47,25.894v0s0,0,.007,0Z" transform="translate(-451.568 -267.081)" fill="#3f3d56"/>
    <path id="Path_1299" data-name="Path 1299" d="M640.319,388.229a28.038,28.038,0,0,1-4.757-37.69q-.8.81-1.555,1.7A28.036,28.036,0,1,0,676.862,388.4q.749-.888,1.41-1.818A28.038,28.038,0,0,1,640.319,388.229Z" transform="translate(-463.534 -307.341)" opacity="0.3"/>
  </g>
</svg>
