<svg id="EventPr_illu" xmlns="http://www.w3.org/2000/svg" width="206.532" height="153.873" viewBox="0 0 206.532 153.873">
  <circle id="b" cx="4.876" cy="4.876" r="4.876" transform="translate(107.495 5.941)" fill="#f9b827"/>
  <path id="c" d="M429.666,38.531a.506.506,0,0,1-.3-.1l-.005,0-1.146-.877a.509.509,0,1,1,.62-.808h0l.742.569,1.754-2.288a.509.509,0,0,1,.714-.094h0l-.011.015.011-.015a.51.51,0,0,1,.094.714l-2.063,2.69a.509.509,0,0,1-.405.2h0Z" transform="translate(-317.778 -25.854)" fill="#fff"/>
  <circle id="d" cx="4.876" cy="4.876" r="4.876" transform="translate(107.495 38.907)" fill="#f9b827"/>
  <path id="e" d="M429.666,166.531a.506.506,0,0,1-.3-.1l-.005,0-1.146-.877a.509.509,0,1,1,.62-.808l.742.569,1.754-2.288a.509.509,0,0,1,.714-.094h0l-.011.015.011-.015a.51.51,0,0,1,.094.714l-2.063,2.69a.509.509,0,0,1-.405.2Z" transform="translate(-317.778 -120.888)" fill="#fff"/>
  <path id="Path_1146" data-name="Path 1146" d="M483.858,335.484a2.767,2.767,0,0,1,3.144-2.85l4.466-8.762,2.524,4.444-4.628,7.64a2.783,2.783,0,0,1-5.506-.472Z" transform="translate(-359.24 -240.459)" fill="#ffb7b7"/>
  <path id="Path_1147" data-name="Path 1147" d="M549.8,544.221h-3.5L544.627,530.7H549.8Z" transform="translate(-404.36 -394.021)" fill="#ffb7b7"/>
  <path id="Path_1148" data-name="Path 1148" d="M535.6,583.291H524.3v-.143a4.4,4.4,0,0,1,4.4-4.4h6.9Z" transform="translate(-389.268 -429.694)" fill="#2f2e41"/>
  <path id="Path_1149" data-name="Path 1149" d="M623.572,544.221h-3.5L618.4,530.7h5.173Z" transform="translate(-459.133 -394.021)" fill="#ffb7b7"/>
  <path id="Path_1150" data-name="Path 1150" d="M609.374,583.291h-11.3v-.143a4.4,4.4,0,0,1,4.4-4.4h6.9Z" transform="translate(-444.041 -429.694)" fill="#2f2e41"/>
  <path id="Path_1151" data-name="Path 1151" d="M500.356,339.349l-1.53,2.55s2.55,0,3.06,3.825l2.04-2.55Z" transform="translate(-370.355 -251.951)" fill="#e5e5e5"/>
  <path id="Path_1152" data-name="Path 1152" d="M549.921,318.556s4.08,10.71,4.845,17.341,2.04,24.226,2.04,24.226l2.55,22.7-7.14,1.02-3.06-22.951-6.885-22.7-1.53,22.7-1.275,20.656-6.63.255-.51-21.421-2.805-27.286,1.53-13.005,18.871-1.53Z" transform="translate(-393.144 -236.513)" fill="#2f2e41"/>
  <path id="Path_1153" data-name="Path 1153" d="M546.786,192.312l2.55,1.785,3.315,33.406-20.656.51,2.805-23.206,2.55-6.63,1.841-2.434Z" transform="translate(-394.982 -142.783)" fill="#e5e5e5"/>
  <path id="Path_1154" data-name="Path 1154" d="M591.405,218.887l.78-23.068s1.515.117,2.025.882,8.925,2.3,8.925,2.3l-1.53,23.716s6.375,18.871,4.08,19.891-6.375.765-6.375.765Z" transform="translate(-439.091 -145.386)" fill="#2f2e41"/>
  <path id="Path_1155" data-name="Path 1155" d="M524.143,229.181l2.705-15.547-6.02,4.071,1.53,11.22-1.275,7.65s-4.845,21.166-3.315,21.931a4.4,4.4,0,0,0,3.315,0l3.06-21.421v-7.905Z" transform="translate(-384.197 -158.614)" fill="#2f2e41"/>
  <path id="Path_1156" data-name="Path 1156" d="M508.772,227.462l-1.785.51-.765,10.2-1.275,8.925-6.12,10.965s3.06-2.04,4.335,3.825l6.74-11.735-1.13-22.691Z" transform="translate(-370.355 -168.88)" fill="#2f2e41"/>
  <path id="Path_1157" data-name="Path 1157" d="M591.193,332.259a2.768,2.768,0,0,1,3.638-2.185l6.082-7.729,1.613,4.85-6.023,6.6a2.783,2.783,0,0,1-5.31-1.531Z" transform="translate(-438.905 -239.327)" fill="#ffb7b7"/>
  <path id="Path_1158" data-name="Path 1158" d="M616.068,336.273l-2.3,2.805-3.06-5.355,1.275-2.3Z" transform="translate(-453.426 -246.07)" fill="#e5e5e5"/>
  <path id="Path_1159" data-name="Path 1159" d="M615.558,208.678l2.04-1.02a10.392,10.392,0,0,1,1.785,3.825c.255,1.785,1.53,4.08,1.53,5.355s3.57,13.261,3.57,13.261l-8.16,16.576s-1.785-6.12-5.61-6.63l6.375-8.925-3.57-6.375,2.04-16.066Z" transform="translate(-453.426 -154.177)" fill="#2f2e41"/>
  <path id="Path_1160" data-name="Path 1160" d="M517.3,595.511H419.179a.258.258,0,0,1,0-.515H517.3a.258.258,0,0,1,0,.515Z" transform="translate(-311.029 -441.757)" fill="#cbcbcb"/>
  <path id="Path_1161" data-name="Path 1161" d="M94,149.634H0V128H94Z" transform="translate(0 -95.034)" fill="#fff"/>
  <path id="Path_1162" data-name="Path 1162" d="M50.037,155.774a.916.916,0,1,0,0,1.832h66.874a.916.916,0,1,0,0-1.832Z" transform="translate(-36.47 -115.655)" fill="#f9b827"/>
  <path id="Path_1163" data-name="Path 1163" d="M50.032,177.113a.916.916,0,0,0,0,1.832H92.307a.916.916,0,0,0,0-1.832Z" transform="translate(-36.465 -131.498)" fill="#f9b827"/>
  <path id="Path_1164" data-name="Path 1164" d="M94,149.634H0V128H94ZM1.545,148.089H92.459V129.545H1.545Z" transform="translate(0 -95.034)" fill="#e5e5e5"/>
  <path id="Path_1165" data-name="Path 1165" d="M94,277.634H0V256H94Z" transform="translate(0 -190.068)" fill="#fff"/>
  <path id="Path_1166" data-name="Path 1166" d="M50.037,283.774a.916.916,0,0,0,0,1.832h66.874a.916.916,0,0,0,0-1.832Z" transform="translate(-36.47 -210.689)" fill="#e6e6e6"/>
  <path id="Path_1167" data-name="Path 1167" d="M50.032,305.113a.916.916,0,1,0,0,1.832H92.307a.916.916,0,1,0,0-1.832Z" transform="translate(-36.465 -226.532)" fill="#e6e6e6"/>
  <path id="Path_1168" data-name="Path 1168" d="M94,277.634H0V256H94ZM1.545,276.089H92.459V257.545H1.545Z" transform="translate(0 -190.068)" fill="#e5e5e5"/>
  <path id="Path_1169" data-name="Path 1169" d="M97,21.634H3V0H97Z" transform="translate(-2.227)" fill="#fff"/>
  <path id="Path_1170" data-name="Path 1170" d="M53.042,27.774a.916.916,0,0,0,0,1.832h66.874a.916.916,0,0,0,0-1.832Z" transform="translate(-38.703 -20.621)" fill="#f9b827"/>
  <path id="Path_1171" data-name="Path 1171" d="M53.032,49.113a.916.916,0,1,0,0,1.832H95.307a.916.916,0,1,0,0-1.832H53.032Z" transform="translate(-38.692 -36.464)" fill="#f9b827"/>
  <path id="Path_1172" data-name="Path 1172" d="M97,21.634H3V0H97ZM4.545,20.089H95.459V1.545H4.545Z" transform="translate(-2.227)" fill="#e5e5e5"/>
  <path id="Path_1173" data-name="Path 1173" d="M739.248,543.748V525.117S746.509,538.326,739.248,543.748Z" transform="translate(-548.857 -389.875)" fill="#f1f1f1"/>
  <path id="Path_1174" data-name="Path 1174" d="M701.425,561.123l-13.725-12.6S702.341,552.108,701.425,561.123Z" transform="translate(-510.585 -407.253)" fill="#f1f1f1"/>
  <circle id="f" cx="4.876" cy="4.876" r="4.876" transform="translate(119.857 84.71)" fill="#f9b827"/>
  <path id="g" d="M477.667,344.376a.506.506,0,0,1-.3-.1l-.005,0-1.146-.877a.509.509,0,1,1,.62-.808h0l.742.569,1.754-2.288a.509.509,0,0,1,.714-.094h0l-.011.015.011-.015a.51.51,0,0,1,.094.714l-2.063,2.69a.509.509,0,0,1-.405.2Z" transform="translate(-353.416 -252.93)" fill="#fff"/>
  <circle id="Ellipse_183" data-name="Ellipse 183" cx="6.98" cy="6.98" r="6.98" transform="translate(137.655 35.991)" fill="#ffb6b6"/>
  <path id="Path_1175" data-name="Path 1175" d="M546.43,147.281s2.067-4.187,2.031-5.786-1.166-5.712-1.643-5.983-5.617-2.881-7.01-2.1-3.845,3.469-6.489,4.195c-.748.205-.095,4.048-.095,4.048l3.094-.448s3.226-2.9,3.365-.924,3.131,1.151,3.131,1.151l.037,1.6,1.225.066.337-1.7s.55,3.468-.161,5.272,2.178.608,2.178.608Z" transform="translate(-395.697 -98.946)" fill="#2f2e41"/>
</svg>
