<svg xmlns="http://www.w3.org/2000/svg" width="209.633" height="154.037" viewBox="0 0 209.633 154.037">
  <g id="LiveStreaming_illu" transform="translate(0 0)">
    <path id="Path_1114" data-name="Path 1114" d="M362.572,427.487,365.884,426l-4.148-13.791-4.888,2.187Z" transform="translate(-264.509 -305.548)" fill="#ffb6b6"/>
    <path id="Path_1115" data-name="Path 1115" d="M564.736,599.1l4.954-3.5,1.367,2.2,6.987.344a1.62,1.62,0,0,1,.775,3l-6.125,3.8-2.408-1.525.94,2.436-2.309,1.433Z" transform="translate(-469.045 -480.909)" fill="#2f2e41"/>
    <path id="Path_1116" data-name="Path 1116" d="M441.964,494.054c0-1.387-.466-2.513-1.038-2.515h-155.9c-.574,0-1.038,1.128-1.04,2.515v57.094a.518.518,0,0,1-.468.516q-.627.06-1.255.112l-.031,0c-.228.021-.455.036-.683.054h0q-.176-.325-.347-.655a.521.521,0,0,1-.059-.24V490.791c0-.383.016-.768.041-1.149a14.713,14.713,0,0,1,.194-1.558c.437-2.4,1.426-4.031,2.549-4.037h158.1a1.211,1.211,0,0,1,.476.1,1.857,1.857,0,0,1,.587.411,3.64,3.64,0,0,1,.577.789,10.386,10.386,0,0,1,1.089,4.122c0,.016,0,.031,0,.047.036.419.054.846.052,1.273l.036,5.545.023,3.307.07,10.376.026,3.685.114,37.831h0a.518.518,0,0,1-.518.518h-2.08a.518.518,0,0,1-.518-.518Z" transform="translate(-258.832 -398.219)" fill="#e6e6e6"/>
    <path id="Path_1117" data-name="Path 1117" d="M688.258,383.772h-16.8a.9.9,0,0,0-.895.9v26.537h18.591V384.669a.9.9,0,0,0-.9-.9Zm-8.343,15.078a1.993,1.993,0,0,1-1.984-1.984v-3.061a1.984,1.984,0,0,1,3.967,0v3.061a1.993,1.993,0,0,1-1.984,1.984Z" transform="translate(-547.489 -323.89)" fill="#2f2e41"/>
    <path id="Path_1118" data-name="Path 1118" d="M670.341,486.513v2.56a.5.5,0,0,0,.5.5h17.705a.5.5,0,0,0,.5-.5v-2.56Z" transform="translate(-547.324 -400.046)" fill="#3f3d56"/>
    <path id="Path_1119" data-name="Path 1119" d="M502.189,226.767a3.582,3.582,0,0,1-5.216,1.723l-23.712,16.519-.655-6.583,23.315-15.105a3.6,3.6,0,0,1,6.268,3.447Z" transform="translate(-400.755 -203.841)" fill="#ffb6b6"/>
    <path id="Path_1120" data-name="Path 1120" d="M379.451,252.708s-2.568,3.794,1.462,7.151,20.36,2.689,22.995,2.661,14.727-12.537,14.727-12.537l-.079-7.224-14.6,8.662Z" transform="translate(-331.107 -219.366)" fill="#f9b827"/>
    <path id="Path_1121" data-name="Path 1121" d="M375.785,378.268l.259,4.917s-.764,4.355-.136,5.295,17.743,2.326,17.743,2.326a61.137,61.137,0,0,1,.431-12.636Z" transform="translate(-328.895 -319.738)" fill="#ffb6b6"/>
    <path id="Path_1122" data-name="Path 1122" d="M407.684,458.054l-6.59,5.768-12.916-26.415c-12.808,2.2-24.89,2.908-35.341.244a6.755,6.755,0,0,1-4.831-8.161q.061-.254.141-.5c1.251-3.816,4.525-6.516,7.1-10.714l18.842.286-2.1,7.261,18.3-2.369a6.749,6.749,0,0,1,7.509,5.951q.037.3.048.6Z" transform="translate(-308.254 -349.466)" fill="#2f2e41"/>
    <circle id="Ellipse_179" data-name="Ellipse 179" cx="7.651" cy="7.651" r="7.651" transform="translate(46.596 10.142)" fill="#ffb6b6"/>
    <path id="Path_1123" data-name="Path 1123" d="M370.57,261.362l7.015.825a1.432,1.432,0,0,1,1.231,1.116l1.116,5.105,6.955,8.19a17.173,17.173,0,0,1,1.561,9.989,37.592,37.592,0,0,1-2.9,9.25s-17.1,6.995-17.727,6.058-.827-5.19-.827-5.19l-2.2-24.479a8.783,8.783,0,0,1,2.524-7.058,2.654,2.654,0,0,1,1.549-.928C369.873,264.206,369.744,261.939,370.57,261.362Z" transform="translate(-320.809 -233.155)" fill="#f9b827"/>
    <path id="Path_1124" data-name="Path 1124" d="M250.479,474.1l3.255,1.594,7.837-12.078-4.8-2.353Z" transform="translate(-185.665 -341.907)" fill="#ffb6b6"/>
    <path id="Path_1125" data-name="Path 1125" d="M386.364,480.126l-6.688-2.539,9.179-27.57a79.79,79.79,0,0,1-30.09-16.536c-2.786-2.356-4.876-5.381-2.5-8.247q.166-.2.348-.389c2.8-2.877,9.914-2.323,14.077-4.958L380,429.828l-.583,2.663,17.48,5.925a6.749,6.749,0,0,1,4.125,8.648q-.1.284-.22.559Z" transform="translate(-313.751 -350.66)" fill="#2f2e41"/>
    <path id="Path_1126" data-name="Path 1126" d="M431.476,655.794l5.6,2.339-1.141,2.329,3.42,6.1a1.62,1.62,0,0,1-2.126,2.247l-6.473-3.171.013-2.85-1.564,2.091-2.44-1.2Z" transform="translate(-366.772 -525.523)" fill="#2f2e41"/>
    <path id="Path_1127" data-name="Path 1127" d="M367.887,401.085a3.582,3.582,0,0,1-.656-5.454l-11.5-26.514,6.582.662,10.19,25.844a3.6,3.6,0,0,1-4.62,5.462Z" transform="translate(-314.126 -313.027)" fill="#ffb6b6"/>
    <path id="Path_1128" data-name="Path 1128" d="M362.4,279.432s-3.21-3.268-7.3.016-6.668,19.424-7.161,22.013,9.373,16.918,9.373,16.918l7.1,1.353-5.6-16.025Z" transform="translate(-308.332 -245.477)" fill="#f9b827"/>
    <path id="Path_1129" data-name="Path 1129" d="M634.079,223.726H562.271a2.331,2.331,0,0,0-2.327,2.327V274.51a2.33,2.33,0,0,0,2.327,2.327h71.808a2.33,2.33,0,0,0,2.327-2.327V226.053A2.331,2.331,0,0,0,634.079,223.726Z" transform="translate(-465.493 -205.258)" fill="#3f3d56"/>
    <path id="Path_1130" data-name="Path 1130" d="M638.3,230.223H567.691a1.247,1.247,0,0,0-1.245,1.247v47.255a1.247,1.247,0,0,0,1.245,1.245H638.3a1.247,1.247,0,0,0,1.245-1.245V231.47a1.247,1.247,0,0,0-1.245-1.247Z" transform="translate(-470.313 -210.074)" fill="#fff"/>
    <path id="Path_1131" data-name="Path 1131" d="M668.428,488.49H626.419a.773.773,0,0,1-.756-.932l.652-3.1a.776.776,0,0,1,.756-.614h40.7a.776.776,0,0,1,.756.614l.652,3.1a.773.773,0,0,1-.756.932Z" transform="translate(-514.194 -398.071)" fill="#2f2e41"/>
    <rect id="Rectangle_596" data-name="Rectangle 596" width="1.294" height="0.776" rx="0.388" transform="translate(113.175 86.335)" fill="#3f3d56"/>
    <rect id="Rectangle_597" data-name="Rectangle 597" width="1.294" height="0.776" rx="0.388" transform="translate(115.762 86.335)" fill="#3f3d56"/>
    <rect id="Rectangle_598" data-name="Rectangle 598" width="1.294" height="0.776" rx="0.388" transform="translate(118.35 86.335)" fill="#3f3d56"/>
    <rect id="Rectangle_599" data-name="Rectangle 599" width="1.294" height="0.776" rx="0.388" transform="translate(120.938 86.335)" fill="#3f3d56"/>
    <rect id="Rectangle_600" data-name="Rectangle 600" width="1.294" height="0.776" rx="0.388" transform="translate(123.525 86.335)" fill="#3f3d56"/>
    <rect id="Rectangle_601" data-name="Rectangle 601" width="1.294" height="0.776" rx="0.388" transform="translate(126.113 86.335)" fill="#3f3d56"/>
    <rect id="Rectangle_602" data-name="Rectangle 602" width="1.294" height="0.776" rx="0.388" transform="translate(128.701 86.335)" fill="#3f3d56"/>
    <rect id="Rectangle_603" data-name="Rectangle 603" width="1.294" height="0.776" rx="0.388" transform="translate(131.288 86.335)" fill="#3f3d56"/>
    <rect id="Rectangle_604" data-name="Rectangle 604" width="1.294" height="0.776" rx="0.388" transform="translate(133.876 86.335)" fill="#3f3d56"/>
    <rect id="Rectangle_605" data-name="Rectangle 605" width="1.294" height="0.776" rx="0.388" transform="translate(136.463 86.335)" fill="#3f3d56"/>
    <rect id="Rectangle_606" data-name="Rectangle 606" width="1.294" height="0.776" rx="0.388" transform="translate(139.051 86.335)" fill="#3f3d56"/>
    <rect id="Rectangle_607" data-name="Rectangle 607" width="1.294" height="0.776" rx="0.388" transform="translate(141.639 86.335)" fill="#3f3d56"/>
    <rect id="Rectangle_608" data-name="Rectangle 608" width="1.294" height="0.776" rx="0.388" transform="translate(144.226 86.335)" fill="#3f3d56"/>
    <rect id="Rectangle_609" data-name="Rectangle 609" width="1.294" height="0.776" rx="0.388" transform="translate(146.814 86.335)" fill="#3f3d56"/>
    <rect id="Rectangle_610" data-name="Rectangle 610" width="1.294" height="0.776" rx="0.388" transform="translate(149.402 86.335)" fill="#3f3d56"/>
    <rect id="Rectangle_611" data-name="Rectangle 611" width="1.294" height="0.776" rx="0.388" transform="translate(151.989 86.335)" fill="#3f3d56"/>
    <rect id="Rectangle_612" data-name="Rectangle 612" width="1.294" height="0.776" rx="0.388" transform="translate(113.144 87.629)" fill="#3f3d56"/>
    <rect id="Rectangle_613" data-name="Rectangle 613" width="1.294" height="0.776" rx="0.388" transform="translate(115.732 87.629)" fill="#3f3d56"/>
    <rect id="Rectangle_614" data-name="Rectangle 614" width="1.294" height="0.776" rx="0.388" transform="translate(118.32 87.629)" fill="#3f3d56"/>
    <rect id="Rectangle_615" data-name="Rectangle 615" width="1.294" height="0.776" rx="0.388" transform="translate(120.907 87.629)" fill="#3f3d56"/>
    <rect id="Rectangle_616" data-name="Rectangle 616" width="1.294" height="0.776" rx="0.388" transform="translate(123.495 87.629)" fill="#3f3d56"/>
    <rect id="Rectangle_617" data-name="Rectangle 617" width="1.294" height="0.776" rx="0.388" transform="translate(126.082 87.629)" fill="#3f3d56"/>
    <rect id="Rectangle_618" data-name="Rectangle 618" width="1.294" height="0.776" rx="0.388" transform="translate(128.67 87.629)" fill="#3f3d56"/>
    <rect id="Rectangle_619" data-name="Rectangle 619" width="1.294" height="0.776" rx="0.388" transform="translate(131.258 87.629)" fill="#3f3d56"/>
    <rect id="Rectangle_620" data-name="Rectangle 620" width="1.294" height="0.776" rx="0.388" transform="translate(133.845 87.629)" fill="#3f3d56"/>
    <rect id="Rectangle_621" data-name="Rectangle 621" width="1.294" height="0.776" rx="0.388" transform="translate(136.433 87.629)" fill="#3f3d56"/>
    <rect id="Rectangle_622" data-name="Rectangle 622" width="1.294" height="0.776" rx="0.388" transform="translate(139.021 87.629)" fill="#3f3d56"/>
    <rect id="Rectangle_623" data-name="Rectangle 623" width="1.294" height="0.776" rx="0.388" transform="translate(141.608 87.629)" fill="#3f3d56"/>
    <rect id="Rectangle_624" data-name="Rectangle 624" width="1.294" height="0.776" rx="0.388" transform="translate(144.196 87.629)" fill="#3f3d56"/>
    <rect id="Rectangle_625" data-name="Rectangle 625" width="1.294" height="0.776" rx="0.388" transform="translate(146.783 87.629)" fill="#3f3d56"/>
    <rect id="Rectangle_626" data-name="Rectangle 626" width="1.294" height="0.776" rx="0.388" transform="translate(149.371 87.629)" fill="#3f3d56"/>
    <rect id="Rectangle_627" data-name="Rectangle 627" width="1.294" height="0.776" rx="0.388" transform="translate(151.959 87.629)" fill="#3f3d56"/>
    <rect id="Rectangle_628" data-name="Rectangle 628" width="10.35" height="0.776" rx="0.388" transform="translate(125.565 89.181)" fill="#3f3d56"/>
    <path id="Path_1132" data-name="Path 1132" d="M797.293,713.654l-1.995-3.206-.4,1.832c-.07.321-.14.647-.2.97-.567-.484-1.17-.932-1.76-1.361q-2.717-1.972-5.431-3.949l.567,3.286a23.316,23.316,0,0,0,1.578,5.939c.1.21.2.417.311.618h8.42a2.72,2.72,0,0,0,.14-.58.207.207,0,0,0,0-.039A5.815,5.815,0,0,0,797.293,713.654Z" transform="translate(-634.169 -564.176)" fill="#f0f0f0"/>
    <path id="Path_1133" data-name="Path 1133" d="M357.293,713.654l-2-3.206-.4,1.832c-.07.321-.14.647-.2.97-.567-.484-1.17-.932-1.76-1.361q-2.717-1.972-5.431-3.949l.567,3.286a23.317,23.317,0,0,0,1.578,5.939c.1.21.2.417.311.618h8.42a2.713,2.713,0,0,0,.14-.58.2.2,0,0,0,0-.039A5.814,5.814,0,0,0,357.293,713.654Z" transform="translate(-308.025 -564.176)" fill="#f0f0f0"/>
    <path id="Path_1134" data-name="Path 1134" d="M798.6,745.57l-71.354.08a.308.308,0,1,1,0-.616l71.354-.08a.308.308,0,1,1,0,.616Z" transform="translate(-589.277 -591.612)" fill="#cacaca"/>
    <path id="Path_1135" data-name="Path 1135" d="M266.6,745.57l-71.354.08a.308.308,0,0,1,0-.616l71.354-.08a.308.308,0,0,1,0,.616Z" transform="translate(-194.934 -591.612)" fill="#cacaca"/>
    <path id="Path_1136" data-name="Path 1136" d="M273.284,163.331c-1.234.367-2.386-.665-3.245-1.643l.305.362a11.79,11.79,0,0,0-4.013,6.089c-.784,2.344-1.221,4.8-2.106,7.111a10.422,10.422,0,0,1-4.5,5.693c-2.929,1.542-6.518.841-9.634-.272l-.122-.044a19.853,19.853,0,0,0,2.272-7.608,18.052,18.052,0,0,1-5.4,6.332,41.439,41.439,0,0,1-5.853-3.255c-1.2-.8-2.471-1.845-2.611-3.286a3.776,3.776,0,0,1,2.187-3.426,20.8,20.8,0,0,1,4.086-1.335,5.789,5.789,0,0,0,3.5-2.329c1.664-2.857-1.136-6.886.649-9.67.88-1.369,2.588-1.917,4.171-2.3a55.145,55.145,0,0,1,7.344-1.239,15.428,15.428,0,0,1,6.479.4,6.419,6.419,0,0,1,4.381,4.458,6.959,6.959,0,0,1,3.128,2.538C274.95,161.111,274.591,162.943,273.284,163.331Z" transform="translate(-227.128 -152.357)" fill="#2f2e41"/>
    <path id="Path_1137" data-name="Path 1137" d="M358.643,182.891a7.568,7.568,0,0,0-1.825,4.041c-2.455,4.487,1.056,8.342,5.543,10.8a9.194,9.194,0,0,0,5.874,1.024l.188-.8.254.722s2.922,9.65,3.885,10.216c-.366-1.717-.785-9.669-.988-11.345-.282-2.281.7-5.677,1.409-7.743a12.19,12.19,0,0,0,.667-3.956v-.059l.69,2.217,2.512-1.072c-.467-2.681,0-5.725-5.6-5.461-3.031-2.084-5.7-2.4-7.892-1.811-.283-.437-1.914.382-2.386.152" transform="translate(-314.329 -172.399)" fill="#2f2e41"/>
    <path id="Path_1138" data-name="Path 1138" d="M746.089,231.47v47.255a1.247,1.247,0,0,1-1.245,1.245h-24.9A30.555,30.555,0,0,1,713.281,271q-.163-.326-.31-.66a30.281,30.281,0,0,1-2.691-10.358c-.018-.22-.034-.44-.044-.662-.034-.569-.049-1.146-.049-1.726a30.412,30.412,0,0,1,2.145-11.259c.085-.223.176-.442.269-.662a30.637,30.637,0,0,1,14.581-15.451h17.663A1.247,1.247,0,0,1,746.089,231.47Z" transform="translate(-576.858 -210.074)" fill="#f9b827"/>
    <path id="Path_1139" data-name="Path 1139" d="M640.4,253.878H574.333a.263.263,0,1,1,0-.526H640.4a.263.263,0,1,1,0,.526Z" transform="translate(-475.964 -227.218)" fill="#cacaca"/>
    <ellipse id="Ellipse_180" data-name="Ellipse 180" cx="1.54" cy="1.574" rx="1.54" ry="1.574" transform="translate(101.327 21.645)" fill="#3f3d56"/>
    <ellipse id="Ellipse_181" data-name="Ellipse 181" cx="1.54" cy="1.574" rx="1.54" ry="1.574" transform="translate(106.646 21.645)" fill="#3f3d56"/>
    <ellipse id="Ellipse_182" data-name="Ellipse 182" cx="1.54" cy="1.574" rx="1.54" ry="1.574" transform="translate(111.965 21.645)" fill="#3f3d56"/>
    <path id="Path_1140" data-name="Path 1140" d="M806.39,237.51h-3.778a.286.286,0,0,0,0,.572h3.778a.286.286,0,1,0,0-.572Z" transform="translate(-645.155 -215.475)" fill="#3f3d56"/>
    <path id="Path_1141" data-name="Path 1141" d="M806.39,241.66h-3.778a.286.286,0,0,0,0,.572h3.778a.286.286,0,1,0,0-.572Z" transform="translate(-645.155 -218.551)" fill="#3f3d56"/>
    <path id="Path_1142" data-name="Path 1142" d="M806.39,245.8h-3.778a.286.286,0,0,0,0,.572h3.778a.286.286,0,1,0,0-.572Z" transform="translate(-645.155 -221.624)" fill="#3f3d56"/>
    <rect id="Rectangle_629" data-name="Rectangle 629" width="10.501" height="2.246" rx="1.123" transform="translate(108.728 42.009)" fill="#f9b827"/>
    <rect id="Rectangle_630" data-name="Rectangle 630" width="21.167" height="2.246" rx="1.123" transform="translate(103.395 46.5)" fill="#e6e6e6"/>
    <rect id="Rectangle_631" data-name="Rectangle 631" width="21.167" height="2.246" rx="1.123" transform="translate(103.395 50.991)" fill="#e6e6e6"/>
    <path id="Path_1143" data-name="Path 1143" d="M575.435,389.766a7.714,7.714,0,0,1-.486,2.709h-7.258a1.247,1.247,0,0,1-1.245-1.245V382.1a7.666,7.666,0,0,1,1.227-.1,7.762,7.762,0,0,1,7.763,7.763Z" transform="translate(-470.313 -322.579)" fill="#f9b827"/>
    <path id="Path_1144" data-name="Path 1144" d="M746.295,268.6v-.662h-11.1v-7.678h-.66v7.678H721.806v-7.678h-.66v7.678h-8.4c-.093.22-.184.44-.269.662h8.674v12.985h-10.77c.01.223.026.442.044.662h10.726v10.358h-8.035q.147.334.31.66h7.724v8.707h.66v-8.707h12.726v8.707h.66v-8.707h11.1v-.66h-11.1V282.25h11.1v-.662h-11.1V268.6Zm-11.763,24.005H721.806V282.25h12.726Zm0-11.021H721.806V268.6h12.726Z" transform="translate(-576.999 -232.341)" opacity="0.2"/>
    <path id="Path_1145" data-name="Path 1145" d="M767.286,332.249a.691.691,0,0,1-.5-1.2l.047-.188-.019-.045a1.857,1.857,0,0,0-3.425.013,16.487,16.487,0,0,0-1.449,4.128,5.491,5.491,0,0,0,.1,1.889,22.023,22.023,0,0,1-2-9.148,21.262,21.262,0,0,1,.132-2.372q.109-.968.3-1.923a22.28,22.28,0,0,1,4.418-9.443,5.929,5.929,0,0,0,2.466-2.559,4.523,4.523,0,0,0,.411-1.236c-.12.016-.242.026-.362.033l-.114.006h-.014a.685.685,0,0,1-.563-1.116l.156-.191c.079-.1.159-.195.238-.293a.351.351,0,0,0,.026-.03l.272-.335a1.982,1.982,0,0,0-.649-.628,2.284,2.284,0,0,0-2.814.657,3.58,3.58,0,0,0-.553,3,7.944,7.944,0,0,0,1.1,2.448c-.049.063-.1.124-.149.187a22.427,22.427,0,0,0-2.341,3.708,9.322,9.322,0,0,0-.557-4.33,15.61,15.61,0,0,0-2.41-3.478,1.913,1.913,0,0,0-3.408.94l-.005.049q.2.111.384.235a.938.938,0,0,1-.378,1.707l-.019,0a9.353,9.353,0,0,0,.246,1.4,9.609,9.609,0,0,0,4.784,6.022c.077.039.152.079.228.116a22.89,22.89,0,0,0-1.232,5.8,21.708,21.708,0,0,0,.016,3.505l-.006-.041a5.737,5.737,0,0,0-1.958-3.312c-1.507-1.238-3.636-1.694-5.262-2.689a1.077,1.077,0,0,0-1.649,1.047l.007.043a6.3,6.3,0,0,1,.707.34q.2.111.384.235a.938.938,0,0,1-.378,1.707l-.019,0-.039.006a9.339,9.339,0,0,0,1.718,2.69,9.617,9.617,0,0,0,6.975,3.06h0a22.879,22.879,0,0,0,1.537,4.487h5.491c.02-.061.037-.124.055-.185a6.237,6.237,0,0,1-1.519-.091c.407-.5.815-1,1.222-1.5a.335.335,0,0,0,.026-.03c.207-.256.415-.51.622-.766h0a9.143,9.143,0,0,0-.268-2.328ZM761,319.879l0,0,0,.008Zm-1.216,10.964-.047-.106c0-.077,0-.154,0-.232,0-.022,0-.043,0-.065.018.136.033.272.053.407Z" transform="translate(-606.931 -267.255)" fill="#2f2e41"/>
  </g>
</svg>
