<svg xmlns="http://www.w3.org/2000/svg" width="209.654" height="154.037" viewBox="0 0 209.654 154.037">
  <g id="Moderators_Card" transform="translate(0)">
    <path id="Path_1227" data-name="Path 1227" d="M194.08,639.439a.88.88,0,0,1-.638-1.526l.06-.24a2.365,2.365,0,0,0-4.385-.041c-1.043,2.442-2.394,4.97-1.722,7.66a28.019,28.019,0,0,1,3.628-29.133,7.215,7.215,0,0,0,3.663-4.83c-.9.3-2.015-.426-1.341-1.37.292-.361.587-.719.88-1.08-3.406-3.628-7.465,2.074-3.716,6.97a28.224,28.224,0,0,0-3.17,4.958,11.867,11.867,0,0,0-.708-5.512,19.877,19.877,0,0,0-3.068-4.428,2.436,2.436,0,0,0-4.345,1.259,1.263,1.263,0,0,1-.018,2.475,12.149,12.149,0,0,0,6.694,9.591,28.333,28.333,0,0,0-1.548,11.843c-.646-4.69-5.68-5.828-9.2-7.692a1.371,1.371,0,0,0-2.09,1.388,7.916,7.916,0,0,1,1.388.732,1.2,1.2,0,0,1-.556,2.184,12.08,12.08,0,0,0,11.069,7.321,29.13,29.13,0,0,0,1.957,5.712h6.99c.025-.078.048-.158.07-.236a7.941,7.941,0,0,1-1.934-.115c1.712-2.027,3.036-3.061,2.039-5.89Z" transform="translate(-169.399 -492.152)" fill="#f2f2f2"/>
    <path id="Path_1228" data-name="Path 1228" d="M253.4,573.326h2.882l1.371-11.117H253.4Z" transform="translate(-191.661 -425.24)" fill="#ffb6b6"/>
    <path id="Path_1229" data-name="Path 1229" d="M411.341,736.164V734.21l-.758.046-3.084.183-.714.044-.546,6.544-.029.351h2.046l.066-.348.3-1.584.767,1.584.168.348h5.426a1.226,1.226,0,0,0,1.218-1.221C416.428,739.087,411.916,736.775,411.341,736.164Z" transform="translate(-345.765 -587.818)" fill="#2f2e41"/>
    <path id="Path_1230" data-name="Path 1230" d="M114.8,564.944l2.507,1.422,6.679-8.992-3.7-2.1Z" transform="translate(-86.833 -419.995)" fill="#ffb6b6"/>
    <path id="Path_1231" data-name="Path 1231" d="M264.256,725.47l.962-1.7-.677-.334-2.775-1.362-.643-.317-3.16,4.626-.743,1.087.841.478.938.534,1.272-1.5-.141,2.141,4.432,2.517h0l.285.161a1.22,1.22,0,0,0,1.662-.46C267.235,730.523,264.453,726.289,264.256,725.47Z" transform="translate(-233.073 -578.401)" fill="#2f2e41"/>
    <path id="Path_1232" data-name="Path 1232" d="M435.152,362.633a2.57,2.57,0,0,0-2.057,3.33l-4.41,3.817,1.666,3.246,6.153-5.478a2.566,2.566,0,0,0-1.351-4.915Z" transform="translate(-362.764 -306.745)" fill="#ffb6b6"/>
    <path id="Path_1233" data-name="Path 1233" d="M375.9,385.838l-1.657-3.248-.171-.334a44.5,44.5,0,0,0-6.846,3.7,24.034,24.034,0,0,0-6.619-5.7s0,0,0,0q-.289-.139-.57-.249a3.938,3.938,0,0,0-1.362-.283,2.1,2.1,0,0,0-.612.088,1.72,1.72,0,0,0-.575.295,3.087,3.087,0,0,0-1,1.908,3.732,3.732,0,0,0,.173,1.325c.78,2.585,3.859,5.472,4.948,7.333.107.287,1.177,3.118,2.865,4.122a2.722,2.722,0,0,0,.275.146c.1.015.21.027.319.032h0a4.487,4.487,0,0,0,.514.007c.088,0,.178-.01.268-.017l.056,0a8.121,8.121,0,0,0,1.654-.361c.061-.02.122-.039.183-.061A13.618,13.618,0,0,0,369.1,394c.256-.117.509-.244.763-.375.307-.161.614-.331.914-.509.258-.149.512-.3.76-.465v0c.058-.034.117-.073.175-.115h0a16.058,16.058,0,0,0,4.383-3.818,5.643,5.643,0,0,0,.629-1.245Z" transform="translate(-308.151 -319.699)" fill="#2f2e41"/>
    <path id="Path_1234" data-name="Path 1234" d="M387.726,451.693s6.108,6.872,4.573,8.408a8.2,8.2,0,0,1-3.925,1.939l-2.921-.225Z" transform="translate(-330.065 -374.13)" fill="#2f2e41"/>
    <path id="Path_1235" data-name="Path 1235" d="M364.027,376.021c7.878,4.609,10.527,9.012,6.884,17.873Z" transform="translate(-313.859 -316.894)" fill="#2f2e41"/>
    <path id="Path_1236" data-name="Path 1236" d="M299.461,478.3c-.639-.3-2.227,23.685-2.356,24.288L288,519.556l12.957,5.808,8.52-29.582,1.42,10.886-1.893,17.276,8.375,2.025,5.793-.414-4.023-49.18-7.634-13.843Z" transform="translate(-256.356 -382.328)" fill="#2f2e41"/>
    <path id="Path_1237" data-name="Path 1237" d="M340.107,378.81c10.7,7.964,8.085,8.106,8.172,20.4l5.1,13.621s-17.968,6.959-19.811,2.353S340.107,378.81,340.107,378.81Z" transform="translate(-290.618 -319.003)" fill="#f9b827"/>
    <path id="Path_1238" data-name="Path 1238" d="M347.231,381.129c-.022-.078-.049-.168-.078-.263v0c-.046-.153-.1-.322-.163-.514-.039-.122-.08-.253-.127-.392l-.09-.273c-.858-2.59-2.587-7.418-4.687-12.756v0q-.38-.961-.775-1.942c-.024-.058-.046-.119-.071-.178-.1-.261-.212-.524-.319-.787l-3.077-3.077-1.659-1.082-3.654,3.374.007.173c.051,1.04.3,6.658.334,13.3.007,1.674,0,3.413-.027,5.16v.046c-.007.458,0,.814.022,1.1a4.8,4.8,0,0,0,.071.609,12.092,12.092,0,0,1,.521,2.487s-2.875,3.706-1.206,6.878a2.288,2.288,0,0,0,.4.024c.59.01,1.964-.027,5.742-.029.655,0,1.381,0,2.188,0,5.284,0,2.436-3.057,5.26-5.842.061-.061.122-.119.188-.178a6.407,6.407,0,0,1,.633-.5l.473-1.467.151-.47,0-.061.015-.65.032-1.3.022-.862A3.2,3.2,0,0,0,347.231,381.129Z" transform="translate(-289.432 -304.67)" fill="#2f2e41"/>
    <path id="Path_1239" data-name="Path 1239" d="M180.653,274.171l-.839,5.238,5.681,2.343Z" transform="translate(-136.006 -207.376)" opacity="0.2"/>
    <path id="Path_1240" data-name="Path 1240" d="M350.286,310.734c6.355,3.616,1.138,13.159-5.336,9.761C338.6,316.879,343.813,307.337,350.286,310.734Z" transform="translate(-297.249 -266.969)" fill="#ffb6b6"/>
    <path id="Path_1241" data-name="Path 1241" d="M326.6,448.837a10.453,10.453,0,0,0,13.474,1.88Z" transform="translate(-285.551 -371.97)" opacity="0.2"/>
    <path id="Path_1242" data-name="Path 1242" d="M345.648,304.365c-.445.579-1.376.308-3.2.721a7.6,7.6,0,0,0-.212-1.834,5.161,5.161,0,0,1-.87,2.064c-1.582.175.357,4.982-.453,8.515-1.044-7.455-3.239-5.5-2.13-4.023.71.947.237,3.786-1.893,2.367-3.514,1.67-8.52-6.626-2.972-10.517-.1-2.1,2.241-2.435,3.682-1.789C341.1,297.263,345.095,300.6,345.648,304.365Z" transform="translate(-289.212 -258.594)" fill="#2f2e41"/>
    <path id="Path_1243" data-name="Path 1243" d="M403.114,431.812c1.806-.036,11.509-.314,13.1-.246.09-.315,3.106,3.55,3.18,3.574a.441.441,0,0,1-.147.708c-.177.108-15.819-.182-16.009-.144a.435.435,0,0,1-.388-.253l-.1-.234a20.374,20.374,0,0,1-.024-2.8.433.433,0,0,1,.394-.608Z" transform="translate(-343.089 -358.892)" fill="#3f3d56"/>
    <path id="Path_1244" data-name="Path 1244" d="M402.971,446.61c.092.221.209.5.493.488l15.843.178a.437.437,0,0,0,.381-.641Z" transform="translate(-343.315 -370.285)" opacity="0.17"/>
    <path id="Path_1245" data-name="Path 1245" d="M457.916,353.045c.171-.295,4.406-21.254,4.76-21.429l2.892-3.538.258-.194c.359-.2,1.222-.064,1.144.485h0c-.679,3.257-5.049,21.809-5.145,24.7l-.526,3.685a.454.454,0,0,1-.56.373.873.873,0,0,1-.7-.507C460,356.491,457.718,353.12,457.916,353.045Z" transform="translate(-384.865 -280.419)" fill="#3f3d56"/>
    <path id="Path_1246" data-name="Path 1246" d="M472.192,328.1l-5.531,28.544c.185.468,1.051.8,1.252.182,0,0,5.674-28.418,5.68-28.434C473.654,327.7,472.524,327.683,472.192,328.1Z" transform="translate(-391.489 -280.438)" opacity="0.17"/>
    <path id="Path_1247" data-name="Path 1247" d="M312.064,200.416l-2.809,3.915L306.1,219.306l1.466,1.279Z" transform="translate(-231.527 -151.589)" fill="#f9b827"/>
    <path id="Path_1248" data-name="Path 1248" d="M408.738,434.143c-.058-.453-.171-.87-.5-.838-.485,0-.38.658-.263,1.213a3.055,3.055,0,0,1,.112.672l.777-.032A6.405,6.405,0,0,1,408.738,434.143Z" transform="translate(-347.026 -360.22)" fill="#2f2e41"/>
    <path id="Path_1249" data-name="Path 1249" d="M427.743,433.463c0-.129,0-.295-.015-.451-.027-.258-.115-.482-.409-.465a.389.389,0,0,0-.158.032c-.314.141-.185.714-.19.992l.253-.01.524-.02C427.746,433.517,427.743,433.49,427.743,433.463Z" transform="translate(-361.451 -359.648)" fill="#2f2e41"/>
    <path id="Path_1250" data-name="Path 1250" d="M434.112,433.2c-.012-.341.049-.943-.424-.916-.512.01-.344.707-.348,1.026l.251-.01.526-.022C434.114,433.257,434.112,433.23,434.112,433.2Z" transform="translate(-366.268 -359.451)" fill="#2f2e41"/>
    <path id="Path_1251" data-name="Path 1251" d="M440.482,432.953c-.012-.344.049-.945-.424-.916-.512.01-.344.707-.348,1.023l.253-.01.524-.019C440.484,433.006,440.482,432.98,440.482,432.953Z" transform="translate(-371.086 -359.262)" fill="#2f2e41"/>
    <path id="Path_1252" data-name="Path 1252" d="M446.852,432.693c-.012-.341.049-.943-.424-.916-.512.012-.344.706-.348,1.026l.251-.01.526-.022C446.854,432.747,446.852,432.72,446.852,432.693Z" transform="translate(-375.904 -359.066)" fill="#2f2e41"/>
    <path id="Path_1253" data-name="Path 1253" d="M453.224,432.442c-.01-.307.037-.819-.29-.9h0a.367.367,0,0,0-.132-.012.357.357,0,0,0-.107.015h0c-.375.1-.234.716-.239,1.009l.253-.01.524-.019C453.226,432.5,453.224,432.468,453.224,432.442Z" transform="translate(-380.724 -358.875)" fill="#2f2e41"/>
    <path id="Path_1254" data-name="Path 1254" d="M415.866,431.31v0a.765.765,0,0,0-.02-.107c-.039-.207-.139-.368-.39-.353s-.334.166-.361.37a3.245,3.245,0,0,0,.01.558c0,.036,0,.068,0,.1l.777-.032C415.874,431.7,415.886,431.5,415.866,431.31Z" transform="translate(-352.481 -358.362)" fill="#2f2e41"/>
    <path id="Path_1255" data-name="Path 1255" d="M422.231,430.972c-.039-.217-.139-.392-.4-.375s-.341.18-.363.395a5.669,5.669,0,0,0,.015.629l.777-.032C422.248,431.432,422.268,431.181,422.231,430.972Z" transform="translate(-357.306 -358.172)" fill="#2f2e41"/>
    <path id="Path_1256" data-name="Path 1256" d="M428.587,430.739c-.034-.229-.129-.417-.4-.4s-.346.192-.365.419a1.036,1.036,0,0,0,0,.151c0,.168.024.339.022.456l.546-.022.231-.01C428.6,431.18,428.621,430.944,428.587,430.739Z" transform="translate(-362.108 -357.977)" fill="#2f2e41"/>
    <path id="Path_1257" data-name="Path 1257" d="M415.385,436.587c-.512.01-.346.707-.348,1.023l.777-.029C415.784,437.262,415.9,436.555,415.385,436.587Z" transform="translate(-352.423 -362.703)" fill="#2f2e41"/>
    <path id="Path_1258" data-name="Path 1258" d="M421.755,436.327c-.512.01-.346.707-.348,1.026l.777-.032C422.154,437,422.266,436.3,421.755,436.327Z" transform="translate(-357.241 -362.507)" fill="#2f2e41"/>
    <path id="Path_1259" data-name="Path 1259" d="M428.351,436.13a.343.343,0,0,0-.227-.056.322.322,0,0,0-.292.154c-.139.224-.054.643-.056.87l.777-.029C428.529,436.81,428.6,436.293,428.351,436.13Z" transform="translate(-362.059 -362.315)" fill="#2f2e41"/>
    <path id="Path_1260" data-name="Path 1260" d="M434.723,435.87a.338.338,0,0,0-.227-.056.322.322,0,0,0-.295.156c-.134.227-.051.643-.054.87l.777-.032C434.9,436.552,434.972,436.038,434.723,435.87Z" transform="translate(-366.879 -362.118)" fill="#2f2e41"/>
    <path id="Path_1261" data-name="Path 1261" d="M441.091,435.62a.342.342,0,0,0-.227-.056.321.321,0,0,0-.292.153c-.139.224-.054.643-.056.87l.777-.029C441.269,436.3,441.34,435.783,441.091,435.62Z" transform="translate(-371.696 -361.929)" fill="#2f2e41"/>
    <path id="Path_1262" data-name="Path 1262" d="M447.463,435.36a.338.338,0,0,0-.227-.056.32.32,0,0,0-.295.156c-.134.227-.051.643-.054.87l.777-.032C447.641,436.042,447.712,435.528,447.463,435.36Z" transform="translate(-376.516 -361.732)" fill="#2f2e41"/>
    <path id="Path_1263" data-name="Path 1263" d="M453.834,435.11a.343.343,0,0,0-.227-.056.319.319,0,0,0-.292.154c-.136.227-.054.643-.056.87l.777-.029C454.012,435.79,454.083,435.276,453.834,435.11Z" transform="translate(-381.335 -361.543)" fill="#2f2e41"/>
    <path id="Path_1264" data-name="Path 1264" d="M281.506,296.441c-1.415,8.7-9-1.6-12.565,6.961-1.121,3.1.8,5.318,2.019,7.892.278,2.115-2.474,3.188-2.762,5.135-.08,4.463,7.12,4.19,9.133,1.374,2.068-2.948-.4-6.9.842-10.067,1.747-4.393,8.853-4.425,9.472-9.536C286.447,296.493,283.223,294.538,281.506,296.441Z" transform="translate(-241.377 -256.11)" fill="#2f2e41"/>
    <path id="Path_1265" data-name="Path 1265" d="M265.221,762.6c-.187.554-106.913.554-107.115,0C158.293,762.044,265.019,762.044,265.221,762.6Z" transform="translate(-158.106 -608.976)" fill="#ccc"/>
    <path id="Path_1266" data-name="Path 1266" d="M341.188,293.86c-.046.019-.093.039-.134.061h0c-.039.019-.078.039-.117.061l-.012.007c-.051-.049-.1-.1-.156-.146a.563.563,0,0,0,.01.239l.007.029c.049.051.1.1.153.151.049-.037.1-.076.144-.112.029-.024.058-.049.09-.073,0-.063.012-.136.02-.217Zm1.467-2.709c-1.087-.249-1.437,1.172-1.542,1.856-.395-2.485-2.037-1.7-1.469-.007a3.8,3.8,0,0,0,.836,1.345c.051.058.107.117.166.175-.066.341.266.253.714-.061a5.971,5.971,0,0,0,.914-.8C343.166,292.719,343.863,291.465,342.655,291.15Zm.034,1.4a8.516,8.516,0,0,1-1.123,1.191q-.194.175-.395.336c0,.022,0,.041,0,.058a.448.448,0,0,1-.034.068c-.136.246-.29.112-.348-.093,0-.007-.012-.015-.017-.022a3.432,3.432,0,0,1-.5-.668c-1.006-1.744.614-2.931.534.326a.31.31,0,0,0-.029.1.564.564,0,0,0,.01.239l.007.029c.049.051.1.1.154.151.049-.037.1-.076.144-.112.029-.024.058-.049.09-.073,0-.063.012-.136.019-.217v0a4.971,4.971,0,0,1,.555-2.146C342.448,291.172,343.356,291.755,342.689,292.549Zm-1.5,1.311c-.046.019-.093.039-.134.061h0c-.039.019-.078.039-.117.061l-.012.007c-.051-.049-.1-.1-.156-.146a.563.563,0,0,0,.01.239l.007.029c.049.051.1.1.153.151.049-.037.1-.076.144-.112.029-.024.058-.049.09-.073,0-.063.012-.136.02-.217Z" transform="translate(-295.327 -252.678)" fill="#2f2e41"/>
    <path id="Path_1267" data-name="Path 1267" d="M409.043,388.455a1.34,1.34,0,0,0-1.34,1.34v12.962H382a1.34,1.34,0,0,0,0,2.68h25.7v74.55h2.68V389.795a1.34,1.34,0,0,0-1.34-1.34Z" transform="translate(-326.44 -326.298)" fill="#e6e6e6"/>
    <path id="Path_1268" data-name="Path 1268" d="M370.9,439.054a2.57,2.57,0,0,0-3.912.118l-5.616-1.577-1.79,3.179,7.962,2.115a2.566,2.566,0,0,0,3.357-3.836Z" transform="translate(-310.5 -363.467)" fill="#ffb6b6"/>
    <path id="Path_1269" data-name="Path 1269" d="M316.234,387.524c-.407-.212-.814-.419-1.211-.612-.862-.426-1.664-.8-2.254-1.052a20.382,20.382,0,0,0,.687-2.685c.692-3.489,1.162-8.926-1.993-8.766a4.117,4.117,0,0,0-1.325.322c-2.458,1.367-3.3,6.8-4.4,9.046-.192.261-2.146,2.97-1.832,4.975.892,1.949,3.727,3.615,6.385,4.7l0,0c.512.21,1.018.4,1.5.563.551.188,1.074.344,1.545.465a6.6,6.6,0,0,0,2.025.3,5.708,5.708,0,0,0,1.386-.161l.558-.984.344-.609,1.8-3.172.185-.326A26.806,26.806,0,0,0,316.234,387.524Z" transform="translate(-268.358 -315.672)" fill="#2f2e41"/>
    <path id="Path_1270" data-name="Path 1270" d="M713.989,234.367a82.526,82.526,0,0,1-18.949,5.072,112.2,112.2,0,0,1-13.9,1.179q-6.11.153-12.868-.275V151.153a1.686,1.686,0,0,1,1.686-1.683l.672,0,2.7.007h.046l72.4.18h.329l2.617.007q.563,1.813,1.048,3.735C756.285,179.3,751.471,219.069,713.989,234.367Z" transform="translate(-543.98 -145.537)" fill="#f2f2f2"/>
    <path id="Path_1271" data-name="Path 1271" d="M720.435,296.672c.043,2.951-4.592,2.951-4.549,0C715.844,293.721,720.479,293.721,720.435,296.672Z" transform="translate(-579.996 -255.202)" fill="#f9b827"/>
    <path id="Path_1272" data-name="Path 1272" d="M760.47,318.66h-43.9a.676.676,0,0,0,0,1.352h43.9A.676.676,0,0,0,760.47,318.66Z" transform="translate(-580.003 -273.507)" fill="#ccc"/>
    <path id="Path_1273" data-name="Path 1273" d="M744.86,329.64H716.567a.677.677,0,0,0,0,1.355H744.86A.678.678,0,0,0,744.86,329.64Z" transform="translate(-579.999 -281.812)" fill="#ccc"/>
    <path id="Path_1274" data-name="Path 1274" d="M760.466,236.16h-43.9a.677.677,0,0,0,0,1.355h43.9A.678.678,0,0,0,760.466,236.16Z" transform="translate(-579.999 -211.106)" fill="#ccc"/>
    <path id="Path_1275" data-name="Path 1275" d="M744.86,247.15H716.567a.677.677,0,0,0,0,1.355H744.86A.678.678,0,0,0,744.86,247.15Z" transform="translate(-579.999 -219.419)" fill="#ccc"/>
    <path id="Path_1276" data-name="Path 1276" d="M744.86,258.66H716.567a.677.677,0,0,0,0,1.355H744.86A.678.678,0,0,0,744.86,258.66Z" transform="translate(-579.999 -228.125)" fill="#ccc"/>
    <path id="Path_1277" data-name="Path 1277" d="M720.435,368.612c.043,2.951-4.592,2.951-4.549,0C715.844,365.661,720.479,365.661,720.435,368.612Z" transform="translate(-579.996 -309.616)" fill="#f9b827"/>
    <path id="Path_1278" data-name="Path 1278" d="M760.466,390.59h-43.9a.677.677,0,0,0,0,1.355h43.9A.678.678,0,0,0,760.466,390.59Z" transform="translate(-579.999 -327.913)" fill="#ccc"/>
    <path id="Path_1279" data-name="Path 1279" d="M744.86,401.58H716.567a.677.677,0,0,0,0,1.355H744.86A.678.678,0,0,0,744.86,401.58Z" transform="translate(-579.999 -336.226)" fill="#ccc"/>
    <path id="Path_1280" data-name="Path 1280" d="M717.573,214.3c.043,2.929-4.558,2.929-4.515,0C713.016,211.375,717.616,211.375,717.573,214.3Z" transform="translate(-577.857 -192.914)" fill="#f9b827"/>
    <path id="Path_1281" data-name="Path 1281" d="M753.538,148.657c-.349-.35-76.612.674-76.525-.354C676.638,147.914,755.629,147.027,753.538,148.657Z" transform="translate(-550.592 -144.206)" fill="#cacaca"/>
    <circle id="Ellipse_194" data-name="Ellipse 194" cx="3.934" cy="3.934" r="3.934" transform="translate(118.782 0)" fill="#cacaca"/>
    <circle id="Ellipse_195" data-name="Ellipse 195" cx="3.934" cy="3.934" r="3.934" transform="translate(201.786 0)" fill="#cacaca"/>
    <path id="Path_1282" data-name="Path 1282" d="M713.989,492.764a82.53,82.53,0,0,1-18.949,5.072,112.2,112.2,0,0,1-13.9,1.179q-6.286-.073-12.868-.275v-3.109C674.178,490.674,699.491,489.882,713.989,492.764Z" transform="translate(-543.98 -403.934)" fill="#cacaca"/>
  </g>
</svg>
