<svg xmlns="http://www.w3.org/2000/svg" width="385.19" height="274.74" viewBox="0 0 385.19 274.74">
  <g id="Branding_Identity_illu" data-name="Branding&amp;Identity_illu" transform="translate(0.452)">
    <path id="Path_1434" data-name="Path 1434" d="M828.718,495.773a5.289,5.289,0,0,0-3.347-7.386L824.2,469.63l-7.8,5.874,2.307,16.912a5.317,5.317,0,0,0,10.012,3.358Z" transform="translate(-510.185 -321.936)" fill="#ffb8b8"/>
    <path id="Path_1435" data-name="Path 1435" d="M670.2,449.186l6.2,1.777,9.8-23.06-9.147-2.623Z" transform="translate(-317.657 -201.618)" fill="#ffb8b8"/>
    <path id="Path_1436" data-name="Path 1436" d="M0,0H20.264V7.829H7.829A7.829,7.829,0,0,1,0,0H0Z" transform="matrix(-0.961, -0.276, 0.276, -0.961, 369.05, 258.529)" fill="#2f2e41"/>
    <path id="Path_1437" data-name="Path 1437" d="M642.742,488.6h-6.448l-3.068-24.87h9.516Z" transform="translate(-300.127 -219.845)" fill="#ffb8b8"/>
    <path id="Path_1438" data-name="Path 1438" d="M623.245,507.514H635.68v7.829H615.416a7.83,7.83,0,0,1,7.829-7.829Z" transform="translate(-291.683 -240.603)" fill="#2f2e41"/>
    <path id="Path_1439" data-name="Path 1439" d="M850.745,504.648s-3.681,14.726,2.63,44.7l4.733,51.54,12.1.526-1.578-55.747,4.207-23.14,10.518,32.081-3.681,22.615,8.941,4.207L898.6,550.4s-1.052-43.125-5.259-48.385Z" transform="translate(-525.962 -337.29)" fill="#2f2e41"/>
    <circle id="Ellipse_214" data-name="Ellipse 214" cx="12.917" cy="12.917" r="12.917" transform="translate(327.14 57.64)" fill="#ffb8b8"/>
    <path id="Path_1440" data-name="Path 1440" d="M859.173,357.063s-.789,1.735,8.678.663,11.57-4.207,11.57-4.207l16.566,72.671-1.052,6.43L849.707,435.3v-9.11l7.889-48.228Z" transform="translate(-525.976 -266.89)" fill="#e6e6e6"/>
    <path id="Path_1441" data-name="Path 1441" d="M856.319,434.227l-14.338-.271-.046-.2a75.329,75.329,0,0,1,.526-30.094c2.9-12.823-3.684-30.213-6.647-37.095a3.691,3.691,0,0,1,1.489-4.608l10.149-6.089a5.168,5.168,0,0,1,7.667,3.155l1.774,6.961c8.173,8.788,7.6,26.813,5.676,40.4a190.966,190.966,0,0,1-6.189,27.654Z" transform="translate(-519.248 -267.655)" fill="#2f2e41"/>
    <path id="Path_1442" data-name="Path 1442" d="M829.273,365.518l-1.24.849a15.572,15.572,0,0,0-5.993,7.88,37.594,37.594,0,0,0-1.444,5.735c-1.052,6.311-5.785,33.133-5.785,33.133l-2.1,26.3,11.57-2.63,5.259-30.5,5.259-18.933Z" transform="translate(-508.435 -272.578)" fill="#2f2e41"/>
    <path id="Path_1443" data-name="Path 1443" d="M911.318,431.185l-.109-.3c-.752-2.085-18.3-51.19-10.014-68.506l-.812-8.121a5.278,5.278,0,0,1,6.847-5.557l12.684,4.021a2.543,2.543,0,0,1,1.786,2.465,248.533,248.533,0,0,1-1.568,26.206c-1.554,11.918,3.627,41.695,3.68,41.994l.031.177Z" transform="translate(-549.333 -264.488)" fill="#2f2e41"/>
    <path id="Path_1444" data-name="Path 1444" d="M911.813,461.735a5.288,5.288,0,0,1,6.317-5.085l9.5-16.216,4.317,8.76-9.682,14.056a5.317,5.317,0,0,1-10.451-1.515Z" transform="translate(-555.418 -308.095)" fill="#ffb8b8"/>
    <path id="Path_1445" data-name="Path 1445" d="M928.333,356.518l.68.157a5.2,5.2,0,0,1,3.712,3.268l11.649,31.548L930.7,421.469l-5-12.359,6.311-13.674-11.307-14.463Z" transform="translate(-559.635 -268.312)" fill="#2f2e41"/>
    <path id="Path_1446" data-name="Path 1446" d="M879.383,308.452a31.916,31.916,0,0,0,1.658-5.919,10.669,10.669,0,0,0-.689-6.027,13.1,13.1,0,0,0-3.562-4.27,33.458,33.458,0,0,0-3.187-2.4c-3.125-2.073-3.805-.187-7.554-.611s-7.949-1.5-10.954.735a12.265,12.265,0,0,0-4.422,12.965c.838,2.85.171,3.79,2.757,5.33a10.087,10.087,0,0,1,2.729-6.906,10.491,10.491,0,0,1,6.8-3.219,21.033,21.033,0,0,1,5.931.7,15.646,15.646,0,0,1,5.444,1.908c2.66,1.768,3.908,4.924,5,7.885" transform="translate(-526.233 -236.109)" fill="#2f2e41"/>
    <rect id="Rectangle_663" data-name="Rectangle 663" width="229.278" height="1.164" transform="translate(-0.452 122.007)" fill="#e6e6e6"/>
    <rect id="Rectangle_664" data-name="Rectangle 664" width="229.278" height="1.164" transform="translate(-0.452 81.272)" fill="#e6e6e6"/>
    <rect id="Rectangle_665" data-name="Rectangle 665" width="229.278" height="1.164" transform="translate(-0.452 40.537)" fill="#e6e6e6"/>
    <rect id="Rectangle_666" data-name="Rectangle 666" width="1.052" height="164.087" transform="translate(182.988)" fill="#e6e6e6"/>
    <rect id="Rectangle_667" data-name="Rectangle 667" width="1.052" height="164.087" transform="translate(137.128)" fill="#e6e6e6"/>
    <rect id="Rectangle_668" data-name="Rectangle 668" width="1.052" height="164.087" transform="translate(91.268)" fill="#e6e6e6"/>
    <rect id="Rectangle_669" data-name="Rectangle 669" width="1.052" height="164.087" transform="translate(45.408)" fill="#e6e6e6"/>
    <rect id="Rectangle_670" data-name="Rectangle 670" width="91.944" height="41.899" transform="translate(46.102 40.537)" fill="#f9b827"/>
    <path id="Path_1447" data-name="Path 1447" d="M409.215,338.862" transform="translate(-317.146 -259.941)" fill="#f9b827"/>
    <path id="Path_1448" data-name="Path 1448" d="M87,150v44.177l47.859-42.6Z" transform="translate(-41.171 -71.112)" fill="#f9b827"/>
    <path id="Path_1449" data-name="Path 1449" d="M454.574,340.377v1.578l-.6.531-1.21,1.073c-23.524.71-42.526,17.56-43.383,38.455l-1.078.957-.01.005V338.8Z" transform="translate(-316.709 -259.911)" fill="#f9b827"/>
    <path id="Path_1450" data-name="Path 1450" d="M454.311,345.8c-.11,0-.226,0-.337.005-25.023.158-45.361,18.207-45.671,40.485-.01.179-.01.352-.01.531,0,22.62,20.642,41.022,46.018,41.022s46.018-18.4,46.018-41.022S479.686,345.8,454.311,345.8Zm0,80.991c-24.792,0-44.966-17.929-44.966-39.97,0-.5.011-.994.037-1.488.857-20.895,19.859-37.745,43.383-38.455.51-.021,1.025-.026,1.546-.026,24.792,0,44.966,17.929,44.966,39.97S479.1,426.79,454.311,426.79Z" transform="translate(-316.709 -263.23)" fill="#e6e6e6"/>
    <path id="Path_1451" data-name="Path 1451" d="M445.423,400.267l-2.63-.015c0-.234.422-23.393,27.322-25l.157,2.625C445.875,379.334,445.43,399.413,445.423,400.267Z" transform="translate(-333.065 -277.193)" fill="#e6e6e6"/>
    <path id="Path_1452" data-name="Path 1452" d="M498.4,400.91a22.37,22.37,0,0,0-7.352-15.835,28.1,28.1,0,0,0-19.143-7.337h-.053c-14.447,0-26.238,10.345-26.548,23.172-.011.174-.011.352-.011.526a22.484,22.484,0,0,0,8.178,17.087,28.212,28.212,0,0,0,18.381,6.611h.053c14.62-.026,26.506-10.645,26.506-23.7C498.411,401.263,498.411,401.084,498.4,400.91Z" transform="translate(-334.25 -278.371)" fill="#e6e6e6"/>
    <path id="Path_1453" data-name="Path 1453" d="M491.048,385.075l-.789.7-36,32.049-.789.7a22.484,22.484,0,0,1-8.178-17.087c0-.174,0-.352.011-.526.31-12.827,12.1-23.172,26.548-23.172h.053A28.1,28.1,0,0,1,491.048,385.075Z" transform="translate(-334.25 -278.371)" fill="#f9b827"/>
  </g>
</svg>
