<svg xmlns="http://www.w3.org/2000/svg" width="245.849" height="124.865" viewBox="0 0 245.849 124.865">
  <g id="Fact1_illu" transform="translate(0 -0.002)">
    <path id="Path_921" data-name="Path 921" d="M934.08,544.1c-7.156,5.155-16.43,5.414-25.393,4.781-1.252-.088-2.495-.192-3.726-.3l-.025,0c-.059-.006-.118-.011-.175-.015l-.76-.071.06.113.187.352-.2-.351c-.02-.035-.042-.071-.061-.106-2.322-4.041-4.625-8.23-5.213-12.845-.607-4.789,1.1-10.213,5.315-12.567a8.509,8.509,0,0,1,1.745-.731c.252-.077.508-.139.766-.194a9.117,9.117,0,0,1,10.6,11.852c3.574-3.664,2.907-9.609,1.674-14.578s-2.73-10.5-.218-14.959a9.864,9.864,0,0,1,6.608-4.646c.085-.018.169-.036.254-.052a13.306,13.306,0,0,1,9.559,1.675c5.27,3.321,7.976,9.617,8.855,15.785C945.347,527.16,942.215,538.236,934.08,544.1Z" transform="translate(-698.412 -424.258)" fill="#f2f2f2"/>
    <path id="Path_922" data-name="Path 922" d="M947.028,528.929a22.619,22.619,0,0,1-1.561,6.374,19.64,19.64,0,0,1-3.049,4.981,25.164,25.164,0,0,1-9.666,6.97,36.221,36.221,0,0,1-8.806,2.366c-1.252-.088-2.494-.192-3.726-.3l-.025,0c-.059-.006-.118-.011-.175-.015l-.76-.071.06.113.187.352-.2-.351c-.02-.035-.042-.071-.061-.106a19.842,19.842,0,0,0,1.848-26.142c.252-.077.508-.139.766-.194a20.937,20.937,0,0,1,1.91,3.163,20.512,20.512,0,0,1,1.77,12.761,20.972,20.972,0,0,1-5.314,10.461c.239-.017.48-.036.717-.058a36.773,36.773,0,0,0,13-3.311,23.41,23.41,0,0,0,8.77-7.2,21.158,21.158,0,0,0,3.727-11.611,49,49,0,0,0-1.391-13.266,55.681,55.681,0,0,0-4.679-12.745.4.4,0,0,1,.159-.529.341.341,0,0,1,.254-.052.3.3,0,0,1,.2.168c.256.5.507,1,.748,1.5a56.311,56.311,0,0,1,4.408,13.223A45.294,45.294,0,0,1,947.028,528.929Z" transform="translate(-713.672 -425)" fill="#fff"/>
    <path id="Path_923" data-name="Path 923" d="M650.767,615.338c3.655,2.633,8.393,2.766,12.971,2.442.639-.045,1.274-.1,1.9-.155l.013,0,.089-.007.388-.036-.03.058-.1.18.1-.179.031-.054a18.12,18.12,0,0,0,2.663-6.561c.31-2.447-.562-5.217-2.715-6.419a4.349,4.349,0,0,0-.892-.373c-.129-.039-.259-.071-.391-.1a4.657,4.657,0,0,0-5.416,6.054c-1.826-1.872-1.485-4.909-.855-7.447s1.395-5.362.111-7.642a5.039,5.039,0,0,0-3.376-2.373l-.13-.027a6.8,6.8,0,0,0-4.883.856c-2.692,1.7-4.075,4.913-4.523,8.063C645.011,606.685,646.611,612.344,650.767,615.338Z" transform="translate(-510.846 -493.22)" fill="#f2f2f2"/>
    <path id="Path_924" data-name="Path 924" d="M669.983,607.589a11.555,11.555,0,0,0,.8,3.256,10.035,10.035,0,0,0,1.558,2.544,12.855,12.855,0,0,0,4.938,3.56,18.5,18.5,0,0,0,4.5,1.209c.639-.045,1.274-.1,1.9-.155l.013,0,.089-.007.388-.036-.03.058-.1.18.1-.179.031-.054a10.136,10.136,0,0,1-.944-13.354c-.129-.039-.259-.071-.391-.1a10.7,10.7,0,0,0-.976,1.616,10.478,10.478,0,0,0-.9,6.519,10.712,10.712,0,0,0,2.714,5.344c-.122-.009-.245-.019-.366-.03a18.783,18.783,0,0,1-6.64-1.692,11.959,11.959,0,0,1-4.48-3.676,10.808,10.808,0,0,1-1.9-5.931,25.031,25.031,0,0,1,.71-6.776,28.442,28.442,0,0,1,2.39-6.51.2.2,0,0,0-.081-.27.174.174,0,0,0-.13-.027.152.152,0,0,0-.1.086c-.131.255-.259.51-.382.768a28.764,28.764,0,0,0-2.252,6.754A23.16,23.16,0,0,0,669.983,607.589Z" transform="translate(-528.882 -493.598)" fill="#fff"/>
    <path id="Path_925" data-name="Path 925" d="M167.631,222.062H129.575a4.407,4.407,0,0,0-4.4,4.4v59.8a4.407,4.407,0,0,0,4.4,4.4h38.056a4.407,4.407,0,0,0,4.4-4.4v-59.8A4.407,4.407,0,0,0,167.631,222.062Zm3.883,64.2a3.888,3.888,0,0,1-3.883,3.883H129.575a3.888,3.888,0,0,1-3.883-3.883v-59.8a3.888,3.888,0,0,1,3.883-3.883h38.056a3.888,3.888,0,0,1,3.883,3.883Z" transform="translate(-125.174 -218.637)" fill="#3f3d56"/>
    <path id="Path_926" data-name="Path 926" d="M482.631,290.666H444.575a4.406,4.406,0,0,1-4.4-4.4v-59.8a4.406,4.406,0,0,1,4.4-4.4h38.056a4.406,4.406,0,0,1,4.4,4.4v59.8A4.406,4.406,0,0,1,482.631,290.666ZM444.575,222.58a3.888,3.888,0,0,0-3.883,3.883v59.8a3.888,3.888,0,0,0,3.883,3.883h38.056a3.888,3.888,0,0,0,3.883-3.883v-59.8a3.888,3.888,0,0,0-3.883-3.883Z" transform="translate(-358.626 -218.637)" fill="#3f3d56"/>
    <path id="Path_927" data-name="Path 927" d="M347.225,354.58H331.433a.259.259,0,1,1,0-.518h15.792a.259.259,0,1,1,0,.518Z" transform="translate(-277.844 -316.464)" fill="#3f3d56"/>
    <path id="Path_928" data-name="Path 928" d="M379.433,341.354a.259.259,0,0,1-.157-.465l8.239-6.276a.777.777,0,0,0,0-1.236l-8.239-6.276a.259.259,0,0,1,.314-.412l8.239,6.276a1.294,1.294,0,0,1,0,2.059L379.59,341.3A.257.257,0,0,1,379.433,341.354Z" transform="translate(-313.418 -296.138)" fill="#3f3d56"/>
    <path id="Path_929" data-name="Path 929" d="M661.225,354.58H645.433a.259.259,0,1,1,0-.518h15.792a.259.259,0,0,1,0,.518Z" transform="translate(-510.555 -316.464)" fill="#3f3d56"/>
    <path id="Path_930" data-name="Path 930" d="M693.433,341.354a.259.259,0,0,1-.157-.465l8.239-6.276a.777.777,0,0,0,0-1.236l-8.239-6.276a.259.259,0,0,1,.314-.412l8.239,6.276a1.294,1.294,0,0,1,0,2.059L693.59,341.3A.257.257,0,0,1,693.433,341.354Z" transform="translate(-546.128 -296.138)" fill="#3f3d56"/>
    <path id="Path_931" data-name="Path 931" d="M516.435,277.765h-9.061a2.2,2.2,0,0,1-2.2-2.2v-8.8a2.2,2.2,0,0,1,2.2-2.2h9.061a2.2,2.2,0,0,1,2.2,2.2v8.8A2.2,2.2,0,0,1,516.435,277.765Z" transform="translate(-406.798 -250.135)" fill="#f9b827"/>
    <path id="Path_932" data-name="Path 932" d="M518.859,278.006a.258.258,0,0,1-.183-.076L506.25,265.5a.259.259,0,0,1,.366-.366l12.426,12.426a.259.259,0,0,1-.183.442Z" transform="translate(-407.54 -250.505)" fill="#fff"/>
    <path id="Path_933" data-name="Path 933" d="M506.433,278.006a.259.259,0,0,1-.183-.442l12.426-12.426a.259.259,0,0,1,.366.366l-12.426,12.426a.258.258,0,0,1-.183.076Z" transform="translate(-407.54 -250.505)" fill="#fff"/>
    <path id="Path_934" data-name="Path 934" d="M505.737,349.534H488.91a3.236,3.236,0,1,1,0-6.472h16.827a3.236,3.236,0,0,1,0,6.472ZM488.91,343.58a2.718,2.718,0,1,0,0,5.437h16.827a2.718,2.718,0,0,0,0-5.437Z" transform="translate(-392.347 -308.312)" fill="#3f3d56"/>
    <path id="Path_935" data-name="Path 935" d="M505.737,387.534H488.91a3.236,3.236,0,1,1,0-6.472h16.827a3.236,3.236,0,1,1,0,6.472ZM488.91,381.58a2.718,2.718,0,1,0,0,5.437h16.827a2.718,2.718,0,0,0,0-5.437Z" transform="translate(-392.347 -336.475)" fill="#3f3d56"/>
    <path id="Path_936" data-name="Path 936" d="M505.737,425.534H488.91a3.236,3.236,0,1,1,0-6.472h16.827a3.236,3.236,0,1,1,0,6.472ZM488.91,419.58a2.718,2.718,0,1,0,0,5.437h16.827a2.718,2.718,0,0,0,0-5.437Z" transform="translate(-392.347 -364.637)" fill="#3f3d56"/>
    <path id="Path_937" data-name="Path 937" d="M788,208.9l-37.542,6.231a4.407,4.407,0,0,0-3.621,5.062l9.791,59a4.407,4.407,0,0,0,5.062,3.621l37.542-6.231a4.407,4.407,0,0,0,3.621-5.062l-9.791-59A4.407,4.407,0,0,0,788,208.9Zm14.342,62.7a3.888,3.888,0,0,1-3.2,4.467L761.6,282.3a3.888,3.888,0,0,1-4.467-3.2l-9.791-59a3.888,3.888,0,0,1,3.2-4.467l37.542-6.231a3.888,3.888,0,0,1,4.467,3.2Z" transform="translate(-585.852 -208.839)" fill="#3f3d56"/>
    <path id="Path_938" data-name="Path 938" d="M822.155,284.109l-16.6,2.755a3.236,3.236,0,1,1-1.06-6.385l16.6-2.755a3.236,3.236,0,0,1,1.06,6.385ZM804.58,280.99a2.718,2.718,0,1,0,.89,5.363l16.6-2.755a2.718,2.718,0,0,0-.89-5.363Z" transform="translate(-626.624 -259.856)" fill="#ccc"/>
    <path id="Path_939" data-name="Path 939" d="M829.687,329.488l-16.6,2.755a3.236,3.236,0,0,1-1.06-6.385l16.6-2.755a3.236,3.236,0,0,1,1.06,6.385Zm-17.575-3.119a2.718,2.718,0,1,0,.89,5.363l16.6-2.755a2.718,2.718,0,1,0-.89-5.363Z" transform="translate(-632.207 -293.488)" fill="#ccc"/>
    <path id="Path_940" data-name="Path 940" d="M837.218,374.867l-16.6,2.755a3.236,3.236,0,0,1-1.06-6.385l16.6-2.755a3.236,3.236,0,0,1,1.06,6.385Zm-17.575-3.119a2.718,2.718,0,0,0,.89,5.363l16.6-2.755a2.718,2.718,0,0,0-.89-5.363Z" transform="translate(-637.788 -327.119)" fill="#ccc"/>
    <path id="Path_941" data-name="Path 941" d="M844.749,420.247,828.149,423a3.236,3.236,0,1,1-1.06-6.385l16.6-2.755a3.236,3.236,0,1,1,1.06,6.385Zm-17.575-3.119a2.718,2.718,0,0,0,.89,5.363l16.6-2.755a2.718,2.718,0,0,0-.89-5.363Z" transform="translate(-643.369 -360.75)" fill="#ccc"/>
    <path id="Path_942" data-name="Path 942" d="M795.033,234.961l-45.715,7.587a.259.259,0,0,1-.085-.511l45.715-7.587a.259.259,0,0,1,.085.511Z" transform="translate(-587.515 -227.815)" fill="#3f3d56"/>
    <circle id="Ellipse_127" data-name="Ellipse 127" cx="1.812" cy="1.812" r="1.812" transform="translate(164.958 8.056)" fill="#f9b827"/>
    <path id="Path_943" data-name="Path 943" d="M893.308,218.285l-5.108.848a.259.259,0,0,1-.085-.511l5.108-.848a.259.259,0,0,1,.085.511Z" transform="translate(-690.442 -215.456)" fill="#3f3d56"/>
    <path id="Path_944" data-name="Path 944" d="M894.291,224.2l-5.108.848a.259.259,0,0,1-.085-.511l5.108-.848a.259.259,0,0,1,.085.511Z" transform="translate(-691.171 -219.843)" fill="#3f3d56"/>
    <path id="Path_945" data-name="Path 945" d="M895.273,230.123l-5.108.848a.259.259,0,0,1-.085-.511l5.108-.848a.259.259,0,0,1,.085.511Z" transform="translate(-691.899 -224.23)" fill="#3f3d56"/>
    <path id="Path_946" data-name="Path 946" d="M191.291,303.638H171.875a2.2,2.2,0,0,1-2.2-2.2V281.763a2.2,2.2,0,0,1,2.2-2.2h19.416a2.2,2.2,0,0,1,2.2,2.2v19.675A2.2,2.2,0,0,1,191.291,303.638Z" transform="translate(-158.154 -261.251)" fill="#f9b827"/>
    <path id="Path_947" data-name="Path 947" d="M190.237,410.534H173.41a3.236,3.236,0,0,1,0-6.472h16.827a3.236,3.236,0,1,1,0,6.472ZM173.41,404.58a2.718,2.718,0,1,0,0,5.437h16.827a2.718,2.718,0,1,0,0-5.437Z" transform="translate(-158.525 -353.52)" fill="#3f3d56"/>
    <path id="Path_948" data-name="Path 948" d="M193.715,304.362a.258.258,0,0,1-.183-.076L170.75,281.5a.259.259,0,1,1,.366-.366L193.9,303.92a.259.259,0,0,1-.183.442Z" transform="translate(-158.895 -262.363)" fill="#fff"/>
    <path id="Path_949" data-name="Path 949" d="M170.933,304.362a.259.259,0,0,1-.183-.442l22.782-22.782a.259.259,0,1,1,.366.366l-22.782,22.782A.258.258,0,0,1,170.933,304.362Z" transform="translate(-158.895 -262.363)" fill="#fff"/>
    <path id="Path_950" data-name="Path 950" d="M890.678,418.548a2.781,2.781,0,0,0-2.317-3.58l-13.289-15.529-3.1,3.254,13.237,14.889a2.8,2.8,0,0,0,5.469.965Z" transform="translate(-678.639 -350.094)" fill="#a0616a"/>
    <path id="Path_951" data-name="Path 951" d="M870.713,391.3l-4.75,3.472a1.165,1.165,0,0,1-1.718-.4l-2.73-5.192a3.235,3.235,0,1,1,5.235-3.8l4.106,4.163a1.165,1.165,0,0,1-.142,1.758Z" transform="translate(-670.43 -338.688)" fill="#f9b827"/>
    <circle id="Ellipse_128" data-name="Ellipse 128" cx="6.358" cy="6.358" r="6.358" transform="translate(184.758 29.525)" fill="#a0616a"/>
    <path id="Path_952" data-name="Path 952" d="M838.784,400a1.18,1.18,0,0,1-.2-.016l-11.156-1.878a1.163,1.163,0,0,1-.972-1.131c-.034-2.552.157-9,2.658-13.689a6.858,6.858,0,0,1,12.736,4.76,101.717,101.717,0,0,0-1.916,10.927A1.164,1.164,0,0,1,838.783,400Z" transform="translate(-644.905 -335.432)" fill="#2f2e41"/>
    <path id="Path_953" data-name="Path 953" d="M768.369,371.373a2.723,2.723,0,0,1,.062.425l11.121,6.416,2.7-1.556,2.882,3.772-4.518,3.22a2.071,2.071,0,0,1-2.485-.06l-11.468-9.047a2.718,2.718,0,1,1,1.7-3.169Z" transform="translate(-597.882 -327.74)" fill="#a0616a"/>
    <path id="Path_954" data-name="Path 954" d="M827.442,388.965a1.164,1.164,0,0,1,.573-.783l5.1-2.854a3.235,3.235,0,1,1,3.968,5.111l-4.069,4.225a1.165,1.165,0,0,1-1.761-.1l-3.594-4.658A1.164,1.164,0,0,1,827.442,388.965Z" transform="translate(-645.619 -339.133)" fill="#f9b827"/>
    <path id="Path_955" data-name="Path 955" d="M670.312,434.643h-3.174l-.747-12.2,3.922-.04Z" transform="translate(-493.874 -313.047)" fill="#a0616a"/>
    <path id="Path_956" data-name="Path 956" d="M780.541,678.637H770.307v-.129a3.983,3.983,0,0,1,3.983-3.983h6.251Z" transform="translate(-603.293 -553.964)" fill="#2f2e41"/>
    <path id="Path_957" data-name="Path 957" d="M785.129,434.643h-3.174l-1.51-12.242h4.684Z" transform="translate(-578.401 -313.047)" fill="#a0616a"/>
    <path id="Path_958" data-name="Path 958" d="M897.541,678.637H887.307v-.129a3.983,3.983,0,0,1,3.983-3.983h6.251Z" transform="translate(-690.004 -553.964)" fill="#2f2e41"/>
    <path id="Path_959" data-name="Path 959" d="M819.366,500.08a1.171,1.171,0,0,1-1.1-.78l-10.114-28.9a.647.647,0,0,0-1.129-.174l-9.866,13.155a.914.914,0,0,0-.159.346l-3.144,14.026a1.167,1.167,0,0,1-1.084.909l-3.766.171a1.152,1.152,0,0,1-.879-.342,1.167,1.167,0,0,1-.337-.881l.657-12.8a29.875,29.875,0,0,1,3.133-11.9,67.14,67.14,0,0,0,7.025-26.452l.008-.143,11.586,1.843,1.739,2.408a33.293,33.293,0,0,0,2.518,3.111,13.067,13.067,0,0,1,3.048,7.885,65.637,65.637,0,0,0,1.183,8.307l5.746,28.234a1.165,1.165,0,0,1-.974,1.457l-3.939.514A1.147,1.147,0,0,1,819.366,500.08Z" transform="translate(-616.247 -384.832)" fill="#2f2e41"/>
    <path id="Path_960" data-name="Path 960" d="M887.337,307.684a28.2,28.2,0,0,1-1.115-4.7,3.182,3.182,0,0,1,.84-2.568c1.265-1.2,3.415-.628,4.739.507a10.634,10.634,0,0,1,3.227,6.653,69.319,69.319,0,0,1,.289,7.547,15.2,15.2,0,0,0,1.731,7.275,6.969,6.969,0,0,0,6.178,3.647,4.348,4.348,0,0,0,2.722-1.153,3.156,3.156,0,0,0,.948-2.741,6.15,6.15,0,0,1-1.282,7.224,7.653,7.653,0,0,1-7.38,1.547,10.2,10.2,0,0,1-5.829-5.032,15.448,15.448,0,0,1-1.626-7.643,31.248,31.248,0,0,0,.052-6.054c-.342-1.993-1.589-4.018-3.557-4.487Z" transform="translate(-689.19 -276.214)" fill="#2f2e41"/>
    <path id="Path_961" data-name="Path 961" d="M840.99,319.711a2.517,2.517,0,0,1-2.773,1.622,3.251,3.251,0,0,1-2.454-2.256,4.644,4.644,0,0,1,.363-3.4,5.3,5.3,0,0,1,3.034-2.7,4.353,4.353,0,0,1,3.958.632,1.456,1.456,0,0,1,1.017-1.064,2.782,2.782,0,0,1,1.527.023,6.29,6.29,0,0,1,3.5,2.547,10.234,10.234,0,0,1,1.587,4.09,8.871,8.871,0,0,1-.985,6.444c-1.231,1.855-3.75,2.951-5.794,2.067a2.7,2.7,0,0,1,.524-1.872,5.709,5.709,0,0,0,.9-1.765,1.425,1.425,0,0,0-.752-1.658c-.536-.181-1.108.112-1.674.148a1.834,1.834,0,0,1-1.759-2.643Z" transform="translate(-651.678 -285.621)" fill="#2f2e41"/>
    <path id="Path_962" data-name="Path 962" d="M753.884,689.58H655.249a.259.259,0,0,1,0-.518h98.635a.259.259,0,0,1,0,.518Z" transform="translate(-517.83 -564.738)" fill="#ccc"/>
  </g>
</svg>
