<svg xmlns="http://www.w3.org/2000/svg" width="169.766" height="134.049" viewBox="0 0 169.766 134.049">
  <g id="Fact3_illu" transform="translate(0 0.389)">
    <path id="Path_981" data-name="Path 981" d="M184.857,489.559l3.032-.344L188,477.358l-4.474.508Z" transform="translate(-137.855 -358.852)" fill="#ffb8b8"/>
    <path id="Path_982" data-name="Path 982" d="M454.724,704.6l-9.528,1.081h0L444.779,702h0l5.847-.663a3.7,3.7,0,0,1,4.1,3.263Z" transform="translate(-398.525 -572.085)" fill="#2f2e41"/>
    <path id="Path_983" data-name="Path 983" d="M63.58,490.1h3.051l1.451-11.769h-4.5Z" transform="translate(-47.757 -359.585)" fill="#ffb8b8"/>
    <path id="Path_984" data-name="Path 984" d="M329.466,706.7h-9.589v-3.7h5.884A3.7,3.7,0,0,1,329.466,706.7Z" transform="translate(-304.707 -573.348)" fill="#2f2e41"/>
    <path id="Path_985" data-name="Path 985" d="M342.112,489.355l1.742,5.666,9.457,20.464L355.8,534.9l-5.724.249-3.484-17.918-11.946-12.941-10.452,33.846-4.728-.5s3.982-43.8,9.457-48.28C328.922,489.355,337.881,485.124,342.112,489.355Z" transform="translate(-304.398 -411.464)" fill="#2f2e41"/>
    <circle id="Ellipse_133" data-name="Ellipse 133" cx="6.112" cy="6.112" r="6.112" transform="translate(23.874 41.215)" fill="#ffb8b8"/>
    <path id="Path_986" data-name="Path 986" d="M362.552,427.913s.747-25.384-9.706-23.642-6.1,26.255-6.1,26.255,2.24,4.48,7.715-.5S362.552,427.913,362.552,427.913Z" transform="translate(-324.216 -348.903)" fill="#ccc"/>
    <path id="Path_987" data-name="Path 987" d="M96.044,266.656l2.46,9.428,3.747,3.747L97.039,278.1Z" transform="translate(-72.142 -200.587)" opacity="0.2"/>
    <path id="Path_988" data-name="Path 988" d="M391.767,509.672a2.5,2.5,0,0,1-1.313-3.606l-5.813-6.73,4.583-.6,4.818,6.483a2.516,2.516,0,0,1-2.274,4.45Z" transform="translate(-353.353 -419.926)" fill="#ffb8b8"/>
    <path id="Path_989" data-name="Path 989" d="M362.751,415.382l.655,12.872,7.715,9.955-3.235,2.489-10.452-10.452s-3.733-12.692-1-16.425a3.56,3.56,0,0,1,3.172-1.719A3.429,3.429,0,0,1,362.751,415.382Z" transform="translate(-331.415 -354.844)" fill="#ccc"/>
    <path id="Path_990" data-name="Path 990" d="M300.44,349.948a.252.252,0,0,0-.036-.4,3.555,3.555,0,0,1,.342-6.231c1.8-.857,4.232-.19,5.561-1.837a3.088,3.088,0,0,0,.573-2.508,5.44,5.44,0,0,0-2.765-3.5,10.061,10.061,0,0,0-15.2,9.739c.169,1.5.631,3.175-.259,4.39-.783,1.069-2.262,1.27-3.56,1.536a13.4,13.4,0,0,0-7.363,4.009,9.333,9.333,0,0,0-2.329,7.889,7.2,7.2,0,0,0,5.667,5.665,7.744,7.744,0,0,0,6.329-2.212,13.463,13.463,0,0,0,3.411-5.957c.795-2.629,1.108-5.463,2.544-7.8,1.4-2.292,4.431-3.935,6.8-2.741a.254.254,0,0,0,.285-.034Z" transform="translate(-271.18 -296.198)" fill="#2f2e41"/>
    <path id="Path_991" data-name="Path 991" d="M335.573,717.624h-76.4a.249.249,0,1,1,0-.5h76.4a.249.249,0,1,1,0,.5Z" transform="translate(-258.922 -583.963)" fill="#3f3d56"/>
    <path id="Path_992" data-name="Path 992" d="M706.6,293.251a28.235,28.235,0,1,1-1.788-9.943c.062.166.122.332.18.5v0q.391,1.1.689,2.249A28.428,28.428,0,0,1,706.6,293.251Z" transform="translate(-552.769 -244.323)" fill="#3f3d56"/>
    <path id="Path_993" data-name="Path 993" d="M716.631,298.127a9.537,9.537,0,0,0-8.373-.343,4.517,4.517,0,0,0-2.794,3.074c1.58-.932,3.624.541,4.031,2.9l-.095.026a5.779,5.779,0,0,0,1.192,4.433,3.118,3.118,0,0,1,1.5-2.219,5.931,5.931,0,0,0,1.956-1.544,9.9,9.9,0,0,0,1.018-3.465C715.309,299.775,715.774,298.466,716.631,298.127Z" transform="translate(-594.335 -268.376)" fill="#f9b827"/>
    <path id="Path_994" data-name="Path 994" d="M669.461,310.01a10.065,10.065,0,0,1-1.546,1.582,3.56,3.56,0,0,0-1.124,2.1c-.066.572.036,1.153.022,1.731s-.207,1.229-.6,1.372c-.621.224-1.094-.929-1.732-1.009-.507-.063-.963.734-.816,1.426s.837,1,1.233.546c.359.6.106,1.693-.433,1.878-.057.379-.114.756-.169,1.135a18.678,18.678,0,0,1-3.894-3.315,10.062,10.062,0,0,1-2.293-5.42c-.15-1.6.073-3.436-.663-4.67a2.532,2.532,0,0,0-2.509-1.143c-.166.011-.333.03-.5.051a28.11,28.11,0,0,1,2.036-4.659,1.994,1.994,0,0,0,.51-.317c.846-.719,1.222-2.173,1.909-3.179q.066-.1.137-.189a6.546,6.546,0,0,1,2.554-1.829c2.013-.978,4.085-1.968,6.211-1.832l-.6.058q-1.059,2.966-2.119,5.931-.161.455-.325.911a9.375,9.375,0,0,0-.753,3.58,2.185,2.185,0,0,0,.788,1.8c.46.237.962-.054,1.405-.341l.562-.362c.674-.434,1.421-.88,2.133-.589a2.517,2.517,0,0,1,1.226,2.107A4.212,4.212,0,0,1,669.461,310.01Z" transform="translate(-556.006 -266.333)" fill="#f9b827"/>
    <path id="Path_995" data-name="Path 995" d="M708.442,400.55l-5.908-3.638.033-.086c-1.224.466-1.733,2.643-1.531,4.423s.889,3.371,1.235,5.106a13.551,13.551,0,0,1-.511,7.111,58.23,58.23,0,0,0,6.841-9.427,5.045,5.045,0,0,0,.619-1.372,2.182,2.182,0,0,0-.145-1.552A1.727,1.727,0,0,0,708.442,400.55Z" transform="translate(-590.976 -343.375)" fill="#f9b827"/>
    <path id="Path_996" data-name="Path 996" d="M699.076,318.491a2.178,2.178,0,0,0-.1,1.584,1.756,1.756,0,0,0,.981.908l1.088.539a1.4,1.4,0,0,0,1.121.213,1.5,1.5,0,0,0,.674-1.524,2.712,2.712,0,0,0-.921-1.567l-1.687-1.7-.317.388A4.235,4.235,0,0,0,699.076,318.491Z" transform="translate(-589.384 -283.377)" fill="#f9b827"/>
    <path id="Path_997" data-name="Path 997" d="M778.517,315.858l1.469.346a4.481,4.481,0,0,1-2,3.738,3.742,3.742,0,0,0-1.347.747,4.1,4.1,0,0,0-.676,1.584l-.839,3.051c-.3,1.1-.685,2.314-1.466,2.708a1.621,1.621,0,0,1-1.95-.772,9.294,9.294,0,0,1-1.134-2.546,2.62,2.62,0,0,1-1.1,2.317,1.436,1.436,0,0,1-1.9-.739c-.316-.554-.447-1.286-.756-1.848s-.959-.884-1.3-.357a4.794,4.794,0,0,0-.3,1.333,1.447,1.447,0,0,1-1.21,1.164,2.017,2.017,0,0,1-1.448-.662,6.56,6.56,0,0,1-1.8-3.627,4.329,4.329,0,0,1,.051-1.983c.194-.614.663-1.088,1.129-.971.306-.647-.3-1.507-.843-1.431s-.974.662-1.423,1.112-1.072.777-1.522.33a.618.618,0,0,1-.578.654h-.049a2.239,2.239,0,0,1-.816-.433,2.214,2.214,0,0,0-3.073,1c.458-1.949,1.129-4.185,2.536-4.643.575-.188,1.2-.033,1.745-.358.962-.576,1.156-2.754.325-3.653a3.5,3.5,0,0,1-.363,2.422.769.769,0,0,1-1.333-.657.576.576,0,0,1-1.071.227,2.069,2.069,0,0,1-.062-1.742,4.1,4.1,0,0,1,.921-1.308,11.288,11.288,0,0,1,2.38-2.122,2.7,2.7,0,0,1,2.746-.174c.46.265.864.707,1.333.941a.988.988,0,0,0,1.36-.318h0l.016-.026a7.5,7.5,0,0,0,.314-2.288c.232-1.353,1.586-1.987,2.336-1.093-.561-.144-1.14.52-1.21,1.323a1.909,1.909,0,0,0,.878,1.859c.913.4,1.807-.613,2.5-1.554q1.08-1.478,2.163-2.955a3.577,3.577,0,0,1,.387-.471,1.245,1.245,0,0,1,1.7-.035c.73.6,1.072,1.816,1.671,2.656a4.877,4.877,0,0,0,3.378,1.754l2.707.529a28.045,28.045,0,0,1,1.571,3.469A9.51,9.51,0,0,0,778.517,315.858Z" transform="translate(-630.519 -273.374)" fill="#f9b827"/>
    <path id="Path_998" data-name="Path 998" d="M845.667,424.287a28.316,28.316,0,0,1-2.353,3.937c-.569-.243-1.18.191-1.712.6-.556.426-1.224.842-1.794.453a2.5,2.5,0,0,1-.586-2.394,6.38,6.38,0,0,1,1.093-2.249,4.41,4.41,0,0,1,1.639-1.717,1.278,1.278,0,0,1,1.7,1.052l.467-.016c-.262-.36-.125-1.105.227-1.237.406-.153.758.4,1,.9C845.455,423.836,845.564,424.06,845.667,424.287Z" transform="translate(-694.754 -362.803)" fill="#f9b827"/>
    <path id="Path_999" data-name="Path 999" d="M757.606,379.069c-1,.063-1.8-1.174-2.329-2.391s-1.011-2.608-1.918-3.228a5.6,5.6,0,0,0-1.67-.574,2.068,2.068,0,0,1-1.419-1.249l-.637-.257a9.573,9.573,0,0,0-2.42,1.725,5.408,5.408,0,0,0-1.442,3.152,3.441,3.441,0,0,0,1.168,3.177c.664.379,1.437.14,2.109.487a3.98,3.98,0,0,1,1.528,2.934c.189,1.242.141,2.533.276,3.79a4.993,4.993,0,0,0,1.278,3.207c.964.806,2.379.136,2.811-1.33.212-.719.2-1.531.364-2.278a12.055,12.055,0,0,1,1.632-3.37A5.09,5.09,0,0,0,757.606,379.069Z" transform="translate(-624.596 -324.255)" fill="#f9b827"/>
    <path id="Path_1000" data-name="Path 1000" d="M753.037,343.786a2.676,2.676,0,0,1,.262.278.912.912,0,0,1-.016.942.876.876,0,0,0,.628-.319,4.032,4.032,0,0,0,.481-.678.739.739,0,0,0,.142-.591c-.047-.135-.16-.193-.238-.3a2.007,2.007,0,0,1-.22-.64,1.153,1.153,0,0,0-.836-.881l.05.01a.477.477,0,0,0-.224.509c.031.2.157.361.144.562-.018.289-.307.425-.325.714A.551.551,0,0,0,753.037,343.786Z" transform="translate(-629.954 -301.894)" fill="#f9b827"/>
    <path id="Path_1001" data-name="Path 1001" d="M746.577,330.365h0a.8.8,0,0,0,.086-.091Z" transform="translate(-625.216 -293.385)" fill="#f9b827"/>
    <path id="Path_1002" data-name="Path 1002" d="M743,331.967a.876.876,0,0,0,.273-.869c-.073-.329-.331-.55-.57-.489a.58.58,0,0,1-.54.159c-.147-.038-.309-.136-.437-.025a.661.661,0,0,0-.149.291l-.142.435a.275.275,0,0,0-.017.165.14.14,0,0,0,.107.085l.851.251A.733.733,0,0,0,743,331.967Z" transform="translate(-621.336 -293.63)" fill="#f9b827"/>
    <path id="Path_1003" data-name="Path 1003" d="M829.132,407.119l-.393-.644a2.152,2.152,0,0,0-.518-.651.46.46,0,0,0-.647.057h0l-.007.008.016.123a2.771,2.771,0,0,1,.691,1.348c.03.219.019.447.046.667a.778.778,0,0,0,.243.544c.207.138.449-.065.6-.314a1.08,1.08,0,0,0,.167-.688A1.205,1.205,0,0,0,829.132,407.119Z" transform="translate(-686.05 -350.053)" fill="#f9b827"/>
    <path id="Path_1004" data-name="Path 1004" d="M838.9,405.023a1.485,1.485,0,0,0-.048-.6,1.316,1.316,0,0,1,.2-.746,2.427,2.427,0,0,0,.312-.684.572.572,0,0,0-.015-.335c-.043-.1-.149-.142-.209-.065l.129.083a1.176,1.176,0,0,0-.524.025.648.648,0,0,0-.4.448,2.761,2.761,0,0,1-.1.464c-.077.158-.226.211-.32.35a.836.836,0,0,0,.013.795.928.928,0,0,0,.525.413C838.621,405.227,838.828,405.23,838.9,405.023Z" transform="translate(-693.76 -347.678)" fill="#f9b827"/>
    <path id="Path_1005" data-name="Path 1005" d="M853.028,413.081a1.8,1.8,0,0,0,.227.417c.175.177.414.068.627.025a1.083,1.083,0,0,1,1.031.413,2.623,2.623,0,0,0-1.509-1.882,4.433,4.433,0,0,0-1.552-.243l-.09.023C851.991,412.5,852.712,412.488,853.028,413.081Z" transform="translate(-704.224 -354.63)" fill="#f9b827"/>
    <path id="Path_1006" data-name="Path 1006" d="M794.492,422.267v0l.026-.05Z" transform="translate(-661.207 -362.449)" fill="#f9b827"/>
    <path id="Path_1007" data-name="Path 1007" d="M790.585,423.5a4.938,4.938,0,0,0-.312.685,5.963,5.963,0,0,0-.226,1.172c-.028.226-.037.514.1.624a.2.2,0,0,0,.263-.036,1.037,1.037,0,0,0,.19-.283,6.514,6.514,0,0,0,.643-1.525,2.655,2.655,0,0,0-.105-1.711Z" transform="translate(-657.855 -362.602)" fill="#f9b827"/>
    <path id="Path_1008" data-name="Path 1008" d="M769.788,304.632a.633.633,0,0,0,.682.133,2.253,2.253,0,0,0,.642-.424,1.512,1.512,0,0,0,.389-.424.861.861,0,0,0,.08-.656.666.666,0,0,0-.508-.4l-.945-.28.228-.205c-.234-.126-.494.108-.64.4a2.135,2.135,0,0,0-.194.6A1.536,1.536,0,0,0,769.788,304.632Z" transform="translate(-642.421 -272.403)" fill="#f9b827"/>
    <path id="Path_1009" data-name="Path 1009" d="M792.42,300.082a.52.52,0,0,0,.709.058.793.793,0,0,0,.314-.565c.022-.248-.1-.523-.275-.544l.04-.232c-.337-.061-.752-.073-.932.336A.961.961,0,0,0,792.42,300.082Z" transform="translate(-659.493 -269.72)" fill="#f9b827"/>
    <ellipse id="Ellipse_134" data-name="Ellipse 134" cx="2.102" cy="2.819" rx="2.102" ry="2.819" transform="translate(107.915 41.409)" fill="#e6e6e6"/>
    <ellipse id="Ellipse_135" data-name="Ellipse 135" cx="1.881" cy="1.308" rx="1.881" ry="1.308" transform="translate(145.944 79.91) rotate(-14.913)" fill="#e6e6e6"/>
    <ellipse id="Ellipse_136" data-name="Ellipse 136" cx="1.881" cy="1.308" rx="1.881" ry="1.308" transform="translate(133.651 80.138) rotate(-14.913)" fill="#e6e6e6"/>
    <ellipse id="Ellipse_137" data-name="Ellipse 137" cx="1.881" cy="1.308" rx="1.881" ry="1.308" transform="translate(148.128 69.682) rotate(-14.913)" fill="#e6e6e6"/>
    <ellipse id="Ellipse_138" data-name="Ellipse 138" cx="0.827" cy="1.189" rx="0.827" ry="1.189" transform="translate(153.13 65.122) rotate(-7.068)" fill="#e6e6e6"/>
    <ellipse id="Ellipse_139" data-name="Ellipse 139" cx="0.827" cy="1.189" rx="0.827" ry="1.189" transform="translate(154.048 57.406) rotate(-7.068)" fill="#e6e6e6"/>
    <ellipse id="Ellipse_140" data-name="Ellipse 140" cx="0.827" cy="1.189" rx="0.827" ry="1.189" transform="translate(141.656 72.24) rotate(-7.068)" fill="#e6e6e6"/>
    <ellipse id="Ellipse_141" data-name="Ellipse 141" cx="0.827" cy="1.189" rx="0.827" ry="1.189" transform="translate(147.872 74.489) rotate(-7.068)" fill="#e6e6e6"/>
    <ellipse id="Ellipse_142" data-name="Ellipse 142" cx="0.827" cy="1.189" rx="0.827" ry="1.189" transform="translate(140.325 80.86) rotate(-7.068)" fill="#e6e6e6"/>
    <ellipse id="Ellipse_143" data-name="Ellipse 143" cx="1.881" cy="1.308" rx="1.881" ry="1.308" transform="translate(84.84 69.586) rotate(-14.913)" fill="#e6e6e6"/>
    <ellipse id="Ellipse_144" data-name="Ellipse 144" cx="1.881" cy="1.308" rx="1.881" ry="1.308" transform="translate(72.547 69.814) rotate(-14.913)" fill="#e6e6e6"/>
    <ellipse id="Ellipse_145" data-name="Ellipse 145" cx="1.881" cy="1.308" rx="1.881" ry="1.308" transform="translate(87.024 59.359) rotate(-14.913)" fill="#e6e6e6"/>
    <ellipse id="Ellipse_146" data-name="Ellipse 146" cx="0.827" cy="1.189" rx="0.827" ry="1.189" transform="translate(92.026 54.799) rotate(-7.068)" fill="#e6e6e6"/>
    <ellipse id="Ellipse_147" data-name="Ellipse 147" cx="0.827" cy="1.189" rx="0.827" ry="1.189" transform="translate(92.944 47.083) rotate(-7.068)" fill="#e6e6e6"/>
    <ellipse id="Ellipse_148" data-name="Ellipse 148" cx="0.827" cy="1.189" rx="0.827" ry="1.189" transform="translate(80.553 61.916) rotate(-7.068)" fill="#e6e6e6"/>
    <ellipse id="Ellipse_149" data-name="Ellipse 149" cx="0.827" cy="1.189" rx="0.827" ry="1.189" transform="translate(86.768 64.165) rotate(-7.068)" fill="#e6e6e6"/>
    <ellipse id="Ellipse_150" data-name="Ellipse 150" cx="0.827" cy="1.189" rx="0.827" ry="1.189" transform="translate(79.221 70.537) rotate(-7.068)" fill="#e6e6e6"/>
    <ellipse id="Ellipse_151" data-name="Ellipse 151" cx="1.881" cy="1.308" rx="1.881" ry="1.308" transform="translate(159.526 22.318) rotate(-14.913)" fill="#e6e6e6"/>
    <ellipse id="Ellipse_152" data-name="Ellipse 152" cx="1.881" cy="1.308" rx="1.881" ry="1.308" transform="translate(147.233 22.546) rotate(-14.913)" fill="#e6e6e6"/>
    <ellipse id="Ellipse_153" data-name="Ellipse 153" cx="1.881" cy="1.308" rx="1.881" ry="1.308" transform="translate(161.71 12.09) rotate(-14.913)" fill="#e6e6e6"/>
    <ellipse id="Ellipse_154" data-name="Ellipse 154" cx="0.827" cy="1.189" rx="0.827" ry="1.189" transform="translate(166.713 7.53) rotate(-7.068)" fill="#e6e6e6"/>
    <ellipse id="Ellipse_155" data-name="Ellipse 155" cx="0.827" cy="1.189" rx="0.827" ry="1.189" transform="translate(167.63 -0.186) rotate(-7.068)" fill="#e6e6e6"/>
    <ellipse id="Ellipse_156" data-name="Ellipse 156" cx="0.827" cy="1.189" rx="0.827" ry="1.189" transform="translate(155.239 14.648) rotate(-7.068)" fill="#e6e6e6"/>
    <ellipse id="Ellipse_157" data-name="Ellipse 157" cx="0.827" cy="1.189" rx="0.827" ry="1.189" transform="translate(161.454 16.897) rotate(-7.068)" fill="#e6e6e6"/>
    <ellipse id="Ellipse_158" data-name="Ellipse 158" cx="0.827" cy="1.189" rx="0.827" ry="1.189" transform="translate(153.908 23.269) rotate(-7.068)" fill="#e6e6e6"/>
    <path id="Path_1010" data-name="Path 1010" d="M582.261,310.16c-2.011,0-3.319-.5-3.9-1.493-1.141-1.959.77-5.4,5.681-10.217l.413.42c-4.562,4.478-6.545,7.852-5.585,9.5.608,1.043,2.416,1.417,5.231,1.08a53.023,53.023,0,0,0,11.007-2.955c9.283-3.35,20.929-9,32.794-15.913s22.525-14.254,30.019-20.677c1.439-1.234,2.746-2.421,3.883-3.528a38.656,38.656,0,0,0,4.117-4.589c1.681-2.282,2.248-4.04,1.641-5.083-1.015-1.742-5.278-1.578-12,.462l-.171-.564c7.217-2.188,11.485-2.254,12.684-.195.745,1.28.182,3.207-1.675,5.729a39.242,39.242,0,0,1-4.181,4.661c-1.146,1.116-2.461,2.311-3.91,3.553-7.52,6.445-18.212,13.81-30.105,20.738s-23.575,12.6-32.89,15.958a53.566,53.566,0,0,1-11.137,2.986A16.228,16.228,0,0,1,582.261,310.16Z" transform="translate(-498.624 -236.78)" fill="#3f3d56"/>
  </g>
</svg>
