<svg id="Globe_Icon" xmlns="http://www.w3.org/2000/svg" width="51.363" height="51.363" viewBox="0 0 51.363 51.363">
  <path id="Path_920" data-name="Path 920" d="M25.681,0A25.682,25.682,0,1,1,0,25.681,25.684,25.684,0,0,1,25.681,0Zm7.054,2.715A24.208,24.208,0,0,1,49.066,22.4l-.816-.087a4.045,4.045,0,0,0-.278,1.393c0,.664.836,1.108.836,2.509,0,.375-.882,1.126-.92,1.257l-1.309-1.536v1.952l-.2-.008-.353-3.6-.731.23-.87-2.679-2.865,2.991-.034,2.19-.935.627L39.6,22.025,39,22.459l-1.346-1.816-2.012.06-.771-.881-.789.217-1.552-1.778-.3.2.961,2.457H34.31v-.558h.557c.4,1.111.836.453.836,1.116,0,2.319-2.864,4.023-4.74,4.46.1.419.061.837.557.837,1.05,0,.528-.184,1.673-.279-.053,2.369-2.717,5.2-3.854,6.961l.509,3.632c.134.789-1.638,1.624-2.241,2.512l.289,1.392-.816.33a3.465,3.465,0,0,1-3.087,3.015H22.322c0-1.957-1.394-4.751-1.394-6.134,0-1.175.557-1.333.557-2.788,0-1.344-1.393-3.272-1.393-3.624v-2.23H18.976c-.166-.622-.064-.836-.836-.836h-.279c-1.218,0-1.012.557-2.23.557H14.515c-1.006,0-2.788-3.227-2.788-3.624V22.315a5.2,5.2,0,0,1,2.23-3.625V17.3l1.255-1.276.7-.119c1.5,0,1.318-.836,2.23-.836h2.51v1.952L23.408,18.2l.26-1.19c1.25.293,1.575.849,3.116.849h.557c1.058,0,1.115-1.4,1.115-2.509l-2.233.221-.971-2.117-.966.257c.173.757.268.443.268,1.081,0,.376-.31.418-.558.558l-.966-2.452-2.077-1.483-.276.271,1.769,1.861c-.235.668-.263,2.6-1.238,1.245l.912-.439-2.273-2.382-1.362.533L17.14,13.787c-.14,1.037-.423,1.559-1.508,1.559-.722,0-.286-.187-1.394-.279V12.28h2.509l-.813-1.857-.3.184v-.558L19.706,8.17c-.077-.585-.171-.271-.171-.909,0-.038.274-.553.279-.558l1.054.654-.252-1.2-1.626.334-.3-1.459c1.289-.679,4.126-3.068,5.028-3.068h.837a7.63,7.63,0,0,1,3.624,1.393L25.94,3.131,27.6,4.5l.159-.583L29,3.576l.015-.775h.558v.836l3.164-.921ZM48.89,30.027q-.1.528-.214,1.047l-.128-.9.342-.147Zm-.8,3.161c-.061.186-.124.374-.19.558h-.2v-.558ZM4.915,38.949a24.045,24.045,0,0,1-3.309-7.618l4.523,2.181.023,1.35c0,.5-.846,1.551-1.115,1.952l-.122,2.136Z" fill="#172033" fill-rule="evenodd"/>
</svg>
