<svg xmlns="http://www.w3.org/2000/svg" width="54.205" height="52.575" viewBox="0 0 54.205 52.575">
  <g id="HappyCustomer_Icon" transform="translate(0 0.004)">
    <path id="Path_918" data-name="Path 918" d="M39.606,18.963a2.129,2.129,0,0,0-1.544-1.323l.132-6.351A8.4,8.4,0,0,0,35.813,5.6C33.52,3.085,27.566-.09,23.9,0c-1.544.044-.882,2.249-2.293,2.779a13.127,13.127,0,0,0-2.249,1.059,8.956,8.956,0,0,0-4.1,5.2c-.132.441-.221.882-.309,1.323-.044.838-.044,1.72-.044,2.6,0,1.455.044,2.955.132,4.411a2.766,2.766,0,0,0-1.852,2.514c0,1.72,1.72,3.7,2.646,5.2h0c.353.573,4.278,5.381,4.278,5.469C20.244,37,0,33.606,0,48.469H32.638a13.1,13.1,0,0,1,2.338-14.863c-1.455-.75-2.338-1.676-2.249-3,0-.044,3.44-4.058,4.322-5.513C38.019,23.462,40.092,20.992,39.606,18.963Z" transform="translate(0 0)" fill="#172033" fill-rule="evenodd"/>
    <path id="Path_919" data-name="Path 919" d="M88.135,74.6h0a9.835,9.835,0,1,0,9.835,9.835A9.844,9.844,0,0,0,88.135,74.6Zm6.219,11.159a1.63,1.63,0,0,1-.617,1.632,2.7,2.7,0,0,1-.309,1.1c-.353.485-.617.353-1.191.353H87.915a1.6,1.6,0,0,1-1.5-.75s-.353-.353-.485.309v.044a.4.4,0,0,1-.4.4H82.755a.4.4,0,0,1-.4-.4V83.024a.4.4,0,0,1,.4-.4h2.779a.424.424,0,0,1,.4.309h0v.044a.393.393,0,0,0,.485.309c1.279-.353,1.985-2.117,2.338-3.264v-1.5c.221-1.1,2.029-.088,2.117,1.676a7.083,7.083,0,0,1-.176,1.852h2.558c1.059.044,1.985.794,1.323,2.073C94.8,84.7,94.8,85.494,94.354,85.759Z" transform="translate(-43.766 -41.7)" fill="#172033" fill-rule="evenodd"/>
  </g>
</svg>
