<svg id="Fact2_illu" xmlns="http://www.w3.org/2000/svg" width="170.271" height="134.049" viewBox="0 0 170.271 134.049">
  <rect id="Rectangle_542" data-name="Rectangle 542" width="154.512" height="98.956" transform="translate(0.066 0.088)" fill="#e6e6e6"/>
  <rect id="Rectangle_543" data-name="Rectangle 543" width="145.675" height="80.69" transform="translate(4.484 12.499)" fill="#fff"/>
  <rect id="Rectangle_544" data-name="Rectangle 544" width="154.512" height="6.564" fill="#f9b827"/>
  <circle id="Ellipse_129" data-name="Ellipse 129" cx="1.217" cy="1.217" r="1.217" transform="translate(3.661 2.139)" fill="#fff"/>
  <circle id="Ellipse_130" data-name="Ellipse 130" cx="1.217" cy="1.217" r="1.217" transform="translate(8.279 2.139)" fill="#fff"/>
  <circle id="Ellipse_131" data-name="Ellipse 131" cx="1.217" cy="1.217" r="1.217" transform="translate(12.897 2.139)" fill="#fff"/>
  <rect id="Rectangle_545" data-name="Rectangle 545" width="37.432" height="63.946" transform="translate(17.721 20.871)" fill="#e6e6e6"/>
  <rect id="Rectangle_546" data-name="Rectangle 546" width="31.193" height="17.602" transform="translate(61.614 20.871)" fill="#f9b827"/>
  <rect id="Rectangle_547" data-name="Rectangle 547" width="31.193" height="18.939" transform="translate(61.614 43.375)" fill="#e6e6e6"/>
  <rect id="Rectangle_548" data-name="Rectangle 548" width="31.193" height="17.602" transform="translate(61.614 67.216)" fill="#e6e6e6"/>
  <rect id="Rectangle_549" data-name="Rectangle 549" width="37.432" height="27.867" transform="translate(99.491 20.871)" fill="#e6e6e6"/>
  <rect id="Rectangle_550" data-name="Rectangle 550" width="37.432" height="27.867" transform="translate(99.491 56.95)" fill="#e6e6e6"/>
  <path id="Path_963" data-name="Path 963" d="M755.712,337.682v-6a8.039,8.039,0,1,1,16.078,0v6a1.081,1.081,0,0,1-1.08,1.08H756.792A1.081,1.081,0,0,1,755.712,337.682Z" transform="translate(-633.209 -286.941)" fill="#2f2e41"/>
  <path id="Path_964" data-name="Path 964" d="M570.674,502.149l-2.835.785-4.376-10.563,4.185-1.158Z" transform="translate(-428.244 -373.333)" fill="#ffb8b8"/>
  <path id="Path_965" data-name="Path 965" d="M3.573,0H9.247V3.573H0A3.572,3.572,0,0,1,3.573,0Z" transform="translate(133.902 130.303) rotate(-15.47)" fill="#2f2e41"/>
  <path id="Path_966" data-name="Path 966" d="M456.577,509.935h-2.942l-1.4-11.348h4.342Z" transform="translate(-343.709 -378.938)" fill="#ffb8b8"/>
  <path id="Path_967" data-name="Path 967" d="M438,542.372h5.674v3.573h-9.247A3.572,3.572,0,0,1,438,542.372Z" transform="translate(-330.172 -412.215)" fill="#2f2e41"/>
  <path id="Path_968" data-name="Path 968" d="M699.239,440a2.413,2.413,0,0,0,3.694.22l7.821,3.518-.711-4.4-7.318-2.666A2.426,2.426,0,0,0,699.239,440Z" transform="translate(-589.919 -372.426)" fill="#ffb8b8"/>
  <path id="Path_969" data-name="Path 969" d="M729.625,463.509a15.864,15.864,0,0,1-7.139-1.455,9.219,9.219,0,0,1-4.73-5.655c-1.114-3.527.291-6.993,1.649-10.344a23.117,23.117,0,0,0,1.843-5.972l.072-.686c.321-3.083.6-5.746,2.135-6.745a3.735,3.735,0,0,1,3.273-.09l13.21,4.291-.486,25.075-.08.027A35.08,35.08,0,0,1,729.625,463.509Z" transform="translate(-604.056 -369.478)" fill="#2f2e41"/>
  <path id="Path_970" data-name="Path 970" d="M742.9,396.739s6.479-1.92,11.519-1.2c0,0-2.88,15.838-1.92,21.118s-16.678,2.04-13.079-3l1.2-6a4,4,0,0,1-.24-5.279Z" transform="translate(-620.462 -341.461)" fill="#f9b827"/>
  <path id="Path_971" data-name="Path 971" d="M716.891,436.57l-7.986-1.5,2.788-21.456c.187-.6,4.506-14.193,6.468-14.928a33.474,33.474,0,0,1,4.359-1.211l.284-.057-1.6,2.4L714.829,415.1Z" transform="translate(-597.635 -343.013)" fill="#2f2e41"/>
  <path id="Path_972" data-name="Path 972" d="M692.166,522.892l-10.318-1.72,5.79-23.643,8.616-32.334.085.574c.007.043.812,4.267,12.755,2.392l.105-.016.029.1,14.435,51-11.757,1.959L701.184,484Z" transform="translate(-577.071 -394.524)" fill="#2f2e41"/>
  <path id="Path_973" data-name="Path 973" d="M784.436,438.171l.006-.181c.007-.2.717-20.247.48-28.309a44.47,44.47,0,0,1,2.407-15.165l.021-.056.058-.017c3.388-.968,6.328,1.921,6.357,1.95l.041.041-.965,7.962,4.131,28.951Z" transform="translate(-655.04 -340.6)" fill="#2f2e41"/>
  <circle id="Ellipse_132" data-name="Ellipse 132" cx="5.894" cy="5.894" r="5.894" transform="translate(122.996 39.893)" fill="#ffb8b8"/>
  <path id="Path_974" data-name="Path 974" d="M747.787,339a6.367,6.367,0,0,1,6.359-6.359h1.2A6.367,6.367,0,0,1,761.706,339v.12H759.17L758.3,336.7l-.173,2.422h-1.31l-.436-1.222-.087,1.222h-8.511Z" transform="translate(-627.186 -293.781)" fill="#2f2e41"/>
  <path id="Path_975" data-name="Path 975" d="M779.252,354.708a1.064,1.064,0,0,1-.085-1.13c1.271-2.418,3.052-6.887.689-9.643l-.17-.2h6.86v10.3l-6.232,1.1a1.1,1.1,0,0,1-.191.017,1.075,1.075,0,0,1-.871-.445Z" transform="translate(-650.942 -302.213)" fill="#2f2e41"/>
  <path id="Path_976" data-name="Path 976" d="M496.017,188.057a32.4,32.4,0,1,0,1.837,47.852L537.6,269.445a2.986,2.986,0,1,0,3.855-4.56l0,0L501.7,231.345A32.4,32.4,0,0,0,496.017,188.057Zm-2.562,40.059a24.276,24.276,0,1,1-2.9-34.208h0a24.276,24.276,0,0,1,2.9,34.208Z" transform="translate(-395.327 -178.087)" fill="#3f3d56"/>
  <path id="Path_977" data-name="Path 977" d="M476.154,287.9a24.277,24.277,0,0,1-4.119-32.634q-.7.7-1.346,1.469a24.275,24.275,0,1,0,37.106,31.31q.648-.769,1.221-1.574a24.277,24.277,0,0,1-32.862,1.43Z" transform="translate(-412.235 -234.972)" opacity="0.3"/>
  <path id="Path_978" data-name="Path 978" d="M784.308,471.76a2.413,2.413,0,0,0,2.981-2.192l8.263-2.294-3.359-2.928-7.332,2.627a2.426,2.426,0,0,0-.554,4.787Z" transform="translate(-653.525 -393.879)" fill="#ffb8b8"/>
  <path id="Path_979" data-name="Path 979" d="M802.933,423.875l-.5-4.777,6.9-3.808-4.5-5.448.734-6.119,1.828-.784.057.073c.862,1.109,8.424,10.866,8.424,12.073,0,1.239-1.447,4.877-3.426,5.867-1.909.955-9.079,2.81-9.383,2.889Z" transform="translate(-668.716 -347.208)" fill="#2f2e41"/>
  <path id="Path_980" data-name="Path 980" d="M663.437,727.777H572.006a.24.24,0,1,1,0-.48h91.431a.24.24,0,1,1,0,.48Z" transform="translate(-493.406 -593.727)" fill="#ccc"/>
</svg>
